M48
;GenerationSoftware,Autodesk,EAGLE,9.6.1*%
;CreationDate,2020-05-25T21:35:31Z*%
FMAT,2
ICI,OFF
METRIC,TZ,000.000
T8C0.300
T7C0.350
T6C0.400
T5C1.000
T4C1.280
T3C1.700
T2C2.050
%
G90
M71
T2
X2000Y38000
X38000Y38000
X38000Y2000
X2000Y2000
T3
X37900Y12200
X37900Y17200
T4
X30000Y1600
X19800Y1600
X9800Y1600
T5
X47900Y20200
X47900Y9200
T6
X10500Y31600
X1600Y10600
X1600Y9700
X8700Y31600
T7
X9500Y17000
X26621Y35479
X49700Y25848
X25800Y36100
X49700Y26655
X23200Y21400
X22300Y20000
X20212Y17712
X6600Y26000
X4300Y26200
X20000Y20000
X15500Y22100
X1700Y15600
X25200Y34100
X49700Y25040
X17618Y20342
T8
X15900Y6400
X31500Y5800
X15900Y5800
X16500Y5800
X16500Y6400
X17100Y6400
X17100Y5800
X17700Y5800
X17700Y6400
X18300Y6400
X31500Y6400
X18300Y5800
X15900Y5200
X15900Y4600
X27300Y7000
X16500Y4600
X16500Y5200
X17100Y5200
X17100Y4600
X17700Y4600
X17700Y5200
X18300Y5200
X18300Y4600
X32700Y5800
X31500Y5200
X31500Y4600
X30900Y4600
X30900Y5200
X33300Y5800
X32100Y5200
X32100Y4600
X32700Y4600
X32700Y5200
X33300Y6400
X32700Y6400
X18900Y4600
X33300Y5200
X33300Y4600
X15300Y6400
X15300Y5800
X32100Y5800
X32100Y6400
X15300Y5200
X15300Y4600
X18900Y6400
X18900Y5800
X18900Y5200
X28500Y7000
X12000Y5100
X12600Y5100
X12600Y4500
X31700Y27700
X9700Y25029
X14303Y26203
X14600Y30300
X13900Y26900
X8711Y19589
X8900Y18100
X43500Y25500
X42800Y26500
X12000Y4500
X28500Y6400
X28500Y5800
X28500Y5200
X25500Y7000
X25500Y6400
X26100Y6400
X26100Y7000
X26700Y7000
X26700Y6400
X27300Y6400
X27300Y5200
X11400Y6300
X9600Y5700
X9600Y5100
X9600Y4500
X13200Y6300
X13200Y5700
X13200Y5100
X13200Y4500
X10200Y6300
X10200Y5700
X10800Y5700
X10800Y6300
X9600Y6300
X11400Y5700
X12000Y5700
X12000Y6300
X12600Y6300
X12600Y5700
X10200Y5100
X10200Y4500
X10800Y4500
X10800Y5100
X11400Y5100
X11400Y4500
X17900Y9400
X13200Y7400
X11000Y10000
X11000Y9400
X10400Y10000
X10400Y9400
X13200Y8000
X11000Y8800
X10400Y8800
X11400Y8000
X12000Y8000
X12600Y8000
X17900Y10000
X12600Y7400
X17900Y8800
X19100Y10000
X19100Y9400
X18500Y10000
X18500Y9400
X19100Y8800
X18500Y8800
X15400Y8200
X16000Y8200
X15400Y10000
X15400Y9400
X15400Y8800
X13500Y10000
X30900Y22000
X9200Y34900
X16000Y31300
X1500Y35100
X22800Y38600
X26012Y22200
X21900Y22300
X22600Y23845
X21405Y23500
X12300Y10000
X12300Y9400
X12300Y8800
X17600Y7400
X13500Y9400
X12900Y10000
X12900Y9400
X13500Y8800
X12900Y8800
X9800Y8200
X10400Y8200
X9800Y10000
X9800Y9400
X9800Y8800
X12000Y7400
X11400Y7400
X31300Y8800
X30700Y9400
X30700Y8800
X32900Y7400
X32300Y7400
X33500Y7400
X34100Y7400
X31900Y10000
X31900Y9400
X31300Y10000
X31300Y9400
X34100Y8000
X31900Y8800
X30700Y10000
X32300Y8000
X32900Y8000
X33500Y8000
X12200Y16600
X10995Y17205
X13300Y16200
X14800Y17400
X33900Y6400
X33900Y5800
X33900Y5200
X33900Y4600
X30900Y6400
X18200Y8000
X17000Y7400
X18200Y7400
X18800Y7400
X16600Y10000
X16600Y9400
X16000Y10000
X16000Y9400
X18800Y8000
X16600Y8800
X16000Y8800
X17000Y8000
X17600Y8000
X30900Y5800
X33200Y10000
X33200Y9400
X33200Y8800
X34400Y10000
X34400Y9400
X33800Y10000
X33800Y9400
X34400Y8800
X33800Y8800
X30700Y8200
X31300Y8200
X28400Y12700
X23600Y12700
X24200Y12700
X24200Y13300
X25400Y12700
X25400Y13300
X26000Y13300
X26000Y12700
X26600Y12700
X26600Y13300
X27200Y12700
X27200Y13300
X27800Y13300
X27800Y12700
X23600Y13300
X28400Y13300
X10000Y13400
X10000Y14000
X10600Y14000
X10600Y13400
X11200Y13400
X11200Y14000
X11800Y13400
X11800Y14000
X12400Y14000
X12400Y13400
X13000Y13400
X32800Y14000
X7400Y12700
X7400Y13300
X3200Y12700
X3200Y13300
X3800Y13300
X3800Y12700
X31000Y13400
X31000Y14000
X31600Y14000
X31600Y13400
X32200Y13400
X32200Y14000
X32800Y13400
X13000Y14000
X33400Y14000
X33400Y13400
X34000Y13400
X34000Y14000
X21200Y12700
X21200Y13300
X21800Y13300
X21800Y12700
X22400Y12700
X22400Y13300
X23000Y12700
X23000Y13300
X26905Y32900
X33401Y29995
X16600Y28510
X40100Y31300
X37100Y31500
X23300Y24600
X25200Y23600
X24700Y21400
X30500Y34210
X14900Y25500
X29553Y33753
X15600Y26000
X28400Y33300
X16600Y24500
X17300Y27852
X16085Y25115
X12900Y35300
X12700Y37500
X7400Y34500
X35300Y26500
X29300Y17500
X22590Y30990
X32100Y23700
X22000Y34800
X32300Y32600
X26000Y21000
X19400Y23900
X45000Y11200
X15700Y13400
X15700Y14000
X16300Y14000
X16300Y13400
X16900Y13400
X16900Y14000
X17500Y13400
X17500Y14000
X18100Y14000
X18100Y13400
X18700Y13400
X18700Y14000
X6800Y12700
X45000Y13300
X45000Y15400
X45000Y17500
X5800Y25400
X6800Y22000
X20157Y26445
X22100Y26445
X19200Y25800
X22897Y26303
X33401Y28664
X17700Y27095
X32644Y29422
X5500Y6500
X23400Y5800
X24000Y5800
X24000Y5200
X4300Y7100
X4300Y6500
X4300Y5900
X4300Y5300
X3700Y7100
X3700Y6500
X3700Y5900
X3700Y5300
X4900Y7100
X4900Y6500
X23400Y5200
X5500Y7100
X6100Y7100
X6100Y6500
X6700Y6500
X6700Y7100
X7300Y7100
X7300Y6500
X4900Y5900
X4900Y5300
X5500Y5300
X5500Y5900
X6100Y5900
X22200Y7000
X27900Y6400
X25500Y5800
X25500Y5200
X26100Y5200
X26100Y5800
X26700Y5800
X26700Y5200
X27300Y5800
X27900Y5800
X27900Y5200
X21600Y7000
X21600Y6400
X22200Y6400
X6100Y5300
X22800Y7000
X22800Y6400
X23400Y6400
X23400Y7000
X24000Y7000
X24000Y6400
X21600Y5800
X21600Y5200
X22200Y5200
X22200Y5800
X22800Y5800
X22800Y5200
X12300Y29300
X34800Y32100
X28400Y18600
X31600Y19400
X27100Y24000
X22100Y36100
X11100Y23400
X9700Y22100
X11200Y20600
X12600Y19100
X12600Y22100
X14100Y20700
X14100Y23600
X12600Y24800
X33400Y22800
X6800Y28900
X8700Y29100
X19500Y31200
X4400Y12700
X4400Y13300
X5000Y13300
X5000Y12700
X5600Y12700
X5600Y13300
X6200Y12700
X6200Y13300
X6800Y13300
X1900Y16600
X6700Y5300
X6700Y5900
X7300Y5900
X7300Y5300
X43200Y27900
X19500Y34400
X35600Y29000
X29700Y19400
X19233Y27152
X21200Y24600
X8000Y16000
X1100Y23600
X27900Y7000
X800Y20300
X34700Y25400
X40100Y32400
X24700Y26200
X27100Y26200
X29500Y26200
X29500Y31000
X27100Y31000
X24700Y31000
X4700Y32700
X800Y30700
X4000Y34000
M30