M48
;GenerationSoftware,Autodesk,EAGLE,9.6.1*%
;CreationDate,2020-04-26T23:17:44Z*%
FMAT,2
ICI,OFF
METRIC,TZ,000.000
T5C0.350
T4C0.600
T3C1.000
T2C3.200
%
G90
M71
T2
X3000Y27000
X29000Y27000
X29000Y3000
X3000Y3000
T3
X18600Y3200
X11700Y3200
X14000Y3200
X17000Y28500
X19400Y28500
X22000Y28500
X22200Y3200
X9400Y3200
T4
X21100Y14300
X21500Y6800
X19400Y6800
X25000Y6800
T5
X12600Y26300
X17100Y21900
X13300Y25300
X14900Y10900
X16007Y21900
X16854Y23904
X15200Y23000
X17300Y24700
X14100Y22900
X16800Y18800
X29200Y17340
X5700Y10500
X25200Y13800
X23902Y12400
X15600Y7700
X26400Y11200
X16119Y18319
X29200Y16460
X9800Y22100
X20700Y20000
X8658Y13000
X23095Y13207
X7517Y13000
X15200Y22100
X9800Y13000
X22288Y12400
X11700Y6500
X11700Y9800
X6800Y17300
X6400Y8700
X6900Y15900
X7000Y11300
X17900Y25300
X29800Y6800
X18600Y22500
X9300Y19800
X9300Y17400
X9300Y15000
X11700Y15000
X11700Y17400
X11700Y19800
X14100Y19800
X14100Y17400
X14100Y15000
X23200Y7500
X16600Y16600
X20700Y11100
X1900Y10000
X9000Y9700
X1900Y8000
X1800Y21300
X1800Y19300
X1800Y17300
X1800Y15200
X25900Y23900
X24800Y26800
X16300Y10000
X17900Y23900
X4600Y11900
X4600Y7000
X22800Y27300
X17400Y14100
X5800Y13200
X5600Y16400
X22100Y22400
X8000Y28800
X19100Y13600
X28100Y13000
X28100Y14100
X10700Y6500
X12700Y9800
X21300Y21700
X19700Y18000
X1800Y23300
X10700Y25900
X10800Y27700
X12100Y11900
X16300Y15200
M30