G04 EAGLE Gerber RS-274X export*
G75*
%MOMM*%
%FSLAX34Y34*%
%LPD*%
%INCopper Layer 2*%
%IPPOS*%
%AMOC8*
5,1,8,0,0,1.08239X$1,22.5*%
G01*
%ADD10C,2.550000*%
%ADD11C,1.500000*%
%ADD12C,1.980000*%
%ADD13C,1.524000*%
%ADD14C,1.950000*%
%ADD15C,1.200000*%
%ADD16C,4.216000*%
%ADD17C,0.654800*%


D10*
X769400Y584800D03*
X769400Y534800D03*
D11*
X819400Y504800D03*
X819400Y614800D03*
D10*
X769400Y446900D03*
X769400Y396900D03*
D11*
X819400Y366900D03*
X819400Y476900D03*
D10*
X769400Y309000D03*
X769400Y259000D03*
D11*
X819400Y229000D03*
X819400Y339000D03*
D10*
X769400Y171100D03*
X769400Y121100D03*
D11*
X819400Y91100D03*
X819400Y201100D03*
D12*
X513070Y573000D03*
X563870Y573000D03*
X563870Y347000D03*
X513070Y347000D03*
D13*
X819720Y785500D03*
X819700Y815500D03*
X789700Y815500D03*
X789700Y785500D03*
X819720Y675800D03*
X819700Y705800D03*
X789700Y705800D03*
X789700Y675800D03*
D14*
X518400Y702100D03*
X518400Y752900D03*
X721600Y625900D03*
X721600Y727500D03*
X721600Y829100D03*
X518400Y829100D03*
X257100Y702100D03*
X257100Y752900D03*
X460300Y625900D03*
X460300Y727500D03*
X460300Y829100D03*
X257100Y829100D03*
D15*
X696980Y341090D03*
X696980Y306090D03*
X696980Y257430D03*
X696980Y222430D03*
X608980Y90120D03*
X608980Y55120D03*
X608980Y173775D03*
X608980Y138775D03*
X608980Y257430D03*
X608980Y222430D03*
X696980Y90120D03*
X696980Y55120D03*
X696980Y173770D03*
X696980Y138770D03*
D16*
X90000Y890000D03*
X890000Y890000D03*
X390000Y890000D03*
X890000Y30000D03*
X390000Y30000D03*
X90000Y30000D03*
D17*
X219000Y321000D03*
X229000Y392000D03*
X177000Y235000D03*
X179000Y331000D03*
X177000Y157000D03*
X165000Y429000D03*
X192964Y287000D03*
X215000Y285000D03*
X186000Y390000D03*
X207000Y428000D03*
X156000Y397000D03*
X140000Y413000D03*
X193000Y481000D03*
X177000Y453000D03*
X247000Y481000D03*
X217000Y454000D03*
X219000Y344000D03*
X248000Y354000D03*
X248000Y408000D03*
X216000Y415000D03*
M02*
