G04 EAGLE Gerber RS-274X export*
G75*
%MOMM*%
%FSLAX34Y34*%
%LPD*%
%IN*%
%IPPOS*%
%AMOC8*
5,1,8,0,0,1.08239X$1,22.5*%
G01*
%ADD10C,0.254000*%


D10*
X0Y30000D02*
X114Y27385D01*
X456Y24791D01*
X1022Y22235D01*
X1809Y19739D01*
X2811Y17321D01*
X4019Y15000D01*
X5425Y12793D01*
X7019Y10716D01*
X8787Y8787D01*
X10716Y7019D01*
X12793Y5425D01*
X15000Y4019D01*
X17321Y2811D01*
X19739Y1809D01*
X22235Y1022D01*
X24791Y456D01*
X27385Y114D01*
X30000Y0D01*
X890000Y0D01*
X892615Y114D01*
X895209Y456D01*
X897765Y1022D01*
X900261Y1809D01*
X902679Y2811D01*
X905000Y4019D01*
X907207Y5425D01*
X909284Y7019D01*
X911213Y8787D01*
X912981Y10716D01*
X914575Y12793D01*
X915981Y15000D01*
X917189Y17321D01*
X918191Y19739D01*
X918978Y22235D01*
X919544Y24791D01*
X919886Y27385D01*
X920000Y30000D01*
X920000Y890000D01*
X919886Y892615D01*
X919544Y895209D01*
X918978Y897765D01*
X918191Y900261D01*
X917189Y902679D01*
X915981Y905000D01*
X914575Y907207D01*
X912981Y909284D01*
X911213Y911213D01*
X909284Y912981D01*
X907207Y914575D01*
X905000Y915981D01*
X902679Y917189D01*
X900261Y918191D01*
X897765Y918978D01*
X895209Y919544D01*
X892615Y919886D01*
X890000Y920000D01*
X30000Y920000D01*
X27385Y919886D01*
X24791Y919544D01*
X22235Y918978D01*
X19739Y918191D01*
X17321Y917189D01*
X15000Y915981D01*
X12793Y914575D01*
X10716Y912981D01*
X8787Y911213D01*
X7019Y909284D01*
X5425Y907207D01*
X4019Y905000D01*
X2811Y902679D01*
X1809Y900261D01*
X1022Y897765D01*
X456Y895209D01*
X114Y892615D01*
X0Y890000D01*
X0Y30000D01*
X407000Y889443D02*
X406927Y888333D01*
X406782Y887229D01*
X406565Y886138D01*
X406277Y885063D01*
X405919Y884009D01*
X405493Y882980D01*
X405001Y881982D01*
X404444Y881018D01*
X403826Y880093D01*
X403148Y879210D01*
X402414Y878373D01*
X401627Y877586D01*
X400790Y876852D01*
X399907Y876174D01*
X398982Y875556D01*
X398018Y874999D01*
X397020Y874507D01*
X395991Y874081D01*
X394937Y873723D01*
X393862Y873435D01*
X392771Y873218D01*
X391667Y873073D01*
X390557Y873000D01*
X389443Y873000D01*
X388333Y873073D01*
X387229Y873218D01*
X386138Y873435D01*
X385063Y873723D01*
X384009Y874081D01*
X382980Y874507D01*
X381982Y874999D01*
X381018Y875556D01*
X380093Y876174D01*
X379210Y876852D01*
X378373Y877586D01*
X377586Y878373D01*
X376852Y879210D01*
X376174Y880093D01*
X375556Y881018D01*
X374999Y881982D01*
X374507Y882980D01*
X374081Y884009D01*
X373723Y885063D01*
X373435Y886138D01*
X373218Y887229D01*
X373073Y888333D01*
X373000Y889443D01*
X373000Y890557D01*
X373073Y891667D01*
X373218Y892771D01*
X373435Y893862D01*
X373723Y894937D01*
X374081Y895991D01*
X374507Y897020D01*
X374999Y898018D01*
X375556Y898982D01*
X376174Y899907D01*
X376852Y900790D01*
X377586Y901627D01*
X378373Y902414D01*
X379210Y903148D01*
X380093Y903826D01*
X381018Y904444D01*
X381982Y905001D01*
X382980Y905493D01*
X384009Y905919D01*
X385063Y906277D01*
X386138Y906565D01*
X387229Y906782D01*
X388333Y906927D01*
X389443Y907000D01*
X390557Y907000D01*
X391667Y906927D01*
X392771Y906782D01*
X393862Y906565D01*
X394937Y906277D01*
X395991Y905919D01*
X397020Y905493D01*
X398018Y905001D01*
X398982Y904444D01*
X399907Y903826D01*
X400790Y903148D01*
X401627Y902414D01*
X402414Y901627D01*
X403148Y900790D01*
X403826Y899907D01*
X404444Y898982D01*
X405001Y898018D01*
X405493Y897020D01*
X405919Y895991D01*
X406277Y894937D01*
X406565Y893862D01*
X406782Y892771D01*
X406927Y891667D01*
X407000Y890557D01*
X407000Y889443D01*
X107000Y889443D02*
X106927Y888333D01*
X106782Y887229D01*
X106565Y886138D01*
X106277Y885063D01*
X105919Y884009D01*
X105493Y882980D01*
X105001Y881982D01*
X104444Y881018D01*
X103826Y880093D01*
X103148Y879210D01*
X102414Y878373D01*
X101627Y877586D01*
X100790Y876852D01*
X99907Y876174D01*
X98982Y875556D01*
X98018Y874999D01*
X97020Y874507D01*
X95991Y874081D01*
X94937Y873723D01*
X93862Y873435D01*
X92771Y873218D01*
X91667Y873073D01*
X90557Y873000D01*
X89443Y873000D01*
X88333Y873073D01*
X87229Y873218D01*
X86138Y873435D01*
X85063Y873723D01*
X84009Y874081D01*
X82980Y874507D01*
X81982Y874999D01*
X81018Y875556D01*
X80093Y876174D01*
X79210Y876852D01*
X78373Y877586D01*
X77586Y878373D01*
X76852Y879210D01*
X76174Y880093D01*
X75556Y881018D01*
X74999Y881982D01*
X74507Y882980D01*
X74081Y884009D01*
X73723Y885063D01*
X73435Y886138D01*
X73218Y887229D01*
X73073Y888333D01*
X73000Y889443D01*
X73000Y890557D01*
X73073Y891667D01*
X73218Y892771D01*
X73435Y893862D01*
X73723Y894937D01*
X74081Y895991D01*
X74507Y897020D01*
X74999Y898018D01*
X75556Y898982D01*
X76174Y899907D01*
X76852Y900790D01*
X77586Y901627D01*
X78373Y902414D01*
X79210Y903148D01*
X80093Y903826D01*
X81018Y904444D01*
X81982Y905001D01*
X82980Y905493D01*
X84009Y905919D01*
X85063Y906277D01*
X86138Y906565D01*
X87229Y906782D01*
X88333Y906927D01*
X89443Y907000D01*
X90557Y907000D01*
X91667Y906927D01*
X92771Y906782D01*
X93862Y906565D01*
X94937Y906277D01*
X95991Y905919D01*
X97020Y905493D01*
X98018Y905001D01*
X98982Y904444D01*
X99907Y903826D01*
X100790Y903148D01*
X101627Y902414D01*
X102414Y901627D01*
X103148Y900790D01*
X103826Y899907D01*
X104444Y898982D01*
X105001Y898018D01*
X105493Y897020D01*
X105919Y895991D01*
X106277Y894937D01*
X106565Y893862D01*
X106782Y892771D01*
X106927Y891667D01*
X107000Y890557D01*
X107000Y889443D01*
X107000Y29443D02*
X106927Y28333D01*
X106782Y27229D01*
X106565Y26138D01*
X106277Y25063D01*
X105919Y24009D01*
X105493Y22980D01*
X105001Y21982D01*
X104444Y21018D01*
X103826Y20093D01*
X103148Y19210D01*
X102414Y18373D01*
X101627Y17586D01*
X100790Y16852D01*
X99907Y16174D01*
X98982Y15556D01*
X98018Y14999D01*
X97020Y14507D01*
X95991Y14081D01*
X94937Y13723D01*
X93862Y13435D01*
X92771Y13218D01*
X91667Y13073D01*
X90557Y13000D01*
X89443Y13000D01*
X88333Y13073D01*
X87229Y13218D01*
X86138Y13435D01*
X85063Y13723D01*
X84009Y14081D01*
X82980Y14507D01*
X81982Y14999D01*
X81018Y15556D01*
X80093Y16174D01*
X79210Y16852D01*
X78373Y17586D01*
X77586Y18373D01*
X76852Y19210D01*
X76174Y20093D01*
X75556Y21018D01*
X74999Y21982D01*
X74507Y22980D01*
X74081Y24009D01*
X73723Y25063D01*
X73435Y26138D01*
X73218Y27229D01*
X73073Y28333D01*
X73000Y29443D01*
X73000Y30557D01*
X73073Y31667D01*
X73218Y32771D01*
X73435Y33862D01*
X73723Y34937D01*
X74081Y35991D01*
X74507Y37020D01*
X74999Y38018D01*
X75556Y38982D01*
X76174Y39907D01*
X76852Y40790D01*
X77586Y41627D01*
X78373Y42414D01*
X79210Y43148D01*
X80093Y43826D01*
X81018Y44444D01*
X81982Y45001D01*
X82980Y45493D01*
X84009Y45919D01*
X85063Y46277D01*
X86138Y46565D01*
X87229Y46782D01*
X88333Y46927D01*
X89443Y47000D01*
X90557Y47000D01*
X91667Y46927D01*
X92771Y46782D01*
X93862Y46565D01*
X94937Y46277D01*
X95991Y45919D01*
X97020Y45493D01*
X98018Y45001D01*
X98982Y44444D01*
X99907Y43826D01*
X100790Y43148D01*
X101627Y42414D01*
X102414Y41627D01*
X103148Y40790D01*
X103826Y39907D01*
X104444Y38982D01*
X105001Y38018D01*
X105493Y37020D01*
X105919Y35991D01*
X106277Y34937D01*
X106565Y33862D01*
X106782Y32771D01*
X106927Y31667D01*
X107000Y30557D01*
X107000Y29443D01*
X407000Y29443D02*
X406927Y28333D01*
X406782Y27229D01*
X406565Y26138D01*
X406277Y25063D01*
X405919Y24009D01*
X405493Y22980D01*
X405001Y21982D01*
X404444Y21018D01*
X403826Y20093D01*
X403148Y19210D01*
X402414Y18373D01*
X401627Y17586D01*
X400790Y16852D01*
X399907Y16174D01*
X398982Y15556D01*
X398018Y14999D01*
X397020Y14507D01*
X395991Y14081D01*
X394937Y13723D01*
X393862Y13435D01*
X392771Y13218D01*
X391667Y13073D01*
X390557Y13000D01*
X389443Y13000D01*
X388333Y13073D01*
X387229Y13218D01*
X386138Y13435D01*
X385063Y13723D01*
X384009Y14081D01*
X382980Y14507D01*
X381982Y14999D01*
X381018Y15556D01*
X380093Y16174D01*
X379210Y16852D01*
X378373Y17586D01*
X377586Y18373D01*
X376852Y19210D01*
X376174Y20093D01*
X375556Y21018D01*
X374999Y21982D01*
X374507Y22980D01*
X374081Y24009D01*
X373723Y25063D01*
X373435Y26138D01*
X373218Y27229D01*
X373073Y28333D01*
X373000Y29443D01*
X373000Y30557D01*
X373073Y31667D01*
X373218Y32771D01*
X373435Y33862D01*
X373723Y34937D01*
X374081Y35991D01*
X374507Y37020D01*
X374999Y38018D01*
X375556Y38982D01*
X376174Y39907D01*
X376852Y40790D01*
X377586Y41627D01*
X378373Y42414D01*
X379210Y43148D01*
X380093Y43826D01*
X381018Y44444D01*
X381982Y45001D01*
X382980Y45493D01*
X384009Y45919D01*
X385063Y46277D01*
X386138Y46565D01*
X387229Y46782D01*
X388333Y46927D01*
X389443Y47000D01*
X390557Y47000D01*
X391667Y46927D01*
X392771Y46782D01*
X393862Y46565D01*
X394937Y46277D01*
X395991Y45919D01*
X397020Y45493D01*
X398018Y45001D01*
X398982Y44444D01*
X399907Y43826D01*
X400790Y43148D01*
X401627Y42414D01*
X402414Y41627D01*
X403148Y40790D01*
X403826Y39907D01*
X404444Y38982D01*
X405001Y38018D01*
X405493Y37020D01*
X405919Y35991D01*
X406277Y34937D01*
X406565Y33862D01*
X406782Y32771D01*
X406927Y31667D01*
X407000Y30557D01*
X407000Y29443D01*
X907000Y29443D02*
X906927Y28333D01*
X906782Y27229D01*
X906565Y26138D01*
X906277Y25063D01*
X905919Y24009D01*
X905493Y22980D01*
X905001Y21982D01*
X904444Y21018D01*
X903826Y20093D01*
X903148Y19210D01*
X902414Y18373D01*
X901627Y17586D01*
X900790Y16852D01*
X899907Y16174D01*
X898982Y15556D01*
X898018Y14999D01*
X897020Y14507D01*
X895991Y14081D01*
X894937Y13723D01*
X893862Y13435D01*
X892771Y13218D01*
X891667Y13073D01*
X890557Y13000D01*
X889443Y13000D01*
X888333Y13073D01*
X887229Y13218D01*
X886138Y13435D01*
X885063Y13723D01*
X884009Y14081D01*
X882980Y14507D01*
X881982Y14999D01*
X881018Y15556D01*
X880093Y16174D01*
X879210Y16852D01*
X878373Y17586D01*
X877586Y18373D01*
X876852Y19210D01*
X876174Y20093D01*
X875556Y21018D01*
X874999Y21982D01*
X874507Y22980D01*
X874081Y24009D01*
X873723Y25063D01*
X873435Y26138D01*
X873218Y27229D01*
X873073Y28333D01*
X873000Y29443D01*
X873000Y30557D01*
X873073Y31667D01*
X873218Y32771D01*
X873435Y33862D01*
X873723Y34937D01*
X874081Y35991D01*
X874507Y37020D01*
X874999Y38018D01*
X875556Y38982D01*
X876174Y39907D01*
X876852Y40790D01*
X877586Y41627D01*
X878373Y42414D01*
X879210Y43148D01*
X880093Y43826D01*
X881018Y44444D01*
X881982Y45001D01*
X882980Y45493D01*
X884009Y45919D01*
X885063Y46277D01*
X886138Y46565D01*
X887229Y46782D01*
X888333Y46927D01*
X889443Y47000D01*
X890557Y47000D01*
X891667Y46927D01*
X892771Y46782D01*
X893862Y46565D01*
X894937Y46277D01*
X895991Y45919D01*
X897020Y45493D01*
X898018Y45001D01*
X898982Y44444D01*
X899907Y43826D01*
X900790Y43148D01*
X901627Y42414D01*
X902414Y41627D01*
X903148Y40790D01*
X903826Y39907D01*
X904444Y38982D01*
X905001Y38018D01*
X905493Y37020D01*
X905919Y35991D01*
X906277Y34937D01*
X906565Y33862D01*
X906782Y32771D01*
X906927Y31667D01*
X907000Y30557D01*
X907000Y29443D01*
X907000Y889443D02*
X906927Y888333D01*
X906782Y887229D01*
X906565Y886138D01*
X906277Y885063D01*
X905919Y884009D01*
X905493Y882980D01*
X905001Y881982D01*
X904444Y881018D01*
X903826Y880093D01*
X903148Y879210D01*
X902414Y878373D01*
X901627Y877586D01*
X900790Y876852D01*
X899907Y876174D01*
X898982Y875556D01*
X898018Y874999D01*
X897020Y874507D01*
X895991Y874081D01*
X894937Y873723D01*
X893862Y873435D01*
X892771Y873218D01*
X891667Y873073D01*
X890557Y873000D01*
X889443Y873000D01*
X888333Y873073D01*
X887229Y873218D01*
X886138Y873435D01*
X885063Y873723D01*
X884009Y874081D01*
X882980Y874507D01*
X881982Y874999D01*
X881018Y875556D01*
X880093Y876174D01*
X879210Y876852D01*
X878373Y877586D01*
X877586Y878373D01*
X876852Y879210D01*
X876174Y880093D01*
X875556Y881018D01*
X874999Y881982D01*
X874507Y882980D01*
X874081Y884009D01*
X873723Y885063D01*
X873435Y886138D01*
X873218Y887229D01*
X873073Y888333D01*
X873000Y889443D01*
X873000Y890557D01*
X873073Y891667D01*
X873218Y892771D01*
X873435Y893862D01*
X873723Y894937D01*
X874081Y895991D01*
X874507Y897020D01*
X874999Y898018D01*
X875556Y898982D01*
X876174Y899907D01*
X876852Y900790D01*
X877586Y901627D01*
X878373Y902414D01*
X879210Y903148D01*
X880093Y903826D01*
X881018Y904444D01*
X881982Y905001D01*
X882980Y905493D01*
X884009Y905919D01*
X885063Y906277D01*
X886138Y906565D01*
X887229Y906782D01*
X888333Y906927D01*
X889443Y907000D01*
X890557Y907000D01*
X891667Y906927D01*
X892771Y906782D01*
X893862Y906565D01*
X894937Y906277D01*
X895991Y905919D01*
X897020Y905493D01*
X898018Y905001D01*
X898982Y904444D01*
X899907Y903826D01*
X900790Y903148D01*
X901627Y902414D01*
X902414Y901627D01*
X903148Y900790D01*
X903826Y899907D01*
X904444Y898982D01*
X905001Y898018D01*
X905493Y897020D01*
X905919Y895991D01*
X906277Y894937D01*
X906565Y893862D01*
X906782Y892771D01*
X906927Y891667D01*
X907000Y890557D01*
X907000Y889443D01*
X863436Y815500D02*
X864504Y815424D01*
X865565Y815271D01*
X866612Y815043D01*
X867640Y814741D01*
X868644Y814367D01*
X869619Y813922D01*
X870559Y813408D01*
X871460Y812829D01*
X872318Y812187D01*
X873128Y811485D01*
X873885Y810728D01*
X874587Y809918D01*
X875229Y809060D01*
X875808Y808159D01*
X876322Y807219D01*
X876767Y806244D01*
X877141Y805240D01*
X877443Y804212D01*
X877671Y803165D01*
X877824Y802104D01*
X877900Y801036D01*
X877900Y799964D01*
X877824Y798896D01*
X877671Y797835D01*
X877443Y796788D01*
X877141Y795760D01*
X876767Y794756D01*
X876322Y793781D01*
X875808Y792841D01*
X875229Y791940D01*
X874587Y791082D01*
X873885Y790272D01*
X873128Y789515D01*
X872318Y788813D01*
X871460Y788171D01*
X870559Y787592D01*
X869619Y787078D01*
X868644Y786633D01*
X867640Y786259D01*
X866612Y785957D01*
X865565Y785729D01*
X864504Y785576D01*
X863436Y785500D01*
X862364Y785500D01*
X861296Y785576D01*
X860235Y785729D01*
X859188Y785957D01*
X858160Y786259D01*
X857156Y786633D01*
X856181Y787078D01*
X855241Y787592D01*
X854340Y788171D01*
X853482Y788813D01*
X852672Y789515D01*
X851915Y790272D01*
X851213Y791082D01*
X850571Y791940D01*
X849992Y792841D01*
X849478Y793781D01*
X849033Y794756D01*
X848659Y795760D01*
X848357Y796788D01*
X848129Y797835D01*
X847976Y798896D01*
X847900Y799964D01*
X847900Y801036D01*
X847976Y802104D01*
X848129Y803165D01*
X848357Y804212D01*
X848659Y805240D01*
X849033Y806244D01*
X849478Y807219D01*
X849992Y808159D01*
X850571Y809060D01*
X851213Y809918D01*
X851915Y810728D01*
X852672Y811485D01*
X853482Y812187D01*
X854340Y812829D01*
X855241Y813408D01*
X856181Y813922D01*
X857156Y814367D01*
X858160Y814741D01*
X859188Y815043D01*
X860235Y815271D01*
X861296Y815424D01*
X862364Y815500D01*
X863436Y815500D01*
X863436Y705800D02*
X864504Y705724D01*
X865565Y705571D01*
X866612Y705343D01*
X867640Y705041D01*
X868644Y704667D01*
X869619Y704222D01*
X870559Y703708D01*
X871460Y703129D01*
X872318Y702487D01*
X873128Y701785D01*
X873885Y701028D01*
X874587Y700218D01*
X875229Y699360D01*
X875808Y698459D01*
X876322Y697519D01*
X876767Y696544D01*
X877141Y695540D01*
X877443Y694512D01*
X877671Y693465D01*
X877824Y692404D01*
X877900Y691336D01*
X877900Y690264D01*
X877824Y689196D01*
X877671Y688135D01*
X877443Y687088D01*
X877141Y686060D01*
X876767Y685056D01*
X876322Y684081D01*
X875808Y683141D01*
X875229Y682240D01*
X874587Y681382D01*
X873885Y680572D01*
X873128Y679815D01*
X872318Y679113D01*
X871460Y678471D01*
X870559Y677892D01*
X869619Y677378D01*
X868644Y676933D01*
X867640Y676559D01*
X866612Y676257D01*
X865565Y676029D01*
X864504Y675876D01*
X863436Y675800D01*
X862364Y675800D01*
X861296Y675876D01*
X860235Y676029D01*
X859188Y676257D01*
X858160Y676559D01*
X857156Y676933D01*
X856181Y677378D01*
X855241Y677892D01*
X854340Y678471D01*
X853482Y679113D01*
X852672Y679815D01*
X851915Y680572D01*
X851213Y681382D01*
X850571Y682240D01*
X849992Y683141D01*
X849478Y684081D01*
X849033Y685056D01*
X848659Y686060D01*
X848357Y687088D01*
X848129Y688135D01*
X847976Y689196D01*
X847900Y690264D01*
X847900Y691336D01*
X847976Y692404D01*
X848129Y693465D01*
X848357Y694512D01*
X848659Y695540D01*
X849033Y696544D01*
X849478Y697519D01*
X849992Y698459D01*
X850571Y699360D01*
X851213Y700218D01*
X851915Y701028D01*
X852672Y701785D01*
X853482Y702487D01*
X854340Y703129D01*
X855241Y703708D01*
X856181Y704222D01*
X857156Y704667D01*
X858160Y705041D01*
X859188Y705343D01*
X860235Y705571D01*
X861296Y705724D01*
X862364Y705800D01*
X863436Y705800D01*
M02*
