G04 EAGLE Gerber RS-274X export*
G75*
%MOMM*%
%FSLAX34Y34*%
%LPD*%
%INSolderpaste Top*%
%IPPOS*%
%AMOC8*
5,1,8,0,0,1.08239X$1,22.5*%
G01*
%ADD10R,1.600000X2.700000*%
%ADD11R,2.700000X1.600000*%
%ADD12R,0.300000X1.450000*%
%ADD13R,2.400000X1.800000*%
%ADD14R,1.000000X1.100000*%
%ADD15R,1.800000X2.400000*%
%ADD16R,1.100000X1.000000*%
%ADD17R,0.900000X0.800000*%
%ADD18R,1.050000X0.600000*%
%ADD19R,0.850000X0.600000*%
%ADD20R,0.600000X0.900000*%
%ADD21R,0.600000X1.050000*%
%ADD22R,0.600000X0.850000*%
%ADD23R,0.900000X0.600000*%
%ADD24R,0.900000X0.950000*%
%ADD25R,1.600000X0.228600*%
%ADD26R,1.600000X1.100000*%
%ADD27R,0.228600X1.600000*%
%ADD28R,1.100000X1.600000*%
%ADD29R,0.600000X1.550000*%
%ADD30R,1.200000X1.800000*%


D10*
X181900Y771400D03*
X209900Y771400D03*
X181900Y801800D03*
X209900Y801800D03*
X181900Y832200D03*
X209900Y832200D03*
D11*
X32800Y808900D03*
X32800Y836900D03*
D10*
X181900Y710600D03*
X209900Y710600D03*
X181900Y741000D03*
X209900Y741000D03*
D11*
X124000Y808900D03*
X124000Y836900D03*
X93600Y808900D03*
X93600Y836900D03*
X63200Y808900D03*
X63200Y836900D03*
X154400Y808900D03*
X154400Y836900D03*
D12*
X201000Y343900D03*
X196000Y343900D03*
X191000Y343900D03*
X186000Y343900D03*
X181000Y343900D03*
X181000Y299900D03*
X186000Y299900D03*
X191000Y299900D03*
X196000Y299900D03*
X201000Y299900D03*
D13*
X538470Y400700D03*
X538470Y360200D03*
D14*
X590300Y389950D03*
X590300Y372950D03*
X127600Y292000D03*
X144600Y292000D03*
X144600Y271670D03*
X127600Y271670D03*
X127600Y251330D03*
X144600Y251330D03*
D15*
X782350Y57500D03*
X822850Y57500D03*
D16*
X191000Y272600D03*
X191000Y255600D03*
D14*
X180600Y187000D03*
X163600Y187000D03*
D17*
X128000Y197000D03*
X148000Y206500D03*
X148000Y187500D03*
D18*
X504250Y184950D03*
X504250Y197650D03*
X504250Y210350D03*
X504250Y223050D03*
D19*
X447250Y185250D03*
X447250Y197750D03*
X447250Y210250D03*
X447250Y222750D03*
D20*
X474000Y204000D03*
X474000Y215500D03*
X474000Y192500D03*
X482500Y204000D03*
X482500Y215500D03*
X482500Y192500D03*
X465500Y204000D03*
X465500Y215500D03*
X465500Y192500D03*
D12*
X194000Y420000D03*
X189000Y420000D03*
X184000Y420000D03*
X179000Y420000D03*
X174000Y420000D03*
X174000Y376000D03*
X179000Y376000D03*
X184000Y376000D03*
X189000Y376000D03*
X194000Y376000D03*
D14*
X111500Y391000D03*
X128500Y391000D03*
X111500Y411500D03*
X128500Y411500D03*
X128500Y432000D03*
X111500Y432000D03*
D15*
X454300Y876410D03*
X494800Y876410D03*
D14*
X156500Y360000D03*
X139500Y360000D03*
X153500Y318000D03*
X136500Y318000D03*
D17*
X99000Y330000D03*
X119000Y339500D03*
X119000Y320500D03*
D21*
X132050Y624250D03*
X119350Y624250D03*
X106650Y624250D03*
X93950Y624250D03*
D22*
X131750Y567250D03*
X119250Y567250D03*
X106750Y567250D03*
X94250Y567250D03*
D23*
X113000Y594000D03*
X101500Y594000D03*
X124500Y594000D03*
X113000Y602500D03*
X101500Y602500D03*
X124500Y602500D03*
X113000Y585500D03*
X101500Y585500D03*
X124500Y585500D03*
D24*
X192750Y208000D03*
X161250Y208000D03*
X162750Y340000D03*
X131250Y340000D03*
D14*
X198500Y443000D03*
X215500Y443000D03*
X168500Y443000D03*
X185500Y443000D03*
D16*
X215000Y355500D03*
X215000Y372500D03*
X215000Y404500D03*
X215000Y387500D03*
D25*
X206000Y481000D03*
D26*
X234000Y473000D03*
X234000Y489000D03*
X206000Y473000D03*
X206000Y489000D03*
D25*
X234000Y481000D03*
D27*
X248000Y367000D03*
D28*
X256000Y395000D03*
X240000Y395000D03*
X256000Y367000D03*
X240000Y367000D03*
D27*
X248000Y395000D03*
D16*
X158500Y381000D03*
X141500Y381000D03*
D14*
X170000Y272500D03*
X170000Y255500D03*
D16*
X119500Y362000D03*
X102500Y362000D03*
X146500Y224000D03*
X129500Y224000D03*
D29*
X177000Y52000D03*
X187000Y52000D03*
D30*
X200000Y13000D03*
X164000Y13000D03*
D29*
X278000Y52000D03*
X288000Y52000D03*
D30*
X301000Y13000D03*
X265000Y13000D03*
M02*
