G04 EAGLE Gerber RS-274X export*
G75*
%MOMM*%
%FSLAX34Y34*%
%LPD*%
%INSoldermask Bottom*%
%IPPOS*%
%AMOC8*
5,1,8,0,0,1.08239X$1,22.5*%
G01*
%ADD10C,5.327000*%
%ADD11C,0.781800*%
%ADD12C,1.031800*%
%ADD13C,1.627000*%


D10*
X30000Y30000D03*
X290000Y30000D03*
X290000Y270000D03*
X30000Y270000D03*
D11*
X179000Y239000D03*
X248000Y268000D03*
X259000Y239000D03*
X18000Y152000D03*
X18000Y173000D03*
X18000Y193000D03*
X18000Y213000D03*
X19000Y80000D03*
X90000Y97000D03*
X19000Y100000D03*
X207000Y111000D03*
X298000Y68000D03*
X232000Y75000D03*
X141000Y150000D03*
X141000Y174000D03*
X141000Y198000D03*
X117000Y198000D03*
X117000Y174000D03*
X117000Y150000D03*
X93000Y150000D03*
X93000Y174000D03*
X93000Y198000D03*
X186000Y225000D03*
X166000Y166000D03*
X163000Y152000D03*
X121000Y119000D03*
X108000Y277000D03*
X107000Y259000D03*
X18000Y233000D03*
X197000Y180000D03*
X213000Y217000D03*
X127000Y98000D03*
X107000Y65000D03*
D12*
X194000Y68000D03*
D11*
X281000Y141000D03*
D13*
X186000Y32000D03*
D11*
X163000Y100000D03*
X191000Y136000D03*
X80000Y288000D03*
X221000Y224000D03*
X56000Y164000D03*
X58000Y132000D03*
X174000Y141000D03*
X228000Y273000D03*
D12*
X211000Y143000D03*
D11*
X46000Y70000D03*
X46000Y119000D03*
X252000Y138000D03*
X281000Y130000D03*
X149000Y109000D03*
X57000Y105000D03*
D12*
X250000Y68000D03*
D13*
X222000Y32000D03*
D12*
X215000Y68000D03*
D11*
X292000Y173401D03*
X168000Y188000D03*
X141000Y229000D03*
X173000Y247000D03*
D13*
X194000Y285000D03*
D11*
X152000Y230000D03*
X168536Y239036D03*
D13*
X170000Y285000D03*
D11*
X171000Y219000D03*
X126000Y263000D03*
X133000Y253000D03*
X160072Y219000D03*
X152000Y221000D03*
X179000Y253000D03*
D13*
X220000Y285000D03*
D11*
X70000Y113000D03*
X69000Y159000D03*
X64000Y87000D03*
X68000Y173000D03*
X117000Y98000D03*
X117000Y65000D03*
D13*
X117000Y32000D03*
X140000Y32000D03*
D11*
X222880Y124000D03*
X98000Y130000D03*
X239024Y124000D03*
X75169Y130000D03*
X230952Y132072D03*
X86584Y130000D03*
X207000Y200000D03*
X98000Y221000D03*
X292000Y164599D03*
X161190Y183190D03*
X264000Y112000D03*
X156000Y77000D03*
D13*
X94000Y32000D03*
M02*
