M48
;GenerationSoftware,Autodesk,EAGLE,9.6.1*%
;CreationDate,2020-04-26T00:28:33Z*%
FMAT,2
ICI,OFF
METRIC,TZ,000.000
T7C0.350
T6C0.600
T5C0.800
T4C0.900
T3C1.000
T2C3.200
%
G90
M71
T2
X3000Y27000
X29000Y27000
X29000Y3000
X3000Y3000
T3
X19400Y28500
X17000Y28500
X14400Y28500
X11900Y28500
X22000Y28500
T4
X24550Y6300
X15950Y1650
X18050Y6300
X7450Y1650
X7450Y6400
X15950Y6400
X18050Y1550
X24550Y1550
T5
X20300Y6800
X22300Y6800
X11700Y6900
X13700Y6900
X9700Y6900
T6
X21100Y14300
X28200Y12900
X28200Y14000
T7
X15200Y23000
X16754Y23804
X16546Y21800
X14800Y25880
X15866Y21800
X14800Y25200
X15200Y22200
X18000Y25300
X14500Y23000
X6600Y10200
X6900Y15900
X6200Y8700
X6419Y16381
X11500Y10000
X21700Y13300
X9971Y12729
X20738Y12338
X10933Y11767
X21219Y12819
X10452Y12248
X20700Y20000
X9800Y21900
X29200Y16660
X16119Y18319
X24400Y10500
X15600Y7700
X29800Y6800
X18600Y22500
X9300Y19800
X9300Y17400
X9300Y15000
X11700Y15000
X11700Y17400
X11700Y19800
X14100Y19800
X14100Y17400
X14100Y15000
X23200Y7500
X16400Y16300
X20700Y11100
X18500Y11500
X2000Y10000
X9000Y9700
X2000Y8000
X1800Y21300
X1800Y19300
X1800Y17300
X1800Y15200
X25800Y23900
X24800Y26800
X5600Y16400
X18100Y24100
X16600Y18800
X29200Y17340
X5600Y10200
X25200Y13800
X4600Y11900
X4600Y7000
X22800Y27300
X17400Y14100
X16100Y12300
X5600Y13200
X17200Y24800
X22100Y22400
X8000Y28800
X12700Y9800
X21300Y21700
X19700Y18000
X1800Y23300
X10700Y25900
X10700Y27700
X12100Y11900
X16300Y15200
M30