G04 EAGLE Gerber RS-274X export*
G75*
%MOMM*%
%FSLAX34Y34*%
%LPD*%
%INBottom Copper*%
%IPPOS*%
%AMOC8*
5,1,8,0,0,1.08239X$1,22.5*%
G01*
%ADD10C,1.200000*%
%ADD11C,1.350000*%
%ADD12C,5.200000*%
%ADD13C,0.553200*%
%ADD14C,0.900000*%
%ADD15C,0.300000*%
%ADD16C,0.152400*%
%ADD17C,1.500000*%


D10*
X117000Y69000D03*
X137000Y69000D03*
X97000Y69000D03*
D11*
X159500Y64000D03*
X74500Y64000D03*
X74500Y16500D03*
X159500Y16500D03*
D10*
X203000Y68000D03*
X223000Y68000D03*
D11*
X245500Y63000D03*
X180500Y63000D03*
X180500Y15500D03*
X245500Y15500D03*
D12*
X30000Y30000D03*
X290000Y30000D03*
X290000Y270000D03*
X30000Y270000D03*
D13*
X181000Y241000D03*
X248000Y268000D03*
X258000Y239000D03*
X18000Y152000D03*
X18000Y173000D03*
X18000Y193000D03*
X18000Y213000D03*
X20000Y80000D03*
X90000Y97000D03*
X20000Y100000D03*
X185000Y115000D03*
X207000Y111000D03*
D14*
X282000Y140000D03*
D13*
X298000Y68000D03*
X232000Y75000D03*
X141000Y150000D03*
X141000Y174000D03*
X141000Y198000D03*
X117000Y198000D03*
X117000Y174000D03*
X117000Y150000D03*
X93000Y150000D03*
X93000Y174000D03*
X93000Y198000D03*
X186000Y225000D03*
X164000Y163000D03*
X163000Y152000D03*
X121000Y119000D03*
X107000Y277000D03*
X107000Y259000D03*
X18000Y233000D03*
X197000Y180000D03*
X213000Y217000D03*
X127000Y98000D03*
X80000Y288000D03*
X221000Y224000D03*
X56000Y164000D03*
X56000Y132000D03*
X161000Y123000D03*
X174000Y141000D03*
D14*
X282000Y129000D03*
D13*
X228000Y273000D03*
D14*
X211000Y143000D03*
D13*
X46000Y70000D03*
D15*
X46000Y119000D01*
D13*
X46000Y119000D03*
X252000Y138000D03*
X56000Y102000D03*
X292000Y173401D03*
D16*
X288004Y173401D01*
X286000Y171397D01*
X182603Y171397D01*
X166000Y188000D01*
D13*
X166000Y188000D03*
X145000Y230000D03*
D16*
X163000Y248000D01*
X172000Y248000D01*
D13*
X172000Y248000D03*
D17*
X194000Y285000D03*
D13*
X152000Y230000D03*
D16*
X160036Y238036D01*
X167536Y238036D01*
D13*
X167536Y238036D03*
D17*
X170000Y285000D03*
D13*
X165458Y218000D03*
D16*
X159664Y212206D01*
X135206Y227843D02*
X135206Y247157D01*
X146851Y258802D02*
X148000Y258802D01*
D13*
X148000Y258802D03*
D16*
X150843Y212206D02*
X159664Y212206D01*
X150843Y212206D02*
X135206Y227843D01*
X135206Y247157D02*
X146851Y258802D01*
D17*
X144000Y285000D03*
D13*
X158656Y218000D03*
D16*
X155656Y215000D01*
X152000Y215000D01*
X138000Y229000D01*
X138000Y246000D01*
X144000Y252000D02*
X148000Y252000D01*
D13*
X148000Y252000D03*
D16*
X144000Y252000D02*
X138000Y246000D01*
D17*
X119000Y285000D03*
D13*
X152000Y222000D03*
D16*
X162000Y232000D01*
X173000Y241000D02*
X180000Y248000D01*
X180000Y253000D01*
D13*
X180000Y253000D03*
D16*
X168285Y232000D02*
X162000Y232000D01*
X168285Y232000D02*
X173000Y236715D01*
X173000Y241000D01*
D17*
X220000Y285000D03*
D16*
X212000Y285000D01*
X180000Y253000D01*
D13*
X66000Y102000D03*
X69000Y159000D03*
D16*
X66000Y156000D02*
X66000Y102000D01*
X66000Y156000D02*
X69000Y159000D01*
D13*
X62000Y87000D03*
X64190Y163810D03*
D16*
X61202Y87798D02*
X62000Y87000D01*
X61202Y87798D02*
X61202Y160822D01*
X64190Y163810D01*
D13*
X115000Y100000D03*
D16*
X115000Y71000D01*
X117000Y69000D01*
D13*
X217000Y133000D03*
D16*
X214412Y135588D01*
X113685Y135588D02*
X106049Y127951D01*
X100380Y127951D01*
X99714Y127285D01*
D13*
X99714Y127285D03*
D16*
X113685Y135588D02*
X214412Y135588D01*
D13*
X207381Y123381D03*
D16*
X200761Y130000D01*
X110000Y118332D02*
X109334Y117666D01*
D13*
X109334Y117666D03*
D16*
X116157Y130000D02*
X200761Y130000D01*
X116157Y130000D02*
X110000Y123843D01*
X110000Y118332D01*
D13*
X212190Y128190D03*
D16*
X207587Y132794D01*
D13*
X104524Y122476D03*
D16*
X115000Y132794D02*
X207587Y132794D01*
X115000Y132794D02*
X104682Y122476D01*
X104524Y122476D01*
D13*
X207000Y200000D03*
D16*
X201000Y206000D01*
X111000Y206000D01*
X98000Y219000D01*
D13*
X98000Y219000D03*
X292000Y166599D03*
D16*
X288004Y166599D01*
X286000Y168603D01*
X175778Y168603D01*
X161190Y183190D01*
D13*
X161190Y183190D03*
X244000Y105000D03*
D15*
X228000Y89000D01*
X168000Y89000D02*
X156000Y77000D01*
D13*
X156000Y77000D03*
D15*
X168000Y89000D02*
X228000Y89000D01*
M02*
