G04 EAGLE Gerber RS-274X export*
G75*
%MOMM*%
%FSLAX34Y34*%
%LPD*%
%INTop Copper*%
%IPPOS*%
%AMOC8*
5,1,8,0,0,1.08239X$1,22.5*%
G01*
%ADD10R,1.100000X1.000000*%
%ADD11R,1.000000X1.100000*%
%ADD12R,0.350000X0.230000*%
%ADD13R,0.230000X0.350000*%
%ADD14R,0.812800X0.304800*%
%ADD15R,0.304800X0.812800*%
%ADD16R,5.689600X5.689600*%
%ADD17R,0.750000X0.850000*%
%ADD18R,1.000000X1.800000*%
%ADD19R,0.800000X0.400000*%
%ADD20R,1.360000X1.460000*%
%ADD21R,0.750000X0.300000*%
%ADD22C,1.200000*%
%ADD23C,1.350000*%
%ADD24R,1.550000X0.600000*%
%ADD25R,1.800000X1.200000*%
%ADD26R,1.800000X2.400000*%
%ADD27C,5.200000*%
%ADD28R,0.800000X0.800000*%
%ADD29C,0.300000*%
%ADD30C,0.553200*%
%ADD31C,0.900000*%
%ADD32C,0.152400*%
%ADD33C,1.500000*%


D10*
X248500Y256000D03*
X231500Y256000D03*
X46500Y152000D03*
X29500Y152000D03*
X148500Y119000D03*
X131500Y119000D03*
X46500Y132000D03*
X29500Y132000D03*
X46500Y233000D03*
X29500Y233000D03*
D11*
X97000Y241500D03*
X97000Y258500D03*
D10*
X80500Y277000D03*
X97500Y277000D03*
X231500Y219000D03*
X248500Y219000D03*
X231500Y239000D03*
X248500Y239000D03*
D11*
X203000Y217500D03*
X203000Y234500D03*
D10*
X216500Y262000D03*
X199500Y262000D03*
X46500Y193000D03*
X29500Y193000D03*
X46500Y213000D03*
X29500Y213000D03*
X46500Y173000D03*
X29500Y173000D03*
D11*
X79300Y258900D03*
X79300Y241900D03*
D12*
X186250Y262050D03*
D13*
X180450Y261750D03*
X176150Y261750D03*
X171850Y261750D03*
X167550Y261750D03*
D12*
X161750Y262050D03*
X161750Y257750D03*
X161750Y253450D03*
X161750Y249150D03*
X161750Y244850D03*
X161750Y240550D03*
X161750Y236250D03*
X161750Y231950D03*
D13*
X167550Y232250D03*
X171850Y232250D03*
X176150Y232250D03*
X180450Y232250D03*
D12*
X186250Y231950D03*
X186250Y236250D03*
X186250Y240550D03*
X186250Y244850D03*
X186250Y249150D03*
X186250Y253450D03*
X186250Y257750D03*
D14*
X151544Y146500D03*
X151544Y151500D03*
X151544Y156500D03*
X151544Y161500D03*
X151544Y166500D03*
X151544Y171500D03*
X151544Y176500D03*
X151544Y181500D03*
X151544Y186500D03*
X151544Y191500D03*
X151544Y196500D03*
X151544Y201500D03*
D15*
X144500Y208544D03*
X139500Y208544D03*
X134500Y208544D03*
X129500Y208544D03*
X124500Y208544D03*
X119500Y208544D03*
X114500Y208544D03*
X109500Y208544D03*
X104500Y208544D03*
X99500Y208544D03*
X94500Y208544D03*
X89500Y208544D03*
D14*
X82456Y201500D03*
X82456Y196500D03*
X82456Y191500D03*
X82456Y186500D03*
X82456Y181500D03*
X82456Y176500D03*
X82456Y171500D03*
X82456Y166500D03*
X82456Y161500D03*
X82456Y156500D03*
X82456Y151500D03*
X82456Y146500D03*
D15*
X89500Y139456D03*
X94500Y139456D03*
X99500Y139456D03*
X104500Y139456D03*
X109500Y139456D03*
X114500Y139456D03*
X119500Y139456D03*
X124500Y139456D03*
X129500Y139456D03*
X134500Y139456D03*
X139500Y139456D03*
X144500Y139456D03*
D16*
X117000Y174000D03*
D17*
X177750Y183750D03*
X177750Y170250D03*
X188250Y170250D03*
X188250Y183750D03*
D10*
X191500Y152000D03*
X174500Y152000D03*
X174500Y202000D03*
X191500Y202000D03*
X174500Y125000D03*
X191500Y125000D03*
D18*
X223000Y89000D03*
D19*
X234000Y95500D03*
X234000Y89000D03*
X234000Y82500D03*
X212000Y82500D03*
X212000Y89000D03*
X212000Y95500D03*
D10*
X234500Y108000D03*
X217500Y108000D03*
D11*
X174000Y84500D03*
X174000Y101500D03*
X194000Y101500D03*
X194000Y84500D03*
D20*
X90000Y97000D03*
D21*
X75000Y89500D03*
X75000Y94500D03*
X75000Y99500D03*
X75000Y104500D03*
X105000Y104500D03*
X105000Y99500D03*
X105000Y94500D03*
X105000Y89500D03*
D10*
X46500Y80000D03*
X29500Y80000D03*
X46500Y100000D03*
X29500Y100000D03*
D22*
X117000Y69000D03*
X137000Y69000D03*
X97000Y69000D03*
D23*
X159500Y64000D03*
X74500Y64000D03*
X74500Y16500D03*
X159500Y16500D03*
D24*
X268250Y130000D03*
X268250Y140000D03*
X268250Y150000D03*
X268250Y160000D03*
X268250Y170000D03*
X268250Y180000D03*
X268250Y190000D03*
X268250Y200000D03*
D25*
X307000Y117000D03*
X307000Y213000D03*
D22*
X203000Y68000D03*
X223000Y68000D03*
D23*
X245500Y63000D03*
X180500Y63000D03*
X180500Y15500D03*
X245500Y15500D03*
D26*
X256750Y90000D03*
X297250Y90000D03*
D27*
X30000Y30000D03*
X290000Y30000D03*
X290000Y270000D03*
X30000Y270000D03*
D11*
X136500Y89000D03*
X153500Y89000D03*
D28*
X252000Y112000D03*
X252000Y128000D03*
D29*
X186250Y236250D02*
X186250Y240550D01*
X186250Y236250D02*
X186250Y231950D01*
X185950Y232250D01*
X180450Y232250D01*
X176150Y232250D01*
X171850Y232250D01*
X167550Y232250D01*
X181450Y240550D02*
X186250Y240550D01*
X181450Y240550D02*
X181000Y241000D01*
D30*
X181000Y241000D03*
D29*
X248500Y256000D02*
X248500Y267500D01*
X248000Y268000D01*
D30*
X248000Y268000D03*
D29*
X248500Y239000D02*
X248500Y219000D01*
X248500Y239000D02*
X258000Y239000D01*
D30*
X258000Y239000D03*
D29*
X29500Y152000D02*
X29500Y132000D01*
X29500Y152000D02*
X18000Y152000D01*
D30*
X18000Y152000D03*
D29*
X18000Y173000D02*
X29500Y173000D01*
D30*
X18000Y173000D03*
D29*
X18000Y193000D02*
X29500Y193000D01*
D30*
X18000Y193000D03*
D29*
X18000Y213000D02*
X29500Y213000D01*
D30*
X18000Y213000D03*
D29*
X20000Y80000D02*
X29500Y80000D01*
D30*
X20000Y80000D03*
D29*
X75000Y99500D02*
X87500Y99500D01*
X90000Y97000D01*
D30*
X90000Y97000D03*
D29*
X29500Y100000D02*
X20000Y100000D01*
D30*
X20000Y100000D03*
D29*
X191500Y121500D02*
X191500Y125000D01*
X191500Y121500D02*
X185000Y115000D01*
D30*
X185000Y115000D03*
D29*
X185000Y112500D02*
X174000Y101500D01*
X185000Y112500D02*
X185000Y115000D01*
X194000Y84500D02*
X194000Y77000D01*
X203000Y68000D01*
X227500Y82500D02*
X234000Y82500D01*
X227500Y82500D02*
X227000Y82000D01*
X223000Y86000D01*
X223000Y89000D01*
X217500Y108000D02*
X210000Y108000D01*
X207000Y111000D01*
D30*
X207000Y111000D03*
D29*
X268250Y140000D02*
X282000Y140000D01*
D31*
X282000Y140000D03*
D29*
X297250Y90000D02*
X297250Y68750D01*
X298000Y68000D01*
D30*
X298000Y68000D03*
D29*
X234000Y77000D02*
X234000Y82500D01*
X234000Y77000D02*
X232000Y75000D01*
D30*
X232000Y75000D03*
X141000Y150000D03*
X141000Y174000D03*
X141000Y198000D03*
X117000Y198000D03*
X117000Y174000D03*
X117000Y150000D03*
X93000Y150000D03*
X93000Y174000D03*
X93000Y198000D03*
D29*
X186250Y225250D02*
X186250Y231950D01*
X186250Y225250D02*
X186000Y225000D01*
D30*
X186000Y225000D03*
D29*
X191500Y187000D02*
X188250Y183750D01*
X191500Y187000D02*
X191500Y202000D01*
X177750Y170250D02*
X171250Y170250D01*
X164000Y163000D01*
D30*
X164000Y163000D03*
D29*
X163000Y152000D02*
X174500Y152000D01*
D30*
X163000Y152000D03*
D29*
X134500Y151500D02*
X134500Y139456D01*
X134500Y151500D02*
X136000Y153000D01*
X131500Y119000D02*
X121000Y119000D01*
D30*
X121000Y119000D03*
D29*
X107000Y277000D02*
X97500Y277000D01*
D30*
X107000Y277000D03*
D29*
X97500Y259000D02*
X97000Y258500D01*
X97500Y259000D02*
X107000Y259000D01*
D30*
X107000Y259000D03*
D29*
X117000Y174000D02*
X117000Y172000D01*
X136000Y153000D01*
X29500Y233000D02*
X18000Y233000D01*
D30*
X18000Y233000D03*
D29*
X188250Y183750D02*
X192000Y180000D01*
X197000Y180000D01*
D30*
X197000Y180000D03*
D29*
X203000Y217500D02*
X212500Y217500D01*
X213000Y217000D01*
D30*
X213000Y217000D03*
D29*
X127500Y98000D02*
X136500Y89000D01*
X127500Y98000D02*
X127000Y98000D01*
D30*
X127000Y98000D03*
D29*
X80500Y260100D02*
X80500Y277000D01*
X80500Y260100D02*
X79300Y258900D01*
X186250Y253450D02*
X186250Y249150D01*
X231500Y239000D02*
X231500Y219000D01*
X163000Y136500D02*
X174500Y125000D01*
X163000Y136500D02*
X163000Y142000D01*
X158500Y146500D01*
X151544Y146500D01*
X82456Y151500D02*
X47000Y151500D01*
X46500Y152000D01*
X80500Y277000D02*
X80500Y287500D01*
X80000Y288000D01*
D30*
X80000Y288000D03*
D29*
X226000Y219000D02*
X231500Y219000D01*
X226000Y219000D02*
X221000Y224000D01*
D30*
X221000Y224000D03*
D29*
X46500Y151000D02*
X46500Y132000D01*
X46500Y151000D02*
X47000Y151500D01*
X46500Y166500D02*
X46500Y173000D01*
X46500Y166500D02*
X49000Y164000D01*
X56000Y164000D01*
D30*
X56000Y164000D03*
D29*
X56000Y132000D02*
X46500Y132000D01*
D30*
X56000Y132000D03*
D29*
X148500Y119000D02*
X157000Y119000D01*
X161000Y123000D01*
D30*
X161000Y123000D03*
D29*
X174000Y125500D02*
X174500Y125000D01*
X174000Y125500D02*
X174000Y141000D01*
D30*
X174000Y141000D03*
D29*
X194000Y109000D02*
X194000Y101500D01*
X194000Y109000D02*
X201000Y116000D01*
X200000Y95500D02*
X212000Y95500D01*
X200000Y95500D02*
X194000Y101500D01*
X191000Y101500D02*
X174000Y84500D01*
X191000Y101500D02*
X194000Y101500D01*
D31*
X282000Y129000D03*
D29*
X94500Y208544D02*
X94500Y213049D01*
X91171Y216378D01*
X68829Y216378D01*
X62000Y209549D01*
X62000Y183500D01*
X51500Y173000D01*
X46500Y173000D01*
X144500Y139456D02*
X144500Y131500D01*
X148500Y127500D02*
X148500Y119000D01*
X148500Y127500D02*
X144500Y131500D01*
X105000Y89500D02*
X95500Y80000D01*
X46500Y80000D01*
X217000Y239000D02*
X231500Y239000D01*
X206850Y249150D02*
X186250Y249150D01*
X206850Y249150D02*
X217000Y239000D01*
X217000Y262000D02*
X216500Y262000D01*
X217000Y262000D02*
X228000Y273000D01*
D30*
X228000Y273000D03*
D29*
X211000Y143000D02*
X201000Y133000D01*
D31*
X211000Y143000D03*
D29*
X201000Y133000D02*
X201000Y116000D01*
X268250Y130000D02*
X281000Y130000D01*
X282000Y129000D01*
X46500Y80000D02*
X46500Y70500D01*
X46000Y70000D01*
D30*
X46000Y70000D03*
X46000Y119000D03*
D29*
X252000Y128000D02*
X252000Y138000D01*
D30*
X252000Y138000D03*
D32*
X190250Y257750D02*
X186250Y257750D01*
X230468Y254968D02*
X231500Y256000D01*
X230468Y254968D02*
X193032Y254968D01*
X190250Y257750D01*
X186250Y244850D02*
X200150Y244850D01*
X203000Y242000D02*
X203000Y234500D01*
X203000Y242000D02*
X200150Y244850D01*
X186250Y262050D02*
X182768Y265532D01*
X178458Y265532D01*
X176150Y263224D01*
X176150Y261750D01*
X186250Y262050D02*
X199450Y262050D01*
X199500Y262000D01*
D29*
X46500Y213000D02*
X46500Y193000D01*
X104500Y208544D02*
X104500Y220329D01*
X100293Y224536D01*
X58036Y224536D01*
X46500Y213000D01*
X55900Y241900D02*
X79300Y241900D01*
X55900Y241900D02*
X47000Y233000D01*
X46500Y233000D01*
X79700Y241500D02*
X97000Y241500D01*
X79700Y241500D02*
X79300Y241900D01*
X109500Y228500D02*
X109500Y208544D01*
X109500Y228500D02*
X97000Y241000D01*
X97000Y241500D01*
D32*
X174500Y202000D02*
X174500Y187000D01*
X177750Y183750D01*
X165500Y171500D01*
X151544Y171500D01*
X188250Y155250D02*
X191500Y152000D01*
X188250Y155250D02*
X188250Y170250D01*
X165987Y158202D02*
X162013Y158202D01*
X159202Y161013D01*
X165987Y158202D02*
X171753Y163968D01*
X188250Y169876D02*
X188250Y170250D01*
X188250Y169876D02*
X182342Y163968D01*
X171753Y163968D01*
X159202Y162304D02*
X159202Y161013D01*
X159202Y162304D02*
X155006Y166500D01*
X151544Y166500D01*
D29*
X234500Y108000D02*
X234500Y96000D01*
X234000Y95500D01*
X234000Y89000D01*
X255750Y89000D02*
X256750Y90000D01*
X255750Y89000D02*
X234000Y89000D01*
X75000Y94500D02*
X52000Y94500D01*
X46500Y100000D01*
X54000Y100000D01*
X56000Y102000D01*
D30*
X56000Y102000D03*
D29*
X234750Y68000D02*
X256750Y90000D01*
X234750Y68000D02*
X223000Y68000D01*
D32*
X292000Y173401D02*
X275401Y190000D01*
D30*
X292000Y173401D03*
D32*
X275401Y190000D02*
X268250Y190000D01*
D30*
X166000Y188000D03*
D32*
X161286Y176500D02*
X151544Y176500D01*
X161286Y176500D02*
X165988Y181203D01*
X165988Y187988D02*
X166000Y188000D01*
X165988Y187988D02*
X165988Y181203D01*
X134500Y208544D02*
X134500Y219500D01*
X145000Y230000D01*
D30*
X145000Y230000D03*
X172000Y248000D03*
D32*
X171850Y248150D01*
X171850Y261750D01*
D33*
X194000Y285000D03*
D32*
X171850Y267850D02*
X171850Y261750D01*
X189000Y285000D02*
X194000Y285000D01*
X189000Y285000D02*
X171850Y267850D01*
X167550Y261750D02*
X162050Y261750D01*
X161750Y262050D01*
X139500Y217500D02*
X139500Y208544D01*
X139500Y217500D02*
X152000Y230000D01*
D30*
X152000Y230000D03*
X167536Y238036D03*
D32*
X167550Y255550D02*
X167550Y261750D01*
X167202Y238370D02*
X167536Y238036D01*
X167202Y238370D02*
X167202Y255202D01*
X167550Y255550D01*
D33*
X170000Y285000D03*
D32*
X167550Y282550D02*
X167550Y261750D01*
X167550Y282550D02*
X170000Y285000D01*
D30*
X165458Y218000D03*
D32*
X165458Y203248D01*
D30*
X148000Y258802D03*
D32*
X150996Y258802D01*
X152048Y257750D01*
X161750Y257750D01*
X158710Y196500D02*
X151544Y196500D01*
X158710Y196500D02*
X165458Y203248D01*
X148000Y258802D02*
X139198Y258802D01*
X131000Y267000D02*
X131000Y272000D01*
X131000Y267000D02*
X139198Y258802D01*
D33*
X144000Y285000D03*
D32*
X131000Y272000D01*
D30*
X158656Y218000D03*
X148000Y252000D03*
D32*
X150996Y252000D01*
X158656Y218000D02*
X158656Y201500D01*
X151544Y201500D01*
X150996Y252000D02*
X152446Y253450D01*
X161750Y253450D01*
X148000Y252000D02*
X142049Y252000D01*
X128206Y265843D02*
X128206Y272000D01*
X128206Y265843D02*
X142049Y252000D01*
D33*
X119000Y285000D03*
D32*
X119000Y281206D02*
X128206Y272000D01*
X119000Y281206D02*
X119000Y285000D01*
X144500Y214500D02*
X144500Y208544D01*
D30*
X152000Y222000D03*
D32*
X144500Y214500D01*
D30*
X180000Y253000D03*
D32*
X180450Y253450D01*
X180450Y261750D01*
D33*
X220000Y285000D03*
D32*
X161750Y244850D02*
X143188Y244850D01*
X119500Y221162D01*
X119500Y208544D01*
X144813Y240550D02*
X161750Y240550D01*
X144813Y240550D02*
X124500Y220237D01*
X124500Y208544D01*
X129500Y221285D02*
X144465Y236250D01*
X161750Y236250D01*
X129500Y221285D02*
X129500Y208544D01*
X75000Y104500D02*
X68500Y104500D01*
X66000Y102000D01*
D30*
X66000Y102000D03*
X69000Y159000D03*
D32*
X71500Y156500D02*
X82456Y156500D01*
X71500Y156500D02*
X69000Y159000D01*
X64500Y89500D02*
X75000Y89500D01*
X64500Y89500D02*
X62000Y87000D01*
D30*
X62000Y87000D03*
X64190Y163810D03*
D32*
X74511Y161500D02*
X82456Y161500D01*
X74511Y161500D02*
X72202Y163810D01*
X64190Y163810D01*
X115000Y100000D02*
X114500Y99500D01*
D30*
X115000Y100000D03*
D32*
X114500Y99500D02*
X105000Y99500D01*
X105000Y94500D02*
X111500Y94500D01*
X137000Y69000D01*
X248452Y180000D02*
X268250Y180000D01*
X248452Y180000D02*
X236412Y167960D01*
X236412Y133000D01*
X231412Y128000D01*
X222000Y128000D02*
X217000Y133000D01*
D30*
X217000Y133000D03*
X99714Y127285D03*
D32*
X101381Y128952D01*
X107049Y128952D01*
X109500Y131403D02*
X109500Y139456D01*
X109500Y131403D02*
X107049Y128952D01*
X222000Y128000D02*
X231412Y128000D01*
X248452Y160000D02*
X268250Y160000D01*
X248452Y160000D02*
X242000Y153548D01*
X242000Y130685D02*
X233727Y122412D01*
X208349Y122412D02*
X207381Y123381D01*
D30*
X207381Y123381D03*
X109334Y117666D03*
D32*
X82456Y133807D02*
X82456Y146500D01*
X82456Y133807D02*
X98597Y117666D01*
X109334Y117666D01*
X242000Y130685D02*
X242000Y153548D01*
X233727Y122412D02*
X208349Y122412D01*
X248452Y170000D02*
X268250Y170000D01*
X248452Y170000D02*
X239206Y160754D01*
X239206Y131843D02*
X232569Y125206D01*
X215175Y125206D02*
X212190Y128190D01*
D30*
X212190Y128190D03*
X104524Y122476D03*
D32*
X89500Y130714D02*
X89500Y139456D01*
X89500Y130714D02*
X97739Y122476D01*
X104524Y122476D01*
X239206Y131843D02*
X239206Y160754D01*
X232569Y125206D02*
X215175Y125206D01*
X207000Y200000D02*
X268250Y200000D01*
D30*
X207000Y200000D03*
X98000Y219000D03*
D32*
X99500Y217500D01*
X99500Y208544D01*
X275401Y150000D02*
X292000Y166599D01*
D30*
X292000Y166599D03*
D32*
X275401Y150000D02*
X268250Y150000D01*
D30*
X161190Y183190D03*
D32*
X155715Y191500D02*
X151544Y191500D01*
X161190Y186024D02*
X161190Y183190D01*
X161190Y186024D02*
X155715Y191500D01*
D29*
X245000Y105000D02*
X252000Y112000D01*
X245000Y105000D02*
X244000Y105000D01*
D30*
X244000Y105000D03*
X156000Y77000D03*
D29*
X153500Y79500D01*
X153500Y89000D01*
M02*
