G04 EAGLE Gerber RS-274X export*
G75*
%MOMM*%
%FSLAX34Y34*%
%LPD*%
%INCopper Layer 15*%
%IPPOS*%
%AMOC8*
5,1,8,0,0,1.08239X$1,22.5*%
G01*
%ADD10C,1.200000*%
%ADD11C,1.350000*%
%ADD12C,4.216000*%
%ADD13C,0.553200*%
%ADD14C,0.900000*%
%ADD15C,1.500000*%

G36*
X290022Y3814D02*
X290022Y3814D01*
X290060Y3813D01*
X294038Y4126D01*
X294043Y4128D01*
X294049Y4127D01*
X294213Y4161D01*
X301779Y6619D01*
X301811Y6636D01*
X301846Y6645D01*
X301992Y6728D01*
X308428Y11404D01*
X308453Y11429D01*
X308483Y11448D01*
X308596Y11572D01*
X313272Y18008D01*
X313288Y18040D01*
X313311Y18068D01*
X313381Y18221D01*
X315839Y25787D01*
X315840Y25793D01*
X315842Y25798D01*
X315845Y25810D01*
X315848Y25817D01*
X315851Y25842D01*
X315874Y25962D01*
X316187Y29940D01*
X316185Y29962D01*
X316189Y30000D01*
X316189Y270000D01*
X316186Y270022D01*
X316187Y270060D01*
X315874Y274038D01*
X315872Y274043D01*
X315873Y274049D01*
X315839Y274213D01*
X313381Y281779D01*
X313364Y281811D01*
X313355Y281846D01*
X313272Y281992D01*
X308596Y288428D01*
X308571Y288453D01*
X308552Y288483D01*
X308428Y288596D01*
X301992Y293272D01*
X301960Y293288D01*
X301932Y293311D01*
X301779Y293381D01*
X294213Y295839D01*
X294207Y295840D01*
X294202Y295842D01*
X294038Y295874D01*
X290060Y296187D01*
X290038Y296185D01*
X290000Y296189D01*
X30000Y296189D01*
X29978Y296186D01*
X29940Y296187D01*
X25962Y295874D01*
X25957Y295872D01*
X25951Y295873D01*
X25787Y295839D01*
X18221Y293381D01*
X18189Y293364D01*
X18154Y293355D01*
X18008Y293272D01*
X11572Y288596D01*
X11547Y288571D01*
X11517Y288552D01*
X11404Y288428D01*
X6728Y281992D01*
X6712Y281960D01*
X6689Y281932D01*
X6619Y281779D01*
X4161Y274213D01*
X4160Y274207D01*
X4158Y274202D01*
X4126Y274038D01*
X3813Y270060D01*
X3815Y270038D01*
X3811Y270000D01*
X3811Y30000D01*
X3814Y29978D01*
X3813Y29940D01*
X4126Y25962D01*
X4128Y25957D01*
X4127Y25951D01*
X4161Y25787D01*
X6619Y18221D01*
X6636Y18189D01*
X6645Y18154D01*
X6728Y18008D01*
X11404Y11572D01*
X11429Y11547D01*
X11448Y11517D01*
X11572Y11404D01*
X18008Y6728D01*
X18040Y6712D01*
X18068Y6689D01*
X18221Y6619D01*
X25787Y4161D01*
X25793Y4160D01*
X25798Y4158D01*
X25962Y4126D01*
X29940Y3813D01*
X29962Y3815D01*
X30000Y3811D01*
X290000Y3811D01*
X290022Y3814D01*
G37*
%LPC*%
G36*
X286059Y10189D02*
X286059Y10189D01*
X278778Y13205D01*
X273205Y18778D01*
X270189Y26059D01*
X270189Y33941D01*
X273205Y41222D01*
X278778Y46795D01*
X286059Y49811D01*
X293941Y49811D01*
X301222Y46795D01*
X306795Y41222D01*
X309811Y33941D01*
X309811Y26059D01*
X306795Y18778D01*
X301222Y13205D01*
X293941Y10189D01*
X286059Y10189D01*
G37*
%LPD*%
%LPC*%
G36*
X26059Y10189D02*
X26059Y10189D01*
X18778Y13205D01*
X13205Y18778D01*
X10189Y26059D01*
X10189Y33941D01*
X13205Y41222D01*
X18778Y46795D01*
X26059Y49811D01*
X33941Y49811D01*
X41222Y46795D01*
X46795Y41222D01*
X49811Y33941D01*
X49811Y26059D01*
X46795Y18778D01*
X41222Y13205D01*
X33941Y10189D01*
X26059Y10189D01*
G37*
%LPD*%
%LPC*%
G36*
X286059Y250189D02*
X286059Y250189D01*
X278778Y253205D01*
X273205Y258778D01*
X270189Y266059D01*
X270189Y273941D01*
X273205Y281222D01*
X278778Y286795D01*
X286059Y289811D01*
X293941Y289811D01*
X301222Y286795D01*
X306795Y281222D01*
X309811Y273941D01*
X309811Y266059D01*
X306795Y258778D01*
X301222Y253205D01*
X293941Y250189D01*
X286059Y250189D01*
G37*
%LPD*%
%LPC*%
G36*
X26059Y250189D02*
X26059Y250189D01*
X18778Y253205D01*
X13205Y258778D01*
X10189Y266059D01*
X10189Y273941D01*
X13205Y281222D01*
X18778Y286795D01*
X26059Y289811D01*
X33941Y289811D01*
X41222Y286795D01*
X46795Y281222D01*
X49811Y273941D01*
X49811Y266059D01*
X46795Y258778D01*
X41222Y253205D01*
X33941Y250189D01*
X26059Y250189D01*
G37*
%LPD*%
%LPC*%
G36*
X226328Y268963D02*
X226328Y268963D01*
X223963Y271328D01*
X223963Y274672D01*
X225484Y276193D01*
X225541Y276272D01*
X225603Y276347D01*
X225613Y276372D01*
X225628Y276393D01*
X225656Y276486D01*
X225691Y276577D01*
X225692Y276603D01*
X225700Y276628D01*
X225698Y276725D01*
X225702Y276823D01*
X225695Y276848D01*
X225694Y276874D01*
X225660Y276965D01*
X225633Y277059D01*
X225618Y277080D01*
X225609Y277105D01*
X225548Y277181D01*
X225493Y277261D01*
X225472Y277276D01*
X225456Y277297D01*
X225374Y277349D01*
X225296Y277408D01*
X225271Y277416D01*
X225249Y277430D01*
X225154Y277454D01*
X225062Y277484D01*
X225036Y277484D01*
X225010Y277490D01*
X224913Y277482D01*
X224816Y277481D01*
X224784Y277472D01*
X224765Y277471D01*
X224735Y277458D01*
X224655Y277435D01*
X221745Y276229D01*
X218255Y276229D01*
X215032Y277565D01*
X212565Y280032D01*
X211229Y283255D01*
X211229Y286745D01*
X212565Y289968D01*
X215032Y292435D01*
X218255Y293771D01*
X221745Y293771D01*
X224968Y292435D01*
X227435Y289968D01*
X228771Y286745D01*
X228771Y283255D01*
X227435Y280032D01*
X225740Y278336D01*
X225698Y278278D01*
X225649Y278226D01*
X225627Y278179D01*
X225596Y278137D01*
X225575Y278068D01*
X225545Y278003D01*
X225539Y277951D01*
X225524Y277901D01*
X225526Y277830D01*
X225518Y277759D01*
X225529Y277708D01*
X225530Y277656D01*
X225555Y277588D01*
X225570Y277518D01*
X225597Y277473D01*
X225615Y277425D01*
X225660Y277369D01*
X225696Y277307D01*
X225736Y277273D01*
X225769Y277233D01*
X225829Y277194D01*
X225883Y277147D01*
X225932Y277128D01*
X225975Y277100D01*
X226045Y277082D01*
X226112Y277055D01*
X226183Y277047D01*
X226214Y277039D01*
X226237Y277041D01*
X226278Y277037D01*
X229672Y277037D01*
X232037Y274672D01*
X232037Y271328D01*
X229672Y268963D01*
X226328Y268963D01*
G37*
%LPD*%
%LPC*%
G36*
X156984Y213963D02*
X156984Y213963D01*
X154619Y216328D01*
X154619Y217202D01*
X154616Y217222D01*
X154618Y217241D01*
X154596Y217343D01*
X154580Y217445D01*
X154570Y217462D01*
X154566Y217482D01*
X154513Y217571D01*
X154464Y217662D01*
X154450Y217676D01*
X154440Y217693D01*
X154361Y217760D01*
X154286Y217832D01*
X154268Y217840D01*
X154253Y217853D01*
X154157Y217892D01*
X154063Y217935D01*
X154043Y217937D01*
X154025Y217945D01*
X153858Y217963D01*
X150328Y217963D01*
X147963Y220328D01*
X147963Y223672D01*
X149753Y225462D01*
X149765Y225478D01*
X149780Y225490D01*
X149836Y225578D01*
X149896Y225661D01*
X149902Y225680D01*
X149913Y225697D01*
X149938Y225798D01*
X149969Y225897D01*
X149968Y225916D01*
X149973Y225936D01*
X149965Y226039D01*
X149962Y226142D01*
X149956Y226161D01*
X149954Y226181D01*
X149914Y226276D01*
X149878Y226373D01*
X149865Y226389D01*
X149858Y226407D01*
X149753Y226538D01*
X149038Y227253D01*
X149022Y227265D01*
X149010Y227280D01*
X148922Y227336D01*
X148839Y227396D01*
X148820Y227402D01*
X148803Y227413D01*
X148702Y227438D01*
X148603Y227469D01*
X148584Y227468D01*
X148564Y227473D01*
X148461Y227465D01*
X148358Y227462D01*
X148339Y227456D01*
X148319Y227454D01*
X148224Y227414D01*
X148127Y227378D01*
X148111Y227366D01*
X148093Y227358D01*
X147962Y227253D01*
X146672Y225963D01*
X143328Y225963D01*
X140963Y228328D01*
X140963Y231672D01*
X143328Y234037D01*
X146672Y234037D01*
X147962Y232747D01*
X147978Y232735D01*
X147990Y232720D01*
X148078Y232664D01*
X148161Y232604D01*
X148180Y232598D01*
X148197Y232587D01*
X148298Y232562D01*
X148397Y232531D01*
X148416Y232532D01*
X148436Y232527D01*
X148539Y232535D01*
X148642Y232538D01*
X148661Y232544D01*
X148681Y232546D01*
X148776Y232586D01*
X148873Y232622D01*
X148889Y232635D01*
X148907Y232642D01*
X149038Y232747D01*
X150328Y234037D01*
X153672Y234037D01*
X156037Y231672D01*
X156037Y228328D01*
X154247Y226538D01*
X154235Y226522D01*
X154220Y226510D01*
X154164Y226422D01*
X154104Y226339D01*
X154098Y226320D01*
X154087Y226303D01*
X154062Y226202D01*
X154031Y226103D01*
X154032Y226084D01*
X154027Y226064D01*
X154035Y225961D01*
X154038Y225858D01*
X154044Y225839D01*
X154046Y225819D01*
X154086Y225724D01*
X154122Y225627D01*
X154134Y225611D01*
X154142Y225593D01*
X154247Y225462D01*
X156037Y223672D01*
X156037Y222798D01*
X156040Y222778D01*
X156038Y222759D01*
X156060Y222657D01*
X156076Y222555D01*
X156086Y222538D01*
X156090Y222518D01*
X156143Y222429D01*
X156192Y222338D01*
X156206Y222324D01*
X156216Y222307D01*
X156295Y222240D01*
X156370Y222168D01*
X156388Y222160D01*
X156403Y222147D01*
X156499Y222108D01*
X156593Y222065D01*
X156613Y222063D01*
X156631Y222055D01*
X156798Y222037D01*
X160328Y222037D01*
X161519Y220846D01*
X161535Y220834D01*
X161547Y220819D01*
X161635Y220763D01*
X161718Y220703D01*
X161737Y220697D01*
X161754Y220686D01*
X161855Y220661D01*
X161954Y220630D01*
X161973Y220631D01*
X161993Y220626D01*
X162096Y220634D01*
X162199Y220637D01*
X162218Y220643D01*
X162238Y220645D01*
X162333Y220685D01*
X162430Y220721D01*
X162446Y220734D01*
X162464Y220741D01*
X162595Y220846D01*
X163786Y222037D01*
X167130Y222037D01*
X169495Y219672D01*
X169495Y216328D01*
X167130Y213963D01*
X163786Y213963D01*
X162595Y215154D01*
X162579Y215166D01*
X162567Y215181D01*
X162479Y215237D01*
X162396Y215297D01*
X162377Y215303D01*
X162360Y215314D01*
X162259Y215339D01*
X162160Y215370D01*
X162141Y215369D01*
X162121Y215374D01*
X162018Y215366D01*
X161915Y215363D01*
X161896Y215357D01*
X161876Y215355D01*
X161781Y215315D01*
X161684Y215279D01*
X161668Y215267D01*
X161650Y215259D01*
X161519Y215154D01*
X160328Y213963D01*
X156984Y213963D01*
G37*
%LPD*%
%LPC*%
G36*
X157905Y55979D02*
X157905Y55979D01*
X154957Y57200D01*
X152700Y59457D01*
X151479Y62405D01*
X151479Y65595D01*
X152700Y68543D01*
X154957Y70800D01*
X156644Y71499D01*
X156727Y71550D01*
X156813Y71596D01*
X156831Y71614D01*
X156853Y71628D01*
X156916Y71704D01*
X156983Y71774D01*
X156994Y71798D01*
X157010Y71818D01*
X157045Y71909D01*
X157086Y71997D01*
X157089Y72023D01*
X157098Y72047D01*
X157103Y72145D01*
X157113Y72241D01*
X157108Y72267D01*
X157109Y72293D01*
X157082Y72387D01*
X157061Y72482D01*
X157048Y72504D01*
X157040Y72529D01*
X156985Y72609D01*
X156935Y72693D01*
X156915Y72710D01*
X156900Y72731D01*
X156822Y72790D01*
X156748Y72853D01*
X156724Y72863D01*
X156703Y72878D01*
X156610Y72908D01*
X156520Y72945D01*
X156487Y72948D01*
X156469Y72954D01*
X156436Y72954D01*
X156353Y72963D01*
X154328Y72963D01*
X151963Y75328D01*
X151963Y78672D01*
X154328Y81037D01*
X157672Y81037D01*
X160037Y78672D01*
X160037Y75328D01*
X158029Y73320D01*
X157987Y73262D01*
X157938Y73210D01*
X157916Y73163D01*
X157886Y73121D01*
X157864Y73052D01*
X157834Y72987D01*
X157828Y72935D01*
X157813Y72885D01*
X157815Y72814D01*
X157807Y72743D01*
X157818Y72692D01*
X157820Y72640D01*
X157844Y72572D01*
X157859Y72502D01*
X157886Y72457D01*
X157904Y72409D01*
X157949Y72353D01*
X157986Y72291D01*
X158025Y72257D01*
X158058Y72217D01*
X158118Y72178D01*
X158172Y72131D01*
X158221Y72112D01*
X158265Y72084D01*
X158334Y72066D01*
X158401Y72039D01*
X158472Y72031D01*
X158503Y72023D01*
X158526Y72025D01*
X158567Y72021D01*
X161095Y72021D01*
X164043Y70800D01*
X166300Y68543D01*
X167521Y65595D01*
X167521Y62405D01*
X166300Y59457D01*
X164043Y57200D01*
X161095Y55979D01*
X157905Y55979D01*
G37*
%LPD*%
%LPC*%
G36*
X142255Y276229D02*
X142255Y276229D01*
X139032Y277565D01*
X136565Y280032D01*
X135229Y283255D01*
X135229Y286745D01*
X136565Y289968D01*
X139032Y292435D01*
X142255Y293771D01*
X145745Y293771D01*
X148968Y292435D01*
X151435Y289968D01*
X152771Y286745D01*
X152771Y283255D01*
X151435Y280032D01*
X148968Y277565D01*
X145745Y276229D01*
X142255Y276229D01*
G37*
%LPD*%
%LPC*%
G36*
X117255Y276229D02*
X117255Y276229D01*
X114032Y277565D01*
X111565Y280032D01*
X110229Y283255D01*
X110229Y286745D01*
X111565Y289968D01*
X114032Y292435D01*
X117255Y293771D01*
X120745Y293771D01*
X123968Y292435D01*
X126435Y289968D01*
X127771Y286745D01*
X127771Y283255D01*
X126435Y280032D01*
X123968Y277565D01*
X120745Y276229D01*
X117255Y276229D01*
G37*
%LPD*%
%LPC*%
G36*
X168255Y276229D02*
X168255Y276229D01*
X165032Y277565D01*
X162565Y280032D01*
X161229Y283255D01*
X161229Y286745D01*
X162565Y289968D01*
X165032Y292435D01*
X168255Y293771D01*
X171745Y293771D01*
X174968Y292435D01*
X177435Y289968D01*
X178771Y286745D01*
X178771Y283255D01*
X177435Y280032D01*
X174968Y277565D01*
X171745Y276229D01*
X168255Y276229D01*
G37*
%LPD*%
%LPC*%
G36*
X192255Y276229D02*
X192255Y276229D01*
X189032Y277565D01*
X186565Y280032D01*
X185229Y283255D01*
X185229Y286745D01*
X186565Y289968D01*
X189032Y292435D01*
X192255Y293771D01*
X195745Y293771D01*
X198968Y292435D01*
X201435Y289968D01*
X202771Y286745D01*
X202771Y283255D01*
X201435Y280032D01*
X198968Y277565D01*
X195745Y276229D01*
X192255Y276229D01*
G37*
%LPD*%
%LPC*%
G36*
X243905Y7479D02*
X243905Y7479D01*
X240957Y8700D01*
X238700Y10957D01*
X237479Y13905D01*
X237479Y17095D01*
X238700Y20043D01*
X240957Y22300D01*
X243905Y23521D01*
X247095Y23521D01*
X250043Y22300D01*
X252300Y20043D01*
X253521Y17095D01*
X253521Y13905D01*
X252300Y10957D01*
X250043Y8700D01*
X247095Y7479D01*
X243905Y7479D01*
G37*
%LPD*%
%LPC*%
G36*
X72905Y8479D02*
X72905Y8479D01*
X69957Y9700D01*
X67700Y11957D01*
X66479Y14905D01*
X66479Y18095D01*
X67700Y21043D01*
X69957Y23300D01*
X72905Y24521D01*
X76095Y24521D01*
X79043Y23300D01*
X81300Y21043D01*
X82521Y18095D01*
X82521Y14905D01*
X81300Y11957D01*
X79043Y9700D01*
X76095Y8479D01*
X72905Y8479D01*
G37*
%LPD*%
%LPC*%
G36*
X157905Y8479D02*
X157905Y8479D01*
X154957Y9700D01*
X152700Y11957D01*
X151479Y14905D01*
X151479Y18095D01*
X152700Y21043D01*
X154957Y23300D01*
X157905Y24521D01*
X161095Y24521D01*
X164043Y23300D01*
X166300Y21043D01*
X167521Y18095D01*
X167521Y14905D01*
X166300Y11957D01*
X164043Y9700D01*
X161095Y8479D01*
X157905Y8479D01*
G37*
%LPD*%
%LPC*%
G36*
X178905Y54979D02*
X178905Y54979D01*
X175957Y56200D01*
X173700Y58457D01*
X172479Y61405D01*
X172479Y64595D01*
X173700Y67543D01*
X175957Y69800D01*
X178905Y71021D01*
X182095Y71021D01*
X185043Y69800D01*
X187300Y67543D01*
X188521Y64595D01*
X188521Y61405D01*
X187300Y58457D01*
X185043Y56200D01*
X182095Y54979D01*
X178905Y54979D01*
G37*
%LPD*%
%LPC*%
G36*
X243905Y54979D02*
X243905Y54979D01*
X240957Y56200D01*
X238700Y58457D01*
X237479Y61405D01*
X237479Y64595D01*
X238700Y67543D01*
X240957Y69800D01*
X243905Y71021D01*
X247095Y71021D01*
X250043Y69800D01*
X252300Y67543D01*
X253521Y64595D01*
X253521Y61405D01*
X252300Y58457D01*
X250043Y56200D01*
X247095Y54979D01*
X243905Y54979D01*
G37*
%LPD*%
%LPC*%
G36*
X72905Y55979D02*
X72905Y55979D01*
X69957Y57200D01*
X67700Y59457D01*
X66479Y62405D01*
X66479Y65595D01*
X67700Y68543D01*
X69957Y70800D01*
X72905Y72021D01*
X76095Y72021D01*
X79043Y70800D01*
X81300Y68543D01*
X82521Y65595D01*
X82521Y62405D01*
X81300Y59457D01*
X79043Y57200D01*
X76095Y55979D01*
X72905Y55979D01*
G37*
%LPD*%
%LPC*%
G36*
X178905Y7479D02*
X178905Y7479D01*
X175957Y8700D01*
X173700Y10957D01*
X172479Y13905D01*
X172479Y17095D01*
X173700Y20043D01*
X175957Y22300D01*
X178905Y23521D01*
X182095Y23521D01*
X185043Y22300D01*
X187300Y20043D01*
X188521Y17095D01*
X188521Y13905D01*
X187300Y10957D01*
X185043Y8700D01*
X182095Y7479D01*
X178905Y7479D01*
G37*
%LPD*%
%LPC*%
G36*
X221554Y60729D02*
X221554Y60729D01*
X218881Y61836D01*
X216836Y63881D01*
X215729Y66554D01*
X215729Y69446D01*
X216836Y72119D01*
X218881Y74164D01*
X221554Y75271D01*
X224446Y75271D01*
X227119Y74164D01*
X229164Y72119D01*
X230271Y69446D01*
X230271Y66554D01*
X229164Y63881D01*
X227119Y61836D01*
X224446Y60729D01*
X221554Y60729D01*
G37*
%LPD*%
%LPC*%
G36*
X115554Y61729D02*
X115554Y61729D01*
X112881Y62836D01*
X110836Y64881D01*
X109729Y67554D01*
X109729Y70446D01*
X110836Y73119D01*
X112881Y75164D01*
X115554Y76271D01*
X118446Y76271D01*
X121119Y75164D01*
X123164Y73119D01*
X124271Y70446D01*
X124271Y67554D01*
X123164Y64881D01*
X121119Y62836D01*
X118446Y61729D01*
X115554Y61729D01*
G37*
%LPD*%
%LPC*%
G36*
X135554Y61729D02*
X135554Y61729D01*
X132881Y62836D01*
X130836Y64881D01*
X129729Y67554D01*
X129729Y70446D01*
X130836Y73119D01*
X132881Y75164D01*
X135554Y76271D01*
X138446Y76271D01*
X141119Y75164D01*
X143164Y73119D01*
X144271Y70446D01*
X144271Y67554D01*
X143164Y64881D01*
X141119Y62836D01*
X138446Y61729D01*
X135554Y61729D01*
G37*
%LPD*%
%LPC*%
G36*
X67328Y154963D02*
X67328Y154963D01*
X64963Y157328D01*
X64963Y159012D01*
X64960Y159031D01*
X64962Y159051D01*
X64940Y159152D01*
X64924Y159255D01*
X64914Y159272D01*
X64910Y159292D01*
X64857Y159381D01*
X64808Y159472D01*
X64794Y159486D01*
X64784Y159503D01*
X64705Y159570D01*
X64630Y159641D01*
X64612Y159650D01*
X64597Y159663D01*
X64501Y159701D01*
X64407Y159745D01*
X64387Y159747D01*
X64369Y159755D01*
X64202Y159773D01*
X62518Y159773D01*
X60538Y161753D01*
X60522Y161765D01*
X60510Y161780D01*
X60422Y161836D01*
X60339Y161896D01*
X60320Y161902D01*
X60303Y161913D01*
X60202Y161938D01*
X60103Y161969D01*
X60084Y161968D01*
X60064Y161973D01*
X59961Y161965D01*
X59858Y161962D01*
X59839Y161956D01*
X59819Y161954D01*
X59724Y161914D01*
X59627Y161878D01*
X59611Y161865D01*
X59593Y161858D01*
X59462Y161753D01*
X57672Y159963D01*
X54328Y159963D01*
X51963Y162328D01*
X51963Y165672D01*
X54328Y168037D01*
X57672Y168037D01*
X59652Y166057D01*
X59668Y166045D01*
X59681Y166030D01*
X59768Y165973D01*
X59852Y165913D01*
X59871Y165907D01*
X59888Y165897D01*
X59988Y165871D01*
X60087Y165841D01*
X60107Y165841D01*
X60126Y165837D01*
X60229Y165845D01*
X60333Y165847D01*
X60351Y165854D01*
X60371Y165856D01*
X60466Y165896D01*
X60564Y165932D01*
X60579Y165944D01*
X60598Y165952D01*
X60729Y166057D01*
X62518Y167846D01*
X65862Y167846D01*
X68227Y165482D01*
X68227Y163798D01*
X68230Y163778D01*
X68228Y163759D01*
X68250Y163657D01*
X68267Y163555D01*
X68276Y163538D01*
X68280Y163518D01*
X68333Y163429D01*
X68382Y163338D01*
X68396Y163324D01*
X68406Y163307D01*
X68485Y163240D01*
X68560Y163168D01*
X68578Y163160D01*
X68593Y163147D01*
X68690Y163108D01*
X68783Y163065D01*
X68803Y163063D01*
X68822Y163055D01*
X68988Y163037D01*
X70672Y163037D01*
X73037Y160672D01*
X73037Y157328D01*
X70672Y154963D01*
X67328Y154963D01*
G37*
%LPD*%
%LPC*%
G36*
X205708Y119344D02*
X205708Y119344D01*
X203344Y121708D01*
X203344Y125053D01*
X205708Y127417D01*
X207392Y127417D01*
X207412Y127420D01*
X207432Y127418D01*
X207533Y127440D01*
X207635Y127457D01*
X207653Y127466D01*
X207672Y127471D01*
X207761Y127524D01*
X207852Y127572D01*
X207866Y127586D01*
X207883Y127597D01*
X207951Y127675D01*
X208022Y127750D01*
X208030Y127768D01*
X208043Y127784D01*
X208082Y127880D01*
X208125Y127973D01*
X208128Y127993D01*
X208135Y128012D01*
X208154Y128178D01*
X208154Y129862D01*
X210518Y132227D01*
X212202Y132227D01*
X212222Y132230D01*
X212241Y132228D01*
X212343Y132250D01*
X212445Y132267D01*
X212462Y132276D01*
X212482Y132280D01*
X212571Y132333D01*
X212662Y132382D01*
X212676Y132396D01*
X212693Y132406D01*
X212760Y132485D01*
X212832Y132560D01*
X212840Y132578D01*
X212853Y132593D01*
X212892Y132690D01*
X212935Y132783D01*
X212937Y132803D01*
X212945Y132822D01*
X212963Y132988D01*
X212963Y134672D01*
X215199Y136908D01*
X215256Y136987D01*
X215297Y137037D01*
X218672Y137037D01*
X221037Y134672D01*
X221037Y131328D01*
X218672Y128963D01*
X216988Y128963D01*
X216969Y128960D01*
X216949Y128962D01*
X216848Y128940D01*
X216745Y128924D01*
X216728Y128914D01*
X216708Y128910D01*
X216619Y128857D01*
X216528Y128808D01*
X216514Y128794D01*
X216497Y128784D01*
X216430Y128705D01*
X216359Y128630D01*
X216350Y128612D01*
X216337Y128597D01*
X216299Y128501D01*
X216255Y128407D01*
X216253Y128387D01*
X216245Y128369D01*
X216227Y128202D01*
X216227Y126518D01*
X213862Y124154D01*
X212178Y124154D01*
X212159Y124150D01*
X212139Y124152D01*
X212038Y124130D01*
X211936Y124114D01*
X211918Y124104D01*
X211899Y124100D01*
X211810Y124047D01*
X211718Y123999D01*
X211705Y123984D01*
X211688Y123974D01*
X211620Y123895D01*
X211549Y123820D01*
X211541Y123802D01*
X211528Y123787D01*
X211489Y123691D01*
X211445Y123597D01*
X211443Y123578D01*
X211436Y123559D01*
X211417Y123392D01*
X211417Y121708D01*
X209053Y119344D01*
X205708Y119344D01*
G37*
%LPD*%
%LPC*%
G36*
X107662Y113629D02*
X107662Y113629D01*
X105297Y115994D01*
X105297Y117678D01*
X105294Y117697D01*
X105296Y117717D01*
X105274Y117818D01*
X105257Y117920D01*
X105248Y117938D01*
X105244Y117958D01*
X105191Y118047D01*
X105142Y118138D01*
X105128Y118152D01*
X105118Y118169D01*
X105039Y118236D01*
X104964Y118307D01*
X104946Y118316D01*
X104931Y118329D01*
X104835Y118367D01*
X104741Y118411D01*
X104721Y118413D01*
X104703Y118420D01*
X104536Y118439D01*
X102852Y118439D01*
X100487Y120804D01*
X100487Y122487D01*
X100484Y122507D01*
X100486Y122527D01*
X100464Y122628D01*
X100448Y122730D01*
X100438Y122748D01*
X100434Y122767D01*
X100381Y122856D01*
X100333Y122948D01*
X100318Y122961D01*
X100308Y122978D01*
X100229Y123046D01*
X100154Y123117D01*
X100136Y123125D01*
X100121Y123138D01*
X100025Y123177D01*
X99931Y123221D01*
X99911Y123223D01*
X99893Y123230D01*
X99726Y123249D01*
X98042Y123249D01*
X95678Y125613D01*
X95678Y128958D01*
X98042Y131322D01*
X101387Y131322D01*
X103751Y128958D01*
X103751Y127274D01*
X103754Y127254D01*
X103752Y127234D01*
X103774Y127133D01*
X103791Y127031D01*
X103800Y127013D01*
X103804Y126994D01*
X103858Y126905D01*
X103906Y126814D01*
X103920Y126800D01*
X103931Y126783D01*
X104009Y126715D01*
X104084Y126644D01*
X104102Y126636D01*
X104118Y126623D01*
X104214Y126584D01*
X104307Y126541D01*
X104327Y126538D01*
X104346Y126531D01*
X104512Y126512D01*
X106196Y126512D01*
X108561Y124148D01*
X108561Y122464D01*
X108564Y122444D01*
X108562Y122424D01*
X108584Y122323D01*
X108601Y122221D01*
X108610Y122204D01*
X108614Y122184D01*
X108667Y122095D01*
X108716Y122004D01*
X108730Y121990D01*
X108740Y121973D01*
X108819Y121906D01*
X108894Y121834D01*
X108912Y121826D01*
X108927Y121813D01*
X109024Y121774D01*
X109117Y121731D01*
X109137Y121729D01*
X109155Y121721D01*
X109322Y121703D01*
X111006Y121703D01*
X113371Y119338D01*
X113371Y115994D01*
X111006Y113629D01*
X107662Y113629D01*
G37*
%LPD*%
%LPC*%
G36*
X170328Y243963D02*
X170328Y243963D01*
X167963Y246328D01*
X167963Y249672D01*
X170328Y252037D01*
X173672Y252037D01*
X174664Y251045D01*
X174722Y251003D01*
X174774Y250954D01*
X174821Y250932D01*
X174863Y250902D01*
X174932Y250880D01*
X174997Y250850D01*
X175049Y250844D01*
X175099Y250829D01*
X175170Y250831D01*
X175241Y250823D01*
X175292Y250834D01*
X175344Y250836D01*
X175412Y250860D01*
X175482Y250875D01*
X175527Y250902D01*
X175575Y250920D01*
X175631Y250965D01*
X175693Y251002D01*
X175727Y251041D01*
X175767Y251074D01*
X175806Y251134D01*
X175853Y251188D01*
X175872Y251237D01*
X175900Y251281D01*
X175918Y251350D01*
X175945Y251417D01*
X175953Y251488D01*
X175961Y251519D01*
X175959Y251542D01*
X175963Y251583D01*
X175963Y254672D01*
X178328Y257037D01*
X181672Y257037D01*
X184037Y254672D01*
X184037Y251328D01*
X181672Y248963D01*
X178328Y248963D01*
X177336Y249955D01*
X177278Y249997D01*
X177226Y250046D01*
X177179Y250068D01*
X177137Y250098D01*
X177068Y250120D01*
X177003Y250150D01*
X176951Y250156D01*
X176901Y250171D01*
X176830Y250169D01*
X176759Y250177D01*
X176708Y250166D01*
X176656Y250164D01*
X176588Y250140D01*
X176518Y250125D01*
X176473Y250098D01*
X176425Y250080D01*
X176369Y250035D01*
X176307Y249998D01*
X176273Y249959D01*
X176233Y249926D01*
X176194Y249866D01*
X176147Y249812D01*
X176128Y249763D01*
X176100Y249719D01*
X176082Y249650D01*
X176055Y249583D01*
X176047Y249512D01*
X176039Y249481D01*
X176041Y249458D01*
X176037Y249417D01*
X176037Y246328D01*
X173672Y243963D01*
X170328Y243963D01*
G37*
%LPD*%
%LPC*%
G36*
X209852Y137229D02*
X209852Y137229D01*
X207731Y138108D01*
X206108Y139731D01*
X205229Y141852D01*
X205229Y144148D01*
X206108Y146269D01*
X207731Y147892D01*
X209852Y148771D01*
X212148Y148771D01*
X214269Y147892D01*
X215892Y146269D01*
X216771Y144148D01*
X216771Y141852D01*
X215892Y139731D01*
X214497Y138336D01*
X214455Y138278D01*
X214406Y138226D01*
X214384Y138179D01*
X214360Y138146D01*
X212148Y137229D01*
X209852Y137229D01*
G37*
%LPD*%
%LPC*%
G36*
X280852Y123229D02*
X280852Y123229D01*
X278731Y124108D01*
X277108Y125731D01*
X276229Y127852D01*
X276229Y130148D01*
X277108Y132269D01*
X278731Y133892D01*
X280852Y134771D01*
X283148Y134771D01*
X285269Y133892D01*
X286892Y132269D01*
X287771Y130148D01*
X287771Y127852D01*
X286892Y125731D01*
X285269Y124108D01*
X283148Y123229D01*
X280852Y123229D01*
G37*
%LPD*%
%LPC*%
G36*
X159518Y179154D02*
X159518Y179154D01*
X157154Y181518D01*
X157154Y184862D01*
X159518Y187227D01*
X161202Y187227D01*
X161222Y187230D01*
X161241Y187228D01*
X161343Y187250D01*
X161445Y187267D01*
X161462Y187276D01*
X161482Y187280D01*
X161571Y187333D01*
X161662Y187382D01*
X161676Y187396D01*
X161693Y187406D01*
X161760Y187485D01*
X161832Y187560D01*
X161840Y187578D01*
X161853Y187593D01*
X161892Y187690D01*
X161935Y187783D01*
X161937Y187803D01*
X161945Y187822D01*
X161963Y187988D01*
X161963Y189672D01*
X164328Y192037D01*
X167672Y192037D01*
X170037Y189672D01*
X170037Y186328D01*
X167672Y183963D01*
X165988Y183963D01*
X165969Y183960D01*
X165949Y183962D01*
X165848Y183940D01*
X165745Y183924D01*
X165728Y183914D01*
X165708Y183910D01*
X165619Y183857D01*
X165528Y183808D01*
X165514Y183794D01*
X165497Y183784D01*
X165430Y183705D01*
X165359Y183630D01*
X165350Y183612D01*
X165337Y183597D01*
X165299Y183501D01*
X165255Y183407D01*
X165253Y183387D01*
X165245Y183369D01*
X165227Y183202D01*
X165227Y181518D01*
X162862Y179154D01*
X159518Y179154D01*
G37*
%LPD*%
%LPC*%
G36*
X290328Y162562D02*
X290328Y162562D01*
X287963Y164927D01*
X287963Y168271D01*
X289154Y169462D01*
X289166Y169478D01*
X289181Y169490D01*
X289237Y169578D01*
X289297Y169661D01*
X289303Y169680D01*
X289314Y169697D01*
X289339Y169798D01*
X289370Y169897D01*
X289369Y169916D01*
X289374Y169936D01*
X289366Y170039D01*
X289363Y170142D01*
X289357Y170161D01*
X289355Y170181D01*
X289315Y170276D01*
X289279Y170373D01*
X289266Y170389D01*
X289259Y170407D01*
X289154Y170538D01*
X287963Y171729D01*
X287963Y175073D01*
X290328Y177438D01*
X293672Y177438D01*
X296037Y175073D01*
X296037Y171729D01*
X294846Y170538D01*
X294834Y170522D01*
X294819Y170510D01*
X294763Y170422D01*
X294703Y170339D01*
X294697Y170319D01*
X294686Y170303D01*
X294661Y170202D01*
X294630Y170103D01*
X294631Y170084D01*
X294626Y170064D01*
X294634Y169961D01*
X294637Y169858D01*
X294643Y169839D01*
X294645Y169819D01*
X294685Y169724D01*
X294721Y169627D01*
X294733Y169611D01*
X294741Y169593D01*
X294846Y169462D01*
X296037Y168271D01*
X296037Y164927D01*
X293672Y162562D01*
X290328Y162562D01*
G37*
%LPD*%
%LPC*%
G36*
X146328Y247963D02*
X146328Y247963D01*
X143963Y250328D01*
X143963Y253672D01*
X145154Y254863D01*
X145166Y254879D01*
X145181Y254891D01*
X145237Y254979D01*
X145297Y255062D01*
X145303Y255081D01*
X145314Y255098D01*
X145339Y255199D01*
X145370Y255298D01*
X145369Y255317D01*
X145374Y255337D01*
X145366Y255440D01*
X145363Y255543D01*
X145357Y255562D01*
X145355Y255582D01*
X145315Y255677D01*
X145279Y255774D01*
X145267Y255790D01*
X145259Y255808D01*
X145154Y255939D01*
X143963Y257130D01*
X143963Y260474D01*
X146328Y262839D01*
X149672Y262839D01*
X152037Y260474D01*
X152037Y257130D01*
X150846Y255939D01*
X150834Y255923D01*
X150819Y255911D01*
X150763Y255823D01*
X150703Y255740D01*
X150697Y255721D01*
X150686Y255704D01*
X150661Y255603D01*
X150630Y255504D01*
X150631Y255485D01*
X150626Y255465D01*
X150634Y255362D01*
X150637Y255259D01*
X150643Y255240D01*
X150645Y255220D01*
X150685Y255125D01*
X150721Y255028D01*
X150734Y255012D01*
X150741Y254994D01*
X150846Y254863D01*
X152037Y253672D01*
X152037Y250328D01*
X149672Y247963D01*
X146328Y247963D01*
G37*
%LPD*%
%LPC*%
G36*
X219328Y219963D02*
X219328Y219963D01*
X216963Y222328D01*
X216963Y225672D01*
X219328Y228037D01*
X222672Y228037D01*
X225037Y225672D01*
X225037Y222328D01*
X222672Y219963D01*
X219328Y219963D01*
G37*
%LPD*%
%LPC*%
G36*
X96328Y214963D02*
X96328Y214963D01*
X93963Y217328D01*
X93963Y220672D01*
X96328Y223037D01*
X99672Y223037D01*
X102037Y220672D01*
X102037Y217328D01*
X99672Y214963D01*
X96328Y214963D01*
G37*
%LPD*%
%LPC*%
G36*
X205328Y195963D02*
X205328Y195963D01*
X202963Y198328D01*
X202963Y201672D01*
X205328Y204037D01*
X208672Y204037D01*
X211037Y201672D01*
X211037Y198328D01*
X208672Y195963D01*
X205328Y195963D01*
G37*
%LPD*%
%LPC*%
G36*
X44328Y65963D02*
X44328Y65963D01*
X41963Y68328D01*
X41963Y71672D01*
X44328Y74037D01*
X47672Y74037D01*
X50037Y71672D01*
X50037Y68328D01*
X47672Y65963D01*
X44328Y65963D01*
G37*
%LPD*%
%LPC*%
G36*
X165864Y233999D02*
X165864Y233999D01*
X163499Y236364D01*
X163499Y239708D01*
X165864Y242073D01*
X169208Y242073D01*
X171573Y239708D01*
X171573Y236364D01*
X169208Y233999D01*
X165864Y233999D01*
G37*
%LPD*%
%LPC*%
G36*
X78328Y283963D02*
X78328Y283963D01*
X75963Y286328D01*
X75963Y289672D01*
X78328Y292037D01*
X81672Y292037D01*
X84037Y289672D01*
X84037Y286328D01*
X81672Y283963D01*
X78328Y283963D01*
G37*
%LPD*%
%LPC*%
G36*
X60328Y82963D02*
X60328Y82963D01*
X57963Y85328D01*
X57963Y88672D01*
X60328Y91037D01*
X63672Y91037D01*
X66037Y88672D01*
X66037Y85328D01*
X63672Y82963D01*
X60328Y82963D01*
G37*
%LPD*%
%LPC*%
G36*
X113328Y95963D02*
X113328Y95963D01*
X110963Y98328D01*
X110963Y101672D01*
X113328Y104037D01*
X116672Y104037D01*
X119037Y101672D01*
X119037Y98328D01*
X116672Y95963D01*
X113328Y95963D01*
G37*
%LPD*%
%LPC*%
G36*
X54328Y97963D02*
X54328Y97963D01*
X51963Y100328D01*
X51963Y103672D01*
X54328Y106037D01*
X57672Y106037D01*
X60037Y103672D01*
X60037Y100328D01*
X57672Y97963D01*
X54328Y97963D01*
G37*
%LPD*%
%LPC*%
G36*
X64328Y97963D02*
X64328Y97963D01*
X61963Y100328D01*
X61963Y103672D01*
X64328Y106037D01*
X67672Y106037D01*
X70037Y103672D01*
X70037Y100328D01*
X67672Y97963D01*
X64328Y97963D01*
G37*
%LPD*%
%LPC*%
G36*
X242328Y100963D02*
X242328Y100963D01*
X239963Y103328D01*
X239963Y106672D01*
X242328Y109037D01*
X245672Y109037D01*
X248037Y106672D01*
X248037Y103328D01*
X245672Y100963D01*
X242328Y100963D01*
G37*
%LPD*%
%LPC*%
G36*
X44328Y114963D02*
X44328Y114963D01*
X41963Y117328D01*
X41963Y120672D01*
X44328Y123037D01*
X47672Y123037D01*
X50037Y120672D01*
X50037Y117328D01*
X47672Y114963D01*
X44328Y114963D01*
G37*
%LPD*%
%LPC*%
G36*
X159328Y118963D02*
X159328Y118963D01*
X156963Y121328D01*
X156963Y124672D01*
X159328Y127037D01*
X162672Y127037D01*
X165037Y124672D01*
X165037Y121328D01*
X162672Y118963D01*
X159328Y118963D01*
G37*
%LPD*%
%LPC*%
G36*
X54328Y127963D02*
X54328Y127963D01*
X51963Y130328D01*
X51963Y133672D01*
X54328Y136037D01*
X57672Y136037D01*
X60037Y133672D01*
X60037Y130328D01*
X57672Y127963D01*
X54328Y127963D01*
G37*
%LPD*%
%LPC*%
G36*
X250328Y133963D02*
X250328Y133963D01*
X247963Y136328D01*
X247963Y139672D01*
X250328Y142037D01*
X253672Y142037D01*
X256037Y139672D01*
X256037Y136328D01*
X253672Y133963D01*
X250328Y133963D01*
G37*
%LPD*%
%LPC*%
G36*
X172328Y136963D02*
X172328Y136963D01*
X169963Y139328D01*
X169963Y142672D01*
X172328Y145037D01*
X175672Y145037D01*
X178037Y142672D01*
X178037Y139328D01*
X175672Y136963D01*
X172328Y136963D01*
G37*
%LPD*%
D10*
X117000Y69000D03*
X137000Y69000D03*
X97000Y69000D03*
D11*
X159500Y64000D03*
X74500Y64000D03*
X74500Y16500D03*
X159500Y16500D03*
D10*
X203000Y68000D03*
X223000Y68000D03*
D11*
X245500Y63000D03*
X180500Y63000D03*
X180500Y15500D03*
X245500Y15500D03*
D12*
X30000Y30000D03*
X290000Y30000D03*
X290000Y270000D03*
X30000Y270000D03*
D13*
X181000Y241000D03*
X248000Y268000D03*
X258000Y239000D03*
X18000Y152000D03*
X18000Y173000D03*
X18000Y193000D03*
X18000Y213000D03*
X20000Y80000D03*
X90000Y97000D03*
X20000Y100000D03*
X185000Y115000D03*
X207000Y111000D03*
D14*
X282000Y140000D03*
D13*
X298000Y68000D03*
X232000Y75000D03*
X141000Y150000D03*
X141000Y174000D03*
X141000Y198000D03*
X117000Y198000D03*
X117000Y174000D03*
X117000Y150000D03*
X93000Y150000D03*
X93000Y174000D03*
X93000Y198000D03*
X186000Y225000D03*
X164000Y163000D03*
X163000Y152000D03*
X121000Y119000D03*
X107000Y277000D03*
X107000Y259000D03*
X18000Y233000D03*
X197000Y180000D03*
X213000Y217000D03*
X127000Y98000D03*
X80000Y288000D03*
X221000Y224000D03*
X56000Y164000D03*
X56000Y132000D03*
X161000Y123000D03*
X174000Y141000D03*
D14*
X282000Y129000D03*
D13*
X228000Y273000D03*
D14*
X211000Y143000D03*
D13*
X46000Y70000D03*
X46000Y119000D03*
X252000Y138000D03*
X56000Y102000D03*
X292000Y173401D03*
X166000Y188000D03*
X145000Y230000D03*
X172000Y248000D03*
D15*
X194000Y285000D03*
D13*
X152000Y230000D03*
X167536Y238036D03*
D15*
X170000Y285000D03*
D13*
X165458Y218000D03*
X148000Y258802D03*
D15*
X144000Y285000D03*
D13*
X158656Y218000D03*
X148000Y252000D03*
D15*
X119000Y285000D03*
D13*
X152000Y222000D03*
X180000Y253000D03*
D15*
X220000Y285000D03*
D13*
X66000Y102000D03*
X69000Y159000D03*
X62000Y87000D03*
X64190Y163810D03*
X115000Y100000D03*
X217000Y133000D03*
X99714Y127285D03*
X207381Y123381D03*
X109334Y117666D03*
X212190Y128190D03*
X104524Y122476D03*
X207000Y200000D03*
X98000Y219000D03*
X292000Y166599D03*
X161190Y183190D03*
X244000Y105000D03*
X156000Y77000D03*
M02*
