G04 EAGLE Gerber RS-274X export*
G75*
%MOMM*%
%FSLAX34Y34*%
%LPD*%
%IN*%
%IPPOS*%
%AMOC8*
5,1,8,0,0,1.08239X$1,22.5*%
G01*
%ADD10C,0.254000*%


D10*
X0Y30000D02*
X114Y27385D01*
X456Y24791D01*
X1022Y22235D01*
X1809Y19739D01*
X2811Y17321D01*
X4019Y15000D01*
X5425Y12793D01*
X7019Y10716D01*
X8787Y8787D01*
X10716Y7019D01*
X12793Y5425D01*
X15000Y4019D01*
X17321Y2811D01*
X19739Y1809D01*
X22235Y1022D01*
X24791Y456D01*
X27385Y114D01*
X30000Y0D01*
X290000Y0D01*
X292615Y114D01*
X295209Y456D01*
X297765Y1022D01*
X300261Y1809D01*
X302679Y2811D01*
X305000Y4019D01*
X307207Y5425D01*
X309284Y7019D01*
X311213Y8787D01*
X312981Y10716D01*
X314575Y12793D01*
X315981Y15000D01*
X317189Y17321D01*
X318191Y19739D01*
X318978Y22235D01*
X319544Y24791D01*
X319886Y27385D01*
X320000Y30000D01*
X320000Y270000D01*
X319886Y272615D01*
X319544Y275209D01*
X318978Y277765D01*
X318191Y280261D01*
X317189Y282679D01*
X315981Y285000D01*
X314575Y287207D01*
X312981Y289284D01*
X311213Y291213D01*
X309284Y292981D01*
X307207Y294575D01*
X305000Y295981D01*
X302679Y297189D01*
X300261Y298191D01*
X297765Y298978D01*
X295209Y299544D01*
X292615Y299886D01*
X290000Y300000D01*
X30000Y300000D01*
X27385Y299886D01*
X24791Y299544D01*
X22235Y298978D01*
X19739Y298191D01*
X17321Y297189D01*
X15000Y295981D01*
X12793Y294575D01*
X10716Y292981D01*
X8787Y291213D01*
X7019Y289284D01*
X5425Y287207D01*
X4019Y285000D01*
X2811Y282679D01*
X1809Y280261D01*
X1022Y277765D01*
X456Y275209D01*
X114Y272615D01*
X0Y270000D01*
X0Y30000D01*
X46000Y29476D02*
X46000Y30524D01*
X45932Y31569D01*
X45795Y32608D01*
X45590Y33635D01*
X45319Y34647D01*
X44983Y35639D01*
X44582Y36607D01*
X44118Y37546D01*
X43595Y38454D01*
X43013Y39325D01*
X42375Y40156D01*
X41684Y40943D01*
X40943Y41684D01*
X40156Y42375D01*
X39325Y43013D01*
X38454Y43595D01*
X37546Y44118D01*
X36607Y44582D01*
X35639Y44983D01*
X34647Y45319D01*
X33635Y45590D01*
X32608Y45795D01*
X31569Y45932D01*
X30524Y46000D01*
X29476Y46000D01*
X28431Y45932D01*
X27392Y45795D01*
X26365Y45590D01*
X25353Y45319D01*
X24361Y44983D01*
X23393Y44582D01*
X22454Y44118D01*
X21546Y43595D01*
X20675Y43013D01*
X19844Y42375D01*
X19057Y41684D01*
X18316Y40943D01*
X17625Y40156D01*
X16988Y39325D01*
X16406Y38454D01*
X15882Y37546D01*
X15418Y36607D01*
X15017Y35639D01*
X14681Y34647D01*
X14410Y33635D01*
X14205Y32608D01*
X14069Y31569D01*
X14000Y30524D01*
X14000Y29476D01*
X14069Y28431D01*
X14205Y27392D01*
X14410Y26365D01*
X14681Y25353D01*
X15017Y24361D01*
X15418Y23393D01*
X15882Y22454D01*
X16406Y21546D01*
X16988Y20675D01*
X17625Y19844D01*
X18316Y19057D01*
X19057Y18316D01*
X19844Y17625D01*
X20675Y16988D01*
X21546Y16406D01*
X22454Y15882D01*
X23393Y15418D01*
X24361Y15017D01*
X25353Y14681D01*
X26365Y14410D01*
X27392Y14205D01*
X28431Y14069D01*
X29476Y14000D01*
X30524Y14000D01*
X31569Y14069D01*
X32608Y14205D01*
X33635Y14410D01*
X34647Y14681D01*
X35639Y15017D01*
X36607Y15418D01*
X37546Y15882D01*
X38454Y16406D01*
X39325Y16988D01*
X40156Y17625D01*
X40943Y18316D01*
X41684Y19057D01*
X42375Y19844D01*
X43013Y20675D01*
X43595Y21546D01*
X44118Y22454D01*
X44582Y23393D01*
X44983Y24361D01*
X45319Y25353D01*
X45590Y26365D01*
X45795Y27392D01*
X45932Y28431D01*
X46000Y29476D01*
X306000Y29476D02*
X306000Y30524D01*
X305932Y31569D01*
X305795Y32608D01*
X305590Y33635D01*
X305319Y34647D01*
X304983Y35639D01*
X304582Y36607D01*
X304118Y37546D01*
X303595Y38454D01*
X303013Y39325D01*
X302375Y40156D01*
X301684Y40943D01*
X300943Y41684D01*
X300156Y42375D01*
X299325Y43013D01*
X298454Y43595D01*
X297546Y44118D01*
X296607Y44582D01*
X295639Y44983D01*
X294647Y45319D01*
X293635Y45590D01*
X292608Y45795D01*
X291569Y45932D01*
X290524Y46000D01*
X289476Y46000D01*
X288431Y45932D01*
X287392Y45795D01*
X286365Y45590D01*
X285353Y45319D01*
X284361Y44983D01*
X283393Y44582D01*
X282454Y44118D01*
X281546Y43595D01*
X280675Y43013D01*
X279844Y42375D01*
X279057Y41684D01*
X278316Y40943D01*
X277625Y40156D01*
X276988Y39325D01*
X276406Y38454D01*
X275882Y37546D01*
X275418Y36607D01*
X275017Y35639D01*
X274681Y34647D01*
X274410Y33635D01*
X274205Y32608D01*
X274069Y31569D01*
X274000Y30524D01*
X274000Y29476D01*
X274069Y28431D01*
X274205Y27392D01*
X274410Y26365D01*
X274681Y25353D01*
X275017Y24361D01*
X275418Y23393D01*
X275882Y22454D01*
X276406Y21546D01*
X276988Y20675D01*
X277625Y19844D01*
X278316Y19057D01*
X279057Y18316D01*
X279844Y17625D01*
X280675Y16988D01*
X281546Y16406D01*
X282454Y15882D01*
X283393Y15418D01*
X284361Y15017D01*
X285353Y14681D01*
X286365Y14410D01*
X287392Y14205D01*
X288431Y14069D01*
X289476Y14000D01*
X290524Y14000D01*
X291569Y14069D01*
X292608Y14205D01*
X293635Y14410D01*
X294647Y14681D01*
X295639Y15017D01*
X296607Y15418D01*
X297546Y15882D01*
X298454Y16406D01*
X299325Y16988D01*
X300156Y17625D01*
X300943Y18316D01*
X301684Y19057D01*
X302375Y19844D01*
X303013Y20675D01*
X303595Y21546D01*
X304118Y22454D01*
X304582Y23393D01*
X304983Y24361D01*
X305319Y25353D01*
X305590Y26365D01*
X305795Y27392D01*
X305932Y28431D01*
X306000Y29476D01*
X46000Y269476D02*
X46000Y270524D01*
X45932Y271569D01*
X45795Y272608D01*
X45590Y273635D01*
X45319Y274647D01*
X44983Y275639D01*
X44582Y276607D01*
X44118Y277546D01*
X43595Y278454D01*
X43013Y279325D01*
X42375Y280156D01*
X41684Y280943D01*
X40943Y281684D01*
X40156Y282375D01*
X39325Y283013D01*
X38454Y283595D01*
X37546Y284118D01*
X36607Y284582D01*
X35639Y284983D01*
X34647Y285319D01*
X33635Y285590D01*
X32608Y285795D01*
X31569Y285932D01*
X30524Y286000D01*
X29476Y286000D01*
X28431Y285932D01*
X27392Y285795D01*
X26365Y285590D01*
X25353Y285319D01*
X24361Y284983D01*
X23393Y284582D01*
X22454Y284118D01*
X21546Y283595D01*
X20675Y283013D01*
X19844Y282375D01*
X19057Y281684D01*
X18316Y280943D01*
X17625Y280156D01*
X16988Y279325D01*
X16406Y278454D01*
X15882Y277546D01*
X15418Y276607D01*
X15017Y275639D01*
X14681Y274647D01*
X14410Y273635D01*
X14205Y272608D01*
X14069Y271569D01*
X14000Y270524D01*
X14000Y269476D01*
X14069Y268431D01*
X14205Y267392D01*
X14410Y266365D01*
X14681Y265353D01*
X15017Y264361D01*
X15418Y263393D01*
X15882Y262454D01*
X16406Y261546D01*
X16988Y260675D01*
X17625Y259844D01*
X18316Y259057D01*
X19057Y258316D01*
X19844Y257625D01*
X20675Y256988D01*
X21546Y256406D01*
X22454Y255882D01*
X23393Y255418D01*
X24361Y255017D01*
X25353Y254681D01*
X26365Y254410D01*
X27392Y254205D01*
X28431Y254069D01*
X29476Y254000D01*
X30524Y254000D01*
X31569Y254069D01*
X32608Y254205D01*
X33635Y254410D01*
X34647Y254681D01*
X35639Y255017D01*
X36607Y255418D01*
X37546Y255882D01*
X38454Y256406D01*
X39325Y256988D01*
X40156Y257625D01*
X40943Y258316D01*
X41684Y259057D01*
X42375Y259844D01*
X43013Y260675D01*
X43595Y261546D01*
X44118Y262454D01*
X44582Y263393D01*
X44983Y264361D01*
X45319Y265353D01*
X45590Y266365D01*
X45795Y267392D01*
X45932Y268431D01*
X46000Y269476D01*
X306000Y269476D02*
X306000Y270524D01*
X305932Y271569D01*
X305795Y272608D01*
X305590Y273635D01*
X305319Y274647D01*
X304983Y275639D01*
X304582Y276607D01*
X304118Y277546D01*
X303595Y278454D01*
X303013Y279325D01*
X302375Y280156D01*
X301684Y280943D01*
X300943Y281684D01*
X300156Y282375D01*
X299325Y283013D01*
X298454Y283595D01*
X297546Y284118D01*
X296607Y284582D01*
X295639Y284983D01*
X294647Y285319D01*
X293635Y285590D01*
X292608Y285795D01*
X291569Y285932D01*
X290524Y286000D01*
X289476Y286000D01*
X288431Y285932D01*
X287392Y285795D01*
X286365Y285590D01*
X285353Y285319D01*
X284361Y284983D01*
X283393Y284582D01*
X282454Y284118D01*
X281546Y283595D01*
X280675Y283013D01*
X279844Y282375D01*
X279057Y281684D01*
X278316Y280943D01*
X277625Y280156D01*
X276988Y279325D01*
X276406Y278454D01*
X275882Y277546D01*
X275418Y276607D01*
X275017Y275639D01*
X274681Y274647D01*
X274410Y273635D01*
X274205Y272608D01*
X274069Y271569D01*
X274000Y270524D01*
X274000Y269476D01*
X274069Y268431D01*
X274205Y267392D01*
X274410Y266365D01*
X274681Y265353D01*
X275017Y264361D01*
X275418Y263393D01*
X275882Y262454D01*
X276406Y261546D01*
X276988Y260675D01*
X277625Y259844D01*
X278316Y259057D01*
X279057Y258316D01*
X279844Y257625D01*
X280675Y256988D01*
X281546Y256406D01*
X282454Y255882D01*
X283393Y255418D01*
X284361Y255017D01*
X285353Y254681D01*
X286365Y254410D01*
X287392Y254205D01*
X288431Y254069D01*
X289476Y254000D01*
X290524Y254000D01*
X291569Y254069D01*
X292608Y254205D01*
X293635Y254410D01*
X294647Y254681D01*
X295639Y255017D01*
X296607Y255418D01*
X297546Y255882D01*
X298454Y256406D01*
X299325Y256988D01*
X300156Y257625D01*
X300943Y258316D01*
X301684Y259057D01*
X302375Y259844D01*
X303013Y260675D01*
X303595Y261546D01*
X304118Y262454D01*
X304582Y263393D01*
X304983Y264361D01*
X305319Y265353D01*
X305590Y266365D01*
X305795Y267392D01*
X305932Y268431D01*
X306000Y269476D01*
M02*
