G04 EAGLE Gerber RS-274X export*
G75*
%MOMM*%
%FSLAX34Y34*%
%LPD*%
%INTop Copper*%
%IPPOS*%
%AMOC8*
5,1,8,0,0,1.08239X$1,22.5*%
G01*
%ADD10C,2.550000*%
%ADD11C,1.500000*%
%ADD12C,2.000000*%
%ADD13C,1.524000*%
%ADD14C,2.000000*%
%ADD15R,1.600000X2.700000*%
%ADD16R,2.700000X1.600000*%
%ADD17C,1.400000*%
%ADD18R,0.300000X1.450000*%
%ADD19R,2.400000X1.800000*%
%ADD20R,1.000000X1.100000*%
%ADD21R,1.800000X2.400000*%
%ADD22R,1.100000X1.000000*%
%ADD23R,0.900000X0.800000*%
%ADD24R,1.150000X0.700000*%
%ADD25R,2.000000X2.000000*%
%ADD26R,0.700000X1.150000*%
%ADD27R,0.900000X0.950000*%
%ADD28R,1.600000X0.228600*%
%ADD29R,1.600000X1.100000*%
%ADD30R,0.228600X1.600000*%
%ADD31R,1.100000X1.600000*%
%ADD32C,5.200000*%
%ADD33R,0.600000X1.550000*%
%ADD34R,1.200000X1.800000*%
%ADD35C,0.300000*%
%ADD36C,0.654800*%
%ADD37C,0.200000*%
%ADD38C,2.500000*%
%ADD39C,0.152400*%

G36*
X154258Y4274D02*
X154258Y4274D01*
X154277Y4272D01*
X154379Y4294D01*
X154481Y4310D01*
X154498Y4320D01*
X154518Y4324D01*
X154607Y4377D01*
X154698Y4426D01*
X154712Y4440D01*
X154729Y4450D01*
X154796Y4529D01*
X154868Y4604D01*
X154876Y4622D01*
X154889Y4637D01*
X154928Y4733D01*
X154971Y4827D01*
X154973Y4847D01*
X154981Y4865D01*
X154999Y5032D01*
X154999Y23243D01*
X156757Y25001D01*
X171243Y25001D01*
X173001Y23243D01*
X173001Y5032D01*
X173004Y5012D01*
X173002Y4993D01*
X173024Y4891D01*
X173040Y4789D01*
X173050Y4772D01*
X173054Y4752D01*
X173107Y4663D01*
X173156Y4572D01*
X173170Y4558D01*
X173180Y4541D01*
X173259Y4474D01*
X173334Y4402D01*
X173352Y4394D01*
X173367Y4381D01*
X173463Y4342D01*
X173557Y4299D01*
X173577Y4297D01*
X173595Y4289D01*
X173762Y4271D01*
X190238Y4271D01*
X190258Y4274D01*
X190277Y4272D01*
X190379Y4294D01*
X190481Y4310D01*
X190498Y4320D01*
X190518Y4324D01*
X190607Y4377D01*
X190698Y4426D01*
X190712Y4440D01*
X190729Y4450D01*
X190796Y4529D01*
X190868Y4604D01*
X190876Y4622D01*
X190889Y4637D01*
X190928Y4733D01*
X190971Y4827D01*
X190973Y4847D01*
X190981Y4865D01*
X190999Y5032D01*
X190999Y23243D01*
X192757Y25001D01*
X207243Y25001D01*
X209001Y23243D01*
X209001Y5032D01*
X209004Y5012D01*
X209002Y4993D01*
X209024Y4891D01*
X209040Y4789D01*
X209050Y4772D01*
X209054Y4752D01*
X209107Y4663D01*
X209156Y4572D01*
X209170Y4558D01*
X209180Y4541D01*
X209259Y4474D01*
X209334Y4402D01*
X209352Y4394D01*
X209367Y4381D01*
X209463Y4342D01*
X209557Y4299D01*
X209577Y4297D01*
X209595Y4289D01*
X209762Y4271D01*
X255238Y4271D01*
X255258Y4274D01*
X255277Y4272D01*
X255379Y4294D01*
X255481Y4310D01*
X255498Y4320D01*
X255518Y4324D01*
X255607Y4377D01*
X255698Y4426D01*
X255712Y4440D01*
X255729Y4450D01*
X255796Y4529D01*
X255868Y4604D01*
X255876Y4622D01*
X255889Y4637D01*
X255928Y4733D01*
X255971Y4827D01*
X255973Y4847D01*
X255981Y4865D01*
X255999Y5032D01*
X255999Y23243D01*
X257757Y25001D01*
X272243Y25001D01*
X274001Y23243D01*
X274001Y5032D01*
X274004Y5012D01*
X274002Y4993D01*
X274024Y4891D01*
X274040Y4789D01*
X274050Y4772D01*
X274054Y4752D01*
X274107Y4663D01*
X274156Y4572D01*
X274170Y4558D01*
X274180Y4541D01*
X274259Y4474D01*
X274334Y4402D01*
X274352Y4394D01*
X274367Y4381D01*
X274463Y4342D01*
X274557Y4299D01*
X274577Y4297D01*
X274595Y4289D01*
X274762Y4271D01*
X291238Y4271D01*
X291258Y4274D01*
X291277Y4272D01*
X291379Y4294D01*
X291481Y4310D01*
X291498Y4320D01*
X291518Y4324D01*
X291607Y4377D01*
X291698Y4426D01*
X291712Y4440D01*
X291729Y4450D01*
X291796Y4529D01*
X291868Y4604D01*
X291876Y4622D01*
X291889Y4637D01*
X291928Y4733D01*
X291971Y4827D01*
X291973Y4847D01*
X291981Y4865D01*
X291999Y5032D01*
X291999Y23243D01*
X293757Y25001D01*
X308243Y25001D01*
X310001Y23243D01*
X310001Y5032D01*
X310004Y5012D01*
X310002Y4993D01*
X310024Y4891D01*
X310040Y4789D01*
X310050Y4772D01*
X310054Y4752D01*
X310107Y4663D01*
X310156Y4572D01*
X310170Y4558D01*
X310180Y4541D01*
X310259Y4474D01*
X310334Y4402D01*
X310352Y4394D01*
X310367Y4381D01*
X310463Y4342D01*
X310557Y4299D01*
X310577Y4297D01*
X310595Y4289D01*
X310762Y4271D01*
X890000Y4271D01*
X890022Y4274D01*
X890060Y4273D01*
X893966Y4580D01*
X893971Y4582D01*
X893977Y4581D01*
X894141Y4615D01*
X901570Y7029D01*
X901602Y7046D01*
X901637Y7054D01*
X901783Y7137D01*
X908102Y11729D01*
X908128Y11755D01*
X908158Y11773D01*
X908271Y11898D01*
X912863Y18217D01*
X912879Y18249D01*
X912902Y18277D01*
X912971Y18430D01*
X915385Y25859D01*
X915385Y25865D01*
X915388Y25870D01*
X915420Y26034D01*
X915727Y29940D01*
X915725Y29962D01*
X915729Y30000D01*
X915729Y890000D01*
X915726Y890022D01*
X915727Y890060D01*
X915420Y893966D01*
X915418Y893971D01*
X915419Y893977D01*
X915385Y894141D01*
X912971Y901570D01*
X912954Y901602D01*
X912946Y901637D01*
X912863Y901783D01*
X908271Y908102D01*
X908245Y908128D01*
X908227Y908158D01*
X908102Y908271D01*
X901783Y912863D01*
X901751Y912879D01*
X901723Y912902D01*
X901570Y912971D01*
X894141Y915385D01*
X894135Y915385D01*
X894130Y915388D01*
X893966Y915420D01*
X890060Y915727D01*
X890038Y915725D01*
X890000Y915729D01*
X30000Y915729D01*
X29978Y915726D01*
X29940Y915727D01*
X26034Y915420D01*
X26029Y915418D01*
X26023Y915419D01*
X25859Y915385D01*
X18429Y912971D01*
X18398Y912954D01*
X18363Y912946D01*
X18217Y912863D01*
X11898Y908271D01*
X11872Y908246D01*
X11842Y908227D01*
X11729Y908103D01*
X7137Y901783D01*
X7121Y901751D01*
X7098Y901723D01*
X7029Y901571D01*
X4615Y894141D01*
X4615Y894136D01*
X4612Y894130D01*
X4580Y893966D01*
X4273Y890060D01*
X4275Y890038D01*
X4271Y890000D01*
X4271Y30000D01*
X4274Y29978D01*
X4273Y29940D01*
X4580Y26034D01*
X4582Y26029D01*
X4581Y26023D01*
X4615Y25859D01*
X7029Y18430D01*
X7046Y18398D01*
X7054Y18363D01*
X7137Y18217D01*
X11729Y11898D01*
X11755Y11872D01*
X11773Y11842D01*
X11898Y11729D01*
X18217Y7137D01*
X18249Y7121D01*
X18277Y7098D01*
X18430Y7029D01*
X25859Y4615D01*
X25865Y4615D01*
X25870Y4612D01*
X26034Y4580D01*
X29940Y4273D01*
X29962Y4275D01*
X30000Y4271D01*
X154238Y4271D01*
X154258Y4274D01*
G37*
%LPC*%
G36*
X189136Y32499D02*
X189136Y32499D01*
X182499Y39136D01*
X182499Y40668D01*
X182488Y40739D01*
X182486Y40810D01*
X182468Y40859D01*
X182460Y40911D01*
X182426Y40974D01*
X182401Y41041D01*
X182369Y41082D01*
X182344Y41128D01*
X182292Y41177D01*
X182248Y41233D01*
X182204Y41261D01*
X182166Y41297D01*
X182101Y41328D01*
X182041Y41366D01*
X181990Y41379D01*
X181943Y41401D01*
X181872Y41409D01*
X181802Y41426D01*
X181750Y41422D01*
X181699Y41428D01*
X181628Y41413D01*
X181557Y41407D01*
X181509Y41387D01*
X181458Y41376D01*
X181397Y41339D01*
X181331Y41311D01*
X181275Y41266D01*
X181247Y41250D01*
X181247Y41249D01*
X172757Y41249D01*
X170999Y43007D01*
X170999Y60993D01*
X172776Y62770D01*
X172829Y62844D01*
X172889Y62913D01*
X172901Y62943D01*
X172920Y62970D01*
X172947Y63057D01*
X172981Y63142D01*
X172985Y63182D01*
X172992Y63205D01*
X172991Y63237D01*
X172999Y63308D01*
X172999Y73028D01*
X172985Y73118D01*
X172977Y73209D01*
X172965Y73238D01*
X172960Y73270D01*
X172917Y73351D01*
X172881Y73435D01*
X172855Y73467D01*
X172844Y73488D01*
X172821Y73510D01*
X172776Y73566D01*
X99475Y146867D01*
X99475Y285133D01*
X107026Y292684D01*
X107079Y292758D01*
X107139Y292828D01*
X107151Y292858D01*
X107170Y292884D01*
X107197Y292971D01*
X107231Y293056D01*
X107235Y293097D01*
X107242Y293119D01*
X107241Y293151D01*
X107249Y293222D01*
X107249Y381738D01*
X107246Y381758D01*
X107248Y381777D01*
X107226Y381879D01*
X107210Y381981D01*
X107200Y381998D01*
X107196Y382018D01*
X107143Y382107D01*
X107094Y382198D01*
X107080Y382212D01*
X107070Y382229D01*
X106991Y382296D01*
X106916Y382368D01*
X106898Y382376D01*
X106883Y382389D01*
X106787Y382428D01*
X106693Y382471D01*
X106673Y382473D01*
X106655Y382481D01*
X106488Y382499D01*
X105257Y382499D01*
X103499Y384257D01*
X103499Y397743D01*
X105257Y399501D01*
X116340Y399501D01*
X116411Y399512D01*
X116483Y399514D01*
X116532Y399532D01*
X116583Y399540D01*
X116646Y399574D01*
X116714Y399599D01*
X116754Y399631D01*
X116800Y399656D01*
X116850Y399708D01*
X116906Y399752D01*
X116934Y399796D01*
X116970Y399834D01*
X117000Y399899D01*
X117039Y399959D01*
X117051Y400010D01*
X117073Y400057D01*
X117081Y400128D01*
X117099Y400198D01*
X117095Y400250D01*
X117100Y400301D01*
X117085Y400372D01*
X117080Y400443D01*
X117059Y400491D01*
X117048Y400542D01*
X117011Y400603D01*
X116983Y400669D01*
X116938Y400725D01*
X116922Y400753D01*
X116904Y400768D01*
X116878Y400800D01*
X114902Y402776D01*
X114828Y402829D01*
X114759Y402889D01*
X114729Y402901D01*
X114703Y402920D01*
X114615Y402947D01*
X114531Y402981D01*
X114490Y402985D01*
X114468Y402992D01*
X114435Y402991D01*
X114364Y402999D01*
X105257Y402999D01*
X103499Y404757D01*
X103499Y418243D01*
X105257Y420001D01*
X117743Y420001D01*
X119462Y418282D01*
X119478Y418270D01*
X119490Y418255D01*
X119578Y418199D01*
X119661Y418138D01*
X119680Y418133D01*
X119697Y418122D01*
X119798Y418096D01*
X119897Y418066D01*
X119916Y418067D01*
X119936Y418062D01*
X120039Y418070D01*
X120142Y418072D01*
X120161Y418079D01*
X120181Y418081D01*
X120276Y418121D01*
X120373Y418157D01*
X120389Y418169D01*
X120407Y418177D01*
X120538Y418282D01*
X122257Y420001D01*
X123738Y420001D01*
X123758Y420004D01*
X123777Y420002D01*
X123879Y420024D01*
X123981Y420040D01*
X123998Y420050D01*
X124018Y420054D01*
X124107Y420107D01*
X124198Y420156D01*
X124212Y420170D01*
X124229Y420180D01*
X124296Y420259D01*
X124368Y420334D01*
X124376Y420352D01*
X124389Y420367D01*
X124428Y420463D01*
X124471Y420557D01*
X124473Y420577D01*
X124481Y420595D01*
X124499Y420762D01*
X124499Y422738D01*
X124496Y422758D01*
X124498Y422777D01*
X124476Y422879D01*
X124460Y422981D01*
X124450Y422998D01*
X124446Y423018D01*
X124393Y423107D01*
X124344Y423198D01*
X124330Y423212D01*
X124320Y423229D01*
X124241Y423296D01*
X124166Y423368D01*
X124148Y423376D01*
X124133Y423389D01*
X124037Y423428D01*
X123943Y423471D01*
X123923Y423473D01*
X123905Y423481D01*
X123738Y423499D01*
X122257Y423499D01*
X120499Y425257D01*
X120499Y438743D01*
X121456Y439700D01*
X121498Y439758D01*
X121547Y439810D01*
X121569Y439857D01*
X121600Y439899D01*
X121621Y439968D01*
X121651Y440033D01*
X121657Y440085D01*
X121672Y440135D01*
X121670Y440206D01*
X121678Y440277D01*
X121667Y440328D01*
X121666Y440380D01*
X121641Y440448D01*
X121626Y440518D01*
X121599Y440563D01*
X121581Y440611D01*
X121536Y440667D01*
X121500Y440729D01*
X121460Y440763D01*
X121427Y440803D01*
X121367Y440842D01*
X121313Y440889D01*
X121264Y440908D01*
X121221Y440936D01*
X121151Y440954D01*
X121085Y440981D01*
X121013Y440989D01*
X120982Y440997D01*
X120959Y440995D01*
X120918Y440999D01*
X26343Y440999D01*
X14999Y452343D01*
X14999Y608657D01*
X15014Y608672D01*
X15067Y608746D01*
X15127Y608816D01*
X15139Y608846D01*
X15158Y608872D01*
X15185Y608959D01*
X15219Y609044D01*
X15223Y609085D01*
X15230Y609107D01*
X15229Y609139D01*
X15237Y609210D01*
X15237Y611596D01*
X15284Y611661D01*
X15290Y611680D01*
X15301Y611697D01*
X15326Y611797D01*
X15356Y611896D01*
X15356Y611916D01*
X15361Y611936D01*
X15353Y612039D01*
X15350Y612142D01*
X15343Y612161D01*
X15342Y612181D01*
X15301Y612276D01*
X15266Y612373D01*
X15253Y612389D01*
X15245Y612407D01*
X15140Y612538D01*
X14237Y613441D01*
X14237Y822559D01*
X16441Y824763D01*
X167476Y824763D01*
X167496Y824766D01*
X167515Y824764D01*
X167617Y824786D01*
X167719Y824802D01*
X167736Y824812D01*
X167756Y824816D01*
X167845Y824869D01*
X167936Y824918D01*
X167950Y824932D01*
X167967Y824942D01*
X168034Y825021D01*
X168106Y825096D01*
X168114Y825114D01*
X168127Y825129D01*
X168166Y825225D01*
X168209Y825319D01*
X168211Y825339D01*
X168219Y825357D01*
X168237Y825524D01*
X168237Y848559D01*
X170441Y850763D01*
X196559Y850763D01*
X198763Y848559D01*
X198763Y698524D01*
X198766Y698507D01*
X198764Y698491D01*
X198764Y698489D01*
X198764Y698485D01*
X198786Y698383D01*
X198802Y698281D01*
X198812Y698264D01*
X198816Y698244D01*
X198869Y698155D01*
X198918Y698064D01*
X198932Y698050D01*
X198942Y698033D01*
X199021Y697966D01*
X199096Y697894D01*
X199114Y697886D01*
X199129Y697873D01*
X199225Y697834D01*
X199319Y697791D01*
X199339Y697789D01*
X199357Y697781D01*
X199524Y697763D01*
X220476Y697763D01*
X220496Y697766D01*
X220515Y697764D01*
X220617Y697786D01*
X220719Y697802D01*
X220736Y697812D01*
X220756Y697816D01*
X220845Y697869D01*
X220936Y697918D01*
X220950Y697932D01*
X220967Y697942D01*
X221034Y698021D01*
X221106Y698096D01*
X221114Y698114D01*
X221127Y698129D01*
X221166Y698225D01*
X221209Y698319D01*
X221211Y698339D01*
X221219Y698357D01*
X221237Y698524D01*
X221237Y737559D01*
X223441Y739763D01*
X405238Y739763D01*
X405258Y739766D01*
X405277Y739764D01*
X405379Y739786D01*
X405481Y739802D01*
X405498Y739812D01*
X405518Y739816D01*
X405607Y739869D01*
X405698Y739918D01*
X405712Y739932D01*
X405729Y739942D01*
X405796Y740021D01*
X405868Y740096D01*
X405876Y740114D01*
X405889Y740129D01*
X405928Y740225D01*
X405971Y740319D01*
X405973Y740339D01*
X405981Y740357D01*
X405999Y740524D01*
X405999Y843696D01*
X407979Y848474D01*
X411743Y852239D01*
X442076Y882572D01*
X442129Y882646D01*
X442189Y882716D01*
X442201Y882746D01*
X442220Y882772D01*
X442247Y882859D01*
X442281Y882944D01*
X442285Y882985D01*
X442292Y883007D01*
X442291Y883039D01*
X442299Y883110D01*
X442299Y889653D01*
X444057Y891411D01*
X464543Y891411D01*
X466301Y889653D01*
X466301Y881562D01*
X466311Y881497D01*
X466312Y881431D01*
X466335Y881351D01*
X466340Y881319D01*
X466350Y881302D01*
X466359Y881270D01*
X467301Y878996D01*
X467301Y873824D01*
X466359Y871550D01*
X466344Y871486D01*
X466319Y871425D01*
X466310Y871342D01*
X466303Y871310D01*
X466304Y871291D01*
X466301Y871258D01*
X466301Y863167D01*
X464543Y861409D01*
X458000Y861409D01*
X457910Y861395D01*
X457819Y861387D01*
X457790Y861375D01*
X457758Y861370D01*
X457677Y861327D01*
X457593Y861291D01*
X457561Y861265D01*
X457540Y861254D01*
X457518Y861231D01*
X457462Y861186D01*
X432224Y835948D01*
X432171Y835874D01*
X432111Y835804D01*
X432099Y835774D01*
X432080Y835748D01*
X432053Y835661D01*
X432019Y835576D01*
X432015Y835535D01*
X432008Y835513D01*
X432009Y835481D01*
X432001Y835410D01*
X432001Y740524D01*
X432004Y740504D01*
X432002Y740485D01*
X432024Y740383D01*
X432040Y740281D01*
X432050Y740264D01*
X432054Y740244D01*
X432107Y740155D01*
X432156Y740064D01*
X432170Y740050D01*
X432180Y740033D01*
X432259Y739966D01*
X432334Y739894D01*
X432352Y739886D01*
X432367Y739873D01*
X432463Y739834D01*
X432557Y739791D01*
X432577Y739789D01*
X432595Y739781D01*
X432762Y739763D01*
X455781Y739763D01*
X455846Y739773D01*
X455911Y739774D01*
X455991Y739797D01*
X456024Y739802D01*
X456041Y739812D01*
X456072Y739821D01*
X457714Y740501D01*
X462886Y740501D01*
X464528Y739821D01*
X464592Y739806D01*
X464652Y739781D01*
X464735Y739772D01*
X464767Y739765D01*
X464787Y739766D01*
X464819Y739763D01*
X544559Y739763D01*
X546763Y737559D01*
X546763Y642162D01*
X546766Y642142D01*
X546764Y642123D01*
X546786Y642021D01*
X546802Y641919D01*
X546812Y641902D01*
X546816Y641882D01*
X546869Y641793D01*
X546918Y641702D01*
X546932Y641688D01*
X546942Y641671D01*
X547021Y641604D01*
X547096Y641532D01*
X547114Y641524D01*
X547129Y641511D01*
X547225Y641472D01*
X547319Y641429D01*
X547339Y641427D01*
X547357Y641419D01*
X547524Y641401D01*
X657164Y641401D01*
X657254Y641415D01*
X657345Y641423D01*
X657375Y641435D01*
X657407Y641440D01*
X657488Y641483D01*
X657571Y641519D01*
X657604Y641545D01*
X657624Y641556D01*
X657646Y641579D01*
X657702Y641624D01*
X742976Y726898D01*
X743029Y726972D01*
X743089Y727041D01*
X743101Y727071D01*
X743120Y727097D01*
X743147Y727184D01*
X743181Y727269D01*
X743185Y727310D01*
X743192Y727332D01*
X743191Y727365D01*
X743199Y727436D01*
X743199Y757583D01*
X745559Y763280D01*
X780978Y798700D01*
X781020Y798758D01*
X781070Y798810D01*
X781092Y798857D01*
X781122Y798899D01*
X781143Y798968D01*
X781173Y799033D01*
X781179Y799085D01*
X781194Y799135D01*
X781192Y799206D01*
X781200Y799277D01*
X781189Y799328D01*
X781188Y799380D01*
X781163Y799448D01*
X781148Y799518D01*
X781121Y799563D01*
X781104Y799611D01*
X781059Y799667D01*
X781022Y799729D01*
X780982Y799763D01*
X780950Y799803D01*
X780890Y799842D01*
X780835Y799889D01*
X780787Y799908D01*
X780743Y799936D01*
X780673Y799954D01*
X780607Y799981D01*
X780536Y799989D01*
X780504Y799997D01*
X780481Y799995D01*
X780440Y799999D01*
X757236Y799999D01*
X757146Y799985D01*
X757055Y799977D01*
X757025Y799965D01*
X756993Y799960D01*
X756912Y799917D01*
X756829Y799881D01*
X756796Y799855D01*
X756776Y799844D01*
X756754Y799821D01*
X756698Y799776D01*
X743780Y786859D01*
X738083Y784499D01*
X486317Y784499D01*
X480620Y786859D01*
X476152Y791326D01*
X476152Y791327D01*
X447159Y820320D01*
X444799Y826017D01*
X444799Y832183D01*
X447159Y837880D01*
X451520Y842241D01*
X457217Y844601D01*
X463383Y844601D01*
X469080Y842241D01*
X495598Y815724D01*
X495672Y815671D01*
X495741Y815611D01*
X495771Y815599D01*
X495797Y815580D01*
X495884Y815553D01*
X495969Y815519D01*
X496010Y815515D01*
X496032Y815508D01*
X496065Y815509D01*
X496136Y815501D01*
X513432Y815501D01*
X513528Y815516D01*
X513625Y815526D01*
X513649Y815536D01*
X513675Y815540D01*
X513761Y815586D01*
X513850Y815626D01*
X513869Y815643D01*
X513892Y815656D01*
X513959Y815726D01*
X514031Y815792D01*
X514043Y815815D01*
X514061Y815834D01*
X514102Y815922D01*
X514149Y816008D01*
X514154Y816033D01*
X514165Y816057D01*
X514176Y816154D01*
X514193Y816250D01*
X514189Y816276D01*
X514192Y816301D01*
X514171Y816397D01*
X514157Y816493D01*
X514145Y816516D01*
X514140Y816542D01*
X514090Y816625D01*
X514046Y816712D01*
X514027Y816731D01*
X514014Y816753D01*
X513940Y816816D01*
X513870Y816884D01*
X513842Y816900D01*
X513827Y816913D01*
X513796Y816925D01*
X513723Y816965D01*
X511036Y818079D01*
X507379Y821736D01*
X505399Y826514D01*
X505399Y831686D01*
X507379Y836464D01*
X511036Y840121D01*
X515814Y842101D01*
X520986Y842101D01*
X525764Y840121D01*
X529421Y836464D01*
X531401Y831686D01*
X531401Y826514D01*
X529421Y821736D01*
X525764Y818079D01*
X523077Y816965D01*
X522994Y816914D01*
X522908Y816868D01*
X522890Y816850D01*
X522868Y816836D01*
X522805Y816760D01*
X522739Y816690D01*
X522728Y816666D01*
X522711Y816646D01*
X522676Y816555D01*
X522635Y816467D01*
X522632Y816441D01*
X522623Y816417D01*
X522619Y816319D01*
X522608Y816223D01*
X522613Y816197D01*
X522612Y816171D01*
X522639Y816077D01*
X522660Y815982D01*
X522674Y815960D01*
X522681Y815935D01*
X522736Y815855D01*
X522786Y815771D01*
X522806Y815754D01*
X522821Y815733D01*
X522899Y815674D01*
X522973Y815611D01*
X522997Y815601D01*
X523018Y815586D01*
X523111Y815556D01*
X523201Y815519D01*
X523234Y815516D01*
X523252Y815510D01*
X523285Y815510D01*
X523368Y815501D01*
X716632Y815501D01*
X716728Y815516D01*
X716825Y815526D01*
X716849Y815536D01*
X716875Y815540D01*
X716961Y815586D01*
X717050Y815626D01*
X717069Y815643D01*
X717092Y815656D01*
X717159Y815726D01*
X717231Y815792D01*
X717243Y815815D01*
X717261Y815834D01*
X717302Y815922D01*
X717349Y816008D01*
X717354Y816033D01*
X717365Y816057D01*
X717376Y816154D01*
X717393Y816250D01*
X717389Y816276D01*
X717392Y816301D01*
X717371Y816397D01*
X717357Y816493D01*
X717345Y816516D01*
X717340Y816542D01*
X717290Y816625D01*
X717246Y816712D01*
X717227Y816731D01*
X717214Y816753D01*
X717140Y816816D01*
X717070Y816884D01*
X717042Y816900D01*
X717027Y816913D01*
X716996Y816925D01*
X716923Y816965D01*
X714236Y818079D01*
X710579Y821736D01*
X708599Y826514D01*
X708599Y831686D01*
X710579Y836464D01*
X714236Y840121D01*
X719014Y842101D01*
X724186Y842101D01*
X728964Y840121D01*
X732621Y836464D01*
X734601Y831686D01*
X734601Y826514D01*
X732621Y821736D01*
X728964Y818079D01*
X726277Y816965D01*
X726194Y816914D01*
X726108Y816868D01*
X726090Y816850D01*
X726068Y816836D01*
X726005Y816760D01*
X725939Y816690D01*
X725928Y816666D01*
X725911Y816646D01*
X725876Y816555D01*
X725835Y816467D01*
X725832Y816441D01*
X725823Y816417D01*
X725819Y816319D01*
X725808Y816223D01*
X725813Y816197D01*
X725812Y816171D01*
X725839Y816077D01*
X725860Y815982D01*
X725874Y815960D01*
X725881Y815935D01*
X725936Y815855D01*
X725986Y815771D01*
X726006Y815754D01*
X726021Y815733D01*
X726099Y815674D01*
X726173Y815611D01*
X726197Y815601D01*
X726218Y815586D01*
X726311Y815556D01*
X726401Y815519D01*
X726434Y815516D01*
X726452Y815510D01*
X726485Y815510D01*
X726568Y815501D01*
X728264Y815501D01*
X728354Y815515D01*
X728445Y815523D01*
X728475Y815535D01*
X728507Y815540D01*
X728588Y815583D01*
X728671Y815619D01*
X728704Y815645D01*
X728724Y815656D01*
X728746Y815679D01*
X728802Y815724D01*
X741720Y828641D01*
X747417Y831001D01*
X822783Y831001D01*
X828480Y828641D01*
X832841Y824280D01*
X835201Y818583D01*
X835201Y812417D01*
X832841Y806720D01*
X828480Y802359D01*
X825700Y801207D01*
X825639Y801170D01*
X825574Y801141D01*
X825535Y801105D01*
X825491Y801078D01*
X825445Y801023D01*
X825392Y800974D01*
X825367Y800928D01*
X825334Y800888D01*
X825308Y800821D01*
X825274Y800759D01*
X825265Y800707D01*
X825246Y800659D01*
X825243Y800587D01*
X825230Y800517D01*
X825238Y800465D01*
X825236Y800413D01*
X825256Y800344D01*
X825266Y800273D01*
X825290Y800227D01*
X825304Y800177D01*
X825345Y800118D01*
X825377Y800054D01*
X825415Y800017D01*
X825444Y799975D01*
X825502Y799932D01*
X825553Y799882D01*
X825616Y799847D01*
X825642Y799828D01*
X825664Y799821D01*
X825700Y799801D01*
X828500Y798641D01*
X832861Y794280D01*
X835221Y788583D01*
X835221Y782417D01*
X832861Y776720D01*
X828500Y772359D01*
X822803Y769999D01*
X796436Y769999D01*
X796346Y769985D01*
X796255Y769977D01*
X796225Y769965D01*
X796193Y769960D01*
X796112Y769917D01*
X796029Y769881D01*
X795996Y769855D01*
X795976Y769844D01*
X795954Y769821D01*
X795898Y769776D01*
X774424Y748302D01*
X774371Y748228D01*
X774311Y748159D01*
X774299Y748129D01*
X774280Y748103D01*
X774253Y748016D01*
X774219Y747931D01*
X774215Y747890D01*
X774208Y747868D01*
X774209Y747835D01*
X774201Y747764D01*
X774201Y717617D01*
X771841Y711920D01*
X677148Y617227D01*
X674984Y615062D01*
X674942Y615004D01*
X674892Y614952D01*
X674870Y614905D01*
X674840Y614863D01*
X674819Y614794D01*
X674789Y614729D01*
X674783Y614677D01*
X674768Y614627D01*
X674770Y614556D01*
X674762Y614485D01*
X674773Y614434D01*
X674774Y614382D01*
X674799Y614314D01*
X674814Y614244D01*
X674841Y614199D01*
X674858Y614151D01*
X674903Y614095D01*
X674940Y614033D01*
X674980Y613999D01*
X675012Y613959D01*
X675072Y613920D01*
X675127Y613873D01*
X675175Y613854D01*
X675219Y613826D01*
X675289Y613808D01*
X675355Y613781D01*
X675426Y613773D01*
X675458Y613765D01*
X675481Y613767D01*
X675522Y613763D01*
X713514Y613763D01*
X713584Y613774D01*
X713656Y613776D01*
X713705Y613794D01*
X713756Y613802D01*
X713820Y613836D01*
X713887Y613861D01*
X713928Y613893D01*
X713974Y613918D01*
X714023Y613970D01*
X714079Y614014D01*
X714107Y614058D01*
X714143Y614096D01*
X714173Y614161D01*
X714212Y614221D01*
X714225Y614272D01*
X714247Y614319D01*
X714255Y614390D01*
X714272Y614460D01*
X714268Y614512D01*
X714274Y614563D01*
X714259Y614634D01*
X714253Y614705D01*
X714233Y614753D01*
X714222Y614804D01*
X714185Y614865D01*
X714157Y614931D01*
X714112Y614987D01*
X714095Y615015D01*
X714078Y615030D01*
X714052Y615062D01*
X710579Y618536D01*
X708599Y623314D01*
X708599Y628486D01*
X710579Y633264D01*
X714236Y636921D01*
X719014Y638901D01*
X724186Y638901D01*
X728964Y636921D01*
X732621Y633264D01*
X734601Y628486D01*
X734601Y623314D01*
X732621Y618536D01*
X729148Y615062D01*
X729106Y615004D01*
X729057Y614952D01*
X729035Y614905D01*
X729005Y614863D01*
X728983Y614794D01*
X728953Y614729D01*
X728948Y614677D01*
X728932Y614627D01*
X728934Y614556D01*
X728926Y614485D01*
X728937Y614434D01*
X728939Y614382D01*
X728963Y614314D01*
X728978Y614244D01*
X729005Y614199D01*
X729023Y614151D01*
X729068Y614095D01*
X729105Y614033D01*
X729144Y613999D01*
X729177Y613959D01*
X729237Y613920D01*
X729291Y613873D01*
X729340Y613854D01*
X729384Y613826D01*
X729453Y613808D01*
X729520Y613781D01*
X729591Y613773D01*
X729622Y613765D01*
X729645Y613767D01*
X729686Y613763D01*
X804559Y613763D01*
X806763Y611559D01*
X806763Y35441D01*
X804559Y33237D01*
X492441Y33237D01*
X490237Y35441D01*
X490237Y118238D01*
X490234Y118258D01*
X490236Y118277D01*
X490214Y118379D01*
X490198Y118481D01*
X490188Y118498D01*
X490184Y118518D01*
X490131Y118607D01*
X490082Y118698D01*
X490068Y118712D01*
X490058Y118729D01*
X489979Y118796D01*
X489904Y118868D01*
X489886Y118876D01*
X489871Y118889D01*
X489775Y118928D01*
X489681Y118971D01*
X489661Y118973D01*
X489643Y118981D01*
X489476Y118999D01*
X221343Y118999D01*
X213800Y126542D01*
X213742Y126584D01*
X213690Y126633D01*
X213643Y126655D01*
X213601Y126685D01*
X213532Y126706D01*
X213467Y126737D01*
X213415Y126742D01*
X213365Y126758D01*
X213294Y126756D01*
X213223Y126764D01*
X213172Y126753D01*
X213120Y126751D01*
X213052Y126727D01*
X212982Y126712D01*
X212937Y126685D01*
X212889Y126667D01*
X212833Y126622D01*
X212771Y126585D01*
X212737Y126546D01*
X212697Y126513D01*
X212658Y126453D01*
X212611Y126398D01*
X212592Y126350D01*
X212564Y126306D01*
X212546Y126237D01*
X212519Y126170D01*
X212511Y126099D01*
X212503Y126068D01*
X212505Y126045D01*
X212501Y126004D01*
X212501Y124180D01*
X212515Y124090D01*
X212523Y123999D01*
X212535Y123969D01*
X212540Y123937D01*
X212583Y123856D01*
X212619Y123772D01*
X212645Y123740D01*
X212656Y123719D01*
X212679Y123697D01*
X212724Y123641D01*
X225641Y110724D01*
X225715Y110671D01*
X225785Y110611D01*
X225815Y110599D01*
X225841Y110580D01*
X225928Y110553D01*
X226013Y110519D01*
X226054Y110515D01*
X226076Y110508D01*
X226108Y110509D01*
X226180Y110501D01*
X243305Y110501D01*
X288525Y65281D01*
X288525Y63512D01*
X288528Y63492D01*
X288526Y63473D01*
X288548Y63371D01*
X288564Y63269D01*
X288574Y63252D01*
X288578Y63232D01*
X288631Y63143D01*
X288680Y63052D01*
X288694Y63038D01*
X288704Y63021D01*
X288783Y62954D01*
X288858Y62882D01*
X288876Y62874D01*
X288891Y62861D01*
X288987Y62822D01*
X289081Y62779D01*
X289101Y62777D01*
X289119Y62769D01*
X289286Y62751D01*
X292243Y62751D01*
X294001Y60993D01*
X294001Y43007D01*
X292724Y41730D01*
X292671Y41656D01*
X292611Y41587D01*
X292599Y41557D01*
X292580Y41530D01*
X292553Y41443D01*
X292519Y41358D01*
X292515Y41318D01*
X292508Y41295D01*
X292509Y41263D01*
X292501Y41192D01*
X292501Y39136D01*
X285864Y32499D01*
X189136Y32499D01*
G37*
%LPD*%
G36*
X803020Y36242D02*
X803020Y36242D01*
X803039Y36240D01*
X803141Y36262D01*
X803243Y36279D01*
X803260Y36288D01*
X803280Y36292D01*
X803369Y36345D01*
X803460Y36394D01*
X803474Y36408D01*
X803491Y36418D01*
X803558Y36497D01*
X803630Y36572D01*
X803638Y36590D01*
X803651Y36605D01*
X803690Y36701D01*
X803733Y36795D01*
X803735Y36815D01*
X803743Y36833D01*
X803761Y37000D01*
X803761Y610000D01*
X803758Y610020D01*
X803760Y610039D01*
X803738Y610141D01*
X803722Y610243D01*
X803712Y610260D01*
X803708Y610280D01*
X803655Y610369D01*
X803606Y610460D01*
X803592Y610474D01*
X803582Y610491D01*
X803503Y610558D01*
X803428Y610630D01*
X803410Y610638D01*
X803395Y610651D01*
X803299Y610690D01*
X803205Y610733D01*
X803185Y610735D01*
X803167Y610743D01*
X803000Y610761D01*
X668009Y610761D01*
X667944Y610751D01*
X667878Y610750D01*
X667798Y610727D01*
X667766Y610722D01*
X667749Y610712D01*
X667717Y610703D01*
X666983Y610399D01*
X610000Y610399D01*
X609980Y610396D01*
X609961Y610398D01*
X609859Y610376D01*
X609757Y610360D01*
X609740Y610350D01*
X609720Y610346D01*
X609631Y610293D01*
X609540Y610244D01*
X609526Y610230D01*
X609509Y610220D01*
X609442Y610141D01*
X609371Y610066D01*
X609362Y610048D01*
X609349Y610033D01*
X609310Y609937D01*
X609267Y609843D01*
X609265Y609823D01*
X609257Y609805D01*
X609239Y609638D01*
X609239Y299315D01*
X595685Y285761D01*
X498762Y285761D01*
X498742Y285758D01*
X498723Y285760D01*
X498621Y285738D01*
X498519Y285722D01*
X498502Y285712D01*
X498482Y285708D01*
X498393Y285655D01*
X498302Y285606D01*
X498288Y285592D01*
X498271Y285582D01*
X498204Y285503D01*
X498132Y285428D01*
X498124Y285410D01*
X498111Y285395D01*
X498072Y285299D01*
X498029Y285205D01*
X498027Y285185D01*
X498019Y285167D01*
X498001Y285000D01*
X498001Y230312D01*
X498004Y230292D01*
X498002Y230273D01*
X498024Y230171D01*
X498040Y230069D01*
X498050Y230052D01*
X498054Y230032D01*
X498107Y229943D01*
X498156Y229852D01*
X498170Y229838D01*
X498180Y229821D01*
X498259Y229754D01*
X498334Y229682D01*
X498352Y229674D01*
X498367Y229661D01*
X498463Y229622D01*
X498557Y229579D01*
X498577Y229577D01*
X498595Y229569D01*
X498762Y229551D01*
X511243Y229551D01*
X513001Y227793D01*
X513001Y218307D01*
X511243Y216549D01*
X497257Y216549D01*
X495499Y218307D01*
X495499Y218828D01*
X495485Y218918D01*
X495477Y219009D01*
X495465Y219038D01*
X495460Y219070D01*
X495417Y219151D01*
X495381Y219235D01*
X495355Y219267D01*
X495344Y219288D01*
X495321Y219310D01*
X495276Y219366D01*
X494538Y220104D01*
X494480Y220146D01*
X494428Y220195D01*
X494381Y220217D01*
X494339Y220247D01*
X494270Y220268D01*
X494205Y220299D01*
X494153Y220304D01*
X494103Y220320D01*
X494032Y220318D01*
X493961Y220326D01*
X493910Y220315D01*
X493858Y220313D01*
X493790Y220289D01*
X493720Y220274D01*
X493676Y220247D01*
X493627Y220229D01*
X493571Y220184D01*
X493509Y220147D01*
X493475Y220108D01*
X493435Y220075D01*
X493396Y220015D01*
X493349Y219960D01*
X493330Y219912D01*
X493302Y219868D01*
X493284Y219799D01*
X493257Y219732D01*
X493249Y219661D01*
X493241Y219630D01*
X493243Y219606D01*
X493239Y219566D01*
X493239Y37000D01*
X493242Y36980D01*
X493240Y36961D01*
X493262Y36859D01*
X493279Y36757D01*
X493288Y36740D01*
X493292Y36720D01*
X493345Y36631D01*
X493394Y36540D01*
X493408Y36526D01*
X493418Y36509D01*
X493497Y36442D01*
X493572Y36371D01*
X493590Y36362D01*
X493605Y36349D01*
X493701Y36310D01*
X493795Y36267D01*
X493815Y36265D01*
X493833Y36257D01*
X494000Y36239D01*
X803000Y36239D01*
X803020Y36242D01*
G37*
G36*
X605496Y383242D02*
X605496Y383242D01*
X605515Y383240D01*
X605617Y383262D01*
X605719Y383279D01*
X605736Y383288D01*
X605756Y383292D01*
X605845Y383345D01*
X605936Y383394D01*
X605950Y383408D01*
X605967Y383418D01*
X606034Y383497D01*
X606106Y383572D01*
X606114Y383590D01*
X606127Y383605D01*
X606166Y383701D01*
X606209Y383795D01*
X606211Y383815D01*
X606219Y383833D01*
X606237Y384000D01*
X606237Y609638D01*
X606234Y609658D01*
X606236Y609677D01*
X606214Y609779D01*
X606198Y609881D01*
X606188Y609898D01*
X606184Y609918D01*
X606131Y610007D01*
X606082Y610098D01*
X606068Y610112D01*
X606058Y610129D01*
X605979Y610196D01*
X605904Y610268D01*
X605886Y610276D01*
X605871Y610289D01*
X605775Y610328D01*
X605681Y610371D01*
X605661Y610373D01*
X605643Y610381D01*
X605476Y610399D01*
X457217Y610399D01*
X456483Y610703D01*
X456419Y610718D01*
X456358Y610743D01*
X456275Y610752D01*
X456243Y610759D01*
X456224Y610758D01*
X456191Y610761D01*
X224762Y610761D01*
X224742Y610758D01*
X224723Y610760D01*
X224621Y610738D01*
X224519Y610722D01*
X224502Y610712D01*
X224482Y610708D01*
X224393Y610655D01*
X224302Y610606D01*
X224288Y610592D01*
X224271Y610582D01*
X224204Y610503D01*
X224132Y610428D01*
X224124Y610410D01*
X224111Y610395D01*
X224072Y610299D01*
X224029Y610205D01*
X224027Y610185D01*
X224019Y610167D01*
X224001Y610000D01*
X224001Y485905D01*
X224004Y485885D01*
X224002Y485866D01*
X224024Y485764D01*
X224040Y485662D01*
X224050Y485645D01*
X224054Y485625D01*
X224107Y485536D01*
X224156Y485445D01*
X224170Y485431D01*
X224180Y485414D01*
X224259Y485347D01*
X224334Y485275D01*
X224352Y485267D01*
X224367Y485254D01*
X224463Y485215D01*
X224557Y485172D01*
X224577Y485170D01*
X224595Y485162D01*
X224762Y485144D01*
X241955Y485144D01*
X242045Y485158D01*
X242136Y485166D01*
X242165Y485178D01*
X242197Y485183D01*
X242278Y485226D01*
X242362Y485262D01*
X242394Y485288D01*
X242415Y485299D01*
X242437Y485322D01*
X242493Y485367D01*
X243446Y486319D01*
X245752Y487275D01*
X248248Y487275D01*
X250554Y486319D01*
X252319Y484554D01*
X253275Y482248D01*
X253275Y479752D01*
X252319Y477446D01*
X250554Y475681D01*
X248248Y474725D01*
X245752Y474725D01*
X243446Y475681D01*
X242493Y476633D01*
X242419Y476686D01*
X242349Y476746D01*
X242319Y476758D01*
X242293Y476777D01*
X242206Y476804D01*
X242121Y476838D01*
X242080Y476842D01*
X242058Y476849D01*
X242026Y476848D01*
X241955Y476856D01*
X224762Y476856D01*
X224742Y476853D01*
X224723Y476855D01*
X224621Y476833D01*
X224519Y476817D01*
X224502Y476807D01*
X224482Y476803D01*
X224393Y476750D01*
X224302Y476701D01*
X224288Y476687D01*
X224271Y476677D01*
X224204Y476598D01*
X224132Y476523D01*
X224124Y476505D01*
X224111Y476490D01*
X224072Y476394D01*
X224029Y476300D01*
X224027Y476280D01*
X224019Y476262D01*
X224001Y476095D01*
X224001Y464343D01*
X222462Y462804D01*
X222409Y462730D01*
X222349Y462660D01*
X222337Y462630D01*
X222318Y462604D01*
X222291Y462517D01*
X222257Y462432D01*
X222253Y462391D01*
X222246Y462369D01*
X222247Y462337D01*
X222239Y462266D01*
X222239Y457901D01*
X222249Y457836D01*
X222250Y457770D01*
X222273Y457690D01*
X222279Y457658D01*
X222288Y457641D01*
X222297Y457609D01*
X223275Y455248D01*
X223275Y452752D01*
X222654Y451254D01*
X222645Y451215D01*
X222636Y451195D01*
X222632Y451157D01*
X222628Y451140D01*
X222599Y451027D01*
X222600Y451021D01*
X222598Y451014D01*
X222609Y450898D01*
X222618Y450782D01*
X222621Y450776D01*
X222621Y450770D01*
X222669Y450662D01*
X222714Y450555D01*
X222719Y450549D01*
X222721Y450545D01*
X222734Y450531D01*
X222819Y450424D01*
X223501Y449743D01*
X223501Y436257D01*
X222462Y435218D01*
X222409Y435144D01*
X222349Y435075D01*
X222337Y435044D01*
X222318Y435018D01*
X222291Y434931D01*
X222257Y434846D01*
X222253Y434806D01*
X222246Y434783D01*
X222247Y434751D01*
X222239Y434680D01*
X222239Y416486D01*
X222249Y416422D01*
X222250Y416356D01*
X222273Y416276D01*
X222275Y416267D01*
X222275Y413724D01*
X222257Y413680D01*
X222248Y413597D01*
X222241Y413565D01*
X222242Y413546D01*
X222239Y413514D01*
X222239Y412320D01*
X222254Y412230D01*
X222261Y412139D01*
X222273Y412109D01*
X222279Y412077D01*
X222321Y411997D01*
X222357Y411913D01*
X222383Y411881D01*
X222394Y411860D01*
X222417Y411838D01*
X222462Y411782D01*
X223501Y410743D01*
X223501Y398257D01*
X222462Y397218D01*
X222409Y397144D01*
X222349Y397075D01*
X222337Y397044D01*
X222318Y397018D01*
X222291Y396931D01*
X222257Y396846D01*
X222253Y396806D01*
X222246Y396783D01*
X222247Y396751D01*
X222239Y396680D01*
X222239Y395320D01*
X222254Y395230D01*
X222261Y395139D01*
X222273Y395109D01*
X222279Y395077D01*
X222321Y394997D01*
X222357Y394913D01*
X222383Y394881D01*
X222394Y394860D01*
X222417Y394838D01*
X222462Y394782D01*
X223501Y393743D01*
X223501Y384996D01*
X223512Y384926D01*
X223514Y384854D01*
X223532Y384805D01*
X223540Y384754D01*
X223574Y384690D01*
X223599Y384623D01*
X223631Y384582D01*
X223656Y384536D01*
X223708Y384487D01*
X223752Y384431D01*
X223796Y384403D01*
X223834Y384367D01*
X223899Y384337D01*
X223959Y384298D01*
X224010Y384285D01*
X224057Y384263D01*
X224128Y384255D01*
X224198Y384238D01*
X224250Y384242D01*
X224301Y384236D01*
X224372Y384251D01*
X224443Y384257D01*
X224491Y384277D01*
X224542Y384288D01*
X224603Y384325D01*
X224669Y384353D01*
X224725Y384398D01*
X224753Y384415D01*
X224768Y384432D01*
X224800Y384458D01*
X225343Y385001D01*
X243095Y385001D01*
X243115Y385004D01*
X243134Y385002D01*
X243236Y385024D01*
X243338Y385040D01*
X243355Y385050D01*
X243375Y385054D01*
X243464Y385107D01*
X243555Y385156D01*
X243569Y385170D01*
X243586Y385180D01*
X243653Y385259D01*
X243725Y385334D01*
X243733Y385352D01*
X243746Y385367D01*
X243785Y385463D01*
X243828Y385557D01*
X243830Y385577D01*
X243838Y385595D01*
X243856Y385762D01*
X243856Y402955D01*
X243842Y403045D01*
X243834Y403136D01*
X243822Y403165D01*
X243817Y403197D01*
X243774Y403278D01*
X243738Y403362D01*
X243712Y403394D01*
X243701Y403415D01*
X243678Y403437D01*
X243633Y403493D01*
X242681Y404446D01*
X241725Y406752D01*
X241725Y409248D01*
X242681Y411554D01*
X244446Y413319D01*
X246752Y414275D01*
X249248Y414275D01*
X251554Y413319D01*
X253319Y411554D01*
X254275Y409248D01*
X254275Y406752D01*
X253319Y404446D01*
X252367Y403493D01*
X252314Y403419D01*
X252254Y403349D01*
X252242Y403319D01*
X252223Y403293D01*
X252196Y403206D01*
X252162Y403121D01*
X252158Y403080D01*
X252151Y403058D01*
X252152Y403026D01*
X252144Y402955D01*
X252144Y385762D01*
X252147Y385742D01*
X252145Y385723D01*
X252167Y385621D01*
X252183Y385519D01*
X252193Y385502D01*
X252197Y385482D01*
X252250Y385393D01*
X252299Y385302D01*
X252313Y385288D01*
X252323Y385271D01*
X252402Y385204D01*
X252477Y385132D01*
X252495Y385124D01*
X252510Y385111D01*
X252606Y385072D01*
X252700Y385029D01*
X252720Y385027D01*
X252738Y385019D01*
X252905Y385001D01*
X493657Y385001D01*
X495196Y383462D01*
X495270Y383409D01*
X495340Y383349D01*
X495370Y383337D01*
X495396Y383318D01*
X495483Y383291D01*
X495568Y383257D01*
X495609Y383253D01*
X495631Y383246D01*
X495663Y383247D01*
X495734Y383239D01*
X605476Y383239D01*
X605496Y383242D01*
G37*
G36*
X20356Y614254D02*
X20356Y614254D01*
X20447Y614261D01*
X20476Y614273D01*
X20508Y614279D01*
X20589Y614321D01*
X20673Y614357D01*
X20705Y614383D01*
X20726Y614394D01*
X20748Y614417D01*
X20804Y614462D01*
X24343Y618001D01*
X86688Y618001D01*
X86708Y618004D01*
X86727Y618002D01*
X86829Y618024D01*
X86931Y618040D01*
X86948Y618050D01*
X86968Y618054D01*
X87057Y618107D01*
X87148Y618156D01*
X87162Y618170D01*
X87179Y618180D01*
X87246Y618259D01*
X87318Y618334D01*
X87326Y618352D01*
X87339Y618367D01*
X87378Y618463D01*
X87421Y618557D01*
X87423Y618577D01*
X87431Y618595D01*
X87449Y618762D01*
X87449Y631243D01*
X89207Y633001D01*
X98693Y633001D01*
X100451Y631243D01*
X100451Y617257D01*
X98732Y615538D01*
X98690Y615480D01*
X98641Y615428D01*
X98619Y615381D01*
X98588Y615339D01*
X98567Y615270D01*
X98537Y615205D01*
X98531Y615153D01*
X98516Y615103D01*
X98518Y615032D01*
X98510Y614961D01*
X98521Y614910D01*
X98522Y614858D01*
X98547Y614790D01*
X98562Y614720D01*
X98589Y614676D01*
X98607Y614627D01*
X98652Y614571D01*
X98688Y614509D01*
X98728Y614475D01*
X98761Y614435D01*
X98821Y614396D01*
X98875Y614349D01*
X98924Y614330D01*
X98967Y614302D01*
X99037Y614284D01*
X99104Y614257D01*
X99175Y614249D01*
X99206Y614241D01*
X99229Y614243D01*
X99270Y614239D01*
X448202Y614239D01*
X448273Y614250D01*
X448345Y614252D01*
X448394Y614270D01*
X448445Y614279D01*
X448508Y614312D01*
X448576Y614337D01*
X448616Y614369D01*
X448662Y614394D01*
X448712Y614446D01*
X448768Y614490D01*
X448796Y614534D01*
X448832Y614572D01*
X448862Y614637D01*
X448901Y614697D01*
X448913Y614748D01*
X448935Y614795D01*
X448943Y614866D01*
X448961Y614936D01*
X448957Y614988D01*
X448962Y615039D01*
X448947Y615110D01*
X448942Y615181D01*
X448921Y615229D01*
X448910Y615280D01*
X448873Y615341D01*
X448845Y615407D01*
X448800Y615463D01*
X448784Y615491D01*
X448766Y615506D01*
X448740Y615538D01*
X447159Y617120D01*
X444799Y622817D01*
X444799Y628983D01*
X447159Y634680D01*
X451520Y639041D01*
X457217Y641401D01*
X543000Y641401D01*
X543020Y641404D01*
X543039Y641402D01*
X543141Y641424D01*
X543243Y641440D01*
X543260Y641450D01*
X543280Y641454D01*
X543369Y641507D01*
X543460Y641556D01*
X543474Y641570D01*
X543491Y641580D01*
X543558Y641659D01*
X543630Y641734D01*
X543638Y641752D01*
X543651Y641767D01*
X543690Y641863D01*
X543733Y641957D01*
X543735Y641977D01*
X543743Y641995D01*
X543761Y642162D01*
X543761Y736000D01*
X543758Y736020D01*
X543760Y736039D01*
X543738Y736141D01*
X543722Y736243D01*
X543712Y736260D01*
X543708Y736280D01*
X543655Y736369D01*
X543606Y736460D01*
X543592Y736474D01*
X543582Y736491D01*
X543503Y736558D01*
X543428Y736630D01*
X543410Y736638D01*
X543395Y736651D01*
X543299Y736690D01*
X543205Y736733D01*
X543185Y736735D01*
X543167Y736743D01*
X543000Y736761D01*
X471262Y736761D01*
X471192Y736750D01*
X471120Y736748D01*
X471071Y736730D01*
X471020Y736722D01*
X470956Y736688D01*
X470889Y736663D01*
X470848Y736631D01*
X470802Y736606D01*
X470753Y736555D01*
X470697Y736510D01*
X470669Y736466D01*
X470633Y736428D01*
X470603Y736363D01*
X470564Y736303D01*
X470551Y736252D01*
X470529Y736205D01*
X470521Y736134D01*
X470504Y736064D01*
X470508Y736012D01*
X470502Y735961D01*
X470517Y735890D01*
X470523Y735819D01*
X470543Y735771D01*
X470554Y735720D01*
X470591Y735659D01*
X470619Y735593D01*
X470664Y735537D01*
X470681Y735509D01*
X470698Y735494D01*
X470724Y735462D01*
X471321Y734864D01*
X473301Y730086D01*
X473301Y724914D01*
X471321Y720136D01*
X467664Y716479D01*
X462886Y714499D01*
X457714Y714499D01*
X452936Y716479D01*
X449279Y720136D01*
X447299Y724914D01*
X447299Y730086D01*
X449279Y734864D01*
X449876Y735462D01*
X449918Y735520D01*
X449967Y735572D01*
X449989Y735619D01*
X450019Y735661D01*
X450040Y735730D01*
X450071Y735795D01*
X450076Y735847D01*
X450092Y735897D01*
X450090Y735968D01*
X450098Y736039D01*
X450087Y736090D01*
X450085Y736142D01*
X450061Y736210D01*
X450046Y736280D01*
X450019Y736324D01*
X450001Y736373D01*
X449956Y736429D01*
X449919Y736491D01*
X449880Y736525D01*
X449847Y736565D01*
X449787Y736604D01*
X449732Y736651D01*
X449684Y736670D01*
X449640Y736698D01*
X449571Y736716D01*
X449504Y736743D01*
X449433Y736751D01*
X449402Y736759D01*
X449379Y736757D01*
X449338Y736761D01*
X225000Y736761D01*
X224980Y736758D01*
X224961Y736760D01*
X224859Y736738D01*
X224757Y736722D01*
X224740Y736712D01*
X224720Y736708D01*
X224631Y736655D01*
X224540Y736606D01*
X224526Y736592D01*
X224509Y736582D01*
X224442Y736503D01*
X224371Y736428D01*
X224362Y736410D01*
X224349Y736395D01*
X224310Y736299D01*
X224267Y736205D01*
X224265Y736185D01*
X224257Y736167D01*
X224239Y736000D01*
X224239Y694761D01*
X220120Y694761D01*
X220030Y694747D01*
X219939Y694739D01*
X219909Y694727D01*
X219877Y694722D01*
X219797Y694679D01*
X219713Y694643D01*
X219681Y694617D01*
X219660Y694606D01*
X219638Y694583D01*
X219582Y694538D01*
X219143Y694099D01*
X200657Y694099D01*
X200218Y694538D01*
X200144Y694592D01*
X200075Y694651D01*
X200045Y694663D01*
X200018Y694682D01*
X199931Y694709D01*
X199846Y694743D01*
X199806Y694747D01*
X199783Y694754D01*
X199751Y694753D01*
X199680Y694761D01*
X195761Y694761D01*
X195761Y847000D01*
X195758Y847020D01*
X195760Y847039D01*
X195738Y847141D01*
X195722Y847243D01*
X195712Y847260D01*
X195708Y847280D01*
X195655Y847369D01*
X195606Y847460D01*
X195592Y847474D01*
X195582Y847491D01*
X195503Y847558D01*
X195428Y847630D01*
X195410Y847638D01*
X195395Y847651D01*
X195299Y847690D01*
X195205Y847733D01*
X195185Y847735D01*
X195167Y847743D01*
X195000Y847761D01*
X172000Y847761D01*
X171980Y847758D01*
X171961Y847760D01*
X171859Y847738D01*
X171757Y847722D01*
X171740Y847712D01*
X171720Y847708D01*
X171631Y847655D01*
X171540Y847606D01*
X171526Y847592D01*
X171509Y847582D01*
X171442Y847503D01*
X171371Y847428D01*
X171362Y847410D01*
X171349Y847395D01*
X171310Y847299D01*
X171267Y847205D01*
X171265Y847185D01*
X171257Y847167D01*
X171239Y847000D01*
X171239Y821761D01*
X18000Y821761D01*
X17980Y821758D01*
X17961Y821760D01*
X17859Y821738D01*
X17757Y821722D01*
X17740Y821712D01*
X17720Y821708D01*
X17631Y821655D01*
X17540Y821606D01*
X17526Y821592D01*
X17509Y821582D01*
X17442Y821503D01*
X17371Y821428D01*
X17362Y821410D01*
X17349Y821395D01*
X17310Y821299D01*
X17267Y821205D01*
X17265Y821185D01*
X17257Y821167D01*
X17239Y821000D01*
X17239Y615000D01*
X17242Y614980D01*
X17240Y614961D01*
X17262Y614859D01*
X17279Y614757D01*
X17288Y614740D01*
X17292Y614720D01*
X17345Y614631D01*
X17394Y614540D01*
X17408Y614526D01*
X17418Y614509D01*
X17497Y614442D01*
X17572Y614371D01*
X17590Y614362D01*
X17605Y614349D01*
X17701Y614310D01*
X17795Y614267D01*
X17815Y614265D01*
X17833Y614257D01*
X18000Y614239D01*
X20266Y614239D01*
X20356Y614254D01*
G37*
G36*
X489496Y127004D02*
X489496Y127004D01*
X489515Y127002D01*
X489617Y127024D01*
X489719Y127040D01*
X489736Y127050D01*
X489756Y127054D01*
X489845Y127107D01*
X489936Y127156D01*
X489950Y127170D01*
X489967Y127180D01*
X490034Y127259D01*
X490106Y127334D01*
X490114Y127352D01*
X490127Y127367D01*
X490166Y127463D01*
X490209Y127557D01*
X490211Y127577D01*
X490219Y127595D01*
X490237Y127762D01*
X490237Y224090D01*
X490223Y224180D01*
X490215Y224271D01*
X490203Y224300D01*
X490198Y224332D01*
X490155Y224413D01*
X490119Y224497D01*
X490093Y224529D01*
X490082Y224550D01*
X490059Y224572D01*
X490014Y224628D01*
X489999Y224643D01*
X489999Y376238D01*
X489996Y376258D01*
X489998Y376277D01*
X489976Y376379D01*
X489960Y376481D01*
X489950Y376498D01*
X489946Y376518D01*
X489893Y376607D01*
X489844Y376698D01*
X489830Y376712D01*
X489820Y376729D01*
X489741Y376796D01*
X489666Y376868D01*
X489648Y376876D01*
X489633Y376889D01*
X489537Y376928D01*
X489443Y376971D01*
X489423Y376973D01*
X489405Y376981D01*
X489238Y376999D01*
X252905Y376999D01*
X252885Y376996D01*
X252866Y376998D01*
X252764Y376976D01*
X252662Y376960D01*
X252645Y376950D01*
X252625Y376946D01*
X252536Y376893D01*
X252445Y376844D01*
X252431Y376830D01*
X252414Y376820D01*
X252347Y376741D01*
X252275Y376666D01*
X252267Y376648D01*
X252254Y376633D01*
X252215Y376537D01*
X252172Y376443D01*
X252170Y376423D01*
X252162Y376405D01*
X252144Y376238D01*
X252144Y359045D01*
X252158Y358955D01*
X252166Y358864D01*
X252178Y358835D01*
X252183Y358803D01*
X252226Y358722D01*
X252262Y358638D01*
X252288Y358606D01*
X252299Y358585D01*
X252322Y358563D01*
X252367Y358507D01*
X253319Y357554D01*
X254275Y355248D01*
X254275Y352752D01*
X253319Y350446D01*
X251554Y348681D01*
X249248Y347725D01*
X246752Y347725D01*
X244446Y348681D01*
X242681Y350446D01*
X241725Y352752D01*
X241725Y355248D01*
X242681Y357554D01*
X243633Y358507D01*
X243686Y358581D01*
X243746Y358651D01*
X243758Y358681D01*
X243777Y358707D01*
X243804Y358794D01*
X243838Y358879D01*
X243842Y358920D01*
X243849Y358942D01*
X243848Y358974D01*
X243856Y359045D01*
X243856Y376238D01*
X243853Y376258D01*
X243855Y376277D01*
X243833Y376379D01*
X243817Y376481D01*
X243807Y376498D01*
X243803Y376518D01*
X243750Y376607D01*
X243701Y376698D01*
X243687Y376712D01*
X243677Y376729D01*
X243598Y376796D01*
X243523Y376868D01*
X243505Y376876D01*
X243490Y376889D01*
X243394Y376928D01*
X243300Y376971D01*
X243280Y376973D01*
X243262Y376981D01*
X243095Y376999D01*
X229560Y376999D01*
X229540Y376996D01*
X229521Y376998D01*
X229419Y376976D01*
X229317Y376960D01*
X229300Y376950D01*
X229280Y376946D01*
X229191Y376893D01*
X229100Y376844D01*
X229086Y376830D01*
X229069Y376820D01*
X229002Y376741D01*
X228930Y376666D01*
X228922Y376648D01*
X228909Y376633D01*
X228870Y376537D01*
X228827Y376443D01*
X228825Y376423D01*
X228817Y376405D01*
X228799Y376238D01*
X228799Y338355D01*
X224462Y334018D01*
X224409Y333944D01*
X224349Y333875D01*
X224337Y333845D01*
X224318Y333819D01*
X224291Y333732D01*
X224257Y333647D01*
X224253Y333606D01*
X224246Y333584D01*
X224247Y333551D01*
X224239Y333480D01*
X224239Y324901D01*
X224240Y324891D01*
X224240Y324886D01*
X224245Y324861D01*
X224249Y324836D01*
X224250Y324770D01*
X224273Y324690D01*
X224279Y324658D01*
X224288Y324641D01*
X224297Y324609D01*
X225275Y322248D01*
X225275Y319752D01*
X224297Y317391D01*
X224282Y317327D01*
X224257Y317266D01*
X224248Y317183D01*
X224241Y317151D01*
X224242Y317132D01*
X224239Y317099D01*
X224239Y127762D01*
X224242Y127742D01*
X224240Y127723D01*
X224262Y127621D01*
X224279Y127519D01*
X224288Y127502D01*
X224292Y127482D01*
X224345Y127393D01*
X224394Y127302D01*
X224408Y127288D01*
X224418Y127271D01*
X224497Y127204D01*
X224572Y127132D01*
X224590Y127124D01*
X224605Y127111D01*
X224701Y127072D01*
X224795Y127029D01*
X224815Y127027D01*
X224833Y127019D01*
X225000Y127001D01*
X489476Y127001D01*
X489496Y127004D01*
G37*
G36*
X169984Y453242D02*
X169984Y453242D01*
X170003Y453240D01*
X170105Y453262D01*
X170207Y453279D01*
X170224Y453288D01*
X170244Y453292D01*
X170333Y453345D01*
X170424Y453394D01*
X170438Y453408D01*
X170455Y453418D01*
X170522Y453497D01*
X170594Y453572D01*
X170602Y453590D01*
X170615Y453605D01*
X170654Y453701D01*
X170697Y453795D01*
X170699Y453815D01*
X170707Y453833D01*
X170725Y454000D01*
X170725Y454248D01*
X171681Y456554D01*
X173446Y458319D01*
X175752Y459275D01*
X178248Y459275D01*
X180554Y458319D01*
X182319Y456554D01*
X183275Y454248D01*
X183275Y454000D01*
X183278Y453980D01*
X183276Y453961D01*
X183298Y453859D01*
X183314Y453757D01*
X183324Y453740D01*
X183328Y453720D01*
X183381Y453631D01*
X183430Y453540D01*
X183444Y453526D01*
X183454Y453509D01*
X183533Y453442D01*
X183608Y453371D01*
X183626Y453362D01*
X183641Y453349D01*
X183737Y453310D01*
X183831Y453267D01*
X183851Y453265D01*
X183869Y453257D01*
X184036Y453239D01*
X202238Y453239D01*
X202258Y453242D01*
X202277Y453240D01*
X202379Y453262D01*
X202481Y453279D01*
X202498Y453288D01*
X202518Y453292D01*
X202607Y453345D01*
X202698Y453394D01*
X202712Y453408D01*
X202729Y453418D01*
X202796Y453497D01*
X202868Y453572D01*
X202876Y453590D01*
X202889Y453605D01*
X202928Y453701D01*
X202971Y453795D01*
X202973Y453815D01*
X202981Y453833D01*
X202999Y454000D01*
X202999Y454657D01*
X215776Y467434D01*
X215829Y467508D01*
X215889Y467578D01*
X215901Y467608D01*
X215920Y467634D01*
X215947Y467721D01*
X215981Y467806D01*
X215985Y467847D01*
X215992Y467869D01*
X215991Y467901D01*
X215999Y467972D01*
X215999Y476095D01*
X215997Y476107D01*
X215998Y476116D01*
X215997Y476122D01*
X215998Y476134D01*
X215976Y476236D01*
X215960Y476338D01*
X215950Y476355D01*
X215946Y476375D01*
X215893Y476464D01*
X215844Y476555D01*
X215830Y476569D01*
X215820Y476586D01*
X215741Y476653D01*
X215666Y476725D01*
X215648Y476733D01*
X215633Y476746D01*
X215537Y476785D01*
X215443Y476828D01*
X215423Y476830D01*
X215405Y476838D01*
X215238Y476856D01*
X198045Y476856D01*
X197955Y476842D01*
X197864Y476834D01*
X197835Y476822D01*
X197803Y476817D01*
X197722Y476774D01*
X197638Y476738D01*
X197606Y476712D01*
X197585Y476701D01*
X197568Y476684D01*
X197567Y476683D01*
X197559Y476675D01*
X197507Y476633D01*
X196554Y475681D01*
X194248Y474725D01*
X191752Y474725D01*
X189446Y475681D01*
X187681Y477446D01*
X186725Y479752D01*
X186725Y482248D01*
X187681Y484554D01*
X189446Y486319D01*
X191752Y487275D01*
X194248Y487275D01*
X196554Y486319D01*
X197507Y485367D01*
X197581Y485314D01*
X197651Y485254D01*
X197681Y485242D01*
X197707Y485223D01*
X197794Y485196D01*
X197879Y485162D01*
X197920Y485158D01*
X197942Y485151D01*
X197974Y485152D01*
X198045Y485144D01*
X215238Y485144D01*
X215258Y485147D01*
X215277Y485145D01*
X215379Y485167D01*
X215481Y485183D01*
X215498Y485193D01*
X215518Y485197D01*
X215607Y485250D01*
X215698Y485299D01*
X215712Y485313D01*
X215729Y485323D01*
X215796Y485402D01*
X215868Y485477D01*
X215876Y485495D01*
X215889Y485510D01*
X215928Y485606D01*
X215971Y485700D01*
X215973Y485720D01*
X215981Y485738D01*
X215999Y485905D01*
X215999Y610000D01*
X215996Y610020D01*
X215998Y610039D01*
X215976Y610141D01*
X215960Y610243D01*
X215950Y610260D01*
X215946Y610280D01*
X215893Y610369D01*
X215844Y610460D01*
X215830Y610474D01*
X215820Y610491D01*
X215741Y610558D01*
X215666Y610630D01*
X215648Y610638D01*
X215633Y610651D01*
X215537Y610690D01*
X215443Y610733D01*
X215423Y610735D01*
X215405Y610743D01*
X215238Y610761D01*
X91734Y610761D01*
X91644Y610747D01*
X91553Y610739D01*
X91524Y610727D01*
X91492Y610722D01*
X91411Y610679D01*
X91327Y610643D01*
X91295Y610617D01*
X91274Y610606D01*
X91252Y610583D01*
X91196Y610538D01*
X90657Y609999D01*
X27972Y609999D01*
X27882Y609985D01*
X27791Y609977D01*
X27762Y609965D01*
X27730Y609960D01*
X27649Y609917D01*
X27565Y609881D01*
X27533Y609855D01*
X27512Y609844D01*
X27490Y609821D01*
X27434Y609776D01*
X23224Y605566D01*
X23171Y605492D01*
X23111Y605422D01*
X23099Y605392D01*
X23080Y605366D01*
X23053Y605279D01*
X23019Y605194D01*
X23015Y605153D01*
X23008Y605131D01*
X23009Y605099D01*
X23001Y605028D01*
X23001Y455972D01*
X23015Y455882D01*
X23023Y455791D01*
X23035Y455762D01*
X23040Y455730D01*
X23083Y455649D01*
X23119Y455565D01*
X23145Y455533D01*
X23156Y455512D01*
X23179Y455490D01*
X23224Y455434D01*
X25196Y453462D01*
X25270Y453409D01*
X25340Y453349D01*
X25370Y453337D01*
X25396Y453318D01*
X25483Y453291D01*
X25568Y453257D01*
X25609Y453253D01*
X25631Y453246D01*
X25663Y453247D01*
X25734Y453239D01*
X169964Y453239D01*
X169984Y453242D01*
G37*
G36*
X242816Y96504D02*
X242816Y96504D01*
X242888Y96506D01*
X242937Y96524D01*
X242988Y96532D01*
X243051Y96566D01*
X243119Y96591D01*
X243159Y96623D01*
X243206Y96647D01*
X243255Y96699D01*
X243311Y96744D01*
X243339Y96788D01*
X243375Y96826D01*
X243405Y96891D01*
X243444Y96951D01*
X243457Y97002D01*
X243479Y97049D01*
X243486Y97120D01*
X243504Y97190D01*
X243500Y97242D01*
X243506Y97293D01*
X243490Y97363D01*
X243485Y97435D01*
X243464Y97483D01*
X243453Y97534D01*
X243417Y97595D01*
X243388Y97661D01*
X243344Y97717D01*
X243327Y97745D01*
X243309Y97760D01*
X243284Y97792D01*
X239799Y101276D01*
X239725Y101329D01*
X239656Y101389D01*
X239626Y101401D01*
X239600Y101420D01*
X239513Y101447D01*
X239428Y101481D01*
X239387Y101485D01*
X239365Y101492D01*
X239332Y101491D01*
X239261Y101499D01*
X222136Y101499D01*
X203499Y120136D01*
X203499Y211254D01*
X203488Y211324D01*
X203486Y211396D01*
X203468Y211445D01*
X203460Y211496D01*
X203426Y211560D01*
X203401Y211627D01*
X203369Y211668D01*
X203344Y211714D01*
X203293Y211763D01*
X203248Y211819D01*
X203204Y211847D01*
X203166Y211883D01*
X203101Y211913D01*
X203041Y211952D01*
X202990Y211965D01*
X202943Y211987D01*
X202872Y211995D01*
X202802Y212012D01*
X202750Y212008D01*
X202699Y212014D01*
X202628Y211999D01*
X202557Y211993D01*
X202509Y211973D01*
X202458Y211962D01*
X202397Y211925D01*
X202331Y211897D01*
X202275Y211852D01*
X202247Y211835D01*
X202232Y211818D01*
X202200Y211792D01*
X200474Y210066D01*
X200421Y209992D01*
X200361Y209922D01*
X200349Y209892D01*
X200330Y209866D01*
X200303Y209779D01*
X200269Y209694D01*
X200265Y209653D01*
X200258Y209631D01*
X200259Y209599D01*
X200251Y209528D01*
X200251Y202007D01*
X198493Y200249D01*
X197512Y200249D01*
X197492Y200246D01*
X197473Y200248D01*
X197371Y200226D01*
X197269Y200210D01*
X197252Y200200D01*
X197232Y200196D01*
X197143Y200143D01*
X197052Y200094D01*
X197038Y200080D01*
X197021Y200070D01*
X196954Y199991D01*
X196882Y199916D01*
X196874Y199898D01*
X196861Y199883D01*
X196822Y199787D01*
X196779Y199693D01*
X196777Y199673D01*
X196769Y199655D01*
X196751Y199488D01*
X196751Y197493D01*
X188824Y189566D01*
X188771Y189492D01*
X188711Y189422D01*
X188699Y189392D01*
X188680Y189366D01*
X188653Y189279D01*
X188619Y189194D01*
X188615Y189153D01*
X188608Y189131D01*
X188609Y189099D01*
X188601Y189028D01*
X188601Y180257D01*
X186843Y178499D01*
X174357Y178499D01*
X172638Y180218D01*
X172622Y180230D01*
X172610Y180245D01*
X172522Y180301D01*
X172439Y180362D01*
X172420Y180367D01*
X172403Y180378D01*
X172302Y180404D01*
X172203Y180434D01*
X172184Y180433D01*
X172164Y180438D01*
X172061Y180430D01*
X171958Y180428D01*
X171939Y180421D01*
X171919Y180419D01*
X171824Y180379D01*
X171727Y180343D01*
X171711Y180331D01*
X171693Y180323D01*
X171562Y180218D01*
X169843Y178499D01*
X157357Y178499D01*
X155599Y180257D01*
X155599Y180518D01*
X155588Y180589D01*
X155586Y180660D01*
X155568Y180709D01*
X155560Y180761D01*
X155526Y180824D01*
X155501Y180891D01*
X155469Y180932D01*
X155444Y180978D01*
X155392Y181027D01*
X155348Y181083D01*
X155304Y181111D01*
X155266Y181147D01*
X155201Y181178D01*
X155141Y181216D01*
X155090Y181229D01*
X155043Y181251D01*
X154972Y181259D01*
X154902Y181276D01*
X154850Y181272D01*
X154799Y181278D01*
X154728Y181263D01*
X154657Y181257D01*
X154609Y181237D01*
X154558Y181226D01*
X154497Y181189D01*
X154431Y181161D01*
X154375Y181116D01*
X154347Y181100D01*
X154332Y181082D01*
X154300Y181056D01*
X153743Y180499D01*
X142257Y180499D01*
X140499Y182257D01*
X140499Y192743D01*
X142257Y194501D01*
X153743Y194501D01*
X154512Y193732D01*
X154528Y193720D01*
X154540Y193705D01*
X154628Y193649D01*
X154711Y193588D01*
X154730Y193583D01*
X154747Y193572D01*
X154848Y193546D01*
X154947Y193516D01*
X154966Y193517D01*
X154986Y193512D01*
X155089Y193520D01*
X155192Y193522D01*
X155211Y193529D01*
X155231Y193531D01*
X155326Y193571D01*
X155423Y193607D01*
X155439Y193619D01*
X155457Y193627D01*
X155588Y193732D01*
X157357Y195501D01*
X169843Y195501D01*
X171562Y193782D01*
X171578Y193770D01*
X171590Y193755D01*
X171678Y193699D01*
X171761Y193638D01*
X171780Y193633D01*
X171797Y193622D01*
X171898Y193596D01*
X171997Y193566D01*
X172016Y193567D01*
X172036Y193562D01*
X172139Y193570D01*
X172242Y193572D01*
X172261Y193579D01*
X172281Y193581D01*
X172376Y193621D01*
X172473Y193657D01*
X172489Y193669D01*
X172507Y193677D01*
X172638Y193782D01*
X174357Y195501D01*
X183128Y195501D01*
X183218Y195515D01*
X183309Y195523D01*
X183338Y195535D01*
X183370Y195540D01*
X183451Y195583D01*
X183535Y195619D01*
X183567Y195645D01*
X183588Y195656D01*
X183610Y195679D01*
X183666Y195724D01*
X187061Y199119D01*
X187073Y199135D01*
X187088Y199147D01*
X187144Y199235D01*
X187204Y199319D01*
X187210Y199338D01*
X187221Y199354D01*
X187246Y199455D01*
X187277Y199554D01*
X187276Y199574D01*
X187281Y199593D01*
X187273Y199696D01*
X187270Y199800D01*
X187264Y199818D01*
X187262Y199838D01*
X187222Y199933D01*
X187186Y200031D01*
X187174Y200046D01*
X187166Y200064D01*
X187061Y200195D01*
X185249Y202007D01*
X185249Y213993D01*
X187007Y215751D01*
X194528Y215751D01*
X194618Y215765D01*
X194709Y215773D01*
X194738Y215785D01*
X194770Y215790D01*
X194851Y215833D01*
X194935Y215869D01*
X194967Y215895D01*
X194988Y215906D01*
X195010Y215929D01*
X195066Y215974D01*
X196776Y217684D01*
X196824Y217751D01*
X196827Y217754D01*
X196828Y217756D01*
X196829Y217758D01*
X196889Y217828D01*
X196901Y217858D01*
X196920Y217884D01*
X196947Y217971D01*
X196981Y218056D01*
X196985Y218097D01*
X196992Y218119D01*
X196991Y218151D01*
X196999Y218222D01*
X196999Y263838D01*
X196996Y263858D01*
X196998Y263877D01*
X196976Y263979D01*
X196960Y264081D01*
X196950Y264098D01*
X196946Y264118D01*
X196893Y264207D01*
X196844Y264298D01*
X196830Y264312D01*
X196820Y264329D01*
X196741Y264396D01*
X196666Y264468D01*
X196648Y264476D01*
X196633Y264489D01*
X196537Y264528D01*
X196443Y264571D01*
X196423Y264573D01*
X196405Y264581D01*
X196238Y264599D01*
X184257Y264599D01*
X182499Y266357D01*
X182499Y278843D01*
X183461Y279805D01*
X183473Y279821D01*
X183488Y279833D01*
X183544Y279920D01*
X183604Y280004D01*
X183610Y280023D01*
X183621Y280040D01*
X183646Y280141D01*
X183677Y280239D01*
X183676Y280259D01*
X183681Y280279D01*
X183673Y280382D01*
X183670Y280485D01*
X183664Y280504D01*
X183662Y280524D01*
X183622Y280619D01*
X183586Y280716D01*
X183574Y280732D01*
X183566Y280750D01*
X183461Y280881D01*
X181999Y282343D01*
X181999Y282504D01*
X181988Y282574D01*
X181986Y282646D01*
X181968Y282695D01*
X181960Y282746D01*
X181926Y282810D01*
X181901Y282877D01*
X181869Y282918D01*
X181844Y282964D01*
X181793Y283013D01*
X181748Y283069D01*
X181704Y283097D01*
X181666Y283133D01*
X181601Y283163D01*
X181541Y283202D01*
X181490Y283215D01*
X181443Y283237D01*
X181372Y283245D01*
X181302Y283262D01*
X181250Y283258D01*
X181199Y283264D01*
X181128Y283249D01*
X181057Y283243D01*
X181009Y283223D01*
X180958Y283212D01*
X180897Y283175D01*
X180831Y283147D01*
X180775Y283102D01*
X180747Y283085D01*
X180732Y283068D01*
X180700Y283042D01*
X177989Y280331D01*
X177977Y280315D01*
X177962Y280303D01*
X177906Y280215D01*
X177846Y280131D01*
X177840Y280112D01*
X177829Y280096D01*
X177804Y279995D01*
X177773Y279896D01*
X177774Y279876D01*
X177769Y279857D01*
X177777Y279754D01*
X177780Y279650D01*
X177786Y279632D01*
X177788Y279612D01*
X177828Y279517D01*
X177864Y279419D01*
X177876Y279404D01*
X177884Y279386D01*
X177989Y279255D01*
X178001Y279243D01*
X178001Y265757D01*
X176243Y263999D01*
X163757Y263999D01*
X161939Y265817D01*
X161923Y265829D01*
X161910Y265844D01*
X161823Y265900D01*
X161739Y265961D01*
X161720Y265967D01*
X161704Y265977D01*
X161603Y266003D01*
X161504Y266033D01*
X161484Y266033D01*
X161465Y266037D01*
X161362Y266029D01*
X161258Y266027D01*
X161240Y266020D01*
X161220Y266018D01*
X161125Y265978D01*
X161027Y265942D01*
X161012Y265930D01*
X160994Y265922D01*
X160863Y265817D01*
X154421Y259375D01*
X136136Y259375D01*
X136066Y259364D01*
X135994Y259362D01*
X135945Y259344D01*
X135893Y259336D01*
X135830Y259302D01*
X135763Y259277D01*
X135722Y259245D01*
X135676Y259220D01*
X135627Y259169D01*
X135571Y259124D01*
X135543Y259080D01*
X135507Y259042D01*
X135476Y258977D01*
X135438Y258917D01*
X135425Y258866D01*
X135403Y258819D01*
X135395Y258748D01*
X135378Y258678D01*
X135382Y258626D01*
X135376Y258575D01*
X135391Y258504D01*
X135397Y258433D01*
X135417Y258385D01*
X135428Y258334D01*
X135465Y258273D01*
X135493Y258207D01*
X135538Y258151D01*
X135554Y258123D01*
X135572Y258108D01*
X135598Y258076D01*
X135601Y258073D01*
X135601Y244587D01*
X133843Y242829D01*
X121357Y242829D01*
X119599Y244587D01*
X119599Y258073D01*
X121357Y259831D01*
X122838Y259831D01*
X122858Y259834D01*
X122877Y259832D01*
X122979Y259854D01*
X123081Y259870D01*
X123098Y259880D01*
X123118Y259884D01*
X123207Y259937D01*
X123298Y259986D01*
X123312Y260000D01*
X123329Y260010D01*
X123396Y260089D01*
X123468Y260164D01*
X123476Y260182D01*
X123489Y260197D01*
X123528Y260293D01*
X123571Y260387D01*
X123573Y260407D01*
X123581Y260425D01*
X123599Y260592D01*
X123599Y262408D01*
X123596Y262428D01*
X123598Y262447D01*
X123576Y262549D01*
X123560Y262651D01*
X123550Y262668D01*
X123546Y262688D01*
X123493Y262777D01*
X123444Y262868D01*
X123430Y262882D01*
X123420Y262899D01*
X123341Y262966D01*
X123266Y263038D01*
X123248Y263046D01*
X123233Y263059D01*
X123137Y263098D01*
X123043Y263141D01*
X123023Y263143D01*
X123005Y263151D01*
X122838Y263169D01*
X121357Y263169D01*
X119599Y264927D01*
X119599Y278413D01*
X121357Y280171D01*
X133843Y280171D01*
X135562Y278452D01*
X135578Y278440D01*
X135590Y278425D01*
X135678Y278369D01*
X135761Y278308D01*
X135780Y278303D01*
X135797Y278292D01*
X135898Y278266D01*
X135997Y278236D01*
X136016Y278237D01*
X136036Y278232D01*
X136139Y278240D01*
X136242Y278242D01*
X136261Y278249D01*
X136281Y278251D01*
X136376Y278291D01*
X136473Y278327D01*
X136489Y278339D01*
X136507Y278347D01*
X136638Y278452D01*
X138357Y280171D01*
X140076Y280171D01*
X140096Y280174D01*
X140115Y280172D01*
X140217Y280194D01*
X140319Y280210D01*
X140336Y280220D01*
X140356Y280224D01*
X140445Y280277D01*
X140536Y280326D01*
X140550Y280340D01*
X140567Y280350D01*
X140634Y280429D01*
X140706Y280504D01*
X140714Y280522D01*
X140727Y280537D01*
X140766Y280633D01*
X140809Y280727D01*
X140811Y280747D01*
X140819Y280765D01*
X140837Y280932D01*
X140837Y282738D01*
X140834Y282758D01*
X140836Y282777D01*
X140814Y282879D01*
X140798Y282981D01*
X140788Y282998D01*
X140784Y283018D01*
X140731Y283107D01*
X140682Y283198D01*
X140668Y283212D01*
X140658Y283229D01*
X140579Y283296D01*
X140504Y283368D01*
X140486Y283376D01*
X140471Y283389D01*
X140375Y283428D01*
X140281Y283471D01*
X140261Y283473D01*
X140243Y283481D01*
X140076Y283499D01*
X138357Y283499D01*
X136638Y285218D01*
X136622Y285230D01*
X136610Y285245D01*
X136522Y285301D01*
X136439Y285362D01*
X136420Y285367D01*
X136403Y285378D01*
X136302Y285404D01*
X136203Y285434D01*
X136184Y285433D01*
X136164Y285438D01*
X136061Y285430D01*
X135958Y285428D01*
X135939Y285421D01*
X135919Y285419D01*
X135824Y285379D01*
X135727Y285343D01*
X135711Y285331D01*
X135693Y285323D01*
X135562Y285218D01*
X133843Y283499D01*
X121357Y283499D01*
X119795Y285061D01*
X119779Y285073D01*
X119767Y285088D01*
X119680Y285144D01*
X119596Y285204D01*
X119577Y285210D01*
X119560Y285221D01*
X119459Y285246D01*
X119361Y285277D01*
X119341Y285276D01*
X119321Y285281D01*
X119218Y285273D01*
X119115Y285270D01*
X119096Y285264D01*
X119076Y285262D01*
X118981Y285222D01*
X118884Y285186D01*
X118868Y285174D01*
X118850Y285166D01*
X118719Y285061D01*
X111224Y277566D01*
X111171Y277492D01*
X111111Y277422D01*
X111099Y277392D01*
X111080Y277366D01*
X111053Y277279D01*
X111019Y277194D01*
X111015Y277153D01*
X111008Y277131D01*
X111009Y277099D01*
X111001Y277028D01*
X111001Y151956D01*
X111006Y151924D01*
X111005Y151914D01*
X111016Y151863D01*
X111023Y151775D01*
X111035Y151745D01*
X111040Y151713D01*
X111054Y151688D01*
X111057Y151673D01*
X111088Y151622D01*
X111119Y151549D01*
X111145Y151517D01*
X111156Y151496D01*
X111173Y151480D01*
X111183Y151462D01*
X111199Y151449D01*
X111224Y151418D01*
X165926Y96716D01*
X166000Y96662D01*
X166069Y96603D01*
X166100Y96591D01*
X166126Y96572D01*
X166213Y96545D01*
X166298Y96511D01*
X166339Y96507D01*
X166361Y96500D01*
X166393Y96501D01*
X166464Y96493D01*
X242745Y96493D01*
X242816Y96504D01*
G37*
G36*
X594216Y288777D02*
X594216Y288777D01*
X594307Y288785D01*
X594337Y288797D01*
X594369Y288802D01*
X594450Y288845D01*
X594533Y288881D01*
X594566Y288907D01*
X594586Y288918D01*
X594608Y288941D01*
X594664Y288986D01*
X594917Y289239D01*
X595000Y289239D01*
X595090Y289254D01*
X595181Y289261D01*
X595211Y289273D01*
X595243Y289279D01*
X595323Y289321D01*
X595407Y289357D01*
X595439Y289383D01*
X595460Y289394D01*
X595482Y289417D01*
X595538Y289462D01*
X606538Y300462D01*
X606591Y300536D01*
X606651Y300605D01*
X606663Y300635D01*
X606682Y300661D01*
X606709Y300748D01*
X606743Y300833D01*
X606747Y300874D01*
X606754Y300897D01*
X606753Y300929D01*
X606761Y301000D01*
X606761Y378000D01*
X606758Y378020D01*
X606760Y378039D01*
X606738Y378141D01*
X606722Y378243D01*
X606712Y378260D01*
X606708Y378280D01*
X606655Y378369D01*
X606606Y378460D01*
X606592Y378474D01*
X606582Y378491D01*
X606503Y378558D01*
X606428Y378630D01*
X606410Y378638D01*
X606395Y378651D01*
X606299Y378690D01*
X606237Y378718D01*
X606237Y379476D01*
X606234Y379496D01*
X606236Y379515D01*
X606214Y379617D01*
X606198Y379719D01*
X606188Y379736D01*
X606184Y379756D01*
X606131Y379845D01*
X606082Y379936D01*
X606068Y379950D01*
X606058Y379967D01*
X605979Y380034D01*
X605904Y380106D01*
X605886Y380114D01*
X605871Y380127D01*
X605775Y380166D01*
X605681Y380209D01*
X605661Y380211D01*
X605643Y380219D01*
X605476Y380237D01*
X498762Y380237D01*
X498742Y380234D01*
X498723Y380236D01*
X498621Y380214D01*
X498519Y380198D01*
X498502Y380188D01*
X498482Y380184D01*
X498393Y380131D01*
X498302Y380082D01*
X498288Y380068D01*
X498271Y380058D01*
X498204Y379979D01*
X498132Y379904D01*
X498124Y379886D01*
X498111Y379871D01*
X498072Y379775D01*
X498029Y379681D01*
X498027Y379661D01*
X498019Y379643D01*
X498001Y379476D01*
X498001Y289524D01*
X498004Y289504D01*
X498002Y289485D01*
X498024Y289383D01*
X498040Y289281D01*
X498050Y289264D01*
X498054Y289244D01*
X498107Y289155D01*
X498156Y289064D01*
X498170Y289050D01*
X498180Y289033D01*
X498259Y288966D01*
X498334Y288894D01*
X498352Y288886D01*
X498367Y288873D01*
X498463Y288834D01*
X498557Y288791D01*
X498577Y288789D01*
X498595Y288781D01*
X498762Y288763D01*
X594126Y288763D01*
X594216Y288777D01*
G37*
G36*
X128032Y324515D02*
X128032Y324515D01*
X128123Y324523D01*
X128153Y324535D01*
X128185Y324540D01*
X128265Y324583D01*
X128349Y324619D01*
X128381Y324645D01*
X128402Y324656D01*
X128424Y324679D01*
X128480Y324724D01*
X130257Y326501D01*
X142743Y326501D01*
X144462Y324782D01*
X144478Y324770D01*
X144490Y324755D01*
X144578Y324699D01*
X144661Y324638D01*
X144680Y324633D01*
X144697Y324622D01*
X144798Y324596D01*
X144897Y324566D01*
X144916Y324567D01*
X144936Y324562D01*
X145039Y324570D01*
X145142Y324572D01*
X145161Y324579D01*
X145181Y324581D01*
X145276Y324621D01*
X145373Y324657D01*
X145389Y324669D01*
X145407Y324677D01*
X145538Y324782D01*
X147257Y326501D01*
X156028Y326501D01*
X156118Y326515D01*
X156209Y326523D01*
X156238Y326535D01*
X156270Y326540D01*
X156351Y326583D01*
X156435Y326619D01*
X156467Y326645D01*
X156488Y326656D01*
X156510Y326679D01*
X156566Y326724D01*
X158526Y328684D01*
X158579Y328758D01*
X158639Y328828D01*
X158651Y328858D01*
X158670Y328884D01*
X158697Y328971D01*
X158731Y329056D01*
X158735Y329097D01*
X158742Y329119D01*
X158741Y329151D01*
X158749Y329222D01*
X158749Y331488D01*
X158746Y331508D01*
X158748Y331527D01*
X158726Y331629D01*
X158710Y331731D01*
X158700Y331748D01*
X158696Y331768D01*
X158643Y331857D01*
X158594Y331948D01*
X158580Y331962D01*
X158570Y331979D01*
X158491Y332046D01*
X158416Y332118D01*
X158398Y332126D01*
X158383Y332139D01*
X158287Y332178D01*
X158193Y332221D01*
X158173Y332223D01*
X158155Y332231D01*
X157988Y332249D01*
X157007Y332249D01*
X155249Y334007D01*
X155249Y345993D01*
X157007Y347751D01*
X158528Y347751D01*
X158618Y347765D01*
X158709Y347773D01*
X158738Y347785D01*
X158770Y347790D01*
X158851Y347833D01*
X158935Y347869D01*
X158967Y347895D01*
X158988Y347906D01*
X159010Y347929D01*
X159066Y347974D01*
X161292Y350200D01*
X161334Y350258D01*
X161383Y350310D01*
X161405Y350357D01*
X161435Y350399D01*
X161456Y350468D01*
X161487Y350533D01*
X161492Y350585D01*
X161508Y350635D01*
X161506Y350706D01*
X161514Y350777D01*
X161503Y350828D01*
X161501Y350880D01*
X161477Y350948D01*
X161462Y351018D01*
X161435Y351062D01*
X161417Y351111D01*
X161372Y351167D01*
X161335Y351229D01*
X161296Y351263D01*
X161263Y351303D01*
X161203Y351342D01*
X161148Y351389D01*
X161100Y351408D01*
X161056Y351436D01*
X160987Y351454D01*
X160920Y351481D01*
X160849Y351489D01*
X160818Y351497D01*
X160795Y351495D01*
X160754Y351499D01*
X150257Y351499D01*
X148499Y353257D01*
X148499Y366743D01*
X150257Y368501D01*
X162743Y368501D01*
X164501Y366743D01*
X164501Y364762D01*
X164504Y364742D01*
X164502Y364723D01*
X164524Y364621D01*
X164540Y364519D01*
X164550Y364502D01*
X164554Y364482D01*
X164607Y364393D01*
X164656Y364302D01*
X164670Y364288D01*
X164680Y364271D01*
X164759Y364204D01*
X164834Y364132D01*
X164852Y364124D01*
X164867Y364111D01*
X164963Y364072D01*
X165057Y364029D01*
X165077Y364027D01*
X165095Y364019D01*
X165262Y364001D01*
X168988Y364001D01*
X169078Y364015D01*
X169169Y364023D01*
X169199Y364035D01*
X169231Y364040D01*
X169311Y364083D01*
X169395Y364119D01*
X169427Y364145D01*
X169448Y364156D01*
X169470Y364179D01*
X169526Y364224D01*
X170616Y365314D01*
X170628Y365330D01*
X170643Y365342D01*
X170699Y365430D01*
X170760Y365513D01*
X170765Y365532D01*
X170776Y365549D01*
X170802Y365650D01*
X170832Y365749D01*
X170831Y365768D01*
X170836Y365788D01*
X170828Y365891D01*
X170826Y365994D01*
X170819Y366013D01*
X170817Y366033D01*
X170777Y366128D01*
X170773Y366144D01*
X170767Y366155D01*
X170741Y366225D01*
X170729Y366241D01*
X170721Y366259D01*
X170656Y366340D01*
X170647Y366355D01*
X170637Y366364D01*
X170616Y366390D01*
X169499Y367507D01*
X169499Y371528D01*
X169485Y371618D01*
X169477Y371709D01*
X169465Y371738D01*
X169460Y371770D01*
X169417Y371851D01*
X169381Y371935D01*
X169355Y371967D01*
X169344Y371988D01*
X169321Y372010D01*
X169276Y372066D01*
X167331Y374011D01*
X167315Y374023D01*
X167303Y374038D01*
X167215Y374094D01*
X167131Y374154D01*
X167112Y374160D01*
X167096Y374171D01*
X166995Y374196D01*
X166896Y374227D01*
X166876Y374226D01*
X166857Y374231D01*
X166754Y374223D01*
X166650Y374220D01*
X166632Y374214D01*
X166612Y374212D01*
X166517Y374172D01*
X166419Y374136D01*
X166404Y374124D01*
X166386Y374116D01*
X166255Y374011D01*
X165243Y372999D01*
X151757Y372999D01*
X149999Y374757D01*
X149999Y387243D01*
X151757Y389001D01*
X165243Y389001D01*
X167001Y387243D01*
X167001Y385762D01*
X167004Y385742D01*
X167002Y385723D01*
X167024Y385621D01*
X167040Y385519D01*
X167050Y385502D01*
X167054Y385482D01*
X167107Y385393D01*
X167156Y385302D01*
X167170Y385288D01*
X167180Y385271D01*
X167259Y385204D01*
X167334Y385132D01*
X167352Y385124D01*
X167367Y385111D01*
X167463Y385072D01*
X167557Y385029D01*
X167577Y385027D01*
X167595Y385019D01*
X167644Y385014D01*
X168294Y384364D01*
X168310Y384352D01*
X168322Y384337D01*
X168410Y384281D01*
X168494Y384221D01*
X168513Y384215D01*
X168529Y384204D01*
X168630Y384179D01*
X168729Y384148D01*
X168749Y384149D01*
X168768Y384144D01*
X168871Y384152D01*
X168975Y384155D01*
X168993Y384161D01*
X169013Y384163D01*
X169108Y384203D01*
X169206Y384239D01*
X169221Y384251D01*
X169239Y384259D01*
X169370Y384364D01*
X171257Y386251D01*
X179622Y386251D01*
X179667Y386258D01*
X179713Y386256D01*
X179788Y386278D01*
X179865Y386290D01*
X179905Y386312D01*
X179949Y386325D01*
X180013Y386369D01*
X180082Y386406D01*
X180114Y386439D01*
X180151Y386465D01*
X180198Y386528D01*
X180251Y386584D01*
X180271Y386626D01*
X180298Y386662D01*
X180322Y386736D01*
X180355Y386807D01*
X180360Y386853D01*
X180374Y386896D01*
X180374Y386974D01*
X180382Y387051D01*
X180372Y387096D01*
X180372Y387142D01*
X180334Y387274D01*
X180330Y387292D01*
X180327Y387296D01*
X180325Y387303D01*
X179725Y388752D01*
X179725Y391248D01*
X180015Y391947D01*
X180025Y391991D01*
X180044Y392033D01*
X180053Y392110D01*
X180071Y392186D01*
X180066Y392232D01*
X180072Y392277D01*
X180055Y392354D01*
X180048Y392431D01*
X180029Y392473D01*
X180019Y392518D01*
X179979Y392585D01*
X179948Y392656D01*
X179917Y392690D01*
X179893Y392729D01*
X179834Y392780D01*
X179781Y392837D01*
X179741Y392859D01*
X179706Y392889D01*
X179634Y392918D01*
X179566Y392955D01*
X179521Y392964D01*
X179478Y392981D01*
X179342Y392996D01*
X179324Y392999D01*
X179319Y392998D01*
X179311Y392999D01*
X161188Y392999D01*
X161098Y392985D01*
X161007Y392977D01*
X160978Y392965D01*
X160946Y392960D01*
X160865Y392917D01*
X160781Y392881D01*
X160749Y392855D01*
X160728Y392844D01*
X160706Y392821D01*
X160650Y392776D01*
X159554Y391681D01*
X157248Y390725D01*
X154752Y390725D01*
X152446Y391681D01*
X150681Y393446D01*
X149725Y395752D01*
X149725Y397566D01*
X149714Y397637D01*
X149712Y397709D01*
X149694Y397758D01*
X149686Y397809D01*
X149652Y397872D01*
X149627Y397940D01*
X149595Y397980D01*
X149570Y398026D01*
X149518Y398076D01*
X149474Y398132D01*
X149430Y398160D01*
X149392Y398196D01*
X149327Y398226D01*
X149267Y398265D01*
X149216Y398277D01*
X149169Y398299D01*
X149098Y398307D01*
X149028Y398325D01*
X148976Y398321D01*
X148925Y398326D01*
X148854Y398311D01*
X148783Y398306D01*
X148735Y398285D01*
X148684Y398274D01*
X148623Y398237D01*
X148557Y398209D01*
X148501Y398165D01*
X148473Y398148D01*
X148458Y398130D01*
X148426Y398104D01*
X139986Y389664D01*
X137559Y387237D01*
X137262Y387237D01*
X137242Y387234D01*
X137223Y387236D01*
X137121Y387214D01*
X137019Y387198D01*
X137002Y387188D01*
X136982Y387184D01*
X136893Y387131D01*
X136802Y387082D01*
X136788Y387068D01*
X136771Y387058D01*
X136704Y386979D01*
X136632Y386904D01*
X136624Y386886D01*
X136611Y386871D01*
X136572Y386775D01*
X136529Y386681D01*
X136527Y386661D01*
X136519Y386643D01*
X136501Y386476D01*
X136501Y384257D01*
X134743Y382499D01*
X122257Y382499D01*
X120538Y384218D01*
X120522Y384230D01*
X120510Y384245D01*
X120422Y384301D01*
X120339Y384362D01*
X120320Y384367D01*
X120303Y384378D01*
X120202Y384404D01*
X120103Y384434D01*
X120084Y384433D01*
X120064Y384438D01*
X119961Y384430D01*
X119858Y384428D01*
X119839Y384421D01*
X119819Y384419D01*
X119724Y384379D01*
X119627Y384343D01*
X119611Y384331D01*
X119593Y384323D01*
X119462Y384218D01*
X117743Y382499D01*
X116012Y382499D01*
X115992Y382496D01*
X115973Y382498D01*
X115871Y382476D01*
X115769Y382460D01*
X115752Y382450D01*
X115732Y382446D01*
X115643Y382393D01*
X115552Y382344D01*
X115538Y382330D01*
X115521Y382320D01*
X115454Y382241D01*
X115382Y382166D01*
X115374Y382148D01*
X115361Y382133D01*
X115322Y382037D01*
X115279Y381943D01*
X115277Y381923D01*
X115269Y381905D01*
X115251Y381738D01*
X115251Y370762D01*
X115254Y370742D01*
X115252Y370723D01*
X115274Y370621D01*
X115290Y370519D01*
X115300Y370502D01*
X115304Y370482D01*
X115357Y370393D01*
X115406Y370302D01*
X115420Y370288D01*
X115430Y370271D01*
X115509Y370204D01*
X115584Y370132D01*
X115602Y370124D01*
X115617Y370111D01*
X115713Y370072D01*
X115807Y370029D01*
X115827Y370027D01*
X115845Y370019D01*
X116012Y370001D01*
X126243Y370001D01*
X128001Y368243D01*
X128001Y355757D01*
X126243Y353999D01*
X123762Y353999D01*
X123742Y353996D01*
X123723Y353998D01*
X123621Y353976D01*
X123519Y353960D01*
X123502Y353950D01*
X123482Y353946D01*
X123393Y353893D01*
X123302Y353844D01*
X123288Y353830D01*
X123271Y353820D01*
X123204Y353741D01*
X123132Y353666D01*
X123124Y353648D01*
X123111Y353633D01*
X123072Y353537D01*
X123029Y353443D01*
X123027Y353423D01*
X123019Y353405D01*
X123001Y353238D01*
X123001Y347262D01*
X123004Y347242D01*
X123002Y347223D01*
X123024Y347121D01*
X123040Y347019D01*
X123050Y347002D01*
X123054Y346982D01*
X123107Y346893D01*
X123156Y346802D01*
X123170Y346788D01*
X123180Y346771D01*
X123259Y346704D01*
X123334Y346632D01*
X123352Y346624D01*
X123367Y346611D01*
X123463Y346572D01*
X123557Y346529D01*
X123577Y346527D01*
X123595Y346519D01*
X123762Y346501D01*
X123942Y346501D01*
X124032Y346515D01*
X124123Y346523D01*
X124153Y346535D01*
X124184Y346540D01*
X124265Y346583D01*
X124349Y346619D01*
X124381Y346645D01*
X124402Y346656D01*
X124424Y346679D01*
X124480Y346724D01*
X125507Y347751D01*
X136993Y347751D01*
X138751Y345993D01*
X138751Y334007D01*
X136993Y332249D01*
X125507Y332249D01*
X125480Y332276D01*
X125406Y332329D01*
X125337Y332389D01*
X125306Y332401D01*
X125280Y332420D01*
X125193Y332447D01*
X125108Y332481D01*
X125068Y332485D01*
X125045Y332492D01*
X125013Y332491D01*
X124942Y332499D01*
X116012Y332499D01*
X115992Y332496D01*
X115973Y332498D01*
X115871Y332476D01*
X115769Y332460D01*
X115752Y332450D01*
X115732Y332446D01*
X115643Y332393D01*
X115552Y332344D01*
X115538Y332330D01*
X115521Y332320D01*
X115454Y332241D01*
X115382Y332166D01*
X115374Y332148D01*
X115361Y332133D01*
X115322Y332036D01*
X115279Y331943D01*
X115277Y331923D01*
X115269Y331905D01*
X115251Y331738D01*
X115251Y328262D01*
X115254Y328242D01*
X115252Y328223D01*
X115274Y328121D01*
X115290Y328019D01*
X115300Y328002D01*
X115304Y327982D01*
X115357Y327893D01*
X115406Y327802D01*
X115420Y327788D01*
X115430Y327771D01*
X115509Y327704D01*
X115584Y327632D01*
X115602Y327624D01*
X115617Y327611D01*
X115713Y327572D01*
X115807Y327529D01*
X115827Y327527D01*
X115845Y327519D01*
X116012Y327501D01*
X124743Y327501D01*
X126501Y325743D01*
X126501Y325262D01*
X126504Y325242D01*
X126502Y325223D01*
X126524Y325121D01*
X126540Y325019D01*
X126550Y325002D01*
X126554Y324982D01*
X126607Y324893D01*
X126656Y324802D01*
X126670Y324788D01*
X126680Y324771D01*
X126759Y324704D01*
X126834Y324632D01*
X126852Y324624D01*
X126867Y324611D01*
X126963Y324572D01*
X127057Y324529D01*
X127077Y324527D01*
X127095Y324519D01*
X127262Y324501D01*
X127942Y324501D01*
X128032Y324515D01*
G37*
%LPC*%
G36*
X386022Y9999D02*
X386022Y9999D01*
X378670Y13044D01*
X373044Y18670D01*
X369999Y26022D01*
X369999Y33978D01*
X373044Y41330D01*
X378670Y46956D01*
X386022Y50001D01*
X393978Y50001D01*
X401330Y46956D01*
X406956Y41330D01*
X410001Y33978D01*
X410001Y26022D01*
X406956Y18670D01*
X401330Y13044D01*
X393978Y9999D01*
X386022Y9999D01*
G37*
%LPD*%
%LPC*%
G36*
X886022Y9999D02*
X886022Y9999D01*
X878670Y13044D01*
X873044Y18670D01*
X869999Y26022D01*
X869999Y33978D01*
X873044Y41330D01*
X878670Y46956D01*
X886022Y50001D01*
X893978Y50001D01*
X901330Y46956D01*
X906956Y41330D01*
X910001Y33978D01*
X910001Y26022D01*
X906956Y18670D01*
X901330Y13044D01*
X893978Y9999D01*
X886022Y9999D01*
G37*
%LPD*%
%LPC*%
G36*
X86022Y9999D02*
X86022Y9999D01*
X78670Y13044D01*
X73044Y18670D01*
X69999Y26022D01*
X69999Y33978D01*
X73044Y41330D01*
X78670Y46956D01*
X86022Y50001D01*
X93978Y50001D01*
X101330Y46956D01*
X106956Y41330D01*
X110001Y33978D01*
X110001Y26022D01*
X106956Y18670D01*
X101330Y13044D01*
X93978Y9999D01*
X86022Y9999D01*
G37*
%LPD*%
%LPC*%
G36*
X86022Y869999D02*
X86022Y869999D01*
X78670Y873044D01*
X73044Y878670D01*
X69999Y886022D01*
X69999Y893978D01*
X73044Y901330D01*
X78670Y906956D01*
X86022Y910001D01*
X93978Y910001D01*
X101330Y906956D01*
X106956Y901330D01*
X110001Y893978D01*
X110001Y886022D01*
X106956Y878670D01*
X101330Y873044D01*
X93978Y869999D01*
X86022Y869999D01*
G37*
%LPD*%
%LPC*%
G36*
X886022Y869999D02*
X886022Y869999D01*
X878670Y873044D01*
X873044Y878670D01*
X869999Y886022D01*
X869999Y893978D01*
X873044Y901330D01*
X878670Y906956D01*
X886022Y910001D01*
X893978Y910001D01*
X901330Y906956D01*
X906956Y901330D01*
X910001Y893978D01*
X910001Y886022D01*
X906956Y878670D01*
X901330Y873044D01*
X893978Y869999D01*
X886022Y869999D01*
G37*
%LPD*%
%LPC*%
G36*
X386022Y869999D02*
X386022Y869999D01*
X378670Y873044D01*
X373044Y878670D01*
X369999Y886022D01*
X369999Y893978D01*
X373044Y901330D01*
X378670Y906956D01*
X386022Y910001D01*
X393978Y910001D01*
X401330Y906956D01*
X406956Y901330D01*
X410001Y893978D01*
X410001Y886022D01*
X406956Y878670D01*
X401330Y873044D01*
X393978Y869999D01*
X386022Y869999D01*
G37*
%LPD*%
G36*
X172241Y410515D02*
X172241Y410515D01*
X172332Y410523D01*
X172362Y410535D01*
X172394Y410540D01*
X172475Y410583D01*
X172559Y410619D01*
X172591Y410645D01*
X172611Y410656D01*
X172634Y410679D01*
X172690Y410724D01*
X173976Y412011D01*
X174007Y412053D01*
X174045Y412089D01*
X174078Y412152D01*
X174120Y412210D01*
X174135Y412260D01*
X174160Y412306D01*
X174184Y412419D01*
X174192Y412445D01*
X174192Y412455D01*
X174195Y412470D01*
X174495Y415356D01*
X174494Y415384D01*
X174499Y415435D01*
X174499Y428493D01*
X176257Y430251D01*
X190278Y430251D01*
X190368Y430265D01*
X190459Y430273D01*
X190488Y430285D01*
X190520Y430290D01*
X190601Y430333D01*
X190685Y430369D01*
X190717Y430395D01*
X190738Y430406D01*
X190760Y430429D01*
X190816Y430474D01*
X193542Y433200D01*
X193584Y433258D01*
X193633Y433310D01*
X193655Y433357D01*
X193685Y433399D01*
X193706Y433468D01*
X193737Y433533D01*
X193742Y433585D01*
X193758Y433635D01*
X193756Y433706D01*
X193764Y433777D01*
X193753Y433828D01*
X193751Y433880D01*
X193727Y433948D01*
X193712Y434018D01*
X193685Y434063D01*
X193667Y434111D01*
X193622Y434167D01*
X193585Y434229D01*
X193546Y434263D01*
X193513Y434303D01*
X193453Y434342D01*
X193398Y434389D01*
X193350Y434408D01*
X193306Y434436D01*
X193237Y434454D01*
X193170Y434481D01*
X193099Y434489D01*
X193068Y434497D01*
X193045Y434495D01*
X193004Y434499D01*
X179257Y434499D01*
X177538Y436218D01*
X177522Y436230D01*
X177510Y436245D01*
X177422Y436301D01*
X177339Y436362D01*
X177320Y436367D01*
X177303Y436378D01*
X177202Y436404D01*
X177103Y436434D01*
X177084Y436433D01*
X177064Y436438D01*
X176961Y436430D01*
X176858Y436428D01*
X176839Y436421D01*
X176819Y436419D01*
X176724Y436379D01*
X176627Y436343D01*
X176611Y436331D01*
X176593Y436323D01*
X176462Y436218D01*
X174743Y434499D01*
X162257Y434499D01*
X160499Y436257D01*
X160499Y449476D01*
X160496Y449496D01*
X160498Y449515D01*
X160476Y449617D01*
X160460Y449719D01*
X160450Y449736D01*
X160446Y449756D01*
X160393Y449845D01*
X160344Y449936D01*
X160330Y449950D01*
X160320Y449967D01*
X160241Y450034D01*
X160166Y450106D01*
X160148Y450114D01*
X160133Y450127D01*
X160037Y450166D01*
X159943Y450209D01*
X159923Y450211D01*
X159905Y450219D01*
X159738Y450237D01*
X136258Y450237D01*
X136188Y450226D01*
X136116Y450224D01*
X136067Y450206D01*
X136016Y450198D01*
X135952Y450164D01*
X135885Y450139D01*
X135844Y450107D01*
X135798Y450082D01*
X135749Y450030D01*
X135693Y449986D01*
X135665Y449942D01*
X135629Y449904D01*
X135599Y449839D01*
X135560Y449779D01*
X135547Y449728D01*
X135525Y449681D01*
X135517Y449610D01*
X135500Y449540D01*
X135504Y449488D01*
X135498Y449437D01*
X135513Y449366D01*
X135519Y449295D01*
X135539Y449247D01*
X135550Y449196D01*
X135587Y449135D01*
X135615Y449069D01*
X135660Y449013D01*
X135677Y448985D01*
X135694Y448970D01*
X135720Y448938D01*
X141434Y443224D01*
X144001Y440657D01*
X144001Y418188D01*
X144015Y418098D01*
X144023Y418007D01*
X144035Y417978D01*
X144040Y417946D01*
X144083Y417865D01*
X144119Y417781D01*
X144145Y417749D01*
X144156Y417728D01*
X144179Y417706D01*
X144224Y417650D01*
X145319Y416554D01*
X146275Y414248D01*
X146275Y411752D01*
X146192Y411553D01*
X146182Y411509D01*
X146163Y411467D01*
X146154Y411390D01*
X146136Y411314D01*
X146141Y411268D01*
X146136Y411223D01*
X146152Y411146D01*
X146159Y411069D01*
X146178Y411027D01*
X146188Y410982D01*
X146228Y410915D01*
X146259Y410844D01*
X146290Y410810D01*
X146314Y410771D01*
X146373Y410720D01*
X146426Y410663D01*
X146466Y410641D01*
X146501Y410611D01*
X146573Y410582D01*
X146641Y410545D01*
X146686Y410536D01*
X146729Y410519D01*
X146865Y410504D01*
X146883Y410501D01*
X146888Y410502D01*
X146896Y410501D01*
X172151Y410501D01*
X172241Y410515D01*
G37*
%LPC*%
G36*
X859319Y672799D02*
X859319Y672799D01*
X852703Y675540D01*
X847640Y680603D01*
X844899Y687219D01*
X844899Y694381D01*
X847640Y700997D01*
X852703Y706060D01*
X859319Y708801D01*
X866481Y708801D01*
X873097Y706060D01*
X878160Y700997D01*
X880901Y694381D01*
X880901Y687219D01*
X878160Y680603D01*
X873097Y675540D01*
X866481Y672799D01*
X859319Y672799D01*
G37*
%LPD*%
%LPC*%
G36*
X859319Y782499D02*
X859319Y782499D01*
X852703Y785240D01*
X847640Y790303D01*
X844899Y796919D01*
X844899Y804081D01*
X847640Y810697D01*
X852703Y815760D01*
X859319Y818501D01*
X866481Y818501D01*
X873097Y815760D01*
X878160Y810697D01*
X880901Y804081D01*
X880901Y796919D01*
X878160Y790303D01*
X873097Y785240D01*
X866481Y782499D01*
X859319Y782499D01*
G37*
%LPD*%
%LPC*%
G36*
X766267Y293249D02*
X766267Y293249D01*
X760478Y295647D01*
X756047Y300078D01*
X753649Y305867D01*
X753649Y312133D01*
X756047Y317922D01*
X760478Y322353D01*
X766267Y324751D01*
X772533Y324751D01*
X778322Y322353D01*
X782753Y317922D01*
X785151Y312133D01*
X785151Y305867D01*
X782753Y300078D01*
X778322Y295647D01*
X772533Y293249D01*
X766267Y293249D01*
G37*
%LPD*%
%LPC*%
G36*
X766267Y155349D02*
X766267Y155349D01*
X760478Y157747D01*
X756047Y162178D01*
X753649Y167967D01*
X753649Y174233D01*
X756047Y180022D01*
X760478Y184453D01*
X766267Y186851D01*
X772533Y186851D01*
X778322Y184453D01*
X782753Y180022D01*
X785151Y174233D01*
X785151Y167967D01*
X782753Y162178D01*
X778322Y157747D01*
X772533Y155349D01*
X766267Y155349D01*
G37*
%LPD*%
%LPC*%
G36*
X766267Y431149D02*
X766267Y431149D01*
X760478Y433547D01*
X756047Y437978D01*
X753649Y443767D01*
X753649Y450033D01*
X756047Y455822D01*
X760478Y460253D01*
X766267Y462651D01*
X772533Y462651D01*
X778322Y460253D01*
X782753Y455822D01*
X785151Y450033D01*
X785151Y443767D01*
X782753Y437978D01*
X778322Y433547D01*
X772533Y431149D01*
X766267Y431149D01*
G37*
%LPD*%
%LPC*%
G36*
X766267Y569049D02*
X766267Y569049D01*
X760478Y571447D01*
X756047Y575878D01*
X753649Y581667D01*
X753649Y587933D01*
X756047Y593722D01*
X760478Y598153D01*
X766267Y600551D01*
X772533Y600551D01*
X778322Y598153D01*
X782753Y593722D01*
X785151Y587933D01*
X785151Y581667D01*
X782753Y575878D01*
X778322Y571447D01*
X772533Y569049D01*
X766267Y569049D01*
G37*
%LPD*%
%LPC*%
G36*
X142257Y199499D02*
X142257Y199499D01*
X140499Y201257D01*
X140499Y211743D01*
X142342Y213586D01*
X142377Y213599D01*
X142418Y213631D01*
X142464Y213656D01*
X142513Y213707D01*
X142569Y213752D01*
X142597Y213796D01*
X142633Y213834D01*
X142663Y213899D01*
X142702Y213959D01*
X142715Y214010D01*
X142737Y214057D01*
X142745Y214128D01*
X142762Y214198D01*
X142758Y214250D01*
X142764Y214301D01*
X142749Y214372D01*
X142743Y214443D01*
X142723Y214491D01*
X142712Y214542D01*
X142675Y214603D01*
X142647Y214669D01*
X142602Y214725D01*
X142585Y214753D01*
X142568Y214768D01*
X142542Y214800D01*
X142499Y214843D01*
X142499Y215238D01*
X142496Y215258D01*
X142498Y215277D01*
X142476Y215379D01*
X142460Y215481D01*
X142450Y215498D01*
X142446Y215518D01*
X142393Y215607D01*
X142344Y215698D01*
X142330Y215712D01*
X142320Y215729D01*
X142241Y215796D01*
X142166Y215868D01*
X142148Y215876D01*
X142133Y215889D01*
X142037Y215928D01*
X141943Y215971D01*
X141923Y215973D01*
X141905Y215981D01*
X141738Y215999D01*
X139757Y215999D01*
X137999Y217757D01*
X137999Y230243D01*
X139757Y232001D01*
X153243Y232001D01*
X155001Y230243D01*
X155001Y217757D01*
X153243Y215999D01*
X152762Y215999D01*
X152742Y215996D01*
X152723Y215998D01*
X152621Y215976D01*
X152519Y215960D01*
X152502Y215950D01*
X152482Y215946D01*
X152393Y215893D01*
X152302Y215844D01*
X152288Y215830D01*
X152271Y215820D01*
X152204Y215741D01*
X152132Y215666D01*
X152124Y215648D01*
X152111Y215633D01*
X152072Y215537D01*
X152029Y215443D01*
X152027Y215423D01*
X152019Y215405D01*
X152001Y215238D01*
X152001Y214262D01*
X152004Y214242D01*
X152002Y214223D01*
X152024Y214121D01*
X152040Y214019D01*
X152050Y214002D01*
X152054Y213982D01*
X152107Y213893D01*
X152156Y213802D01*
X152170Y213788D01*
X152180Y213771D01*
X152259Y213704D01*
X152334Y213632D01*
X152352Y213624D01*
X152367Y213611D01*
X152463Y213572D01*
X152557Y213529D01*
X152577Y213527D01*
X152595Y213519D01*
X152762Y213501D01*
X152988Y213501D01*
X153008Y213504D01*
X153027Y213502D01*
X153129Y213524D01*
X153231Y213540D01*
X153248Y213550D01*
X153268Y213554D01*
X153357Y213607D01*
X153448Y213656D01*
X153462Y213670D01*
X153479Y213680D01*
X153546Y213759D01*
X153618Y213834D01*
X153626Y213852D01*
X153639Y213867D01*
X153649Y213893D01*
X155507Y215751D01*
X166993Y215751D01*
X168751Y213993D01*
X168751Y202007D01*
X166993Y200249D01*
X155503Y200249D01*
X155422Y200301D01*
X155339Y200362D01*
X155320Y200367D01*
X155303Y200378D01*
X155202Y200404D01*
X155103Y200434D01*
X155084Y200433D01*
X155064Y200438D01*
X154961Y200430D01*
X154858Y200428D01*
X154839Y200421D01*
X154819Y200419D01*
X154724Y200379D01*
X154627Y200343D01*
X154611Y200331D01*
X154593Y200323D01*
X154462Y200218D01*
X153743Y199499D01*
X142257Y199499D01*
G37*
%LPD*%
%LPC*%
G36*
X719014Y714499D02*
X719014Y714499D01*
X714236Y716479D01*
X710579Y720136D01*
X708599Y724914D01*
X708599Y730086D01*
X710579Y734864D01*
X714236Y738521D01*
X719014Y740501D01*
X724186Y740501D01*
X728964Y738521D01*
X732621Y734864D01*
X734601Y730086D01*
X734601Y724914D01*
X732621Y720136D01*
X728964Y716479D01*
X724186Y714499D01*
X719014Y714499D01*
G37*
%LPD*%
%LPC*%
G36*
X254514Y816099D02*
X254514Y816099D01*
X249736Y818079D01*
X246079Y821736D01*
X244099Y826514D01*
X244099Y831686D01*
X246079Y836464D01*
X249736Y840121D01*
X254514Y842101D01*
X259686Y842101D01*
X264464Y840121D01*
X268121Y836464D01*
X270101Y831686D01*
X270101Y826514D01*
X268121Y821736D01*
X264464Y818079D01*
X259686Y816099D01*
X254514Y816099D01*
G37*
%LPD*%
%LPC*%
G36*
X817587Y695179D02*
X817587Y695179D01*
X813684Y696796D01*
X810696Y699784D01*
X809079Y703687D01*
X809079Y707913D01*
X810696Y711816D01*
X813684Y714804D01*
X817587Y716421D01*
X821813Y716421D01*
X825716Y714804D01*
X828704Y711816D01*
X830321Y707913D01*
X830321Y703687D01*
X828704Y699784D01*
X825716Y696796D01*
X821813Y695179D01*
X817587Y695179D01*
G37*
%LPD*%
%LPC*%
G36*
X787587Y665179D02*
X787587Y665179D01*
X783684Y666796D01*
X780696Y669784D01*
X779079Y673687D01*
X779079Y677913D01*
X780696Y681816D01*
X783684Y684804D01*
X787587Y686421D01*
X791813Y686421D01*
X795716Y684804D01*
X798704Y681816D01*
X800321Y677913D01*
X800321Y673687D01*
X798704Y669784D01*
X795716Y666796D01*
X791813Y665179D01*
X787587Y665179D01*
G37*
%LPD*%
%LPC*%
G36*
X787587Y695179D02*
X787587Y695179D01*
X783684Y696796D01*
X780696Y699784D01*
X779079Y703687D01*
X779079Y707913D01*
X780696Y711816D01*
X783684Y714804D01*
X787587Y716421D01*
X791813Y716421D01*
X795716Y714804D01*
X798704Y711816D01*
X800321Y707913D01*
X800321Y703687D01*
X798704Y699784D01*
X795716Y696796D01*
X791813Y695179D01*
X787587Y695179D01*
G37*
%LPD*%
%LPC*%
G36*
X817607Y665179D02*
X817607Y665179D01*
X813704Y666796D01*
X810716Y669784D01*
X809099Y673687D01*
X809099Y677913D01*
X810716Y681816D01*
X813704Y684804D01*
X817607Y686421D01*
X821833Y686421D01*
X825736Y684804D01*
X828724Y681816D01*
X830341Y677913D01*
X830341Y673687D01*
X828724Y669784D01*
X825736Y666796D01*
X821833Y665179D01*
X817607Y665179D01*
G37*
%LPD*%
%LPC*%
G36*
X817311Y466399D02*
X817311Y466399D01*
X813452Y467998D01*
X810498Y470952D01*
X808899Y474811D01*
X808899Y478989D01*
X810498Y482848D01*
X813452Y485802D01*
X817311Y487401D01*
X821489Y487401D01*
X825348Y485802D01*
X828302Y482848D01*
X829901Y478989D01*
X829901Y474811D01*
X828302Y470952D01*
X825348Y467998D01*
X821489Y466399D01*
X817311Y466399D01*
G37*
%LPD*%
%LPC*%
G36*
X817311Y604299D02*
X817311Y604299D01*
X813452Y605898D01*
X810498Y608852D01*
X808899Y612711D01*
X808899Y616889D01*
X810498Y620748D01*
X813452Y623702D01*
X817311Y625301D01*
X821489Y625301D01*
X825348Y623702D01*
X828302Y620748D01*
X829901Y616889D01*
X829901Y612711D01*
X828302Y608852D01*
X825348Y605898D01*
X821489Y604299D01*
X817311Y604299D01*
G37*
%LPD*%
%LPC*%
G36*
X817311Y80599D02*
X817311Y80599D01*
X813452Y82198D01*
X810498Y85152D01*
X808899Y89011D01*
X808899Y93189D01*
X810498Y97048D01*
X813452Y100002D01*
X817311Y101601D01*
X821489Y101601D01*
X825348Y100002D01*
X828302Y97048D01*
X829901Y93189D01*
X829901Y89011D01*
X828302Y85152D01*
X825348Y82198D01*
X821489Y80599D01*
X817311Y80599D01*
G37*
%LPD*%
%LPC*%
G36*
X817311Y190599D02*
X817311Y190599D01*
X813452Y192198D01*
X810498Y195152D01*
X808899Y199011D01*
X808899Y203189D01*
X810498Y207048D01*
X813452Y210002D01*
X817311Y211601D01*
X821489Y211601D01*
X825348Y210002D01*
X828302Y207048D01*
X829901Y203189D01*
X829901Y199011D01*
X828302Y195152D01*
X825348Y192198D01*
X821489Y190599D01*
X817311Y190599D01*
G37*
%LPD*%
%LPC*%
G36*
X817311Y218499D02*
X817311Y218499D01*
X813452Y220098D01*
X810498Y223052D01*
X808899Y226911D01*
X808899Y231089D01*
X810498Y234948D01*
X813452Y237902D01*
X817311Y239501D01*
X821489Y239501D01*
X825348Y237902D01*
X828302Y234948D01*
X829901Y231089D01*
X829901Y226911D01*
X828302Y223052D01*
X825348Y220098D01*
X821489Y218499D01*
X817311Y218499D01*
G37*
%LPD*%
%LPC*%
G36*
X817311Y328499D02*
X817311Y328499D01*
X813452Y330098D01*
X810498Y333052D01*
X808899Y336911D01*
X808899Y341089D01*
X810498Y344948D01*
X813452Y347902D01*
X817311Y349501D01*
X821489Y349501D01*
X825348Y347902D01*
X828302Y344948D01*
X829901Y341089D01*
X829901Y336911D01*
X828302Y333052D01*
X825348Y330098D01*
X821489Y328499D01*
X817311Y328499D01*
G37*
%LPD*%
%LPC*%
G36*
X817311Y494299D02*
X817311Y494299D01*
X813452Y495898D01*
X810498Y498852D01*
X808899Y502711D01*
X808899Y506889D01*
X810498Y510748D01*
X813452Y513702D01*
X817311Y515301D01*
X821489Y515301D01*
X825348Y513702D01*
X828302Y510748D01*
X829901Y506889D01*
X829901Y502711D01*
X828302Y498852D01*
X825348Y495898D01*
X821489Y494299D01*
X817311Y494299D01*
G37*
%LPD*%
%LPC*%
G36*
X817311Y356399D02*
X817311Y356399D01*
X813452Y357998D01*
X810498Y360952D01*
X808899Y364811D01*
X808899Y368989D01*
X810498Y372848D01*
X813452Y375802D01*
X817311Y377401D01*
X821489Y377401D01*
X825348Y375802D01*
X828302Y372848D01*
X829901Y368989D01*
X829901Y364811D01*
X828302Y360952D01*
X825348Y357998D01*
X821489Y356399D01*
X817311Y356399D01*
G37*
%LPD*%
%LPC*%
G36*
X694991Y212429D02*
X694991Y212429D01*
X691315Y213952D01*
X688502Y216765D01*
X686979Y220441D01*
X686979Y224419D01*
X688502Y228095D01*
X691315Y230908D01*
X694991Y232431D01*
X698969Y232431D01*
X702645Y230908D01*
X705458Y228095D01*
X706981Y224419D01*
X706981Y220441D01*
X705458Y216765D01*
X702645Y213952D01*
X698969Y212429D01*
X694991Y212429D01*
G37*
%LPD*%
%LPC*%
G36*
X606991Y212429D02*
X606991Y212429D01*
X603315Y213952D01*
X600502Y216765D01*
X598979Y220441D01*
X598979Y224419D01*
X600502Y228095D01*
X603315Y230908D01*
X606991Y232431D01*
X610969Y232431D01*
X614645Y230908D01*
X617458Y228095D01*
X618981Y224419D01*
X618981Y220441D01*
X617458Y216765D01*
X614645Y213952D01*
X610969Y212429D01*
X606991Y212429D01*
G37*
%LPD*%
%LPC*%
G36*
X694991Y296089D02*
X694991Y296089D01*
X691315Y297612D01*
X688502Y300425D01*
X686979Y304101D01*
X686979Y308079D01*
X688502Y311755D01*
X691315Y314568D01*
X694991Y316091D01*
X698969Y316091D01*
X702645Y314568D01*
X705458Y311755D01*
X706981Y308079D01*
X706981Y304101D01*
X705458Y300425D01*
X702645Y297612D01*
X698969Y296089D01*
X694991Y296089D01*
G37*
%LPD*%
%LPC*%
G36*
X606991Y128774D02*
X606991Y128774D01*
X603315Y130297D01*
X600502Y133110D01*
X598979Y136786D01*
X598979Y140764D01*
X600502Y144440D01*
X603315Y147253D01*
X606991Y148776D01*
X610969Y148776D01*
X614645Y147253D01*
X617458Y144440D01*
X618981Y140764D01*
X618981Y136786D01*
X617458Y133110D01*
X614645Y130297D01*
X610969Y128774D01*
X606991Y128774D01*
G37*
%LPD*%
%LPC*%
G36*
X694991Y128769D02*
X694991Y128769D01*
X691315Y130292D01*
X688502Y133105D01*
X686979Y136781D01*
X686979Y140759D01*
X688502Y144435D01*
X691315Y147248D01*
X694991Y148771D01*
X698969Y148771D01*
X702645Y147248D01*
X705458Y144435D01*
X706981Y140759D01*
X706981Y136781D01*
X705458Y133105D01*
X702645Y130292D01*
X698969Y128769D01*
X694991Y128769D01*
G37*
%LPD*%
%LPC*%
G36*
X606991Y45119D02*
X606991Y45119D01*
X603315Y46642D01*
X600502Y49455D01*
X598979Y53131D01*
X598979Y57109D01*
X600502Y60785D01*
X603315Y63598D01*
X606991Y65121D01*
X610969Y65121D01*
X614645Y63598D01*
X617458Y60785D01*
X618981Y57109D01*
X618981Y53131D01*
X617458Y49455D01*
X614645Y46642D01*
X610969Y45119D01*
X606991Y45119D01*
G37*
%LPD*%
%LPC*%
G36*
X694991Y45119D02*
X694991Y45119D01*
X691315Y46642D01*
X688502Y49455D01*
X686979Y53131D01*
X686979Y57109D01*
X688502Y60785D01*
X691315Y63598D01*
X694991Y65121D01*
X698969Y65121D01*
X702645Y63598D01*
X705458Y60785D01*
X706981Y57109D01*
X706981Y53131D01*
X705458Y49455D01*
X702645Y46642D01*
X698969Y45119D01*
X694991Y45119D01*
G37*
%LPD*%
G36*
X175634Y314177D02*
X175634Y314177D01*
X175705Y314182D01*
X175753Y314203D01*
X175804Y314214D01*
X175865Y314251D01*
X175931Y314279D01*
X175987Y314323D01*
X176015Y314340D01*
X176030Y314358D01*
X176062Y314384D01*
X182014Y320336D01*
X182067Y320410D01*
X182127Y320479D01*
X182139Y320509D01*
X182158Y320535D01*
X182185Y320622D01*
X182219Y320707D01*
X182223Y320748D01*
X182230Y320770D01*
X182229Y320803D01*
X182237Y320874D01*
X182237Y334354D01*
X182223Y334444D01*
X182215Y334535D01*
X182203Y334565D01*
X182198Y334596D01*
X182155Y334677D01*
X182119Y334761D01*
X182093Y334793D01*
X182082Y334814D01*
X182059Y334836D01*
X182014Y334892D01*
X181499Y335407D01*
X181499Y349340D01*
X181488Y349411D01*
X181486Y349483D01*
X181468Y349532D01*
X181460Y349583D01*
X181426Y349646D01*
X181401Y349714D01*
X181369Y349754D01*
X181344Y349800D01*
X181292Y349850D01*
X181248Y349906D01*
X181204Y349934D01*
X181166Y349970D01*
X181101Y350000D01*
X181041Y350039D01*
X180990Y350051D01*
X180943Y350073D01*
X180872Y350081D01*
X180802Y350099D01*
X180750Y350095D01*
X180699Y350100D01*
X180628Y350085D01*
X180557Y350080D01*
X180509Y350059D01*
X180458Y350048D01*
X180397Y350011D01*
X180331Y349983D01*
X180275Y349939D01*
X180247Y349922D01*
X180232Y349904D01*
X180200Y349878D01*
X174986Y344664D01*
X174933Y344590D01*
X174873Y344521D01*
X174861Y344491D01*
X174842Y344465D01*
X174815Y344378D01*
X174781Y344293D01*
X174777Y344252D01*
X174770Y344230D01*
X174771Y344197D01*
X174763Y344126D01*
X174763Y314922D01*
X174774Y314851D01*
X174776Y314779D01*
X174794Y314730D01*
X174802Y314679D01*
X174836Y314616D01*
X174861Y314548D01*
X174893Y314508D01*
X174918Y314462D01*
X174970Y314412D01*
X175014Y314356D01*
X175058Y314328D01*
X175096Y314292D01*
X175161Y314262D01*
X175221Y314223D01*
X175272Y314211D01*
X175319Y314189D01*
X175390Y314181D01*
X175460Y314163D01*
X175512Y314167D01*
X175563Y314162D01*
X175634Y314177D01*
G37*
D10*
X769400Y584800D03*
X769400Y534800D03*
D11*
X819400Y504800D03*
X819400Y614800D03*
D10*
X769400Y446900D03*
X769400Y396900D03*
D11*
X819400Y366900D03*
X819400Y476900D03*
D10*
X769400Y309000D03*
X769400Y259000D03*
D11*
X819400Y229000D03*
X819400Y339000D03*
D10*
X769400Y171100D03*
X769400Y121100D03*
D11*
X819400Y91100D03*
X819400Y201100D03*
D12*
X513070Y563000D02*
X513070Y583000D01*
X563870Y583000D02*
X563870Y563000D01*
X563870Y357000D02*
X563870Y337000D01*
X513070Y337000D02*
X513070Y357000D01*
D13*
X819720Y785500D03*
X819700Y815500D03*
X789700Y815500D03*
X789700Y785500D03*
X819720Y675800D03*
X819700Y705800D03*
X789700Y705800D03*
X789700Y675800D03*
D14*
X518400Y702100D03*
X518400Y752900D03*
X721600Y625900D03*
X721600Y727500D03*
X721600Y829100D03*
X518400Y829100D03*
X257100Y702100D03*
X257100Y752900D03*
X460300Y625900D03*
X460300Y727500D03*
X460300Y829100D03*
X257100Y829100D03*
D15*
X181900Y771400D03*
X209900Y771400D03*
X181900Y801800D03*
X209900Y801800D03*
X181900Y832200D03*
X209900Y832200D03*
D16*
X32800Y808900D03*
X32800Y836900D03*
D15*
X181900Y710600D03*
X209900Y710600D03*
X181900Y741000D03*
X209900Y741000D03*
D16*
X124000Y808900D03*
X124000Y836900D03*
X93600Y808900D03*
X93600Y836900D03*
X63200Y808900D03*
X63200Y836900D03*
X154400Y808900D03*
X154400Y836900D03*
D17*
X696980Y341090D03*
X696980Y306090D03*
X696980Y257430D03*
X696980Y222430D03*
X608980Y90120D03*
X608980Y55120D03*
X608980Y173775D03*
X608980Y138775D03*
X608980Y257430D03*
X608980Y222430D03*
X696980Y90120D03*
X696980Y55120D03*
X696980Y173770D03*
X696980Y138770D03*
D18*
X201000Y343900D03*
X196000Y343900D03*
X191000Y343900D03*
X186000Y343900D03*
X181000Y343900D03*
X181000Y299900D03*
X186000Y299900D03*
X191000Y299900D03*
X196000Y299900D03*
X201000Y299900D03*
D19*
X538470Y400700D03*
X538470Y360200D03*
D20*
X590300Y389950D03*
X590300Y372950D03*
X127600Y292000D03*
X144600Y292000D03*
X144600Y271670D03*
X127600Y271670D03*
X127600Y251330D03*
X144600Y251330D03*
D21*
X782350Y57500D03*
X822850Y57500D03*
D22*
X191000Y272600D03*
X191000Y255600D03*
D20*
X180600Y187000D03*
X163600Y187000D03*
D23*
X128000Y197000D03*
X148000Y206500D03*
X148000Y187500D03*
D24*
X504250Y184950D03*
X504250Y197650D03*
X504250Y210350D03*
X504250Y223050D03*
D25*
X456680Y204000D03*
D18*
X194000Y420000D03*
X189000Y420000D03*
X184000Y420000D03*
X179000Y420000D03*
X174000Y420000D03*
X174000Y376000D03*
X179000Y376000D03*
X184000Y376000D03*
X189000Y376000D03*
X194000Y376000D03*
D20*
X111500Y391000D03*
X128500Y391000D03*
X111500Y411500D03*
X128500Y411500D03*
X128500Y432000D03*
X111500Y432000D03*
D21*
X454300Y876410D03*
X494800Y876410D03*
D20*
X156500Y360000D03*
X139500Y360000D03*
X153500Y318000D03*
X136500Y318000D03*
D23*
X99000Y330000D03*
X119000Y339500D03*
X119000Y320500D03*
D26*
X132050Y624250D03*
X119350Y624250D03*
X106650Y624250D03*
X93950Y624250D03*
D25*
X113000Y576680D03*
D27*
X192750Y208000D03*
X161250Y208000D03*
X162750Y340000D03*
X131250Y340000D03*
D20*
X198500Y443000D03*
X215500Y443000D03*
X168500Y443000D03*
X185500Y443000D03*
D22*
X215000Y355500D03*
X215000Y372500D03*
X215000Y404500D03*
X215000Y387500D03*
D28*
X206000Y481000D03*
D29*
X234000Y473000D03*
X234000Y489000D03*
X206000Y473000D03*
X206000Y489000D03*
D28*
X234000Y481000D03*
D30*
X248000Y367000D03*
D31*
X256000Y395000D03*
X240000Y395000D03*
X256000Y367000D03*
X240000Y367000D03*
D30*
X248000Y395000D03*
D32*
X90000Y890000D03*
X890000Y890000D03*
X390000Y890000D03*
X890000Y30000D03*
X390000Y30000D03*
X90000Y30000D03*
D22*
X158500Y381000D03*
X141500Y381000D03*
D20*
X170000Y272500D03*
X170000Y255500D03*
D22*
X119500Y362000D03*
X102500Y362000D03*
X146500Y224000D03*
X129500Y224000D03*
D33*
X177000Y52000D03*
X187000Y52000D03*
D34*
X200000Y13000D03*
X164000Y13000D03*
D33*
X278000Y52000D03*
X288000Y52000D03*
D34*
X301000Y13000D03*
X265000Y13000D03*
D35*
X288000Y41000D02*
X288000Y52000D01*
X288000Y41000D02*
X284000Y37000D01*
X191000Y37000D01*
X187000Y41000D02*
X187000Y52000D01*
X187000Y41000D02*
X191000Y37000D01*
X284024Y55976D02*
X288000Y52000D01*
X284024Y55976D02*
X284024Y63417D01*
X241441Y106000D01*
X224000Y106000D01*
X208000Y122000D01*
X208000Y310000D02*
X219000Y321000D01*
D36*
X219000Y321000D03*
X229000Y392000D03*
D35*
X208000Y310000D02*
X208000Y122000D01*
D36*
X177000Y235000D03*
D37*
X181000Y333000D02*
X181000Y343900D01*
X181000Y333000D02*
X179000Y331000D01*
D36*
X179000Y331000D03*
X177000Y157000D03*
D35*
X174000Y420000D02*
X174000Y430000D01*
X172000Y432000D01*
X168000Y432000D01*
D36*
X165000Y429000D03*
D35*
X168000Y432000D01*
D38*
X460300Y625900D02*
X663900Y625900D01*
X758700Y754500D02*
X789700Y785500D01*
X758700Y754500D02*
X758700Y720700D01*
X663900Y625900D01*
X789700Y785500D02*
X819720Y785500D01*
X819700Y815500D02*
X789700Y815500D01*
X489400Y800000D02*
X460300Y829100D01*
X750500Y815500D02*
X789700Y815500D01*
X735000Y800000D02*
X489400Y800000D01*
X735000Y800000D02*
X750500Y815500D01*
D39*
X191000Y352000D02*
X191000Y343900D01*
X188818Y354182D02*
X179182Y354182D01*
X171000Y346000D02*
X171000Y312000D01*
X151000Y292000D01*
X144600Y292000D01*
X191000Y352000D02*
X188818Y354182D01*
X179182Y354182D02*
X171000Y346000D01*
X144600Y292000D02*
X144600Y271670D01*
D37*
X127600Y271670D02*
X127600Y251330D01*
D39*
X127600Y271296D02*
X127600Y271670D01*
X127600Y271296D02*
X135758Y263138D01*
X152862Y263138D01*
X159000Y269276D01*
X159000Y292000D02*
X186000Y319000D01*
X186000Y343900D01*
X159000Y292000D02*
X159000Y269276D01*
D37*
X278000Y63750D02*
X278000Y52000D01*
X278000Y63750D02*
X249258Y92492D01*
X164492Y92492D01*
X107000Y149984D01*
X107000Y279000D01*
X120000Y292000D02*
X127600Y292000D01*
X120000Y292000D02*
X107000Y279000D01*
X192750Y199150D02*
X180600Y187000D01*
X192750Y199150D02*
X192750Y208000D01*
X201000Y216250D01*
X201000Y299900D01*
X494000Y226300D02*
X497250Y223050D01*
X492000Y381000D02*
X227000Y381000D01*
X224798Y378798D01*
X224798Y340013D01*
X201000Y316215D01*
X201000Y299900D01*
X497250Y223050D02*
X504250Y223050D01*
X494000Y226300D02*
X494000Y379000D01*
X492000Y381000D01*
X186000Y299900D02*
X186000Y284000D01*
X191000Y279000D01*
X191000Y272600D01*
X181000Y289000D02*
X181000Y299900D01*
X170000Y278000D02*
X170000Y272500D01*
X170000Y278000D02*
X181000Y289000D01*
X196000Y290036D02*
X196000Y299900D01*
X196000Y290036D02*
X192964Y287000D01*
D36*
X192964Y287000D03*
X215000Y285000D03*
D37*
X215000Y131000D01*
X223000Y123000D02*
X498000Y123000D01*
X223000Y123000D02*
X215000Y131000D01*
X159750Y206500D02*
X161250Y208000D01*
X159750Y206500D02*
X148000Y206500D01*
X148000Y215000D01*
X146500Y216500D01*
X146500Y224000D01*
X148000Y187500D02*
X163100Y187500D01*
X163600Y187000D01*
X189000Y376000D02*
X189000Y387000D01*
X186000Y390000D01*
D36*
X186000Y390000D03*
X207000Y428000D03*
D37*
X207000Y453000D01*
X220000Y466000D01*
X220000Y620000D01*
D12*
X419000Y841110D02*
X454300Y876410D01*
X419000Y841110D02*
X419000Y725000D01*
D37*
X177000Y75000D02*
X177000Y52000D01*
X177000Y75000D02*
X103476Y148524D01*
X111250Y390750D02*
X111500Y391000D01*
X111250Y390750D02*
X111250Y291250D01*
X103476Y283476D02*
X103476Y148524D01*
X103476Y283476D02*
X111250Y291250D01*
D39*
X128500Y394500D02*
X111500Y411500D01*
X128500Y394500D02*
X128500Y391000D01*
X184000Y411000D02*
X184000Y420000D01*
X176000Y403000D02*
X148000Y403000D01*
X136000Y391000D01*
X128500Y391000D01*
X176000Y403000D02*
X184000Y411000D01*
D37*
X128500Y411500D02*
X128500Y432000D01*
X179000Y420000D02*
X178000Y410376D01*
X174124Y406500D01*
X133500Y406500D01*
X128500Y411500D01*
X162750Y327250D02*
X153500Y318000D01*
X162750Y327250D02*
X162750Y340000D01*
X162750Y346000D01*
X175750Y359000D01*
X187000Y359000D01*
X193000Y365000D01*
X194000Y376000D01*
X194000Y393000D01*
X190000Y397000D02*
X156000Y397000D01*
D36*
X156000Y397000D03*
X140000Y413000D03*
D37*
X190000Y397000D02*
X194000Y393000D01*
X93950Y618950D02*
X93950Y624250D01*
X89000Y614000D02*
X26000Y614000D01*
X19000Y607000D01*
X19000Y454000D01*
X28000Y445000D01*
X134000Y445000D01*
X140000Y439000D01*
X140000Y413000D01*
X89000Y614000D02*
X93950Y618950D01*
X179000Y368040D02*
X170960Y360000D01*
X179000Y368040D02*
X179000Y376000D01*
X170960Y360000D02*
X156500Y360000D01*
X171000Y376000D02*
X174000Y376000D01*
X166000Y381000D02*
X158500Y381000D01*
X166000Y381000D02*
X171000Y376000D01*
X194000Y420000D02*
X194000Y428000D01*
X198500Y432500D02*
X198500Y443000D01*
X198500Y432500D02*
X194000Y428000D01*
X198500Y443000D02*
X185500Y443000D01*
X134000Y320500D02*
X119000Y320500D01*
X134000Y320500D02*
X136500Y318000D01*
X119000Y339500D02*
X119500Y340000D01*
X131250Y340000D01*
X119000Y339500D02*
X119000Y361500D01*
X119500Y362000D01*
D36*
X193000Y481000D03*
X177000Y453000D03*
D37*
X177000Y451500D01*
X168500Y443000D01*
D39*
X193000Y481000D02*
X206000Y481000D01*
D36*
X247000Y481000D03*
X217000Y454000D03*
D37*
X217000Y444500D02*
X215500Y443000D01*
X217000Y444500D02*
X217000Y454000D01*
X189000Y420000D02*
X189000Y410000D01*
X192000Y407000D01*
X195000Y407000D01*
X215500Y427500D02*
X215500Y443000D01*
X215500Y427500D02*
X195000Y407000D01*
D39*
X234000Y481000D02*
X247000Y481000D01*
D37*
X215000Y372500D02*
X201000Y358500D01*
X201000Y343900D01*
X215000Y372500D02*
X215000Y387500D01*
X215000Y355500D02*
X215000Y348000D01*
X219000Y344000D01*
D36*
X219000Y344000D03*
X248000Y354000D03*
D39*
X248000Y367000D01*
D36*
X248000Y408000D03*
X216000Y415000D03*
D37*
X215000Y414000D01*
X215000Y404500D01*
X206230Y395730D01*
X206230Y371355D01*
X196000Y361125D02*
X196000Y343900D01*
X196000Y361125D02*
X206230Y371355D01*
D39*
X248000Y395000D02*
X248000Y408000D01*
M02*
