G04 EAGLE Gerber RS-274X export*
G75*
%MOMM*%
%FSLAX34Y34*%
%LPD*%
%INSoldermask Top*%
%IPPOS*%
%AMOC8*
5,1,8,0,0,1.08239X$1,22.5*%
G01*
%ADD10C,3.527000*%
%ADD11C,2.677000*%
%ADD12C,1.627000*%
%ADD13C,2.127000*%
%ADD14C,3.127000*%
%ADD15C,1.651000*%
%ADD16C,2.127000*%
%ADD17R,1.727000X2.827000*%
%ADD18R,2.827000X1.727000*%
%ADD19C,1.527000*%
%ADD20R,0.427000X1.577000*%
%ADD21R,2.527000X1.927000*%
%ADD22R,1.127000X1.227000*%
%ADD23R,1.927000X2.527000*%
%ADD24R,1.227000X1.127000*%
%ADD25R,1.027000X0.927000*%
%ADD26R,1.300000X0.850000*%
%ADD27R,1.650000X4.850000*%
%ADD28R,3.100000X4.350000*%
%ADD29R,0.850000X1.300000*%
%ADD30R,4.850000X1.650000*%
%ADD31R,4.350000X3.100000*%
%ADD32R,1.027000X1.077000*%
%ADD33R,1.727000X0.355600*%
%ADD34R,1.727000X1.227000*%
%ADD35R,0.355600X1.727000*%
%ADD36R,1.227000X1.727000*%
%ADD37C,5.327000*%
%ADD38R,0.727000X1.677000*%
%ADD39R,1.327000X1.927000*%
%ADD40C,0.781800*%


D10*
X390000Y890000D03*
X90000Y890000D03*
X90000Y30000D03*
X390000Y30000D03*
X890000Y30000D03*
X890000Y890000D03*
D11*
X769400Y584800D03*
X769400Y534800D03*
D12*
X819400Y504800D03*
X819400Y614800D03*
D11*
X769400Y446900D03*
X769400Y396900D03*
D12*
X819400Y366900D03*
X819400Y476900D03*
D11*
X769400Y309000D03*
X769400Y259000D03*
D12*
X819400Y229000D03*
X819400Y339000D03*
D11*
X769400Y171100D03*
X769400Y121100D03*
D12*
X819400Y91100D03*
X819400Y201100D03*
D13*
X513070Y563000D02*
X513070Y583000D01*
X563870Y583000D02*
X563870Y563000D01*
X563870Y357000D02*
X563870Y337000D01*
X513070Y337000D02*
X513070Y357000D01*
D14*
X862900Y800500D03*
D15*
X819720Y785500D03*
X819700Y815500D03*
X789700Y815500D03*
X789700Y785500D03*
D14*
X862900Y690800D03*
D15*
X819720Y675800D03*
X819700Y705800D03*
X789700Y705800D03*
X789700Y675800D03*
D16*
X518400Y702100D03*
X518400Y752900D03*
X721600Y625900D03*
X721600Y727500D03*
X721600Y829100D03*
X518400Y829100D03*
X257100Y702100D03*
X257100Y752900D03*
X460300Y625900D03*
X460300Y727500D03*
X460300Y829100D03*
X257100Y829100D03*
D17*
X181900Y771400D03*
X209900Y771400D03*
X181900Y801800D03*
X209900Y801800D03*
X181900Y832200D03*
X209900Y832200D03*
D18*
X32800Y808900D03*
X32800Y836900D03*
D17*
X181900Y710600D03*
X209900Y710600D03*
X181900Y741000D03*
X209900Y741000D03*
D18*
X124000Y808900D03*
X124000Y836900D03*
X93600Y808900D03*
X93600Y836900D03*
X63200Y808900D03*
X63200Y836900D03*
X154400Y808900D03*
X154400Y836900D03*
D19*
X696980Y341090D03*
X696980Y306090D03*
X696980Y257430D03*
X696980Y222430D03*
X608980Y90120D03*
X608980Y55120D03*
X608980Y173775D03*
X608980Y138775D03*
X608980Y257430D03*
X608980Y222430D03*
X696980Y90120D03*
X696980Y55120D03*
X696980Y173770D03*
X696980Y138770D03*
D20*
X201000Y343900D03*
X196000Y343900D03*
X191000Y343900D03*
X186000Y343900D03*
X181000Y343900D03*
X181000Y299900D03*
X186000Y299900D03*
X191000Y299900D03*
X196000Y299900D03*
X201000Y299900D03*
D21*
X538470Y400700D03*
X538470Y360200D03*
D22*
X590300Y389950D03*
X590300Y372950D03*
X127600Y292000D03*
X144600Y292000D03*
X144600Y271670D03*
X127600Y271670D03*
X127600Y251330D03*
X144600Y251330D03*
D23*
X782350Y57500D03*
X822850Y57500D03*
D24*
X191000Y272600D03*
X191000Y255600D03*
D22*
X180600Y187000D03*
X163600Y187000D03*
D25*
X128000Y197000D03*
X148000Y206500D03*
X148000Y187500D03*
D26*
X504250Y184950D03*
X504250Y197650D03*
X504250Y210350D03*
X504250Y223050D03*
D27*
X449500Y204000D03*
D28*
X473250Y204000D03*
D20*
X194000Y420000D03*
X189000Y420000D03*
X184000Y420000D03*
X179000Y420000D03*
X174000Y420000D03*
X174000Y376000D03*
X179000Y376000D03*
X184000Y376000D03*
X189000Y376000D03*
X194000Y376000D03*
D22*
X111500Y391000D03*
X128500Y391000D03*
X111500Y411500D03*
X128500Y411500D03*
X128500Y432000D03*
X111500Y432000D03*
D23*
X454300Y876410D03*
X494800Y876410D03*
D22*
X156500Y360000D03*
X139500Y360000D03*
X153500Y318000D03*
X136500Y318000D03*
D25*
X99000Y330000D03*
X119000Y339500D03*
X119000Y320500D03*
D29*
X132050Y624250D03*
X119350Y624250D03*
X106650Y624250D03*
X93950Y624250D03*
D30*
X113000Y569500D03*
D31*
X113000Y593250D03*
D32*
X192750Y208000D03*
X161250Y208000D03*
X162750Y340000D03*
X131250Y340000D03*
D22*
X198500Y443000D03*
X215500Y443000D03*
X168500Y443000D03*
X185500Y443000D03*
D24*
X215000Y355500D03*
X215000Y372500D03*
X215000Y404500D03*
X215000Y387500D03*
D33*
X206000Y481000D03*
D34*
X234000Y473000D03*
X234000Y489000D03*
X206000Y473000D03*
X206000Y489000D03*
D33*
X234000Y481000D03*
D35*
X248000Y367000D03*
D36*
X256000Y395000D03*
X240000Y395000D03*
X256000Y367000D03*
X240000Y367000D03*
D35*
X248000Y395000D03*
D37*
X90000Y890000D03*
X890000Y890000D03*
X390000Y890000D03*
X890000Y30000D03*
X390000Y30000D03*
X90000Y30000D03*
D24*
X158500Y381000D03*
X141500Y381000D03*
D22*
X170000Y272500D03*
X170000Y255500D03*
D24*
X119500Y362000D03*
X102500Y362000D03*
X146500Y224000D03*
X129500Y224000D03*
D38*
X177000Y52000D03*
X187000Y52000D03*
D39*
X200000Y13000D03*
X164000Y13000D03*
D38*
X278000Y52000D03*
X288000Y52000D03*
D39*
X301000Y13000D03*
X265000Y13000D03*
D40*
X219000Y321000D03*
X229000Y392000D03*
X177000Y235000D03*
X179000Y331000D03*
X177000Y157000D03*
X165000Y429000D03*
X192964Y287000D03*
X215000Y285000D03*
X186000Y390000D03*
X207000Y428000D03*
X156000Y397000D03*
X140000Y413000D03*
X193000Y481000D03*
X177000Y453000D03*
X247000Y481000D03*
X217000Y454000D03*
X219000Y344000D03*
X248000Y354000D03*
X248000Y408000D03*
X216000Y415000D03*
M02*
