M48
;GenerationSoftware,Autodesk,EAGLE,9.6.1*%
;CreationDate,2020-04-27T00:23:11Z*%
FMAT,2
ICI,OFF
METRIC,TZ,000.000
T11C0.350
T10C0.800
T9C1.000
T8C1.016
T7C1.300
T6C1.320
T5C1.700
T4C3.000
T3C3.200
T2C3.400
%
G90
M71
T2
X39000Y3000
X9000Y3000
X9000Y89000
X39000Y89000
X89000Y3000
X89000Y89000
T3
X9000Y3000
X89000Y3000
X39000Y3000
X39000Y89000
X89000Y89000
X9000Y89000
T4
X86290Y69080
X86290Y80050
T5
X76940Y44690
X76940Y58480
X76940Y53480
X76940Y39690
X76940Y30900
X76940Y25900
X76940Y17110
X76940Y12110
T6
X51307Y57300
X51307Y34700
X56387Y57300
X56387Y34700
T7
X72160Y82910
X25710Y70210
X25710Y75290
X46030Y62590
X51840Y82910
X46030Y72750
X46030Y82910
X25710Y82910
X51840Y70210
X51840Y75290
X72160Y62590
X72160Y72750
T8
X81970Y70580
X81972Y67580
X78970Y78550
X78970Y70580
X78970Y81550
X81970Y81550
X78970Y67580
X81972Y78550
T9
X81940Y20110
X81940Y9110
X81940Y33900
X81940Y22900
X81940Y47690
X81940Y36690
X81940Y61480
X81940Y50480
T10
X60898Y17378
X69698Y34109
X69698Y30609
X69698Y25743
X69698Y22243
X60898Y9012
X60898Y5512
X60898Y13877
X60898Y25743
X60898Y22243
X69698Y9012
X69698Y5512
X69698Y17377
X69698Y13877
T11
X19296Y28700
X16500Y42900
X17700Y15700
X17900Y33100
X17700Y23500
X21600Y41500
X22900Y39200
X21500Y28500
X18600Y39000
X20700Y42800
X21900Y32100
X15600Y39700
X14000Y41300
X19300Y48100
X17700Y45300
X24700Y48100
X21700Y45400
X21900Y34400
X24800Y35400
X24800Y40800
M30