G04 EAGLE Gerber RS-274X export*
G75*
%MOMM*%
%FSLAX34Y34*%
%LPD*%
%INTop Copper*%
%IPPOS*%
%AMOC8*
5,1,8,0,0,1.08239X$1,22.5*%
G01*
%ADD10R,5.150000X5.150000*%
%ADD11R,0.600000X0.240000*%
%ADD12R,0.600000X0.700000*%
%ADD13R,0.400000X0.400000*%
%ADD14R,1.000000X1.000000*%
%ADD15R,0.812800X0.304800*%
%ADD16R,0.304800X0.812800*%
%ADD17R,5.689600X5.689600*%
%ADD18R,0.600000X0.900000*%
%ADD19R,0.700000X0.600000*%
%ADD20C,2.250000*%
%ADD21R,3.000000X1.250000*%
%ADD22R,0.900000X0.600000*%
%ADD23R,0.900000X0.950000*%
%ADD24C,1.500000*%
%ADD25C,2.550000*%
%ADD26R,1.600000X0.900000*%
%ADD27R,0.900000X1.600000*%
%ADD28R,1.460000X1.360000*%
%ADD29R,0.300000X0.750000*%
%ADD30R,0.200000X1.600000*%
%ADD31R,1.050000X1.600000*%
%ADD32R,0.850000X0.750000*%
%ADD33R,1.000000X1.800000*%
%ADD34R,0.800000X0.400000*%
%ADD35R,0.600000X1.000000*%
%ADD36R,1.250000X1.800000*%
%ADD37R,0.800000X0.800000*%
%ADD38C,0.300000*%
%ADD39C,0.704800*%
%ADD40C,0.604800*%
%ADD41C,0.250000*%
%ADD42C,0.654800*%
%ADD43C,0.200000*%
%ADD44C,0.350000*%
%ADD45C,0.400000*%

G36*
X403030Y14152D02*
X403030Y14152D01*
X403039Y14151D01*
X403151Y14175D01*
X403262Y14197D01*
X403272Y14202D01*
X403280Y14203D01*
X403301Y14216D01*
X403412Y14272D01*
X499454Y76178D01*
X499455Y76178D01*
X499481Y76195D01*
X499498Y76210D01*
X499533Y76231D01*
X501737Y77927D01*
X501745Y77936D01*
X501755Y77941D01*
X501872Y78061D01*
X505295Y82421D01*
X505316Y82459D01*
X505344Y82491D01*
X505408Y82627D01*
X505414Y82637D01*
X505414Y82639D01*
X505416Y82643D01*
X507226Y87882D01*
X507228Y87893D01*
X507233Y87903D01*
X507266Y88068D01*
X507497Y90840D01*
X507495Y90863D01*
X507499Y90903D01*
X507499Y191000D01*
X507496Y191020D01*
X507498Y191039D01*
X507476Y191141D01*
X507460Y191243D01*
X507450Y191260D01*
X507446Y191280D01*
X507393Y191369D01*
X507344Y191460D01*
X507330Y191474D01*
X507320Y191491D01*
X507241Y191558D01*
X507166Y191630D01*
X507148Y191638D01*
X507133Y191651D01*
X507037Y191690D01*
X506943Y191733D01*
X506923Y191735D01*
X506905Y191743D01*
X506738Y191761D01*
X472000Y191761D01*
X471980Y191758D01*
X471961Y191760D01*
X471859Y191738D01*
X471757Y191722D01*
X471740Y191712D01*
X471720Y191708D01*
X471631Y191655D01*
X471540Y191606D01*
X471526Y191592D01*
X471509Y191582D01*
X471442Y191503D01*
X471371Y191428D01*
X471362Y191410D01*
X471349Y191395D01*
X471310Y191299D01*
X471267Y191205D01*
X471265Y191185D01*
X471257Y191167D01*
X471239Y191000D01*
X471239Y100761D01*
X428761Y100761D01*
X428761Y190000D01*
X428758Y190019D01*
X428760Y190038D01*
X428760Y190039D01*
X428738Y190141D01*
X428722Y190243D01*
X428712Y190260D01*
X428708Y190280D01*
X428655Y190369D01*
X428606Y190460D01*
X428592Y190474D01*
X428582Y190491D01*
X428503Y190558D01*
X428428Y190630D01*
X428410Y190638D01*
X428395Y190651D01*
X428299Y190690D01*
X428205Y190733D01*
X428185Y190735D01*
X428167Y190743D01*
X428000Y190761D01*
X404000Y190761D01*
X403980Y190758D01*
X403961Y190760D01*
X403859Y190738D01*
X403757Y190722D01*
X403740Y190712D01*
X403720Y190708D01*
X403631Y190655D01*
X403540Y190606D01*
X403526Y190592D01*
X403509Y190582D01*
X403442Y190503D01*
X403371Y190428D01*
X403362Y190410D01*
X403349Y190395D01*
X403310Y190299D01*
X403267Y190205D01*
X403265Y190185D01*
X403257Y190167D01*
X403239Y190000D01*
X403239Y144761D01*
X361000Y144761D01*
X360980Y144758D01*
X360961Y144760D01*
X360859Y144738D01*
X360757Y144722D01*
X360740Y144712D01*
X360720Y144708D01*
X360631Y144655D01*
X360540Y144606D01*
X360526Y144592D01*
X360509Y144582D01*
X360442Y144503D01*
X360371Y144428D01*
X360362Y144410D01*
X360349Y144395D01*
X360310Y144299D01*
X360267Y144205D01*
X360265Y144185D01*
X360257Y144167D01*
X360239Y144000D01*
X360239Y41000D01*
X360241Y40989D01*
X360239Y40979D01*
X360260Y40869D01*
X360279Y40757D01*
X360284Y40748D01*
X360286Y40737D01*
X360341Y40639D01*
X360394Y40540D01*
X360401Y40533D01*
X360407Y40523D01*
X360491Y40448D01*
X360572Y40371D01*
X360582Y40366D01*
X360590Y40359D01*
X360693Y40314D01*
X360795Y40267D01*
X360806Y40266D01*
X360816Y40261D01*
X360982Y40239D01*
X402239Y39257D01*
X402239Y14911D01*
X402257Y14800D01*
X402273Y14687D01*
X402277Y14678D01*
X402279Y14669D01*
X402332Y14568D01*
X402382Y14466D01*
X402389Y14460D01*
X402394Y14451D01*
X402476Y14373D01*
X402557Y14293D01*
X402565Y14288D01*
X402572Y14282D01*
X402675Y14234D01*
X402777Y14184D01*
X402786Y14182D01*
X402795Y14178D01*
X402908Y14166D01*
X403021Y14150D01*
X403030Y14152D01*
G37*
G36*
X467996Y103266D02*
X467996Y103266D01*
X468015Y103264D01*
X468117Y103286D01*
X468219Y103302D01*
X468236Y103312D01*
X468256Y103316D01*
X468345Y103369D01*
X468436Y103418D01*
X468450Y103432D01*
X468467Y103442D01*
X468534Y103521D01*
X468606Y103596D01*
X468614Y103614D01*
X468627Y103629D01*
X468666Y103725D01*
X468709Y103819D01*
X468711Y103839D01*
X468719Y103857D01*
X468737Y104024D01*
X468737Y192351D01*
X470538Y194152D01*
X470591Y194226D01*
X470651Y194296D01*
X470663Y194326D01*
X470682Y194352D01*
X470709Y194439D01*
X470743Y194524D01*
X470747Y194565D01*
X470754Y194587D01*
X470753Y194619D01*
X470761Y194691D01*
X470761Y195780D01*
X470747Y195870D01*
X470739Y195961D01*
X470727Y195991D01*
X470722Y196023D01*
X470679Y196104D01*
X470643Y196188D01*
X470617Y196220D01*
X470606Y196240D01*
X470583Y196263D01*
X470538Y196319D01*
X470522Y196335D01*
X468999Y200011D01*
X468999Y203989D01*
X470522Y207665D01*
X470538Y207681D01*
X470591Y207755D01*
X470651Y207825D01*
X470663Y207855D01*
X470682Y207881D01*
X470709Y207968D01*
X470743Y208053D01*
X470747Y208094D01*
X470754Y208116D01*
X470753Y208148D01*
X470761Y208220D01*
X470761Y223000D01*
X470758Y223020D01*
X470760Y223039D01*
X470738Y223141D01*
X470722Y223243D01*
X470712Y223260D01*
X470708Y223280D01*
X470655Y223369D01*
X470606Y223460D01*
X470592Y223474D01*
X470582Y223491D01*
X470503Y223558D01*
X470428Y223630D01*
X470410Y223638D01*
X470395Y223651D01*
X470299Y223690D01*
X470205Y223733D01*
X470185Y223735D01*
X470167Y223743D01*
X470000Y223761D01*
X362012Y223761D01*
X361992Y223758D01*
X361973Y223760D01*
X361871Y223738D01*
X361769Y223722D01*
X361752Y223712D01*
X361732Y223708D01*
X361643Y223655D01*
X361552Y223606D01*
X361538Y223592D01*
X361521Y223582D01*
X361454Y223503D01*
X361382Y223428D01*
X361374Y223410D01*
X361361Y223395D01*
X361322Y223299D01*
X361279Y223205D01*
X361277Y223185D01*
X361269Y223167D01*
X361251Y223000D01*
X361251Y148024D01*
X361254Y148004D01*
X361252Y147985D01*
X361274Y147883D01*
X361290Y147781D01*
X361300Y147764D01*
X361304Y147744D01*
X361357Y147655D01*
X361406Y147564D01*
X361420Y147550D01*
X361430Y147533D01*
X361509Y147466D01*
X361584Y147394D01*
X361602Y147386D01*
X361617Y147373D01*
X361713Y147334D01*
X361807Y147291D01*
X361827Y147289D01*
X361845Y147281D01*
X362012Y147263D01*
X399976Y147263D01*
X399996Y147266D01*
X400015Y147264D01*
X400117Y147286D01*
X400219Y147302D01*
X400236Y147312D01*
X400256Y147316D01*
X400345Y147369D01*
X400436Y147418D01*
X400450Y147432D01*
X400467Y147442D01*
X400534Y147521D01*
X400606Y147596D01*
X400614Y147614D01*
X400627Y147629D01*
X400666Y147725D01*
X400709Y147819D01*
X400711Y147839D01*
X400719Y147857D01*
X400737Y148024D01*
X400737Y191351D01*
X402649Y193263D01*
X429351Y193263D01*
X431263Y191351D01*
X431263Y104024D01*
X431266Y104004D01*
X431264Y103985D01*
X431286Y103883D01*
X431302Y103781D01*
X431312Y103764D01*
X431316Y103744D01*
X431369Y103655D01*
X431418Y103564D01*
X431432Y103550D01*
X431442Y103533D01*
X431521Y103466D01*
X431596Y103394D01*
X431614Y103386D01*
X431629Y103373D01*
X431725Y103334D01*
X431819Y103291D01*
X431839Y103289D01*
X431857Y103281D01*
X432024Y103263D01*
X467976Y103263D01*
X467996Y103266D01*
G37*
G36*
X244064Y2510D02*
X244064Y2510D01*
X244128Y2509D01*
X244203Y2530D01*
X244279Y2541D01*
X244338Y2567D01*
X244400Y2584D01*
X244466Y2625D01*
X244536Y2657D01*
X244585Y2699D01*
X244640Y2732D01*
X244692Y2790D01*
X244750Y2840D01*
X244786Y2894D01*
X244829Y2942D01*
X244862Y3011D01*
X244905Y3076D01*
X244924Y3138D01*
X244952Y3195D01*
X244963Y3265D01*
X244987Y3346D01*
X244988Y3431D01*
X244999Y3500D01*
X244999Y38016D01*
X244995Y38048D01*
X244997Y38080D01*
X244975Y38187D01*
X244959Y38296D01*
X244946Y38325D01*
X244940Y38356D01*
X244888Y38453D01*
X244843Y38552D01*
X244822Y38577D01*
X244807Y38605D01*
X244731Y38684D01*
X244660Y38767D01*
X244633Y38784D01*
X244610Y38808D01*
X244515Y38861D01*
X244424Y38921D01*
X244393Y38931D01*
X244365Y38947D01*
X244258Y38972D01*
X244154Y39004D01*
X244122Y39004D01*
X244091Y39011D01*
X243981Y39006D01*
X243872Y39007D01*
X243841Y38999D01*
X243809Y38997D01*
X243746Y38975D01*
X241795Y38975D01*
X241701Y38962D01*
X241604Y38957D01*
X241561Y38942D01*
X241516Y38935D01*
X241429Y38896D01*
X241338Y38864D01*
X241303Y38839D01*
X241259Y38819D01*
X241162Y38736D01*
X241089Y38683D01*
X240382Y37975D01*
X235118Y37975D01*
X234225Y38868D01*
X234225Y43000D01*
X234216Y43064D01*
X234217Y43128D01*
X234196Y43203D01*
X234185Y43279D01*
X234159Y43338D01*
X234142Y43400D01*
X234101Y43466D01*
X234069Y43536D01*
X234027Y43585D01*
X233994Y43640D01*
X233936Y43692D01*
X233886Y43750D01*
X233832Y43786D01*
X233784Y43829D01*
X233715Y43862D01*
X233650Y43905D01*
X233588Y43924D01*
X233531Y43952D01*
X233461Y43963D01*
X233380Y43987D01*
X233295Y43988D01*
X233226Y43999D01*
X193999Y43999D01*
X193999Y67000D01*
X193990Y67064D01*
X193991Y67128D01*
X193970Y67203D01*
X193959Y67279D01*
X193933Y67338D01*
X193916Y67400D01*
X193875Y67466D01*
X193843Y67536D01*
X193801Y67585D01*
X193768Y67640D01*
X193710Y67692D01*
X193660Y67750D01*
X193606Y67786D01*
X193558Y67829D01*
X193489Y67862D01*
X193424Y67905D01*
X193362Y67924D01*
X193305Y67952D01*
X193235Y67963D01*
X193154Y67987D01*
X193069Y67988D01*
X193000Y67999D01*
X147000Y67999D01*
X146936Y67990D01*
X146872Y67991D01*
X146797Y67970D01*
X146721Y67959D01*
X146662Y67933D01*
X146600Y67916D01*
X146534Y67875D01*
X146464Y67843D01*
X146415Y67801D01*
X146360Y67768D01*
X146308Y67710D01*
X146250Y67660D01*
X146214Y67606D01*
X146171Y67558D01*
X146138Y67489D01*
X146095Y67424D01*
X146076Y67362D01*
X146048Y67305D01*
X146037Y67235D01*
X146013Y67154D01*
X146012Y67069D01*
X146001Y67000D01*
X146001Y3500D01*
X146010Y3436D01*
X146009Y3372D01*
X146030Y3297D01*
X146041Y3221D01*
X146067Y3162D01*
X146084Y3100D01*
X146125Y3034D01*
X146157Y2964D01*
X146199Y2915D01*
X146232Y2860D01*
X146290Y2808D01*
X146340Y2750D01*
X146394Y2714D01*
X146442Y2671D01*
X146511Y2638D01*
X146576Y2595D01*
X146638Y2576D01*
X146695Y2548D01*
X146765Y2537D01*
X146846Y2513D01*
X146931Y2512D01*
X147000Y2501D01*
X244000Y2501D01*
X244064Y2510D01*
G37*
G36*
X140064Y2510D02*
X140064Y2510D01*
X140128Y2509D01*
X140203Y2530D01*
X140279Y2541D01*
X140338Y2567D01*
X140400Y2584D01*
X140466Y2625D01*
X140536Y2657D01*
X140585Y2699D01*
X140640Y2732D01*
X140692Y2790D01*
X140750Y2840D01*
X140786Y2894D01*
X140829Y2942D01*
X140862Y3011D01*
X140905Y3076D01*
X140924Y3138D01*
X140952Y3195D01*
X140963Y3265D01*
X140987Y3346D01*
X140988Y3431D01*
X140999Y3500D01*
X140999Y67000D01*
X140990Y67064D01*
X140991Y67128D01*
X140970Y67203D01*
X140959Y67279D01*
X140933Y67338D01*
X140916Y67400D01*
X140875Y67466D01*
X140843Y67536D01*
X140801Y67585D01*
X140768Y67640D01*
X140710Y67692D01*
X140660Y67750D01*
X140606Y67786D01*
X140558Y67829D01*
X140489Y67862D01*
X140424Y67905D01*
X140362Y67924D01*
X140305Y67952D01*
X140235Y67963D01*
X140154Y67987D01*
X140069Y67988D01*
X140000Y67999D01*
X92000Y67999D01*
X91936Y67990D01*
X91872Y67991D01*
X91797Y67970D01*
X91721Y67959D01*
X91662Y67933D01*
X91600Y67916D01*
X91534Y67875D01*
X91464Y67843D01*
X91415Y67801D01*
X91360Y67768D01*
X91308Y67710D01*
X91250Y67660D01*
X91214Y67606D01*
X91171Y67558D01*
X91138Y67489D01*
X91095Y67424D01*
X91076Y67362D01*
X91048Y67305D01*
X91037Y67235D01*
X91013Y67154D01*
X91012Y67069D01*
X91001Y67000D01*
X91001Y45999D01*
X83984Y45999D01*
X83889Y45986D01*
X83793Y45981D01*
X83749Y45966D01*
X83704Y45959D01*
X83617Y45920D01*
X83526Y45888D01*
X83492Y45863D01*
X83448Y45843D01*
X83350Y45760D01*
X83277Y45707D01*
X78567Y40997D01*
X76796Y39225D01*
X74795Y39225D01*
X74701Y39212D01*
X74604Y39207D01*
X74561Y39192D01*
X74516Y39185D01*
X74429Y39146D01*
X74338Y39114D01*
X74303Y39089D01*
X74259Y39069D01*
X74162Y38986D01*
X74089Y38933D01*
X73382Y38225D01*
X68118Y38225D01*
X67225Y39118D01*
X67225Y44408D01*
X67241Y44432D01*
X67306Y44519D01*
X67318Y44549D01*
X67335Y44576D01*
X67367Y44681D01*
X67406Y44783D01*
X67408Y44815D01*
X67418Y44846D01*
X67419Y44955D01*
X67428Y45064D01*
X67421Y45096D01*
X67422Y45128D01*
X67392Y45233D01*
X67370Y45340D01*
X67355Y45369D01*
X67346Y45400D01*
X67289Y45493D01*
X67238Y45589D01*
X67215Y45612D01*
X67198Y45640D01*
X67117Y45713D01*
X67041Y45791D01*
X67013Y45807D01*
X66989Y45829D01*
X66891Y45876D01*
X66796Y45930D01*
X66764Y45938D01*
X66735Y45952D01*
X66646Y45966D01*
X66521Y45995D01*
X66473Y45993D01*
X66431Y45999D01*
X46000Y45999D01*
X45936Y45990D01*
X45872Y45991D01*
X45797Y45970D01*
X45721Y45959D01*
X45662Y45933D01*
X45600Y45916D01*
X45534Y45875D01*
X45464Y45843D01*
X45415Y45801D01*
X45360Y45768D01*
X45308Y45710D01*
X45250Y45660D01*
X45214Y45606D01*
X45171Y45558D01*
X45138Y45489D01*
X45095Y45424D01*
X45076Y45362D01*
X45048Y45305D01*
X45037Y45235D01*
X45013Y45154D01*
X45012Y45069D01*
X45001Y45000D01*
X45001Y3500D01*
X45010Y3436D01*
X45009Y3372D01*
X45030Y3297D01*
X45041Y3221D01*
X45067Y3162D01*
X45084Y3100D01*
X45125Y3034D01*
X45157Y2964D01*
X45199Y2915D01*
X45232Y2860D01*
X45290Y2808D01*
X45340Y2750D01*
X45394Y2714D01*
X45442Y2671D01*
X45511Y2638D01*
X45576Y2595D01*
X45638Y2576D01*
X45695Y2548D01*
X45765Y2537D01*
X45846Y2513D01*
X45931Y2512D01*
X46000Y2501D01*
X140000Y2501D01*
X140064Y2510D01*
G37*
G36*
X348064Y2510D02*
X348064Y2510D01*
X348128Y2509D01*
X348203Y2530D01*
X348279Y2541D01*
X348338Y2567D01*
X348400Y2584D01*
X348466Y2625D01*
X348536Y2657D01*
X348585Y2699D01*
X348640Y2732D01*
X348692Y2790D01*
X348750Y2840D01*
X348786Y2894D01*
X348829Y2942D01*
X348862Y3011D01*
X348905Y3076D01*
X348924Y3138D01*
X348952Y3195D01*
X348963Y3265D01*
X348987Y3346D01*
X348988Y3431D01*
X348999Y3500D01*
X348999Y67000D01*
X348990Y67064D01*
X348991Y67128D01*
X348970Y67203D01*
X348959Y67279D01*
X348933Y67338D01*
X348916Y67400D01*
X348875Y67466D01*
X348843Y67536D01*
X348801Y67585D01*
X348768Y67640D01*
X348710Y67692D01*
X348660Y67750D01*
X348606Y67786D01*
X348558Y67829D01*
X348489Y67862D01*
X348424Y67905D01*
X348362Y67924D01*
X348305Y67952D01*
X348235Y67963D01*
X348154Y67987D01*
X348069Y67988D01*
X348000Y67999D01*
X306000Y67999D01*
X305936Y67990D01*
X305872Y67991D01*
X305797Y67970D01*
X305721Y67959D01*
X305662Y67933D01*
X305600Y67916D01*
X305534Y67875D01*
X305464Y67843D01*
X305415Y67801D01*
X305360Y67768D01*
X305308Y67710D01*
X305250Y67660D01*
X305214Y67606D01*
X305171Y67558D01*
X305138Y67489D01*
X305095Y67424D01*
X305076Y67362D01*
X305048Y67305D01*
X305037Y67235D01*
X305013Y67154D01*
X305012Y67069D01*
X305001Y67000D01*
X305001Y43999D01*
X292984Y43999D01*
X292889Y43986D01*
X292793Y43981D01*
X292749Y43966D01*
X292704Y43959D01*
X292617Y43920D01*
X292526Y43888D01*
X292492Y43863D01*
X292448Y43843D01*
X292350Y43760D01*
X292277Y43707D01*
X289317Y40747D01*
X287546Y38975D01*
X282795Y38975D01*
X282701Y38962D01*
X282604Y38957D01*
X282561Y38942D01*
X282516Y38935D01*
X282429Y38896D01*
X282338Y38864D01*
X282303Y38839D01*
X282259Y38819D01*
X282162Y38736D01*
X282089Y38683D01*
X281382Y37975D01*
X276118Y37975D01*
X275225Y38868D01*
X275225Y43000D01*
X275216Y43064D01*
X275217Y43128D01*
X275196Y43203D01*
X275185Y43279D01*
X275159Y43338D01*
X275142Y43400D01*
X275101Y43466D01*
X275069Y43536D01*
X275027Y43585D01*
X274994Y43640D01*
X274936Y43692D01*
X274886Y43750D01*
X274832Y43786D01*
X274784Y43829D01*
X274715Y43862D01*
X274650Y43905D01*
X274588Y43924D01*
X274531Y43952D01*
X274461Y43963D01*
X274380Y43987D01*
X274295Y43988D01*
X274226Y43999D01*
X252000Y43999D01*
X251936Y43990D01*
X251872Y43991D01*
X251797Y43970D01*
X251721Y43959D01*
X251662Y43933D01*
X251600Y43916D01*
X251534Y43875D01*
X251464Y43843D01*
X251415Y43801D01*
X251360Y43768D01*
X251308Y43710D01*
X251250Y43660D01*
X251214Y43606D01*
X251171Y43558D01*
X251138Y43489D01*
X251095Y43424D01*
X251076Y43362D01*
X251048Y43305D01*
X251037Y43235D01*
X251013Y43154D01*
X251012Y43069D01*
X251001Y43000D01*
X251001Y3500D01*
X251010Y3436D01*
X251009Y3372D01*
X251030Y3297D01*
X251041Y3221D01*
X251067Y3162D01*
X251084Y3100D01*
X251125Y3034D01*
X251157Y2964D01*
X251199Y2915D01*
X251232Y2860D01*
X251290Y2808D01*
X251340Y2750D01*
X251394Y2714D01*
X251442Y2671D01*
X251511Y2638D01*
X251576Y2595D01*
X251638Y2576D01*
X251695Y2548D01*
X251765Y2537D01*
X251846Y2513D01*
X251931Y2512D01*
X252000Y2501D01*
X348000Y2501D01*
X348064Y2510D01*
G37*
G36*
X78393Y49014D02*
X78393Y49014D01*
X78489Y49019D01*
X78532Y49034D01*
X78577Y49041D01*
X78665Y49080D01*
X78756Y49112D01*
X78790Y49137D01*
X78834Y49157D01*
X78931Y49240D01*
X79004Y49293D01*
X81627Y51916D01*
X81684Y51992D01*
X81749Y52064D01*
X81769Y52105D01*
X81796Y52141D01*
X81830Y52231D01*
X81872Y52318D01*
X81878Y52360D01*
X81895Y52405D01*
X81905Y52533D01*
X81919Y52622D01*
X81919Y96000D01*
X81911Y96061D01*
X81911Y96093D01*
X81911Y96095D01*
X81911Y96128D01*
X81890Y96203D01*
X81879Y96279D01*
X81853Y96338D01*
X81836Y96400D01*
X81795Y96466D01*
X81763Y96536D01*
X81721Y96585D01*
X81688Y96640D01*
X81630Y96692D01*
X81580Y96750D01*
X81526Y96786D01*
X81478Y96829D01*
X81409Y96862D01*
X81344Y96905D01*
X81282Y96924D01*
X81225Y96952D01*
X81155Y96963D01*
X81074Y96987D01*
X80989Y96988D01*
X80920Y96999D01*
X26000Y96999D01*
X25936Y96990D01*
X25872Y96991D01*
X25797Y96970D01*
X25721Y96959D01*
X25662Y96933D01*
X25600Y96916D01*
X25534Y96875D01*
X25464Y96843D01*
X25415Y96801D01*
X25360Y96768D01*
X25308Y96710D01*
X25250Y96660D01*
X25214Y96606D01*
X25171Y96558D01*
X25138Y96489D01*
X25095Y96424D01*
X25076Y96362D01*
X25048Y96305D01*
X25037Y96235D01*
X25013Y96154D01*
X25012Y96069D01*
X25001Y96000D01*
X25001Y81000D01*
X25020Y80865D01*
X25039Y80726D01*
X25040Y80723D01*
X25041Y80721D01*
X25090Y80611D01*
X25100Y80577D01*
X25122Y80541D01*
X25157Y80464D01*
X25164Y80455D01*
X25169Y80446D01*
X31001Y71697D01*
X31001Y50000D01*
X31010Y49936D01*
X31009Y49872D01*
X31030Y49797D01*
X31041Y49721D01*
X31067Y49662D01*
X31084Y49600D01*
X31125Y49534D01*
X31157Y49464D01*
X31199Y49415D01*
X31232Y49360D01*
X31290Y49308D01*
X31340Y49250D01*
X31394Y49214D01*
X31442Y49171D01*
X31511Y49138D01*
X31576Y49095D01*
X31638Y49076D01*
X31695Y49048D01*
X31765Y49037D01*
X31846Y49013D01*
X31931Y49012D01*
X32000Y49001D01*
X78298Y49001D01*
X78393Y49014D01*
G37*
G36*
X24393Y99014D02*
X24393Y99014D01*
X24489Y99019D01*
X24528Y99033D01*
X81428Y99033D01*
X81492Y99042D01*
X81556Y99041D01*
X81631Y99062D01*
X81707Y99073D01*
X81766Y99099D01*
X81828Y99116D01*
X81894Y99157D01*
X81964Y99189D01*
X82013Y99231D01*
X82068Y99264D01*
X82120Y99322D01*
X82178Y99372D01*
X82214Y99426D01*
X82257Y99474D01*
X82290Y99543D01*
X82333Y99608D01*
X82352Y99670D01*
X82380Y99727D01*
X82391Y99797D01*
X82415Y99878D01*
X82416Y99963D01*
X82427Y100032D01*
X82427Y137000D01*
X82419Y137061D01*
X82419Y137100D01*
X82419Y137101D01*
X82419Y137128D01*
X82398Y137203D01*
X82387Y137279D01*
X82361Y137338D01*
X82344Y137400D01*
X82303Y137466D01*
X82271Y137536D01*
X82229Y137585D01*
X82196Y137640D01*
X82138Y137692D01*
X82088Y137750D01*
X82034Y137786D01*
X81986Y137829D01*
X81917Y137862D01*
X81852Y137905D01*
X81790Y137924D01*
X81733Y137952D01*
X81663Y137963D01*
X81582Y137987D01*
X81497Y137988D01*
X81428Y137999D01*
X24000Y137999D01*
X23936Y137990D01*
X23872Y137991D01*
X23797Y137970D01*
X23721Y137959D01*
X23662Y137933D01*
X23600Y137916D01*
X23534Y137875D01*
X23464Y137843D01*
X23415Y137801D01*
X23360Y137768D01*
X23308Y137710D01*
X23250Y137660D01*
X23214Y137606D01*
X23171Y137558D01*
X23138Y137489D01*
X23095Y137424D01*
X23076Y137362D01*
X23048Y137305D01*
X23037Y137235D01*
X23013Y137154D01*
X23012Y137069D01*
X23001Y137000D01*
X23001Y100000D01*
X23010Y99936D01*
X23009Y99872D01*
X23030Y99797D01*
X23041Y99721D01*
X23067Y99662D01*
X23084Y99600D01*
X23125Y99534D01*
X23157Y99464D01*
X23199Y99415D01*
X23232Y99360D01*
X23290Y99308D01*
X23340Y99250D01*
X23394Y99214D01*
X23442Y99171D01*
X23511Y99138D01*
X23576Y99095D01*
X23638Y99076D01*
X23695Y99048D01*
X23765Y99037D01*
X23846Y99013D01*
X23931Y99012D01*
X24000Y99001D01*
X24298Y99001D01*
X24393Y99014D01*
G37*
G36*
X243393Y47014D02*
X243393Y47014D01*
X243489Y47019D01*
X243532Y47034D01*
X243577Y47041D01*
X243665Y47080D01*
X243756Y47112D01*
X243790Y47137D01*
X243834Y47157D01*
X243931Y47240D01*
X244004Y47293D01*
X244675Y47964D01*
X244732Y48040D01*
X244797Y48112D01*
X244817Y48153D01*
X244844Y48189D01*
X244878Y48279D01*
X244920Y48366D01*
X244926Y48408D01*
X244943Y48453D01*
X244953Y48581D01*
X244967Y48670D01*
X244967Y93000D01*
X244959Y93061D01*
X244959Y93094D01*
X244959Y93096D01*
X244959Y93128D01*
X244938Y93203D01*
X244927Y93279D01*
X244901Y93338D01*
X244884Y93400D01*
X244843Y93466D01*
X244811Y93536D01*
X244769Y93585D01*
X244736Y93640D01*
X244678Y93692D01*
X244628Y93750D01*
X244574Y93786D01*
X244526Y93829D01*
X244457Y93862D01*
X244392Y93905D01*
X244330Y93924D01*
X244273Y93952D01*
X244203Y93963D01*
X244122Y93987D01*
X244037Y93988D01*
X243968Y93999D01*
X207032Y93999D01*
X206968Y93990D01*
X206904Y93991D01*
X206829Y93970D01*
X206753Y93959D01*
X206694Y93933D01*
X206632Y93916D01*
X206566Y93875D01*
X206496Y93843D01*
X206447Y93801D01*
X206392Y93768D01*
X206340Y93710D01*
X206282Y93660D01*
X206246Y93606D01*
X206203Y93558D01*
X206170Y93489D01*
X206127Y93424D01*
X206108Y93362D01*
X206080Y93305D01*
X206069Y93235D01*
X206045Y93154D01*
X206044Y93069D01*
X206033Y93000D01*
X206033Y74744D01*
X205293Y74004D01*
X205236Y73928D01*
X205171Y73856D01*
X205151Y73815D01*
X205124Y73779D01*
X205090Y73689D01*
X205048Y73603D01*
X205042Y73560D01*
X205025Y73515D01*
X205015Y73387D01*
X205001Y73298D01*
X205001Y48000D01*
X205010Y47936D01*
X205009Y47872D01*
X205030Y47797D01*
X205041Y47721D01*
X205067Y47662D01*
X205084Y47600D01*
X205125Y47534D01*
X205157Y47464D01*
X205199Y47415D01*
X205232Y47360D01*
X205290Y47308D01*
X205340Y47250D01*
X205394Y47214D01*
X205442Y47171D01*
X205511Y47138D01*
X205576Y47095D01*
X205638Y47076D01*
X205695Y47048D01*
X205765Y47037D01*
X205846Y47013D01*
X205931Y47012D01*
X206000Y47001D01*
X243298Y47001D01*
X243393Y47014D01*
G37*
G36*
X287064Y47010D02*
X287064Y47010D01*
X287128Y47009D01*
X287203Y47030D01*
X287279Y47041D01*
X287338Y47067D01*
X287400Y47084D01*
X287466Y47125D01*
X287536Y47157D01*
X287585Y47199D01*
X287640Y47232D01*
X287692Y47290D01*
X287750Y47340D01*
X287786Y47394D01*
X287829Y47442D01*
X287862Y47511D01*
X287905Y47576D01*
X287924Y47638D01*
X287952Y47695D01*
X287963Y47765D01*
X287987Y47846D01*
X287988Y47931D01*
X287999Y48000D01*
X287999Y81298D01*
X287986Y81393D01*
X287981Y81489D01*
X287966Y81532D01*
X287959Y81577D01*
X287920Y81665D01*
X287888Y81756D01*
X287863Y81790D01*
X287843Y81834D01*
X287760Y81931D01*
X287707Y82005D01*
X286967Y82744D01*
X286967Y93000D01*
X286959Y93061D01*
X286959Y93094D01*
X286959Y93096D01*
X286959Y93128D01*
X286938Y93203D01*
X286927Y93279D01*
X286901Y93338D01*
X286884Y93400D01*
X286843Y93466D01*
X286811Y93536D01*
X286769Y93585D01*
X286736Y93640D01*
X286678Y93692D01*
X286628Y93750D01*
X286574Y93786D01*
X286526Y93829D01*
X286457Y93862D01*
X286392Y93905D01*
X286330Y93924D01*
X286273Y93952D01*
X286203Y93963D01*
X286122Y93987D01*
X286037Y93988D01*
X285968Y93999D01*
X252032Y93999D01*
X251968Y93990D01*
X251904Y93991D01*
X251829Y93970D01*
X251753Y93959D01*
X251694Y93933D01*
X251632Y93916D01*
X251566Y93875D01*
X251496Y93843D01*
X251447Y93801D01*
X251392Y93768D01*
X251340Y93710D01*
X251282Y93660D01*
X251246Y93606D01*
X251203Y93558D01*
X251170Y93489D01*
X251127Y93424D01*
X251108Y93362D01*
X251080Y93305D01*
X251069Y93235D01*
X251045Y93154D01*
X251044Y93069D01*
X251033Y93000D01*
X251033Y48000D01*
X251042Y47936D01*
X251041Y47872D01*
X251062Y47797D01*
X251073Y47721D01*
X251099Y47662D01*
X251116Y47600D01*
X251157Y47534D01*
X251189Y47464D01*
X251231Y47415D01*
X251264Y47360D01*
X251322Y47308D01*
X251372Y47250D01*
X251426Y47214D01*
X251474Y47171D01*
X251543Y47138D01*
X251608Y47095D01*
X251670Y47076D01*
X251727Y47048D01*
X251797Y47037D01*
X251878Y47013D01*
X251963Y47012D01*
X252032Y47001D01*
X287000Y47001D01*
X287064Y47010D01*
G37*
G36*
X139064Y70010D02*
X139064Y70010D01*
X139128Y70009D01*
X139203Y70030D01*
X139279Y70041D01*
X139338Y70067D01*
X139400Y70084D01*
X139466Y70125D01*
X139536Y70157D01*
X139585Y70199D01*
X139640Y70232D01*
X139692Y70290D01*
X139750Y70340D01*
X139786Y70394D01*
X139829Y70442D01*
X139862Y70511D01*
X139905Y70576D01*
X139924Y70638D01*
X139952Y70695D01*
X139963Y70765D01*
X139987Y70846D01*
X139988Y70931D01*
X139999Y71000D01*
X139999Y103000D01*
X139990Y103062D01*
X139991Y103104D01*
X139991Y103105D01*
X139991Y103128D01*
X139970Y103203D01*
X139959Y103279D01*
X139933Y103338D01*
X139916Y103400D01*
X139875Y103466D01*
X139843Y103536D01*
X139801Y103585D01*
X139768Y103640D01*
X139710Y103692D01*
X139660Y103750D01*
X139606Y103786D01*
X139558Y103829D01*
X139489Y103862D01*
X139424Y103905D01*
X139362Y103924D01*
X139305Y103952D01*
X139235Y103963D01*
X139154Y103987D01*
X139069Y103988D01*
X139000Y103999D01*
X136967Y103999D01*
X136872Y103986D01*
X136776Y103981D01*
X136733Y103966D01*
X136688Y103959D01*
X136670Y103951D01*
X120936Y103951D01*
X120841Y103938D01*
X120745Y103933D01*
X120701Y103918D01*
X120656Y103911D01*
X120569Y103872D01*
X120478Y103840D01*
X120444Y103815D01*
X120400Y103795D01*
X120302Y103712D01*
X120229Y103659D01*
X118817Y102247D01*
X118760Y102170D01*
X118695Y102099D01*
X118675Y102058D01*
X118648Y102021D01*
X118614Y101931D01*
X118572Y101845D01*
X118566Y101803D01*
X118549Y101757D01*
X118539Y101630D01*
X118525Y101540D01*
X118525Y84368D01*
X117632Y83475D01*
X114368Y83475D01*
X113475Y84368D01*
X113475Y103000D01*
X113466Y103062D01*
X113467Y103104D01*
X113467Y103105D01*
X113467Y103128D01*
X113446Y103203D01*
X113435Y103279D01*
X113409Y103338D01*
X113392Y103400D01*
X113351Y103466D01*
X113319Y103536D01*
X113277Y103585D01*
X113244Y103640D01*
X113186Y103692D01*
X113136Y103750D01*
X113082Y103786D01*
X113034Y103829D01*
X112965Y103862D01*
X112900Y103905D01*
X112838Y103924D01*
X112781Y103952D01*
X112711Y103963D01*
X112630Y103987D01*
X112545Y103988D01*
X112476Y103999D01*
X92524Y103999D01*
X92460Y103990D01*
X92396Y103991D01*
X92321Y103970D01*
X92245Y103959D01*
X92186Y103933D01*
X92124Y103916D01*
X92058Y103875D01*
X91988Y103843D01*
X91939Y103801D01*
X91884Y103768D01*
X91832Y103710D01*
X91774Y103660D01*
X91738Y103606D01*
X91695Y103558D01*
X91662Y103489D01*
X91619Y103424D01*
X91600Y103362D01*
X91572Y103305D01*
X91561Y103235D01*
X91537Y103154D01*
X91536Y103069D01*
X91525Y103000D01*
X91525Y79460D01*
X91538Y79365D01*
X91543Y79269D01*
X91558Y79225D01*
X91565Y79180D01*
X91604Y79093D01*
X91636Y79002D01*
X91661Y78968D01*
X91681Y78924D01*
X91764Y78826D01*
X91817Y78753D01*
X94277Y76293D01*
X94354Y76236D01*
X94425Y76171D01*
X94466Y76151D01*
X94503Y76124D01*
X94593Y76090D01*
X94679Y76048D01*
X94721Y76042D01*
X94767Y76025D01*
X94894Y76015D01*
X94984Y76001D01*
X102181Y76001D01*
X102275Y76014D01*
X102372Y76019D01*
X102388Y76025D01*
X108102Y76025D01*
X108230Y76015D01*
X108319Y76001D01*
X109001Y76001D01*
X109001Y71000D01*
X109010Y70936D01*
X109009Y70872D01*
X109030Y70797D01*
X109041Y70721D01*
X109067Y70662D01*
X109084Y70600D01*
X109125Y70534D01*
X109157Y70464D01*
X109199Y70415D01*
X109232Y70360D01*
X109290Y70308D01*
X109340Y70250D01*
X109394Y70214D01*
X109442Y70171D01*
X109511Y70138D01*
X109576Y70095D01*
X109638Y70076D01*
X109695Y70048D01*
X109765Y70037D01*
X109846Y70013D01*
X109931Y70012D01*
X110000Y70001D01*
X139000Y70001D01*
X139064Y70010D01*
G37*
G36*
X244540Y103010D02*
X244540Y103010D01*
X244604Y103009D01*
X244679Y103030D01*
X244755Y103041D01*
X244814Y103067D01*
X244876Y103084D01*
X244942Y103125D01*
X245012Y103157D01*
X245061Y103199D01*
X245116Y103232D01*
X245168Y103290D01*
X245226Y103340D01*
X245262Y103394D01*
X245305Y103442D01*
X245338Y103511D01*
X245381Y103576D01*
X245400Y103638D01*
X245428Y103695D01*
X245439Y103765D01*
X245463Y103846D01*
X245464Y103931D01*
X245475Y104000D01*
X245475Y137000D01*
X245466Y137062D01*
X245467Y137103D01*
X245467Y137104D01*
X245467Y137128D01*
X245446Y137203D01*
X245435Y137279D01*
X245409Y137338D01*
X245392Y137400D01*
X245351Y137466D01*
X245319Y137536D01*
X245277Y137585D01*
X245244Y137640D01*
X245186Y137692D01*
X245136Y137750D01*
X245082Y137786D01*
X245034Y137829D01*
X244965Y137862D01*
X244900Y137905D01*
X244838Y137924D01*
X244781Y137952D01*
X244711Y137963D01*
X244630Y137987D01*
X244545Y137988D01*
X244476Y137999D01*
X206524Y137999D01*
X206460Y137990D01*
X206396Y137991D01*
X206321Y137970D01*
X206245Y137959D01*
X206186Y137933D01*
X206124Y137916D01*
X206058Y137875D01*
X205988Y137843D01*
X205939Y137801D01*
X205884Y137768D01*
X205832Y137710D01*
X205774Y137660D01*
X205738Y137606D01*
X205695Y137558D01*
X205662Y137489D01*
X205619Y137424D01*
X205600Y137362D01*
X205572Y137305D01*
X205561Y137235D01*
X205537Y137154D01*
X205536Y137069D01*
X205525Y137000D01*
X205525Y104000D01*
X205534Y103936D01*
X205533Y103872D01*
X205554Y103797D01*
X205565Y103721D01*
X205591Y103662D01*
X205608Y103600D01*
X205649Y103534D01*
X205681Y103464D01*
X205723Y103415D01*
X205756Y103360D01*
X205814Y103308D01*
X205864Y103250D01*
X205918Y103214D01*
X205966Y103171D01*
X206035Y103138D01*
X206100Y103095D01*
X206162Y103076D01*
X206219Y103048D01*
X206289Y103037D01*
X206370Y103013D01*
X206455Y103012D01*
X206524Y103001D01*
X244476Y103001D01*
X244540Y103010D01*
G37*
G36*
X193111Y70014D02*
X193111Y70014D01*
X193207Y70019D01*
X193251Y70034D01*
X193296Y70041D01*
X193383Y70080D01*
X193474Y70112D01*
X193508Y70137D01*
X193552Y70157D01*
X193650Y70240D01*
X193723Y70293D01*
X194707Y71277D01*
X194764Y71354D01*
X194829Y71425D01*
X194849Y71466D01*
X194876Y71503D01*
X194901Y71570D01*
X194905Y71575D01*
X194911Y71595D01*
X194952Y71679D01*
X194958Y71721D01*
X194975Y71767D01*
X194980Y71820D01*
X194987Y71845D01*
X194988Y71913D01*
X194999Y71984D01*
X194999Y102476D01*
X194990Y102540D01*
X194991Y102604D01*
X194970Y102679D01*
X194959Y102755D01*
X194933Y102814D01*
X194916Y102876D01*
X194875Y102942D01*
X194843Y103012D01*
X194801Y103061D01*
X194768Y103116D01*
X194710Y103168D01*
X194660Y103226D01*
X194606Y103262D01*
X194558Y103305D01*
X194489Y103338D01*
X194424Y103381D01*
X194362Y103400D01*
X194305Y103428D01*
X194235Y103439D01*
X194154Y103463D01*
X194069Y103464D01*
X194000Y103475D01*
X176460Y103475D01*
X176365Y103462D01*
X176269Y103457D01*
X176225Y103442D01*
X176180Y103435D01*
X176093Y103396D01*
X176002Y103364D01*
X175968Y103339D01*
X175924Y103319D01*
X175826Y103236D01*
X175753Y103183D01*
X174817Y102247D01*
X174760Y102170D01*
X174695Y102099D01*
X174675Y102058D01*
X174648Y102021D01*
X174614Y101931D01*
X174572Y101845D01*
X174566Y101803D01*
X174549Y101757D01*
X174539Y101630D01*
X174525Y101540D01*
X174525Y84368D01*
X173632Y83475D01*
X170368Y83475D01*
X169475Y84368D01*
X169475Y103000D01*
X169466Y103062D01*
X169467Y103104D01*
X169467Y103105D01*
X169467Y103128D01*
X169446Y103203D01*
X169435Y103279D01*
X169409Y103338D01*
X169392Y103400D01*
X169351Y103466D01*
X169319Y103536D01*
X169277Y103585D01*
X169244Y103640D01*
X169186Y103692D01*
X169136Y103750D01*
X169082Y103786D01*
X169034Y103829D01*
X168965Y103862D01*
X168900Y103905D01*
X168838Y103924D01*
X168781Y103952D01*
X168711Y103963D01*
X168630Y103987D01*
X168545Y103988D01*
X168476Y103999D01*
X151000Y103999D01*
X150936Y103990D01*
X150872Y103991D01*
X150797Y103970D01*
X150721Y103959D01*
X150662Y103933D01*
X150600Y103916D01*
X150534Y103875D01*
X150464Y103843D01*
X150415Y103801D01*
X150360Y103768D01*
X150308Y103710D01*
X150250Y103660D01*
X150214Y103606D01*
X150171Y103558D01*
X150138Y103489D01*
X150095Y103424D01*
X150076Y103362D01*
X150048Y103305D01*
X150037Y103235D01*
X150013Y103154D01*
X150012Y103069D01*
X150001Y103000D01*
X150001Y80984D01*
X150010Y80921D01*
X150009Y80865D01*
X150017Y80836D01*
X150019Y80793D01*
X150034Y80749D01*
X150041Y80704D01*
X150073Y80632D01*
X150084Y80593D01*
X150094Y80577D01*
X150112Y80526D01*
X150137Y80492D01*
X150157Y80448D01*
X150218Y80376D01*
X150232Y80353D01*
X150249Y80337D01*
X150293Y80277D01*
X153277Y77293D01*
X153354Y77236D01*
X153425Y77171D01*
X153466Y77151D01*
X153503Y77124D01*
X153593Y77090D01*
X153679Y77048D01*
X153721Y77042D01*
X153767Y77025D01*
X153894Y77015D01*
X153984Y77001D01*
X166001Y77001D01*
X166001Y71000D01*
X166010Y70936D01*
X166009Y70872D01*
X166030Y70797D01*
X166041Y70721D01*
X166067Y70662D01*
X166084Y70600D01*
X166125Y70534D01*
X166157Y70464D01*
X166199Y70415D01*
X166232Y70360D01*
X166290Y70308D01*
X166340Y70250D01*
X166394Y70214D01*
X166442Y70171D01*
X166511Y70138D01*
X166576Y70095D01*
X166638Y70076D01*
X166695Y70048D01*
X166765Y70037D01*
X166846Y70013D01*
X166931Y70012D01*
X167000Y70001D01*
X193016Y70001D01*
X193111Y70014D01*
G37*
G36*
X286540Y103010D02*
X286540Y103010D01*
X286604Y103009D01*
X286679Y103030D01*
X286755Y103041D01*
X286814Y103067D01*
X286876Y103084D01*
X286942Y103125D01*
X287012Y103157D01*
X287061Y103199D01*
X287116Y103232D01*
X287168Y103290D01*
X287226Y103340D01*
X287262Y103394D01*
X287305Y103442D01*
X287338Y103511D01*
X287381Y103576D01*
X287400Y103638D01*
X287428Y103695D01*
X287439Y103765D01*
X287463Y103846D01*
X287464Y103931D01*
X287475Y104000D01*
X287475Y137000D01*
X287466Y137062D01*
X287467Y137103D01*
X287467Y137104D01*
X287467Y137128D01*
X287446Y137203D01*
X287435Y137279D01*
X287409Y137338D01*
X287392Y137400D01*
X287351Y137466D01*
X287319Y137536D01*
X287277Y137585D01*
X287244Y137640D01*
X287186Y137692D01*
X287136Y137750D01*
X287082Y137786D01*
X287034Y137829D01*
X286965Y137862D01*
X286900Y137905D01*
X286838Y137924D01*
X286781Y137952D01*
X286711Y137963D01*
X286630Y137987D01*
X286545Y137988D01*
X286476Y137999D01*
X251524Y137999D01*
X251460Y137990D01*
X251396Y137991D01*
X251321Y137970D01*
X251245Y137959D01*
X251186Y137933D01*
X251124Y137916D01*
X251058Y137875D01*
X250988Y137843D01*
X250939Y137801D01*
X250884Y137768D01*
X250832Y137710D01*
X250774Y137660D01*
X250738Y137606D01*
X250695Y137558D01*
X250662Y137489D01*
X250619Y137424D01*
X250600Y137362D01*
X250572Y137305D01*
X250561Y137235D01*
X250537Y137154D01*
X250536Y137069D01*
X250525Y137000D01*
X250525Y104000D01*
X250534Y103936D01*
X250533Y103872D01*
X250554Y103797D01*
X250565Y103721D01*
X250591Y103662D01*
X250608Y103600D01*
X250649Y103534D01*
X250681Y103464D01*
X250723Y103415D01*
X250756Y103360D01*
X250814Y103308D01*
X250864Y103250D01*
X250918Y103214D01*
X250966Y103171D01*
X251035Y103138D01*
X251100Y103095D01*
X251162Y103076D01*
X251219Y103048D01*
X251289Y103037D01*
X251370Y103013D01*
X251455Y103012D01*
X251524Y103001D01*
X286476Y103001D01*
X286540Y103010D01*
G37*
G36*
X347064Y70010D02*
X347064Y70010D01*
X347128Y70009D01*
X347203Y70030D01*
X347279Y70041D01*
X347338Y70067D01*
X347400Y70084D01*
X347466Y70125D01*
X347536Y70157D01*
X347585Y70199D01*
X347640Y70232D01*
X347692Y70290D01*
X347750Y70340D01*
X347786Y70394D01*
X347829Y70442D01*
X347862Y70511D01*
X347905Y70576D01*
X347924Y70638D01*
X347952Y70695D01*
X347963Y70765D01*
X347987Y70846D01*
X347988Y70931D01*
X347999Y71000D01*
X347999Y102000D01*
X347990Y102062D01*
X347991Y102105D01*
X347991Y102106D01*
X347991Y102128D01*
X347970Y102203D01*
X347959Y102279D01*
X347933Y102338D01*
X347916Y102400D01*
X347875Y102466D01*
X347843Y102536D01*
X347801Y102585D01*
X347768Y102640D01*
X347710Y102692D01*
X347660Y102750D01*
X347606Y102786D01*
X347558Y102829D01*
X347489Y102862D01*
X347424Y102905D01*
X347362Y102924D01*
X347305Y102952D01*
X347235Y102963D01*
X347154Y102987D01*
X347069Y102988D01*
X347000Y102999D01*
X328524Y102999D01*
X328460Y102990D01*
X328396Y102991D01*
X328321Y102970D01*
X328245Y102959D01*
X328186Y102933D01*
X328124Y102916D01*
X328058Y102875D01*
X327988Y102843D01*
X327939Y102801D01*
X327884Y102768D01*
X327832Y102710D01*
X327774Y102660D01*
X327738Y102606D01*
X327695Y102558D01*
X327662Y102489D01*
X327619Y102424D01*
X327600Y102362D01*
X327572Y102305D01*
X327561Y102235D01*
X327537Y102154D01*
X327536Y102069D01*
X327525Y102000D01*
X327525Y84368D01*
X326632Y83475D01*
X323368Y83475D01*
X322475Y84368D01*
X322475Y102000D01*
X322466Y102062D01*
X322467Y102105D01*
X322467Y102106D01*
X322467Y102128D01*
X322446Y102203D01*
X322435Y102279D01*
X322409Y102338D01*
X322392Y102400D01*
X322351Y102466D01*
X322319Y102536D01*
X322277Y102585D01*
X322244Y102640D01*
X322186Y102692D01*
X322136Y102750D01*
X322082Y102786D01*
X322034Y102829D01*
X321965Y102862D01*
X321900Y102905D01*
X321838Y102924D01*
X321781Y102952D01*
X321711Y102963D01*
X321630Y102987D01*
X321545Y102988D01*
X321476Y102999D01*
X304000Y102999D01*
X303936Y102990D01*
X303872Y102991D01*
X303797Y102970D01*
X303721Y102959D01*
X303662Y102933D01*
X303600Y102916D01*
X303534Y102875D01*
X303464Y102843D01*
X303415Y102801D01*
X303360Y102768D01*
X303308Y102710D01*
X303250Y102660D01*
X303214Y102606D01*
X303171Y102558D01*
X303138Y102489D01*
X303095Y102424D01*
X303076Y102362D01*
X303048Y102305D01*
X303037Y102235D01*
X303013Y102154D01*
X303012Y102069D01*
X303001Y102000D01*
X303001Y81984D01*
X303010Y81921D01*
X303009Y81864D01*
X303017Y81835D01*
X303019Y81793D01*
X303034Y81749D01*
X303041Y81704D01*
X303073Y81633D01*
X303084Y81592D01*
X303095Y81575D01*
X303112Y81526D01*
X303137Y81492D01*
X303157Y81448D01*
X303216Y81378D01*
X303232Y81352D01*
X303251Y81335D01*
X303293Y81277D01*
X307277Y77293D01*
X307354Y77236D01*
X307425Y77171D01*
X307466Y77151D01*
X307503Y77124D01*
X307593Y77090D01*
X307679Y77048D01*
X307721Y77042D01*
X307767Y77025D01*
X307894Y77015D01*
X307984Y77001D01*
X312181Y77001D01*
X312275Y77014D01*
X312372Y77019D01*
X312388Y77025D01*
X318102Y77025D01*
X318230Y77015D01*
X318319Y77001D01*
X319001Y77001D01*
X319001Y71000D01*
X319010Y70936D01*
X319009Y70872D01*
X319030Y70797D01*
X319041Y70721D01*
X319067Y70662D01*
X319084Y70600D01*
X319125Y70534D01*
X319157Y70464D01*
X319199Y70415D01*
X319232Y70360D01*
X319290Y70308D01*
X319340Y70250D01*
X319394Y70214D01*
X319442Y70171D01*
X319511Y70138D01*
X319576Y70095D01*
X319638Y70076D01*
X319695Y70048D01*
X319765Y70037D01*
X319846Y70013D01*
X319931Y70012D01*
X320000Y70001D01*
X347000Y70001D01*
X347064Y70010D01*
G37*
G36*
X168540Y112010D02*
X168540Y112010D01*
X168604Y112009D01*
X168679Y112030D01*
X168755Y112041D01*
X168814Y112067D01*
X168876Y112084D01*
X168942Y112125D01*
X169012Y112157D01*
X169061Y112199D01*
X169116Y112232D01*
X169168Y112290D01*
X169226Y112340D01*
X169262Y112394D01*
X169305Y112442D01*
X169338Y112511D01*
X169381Y112576D01*
X169400Y112638D01*
X169428Y112695D01*
X169439Y112765D01*
X169463Y112846D01*
X169464Y112931D01*
X169475Y113000D01*
X169475Y129632D01*
X170368Y130525D01*
X173632Y130525D01*
X174525Y129632D01*
X174525Y113000D01*
X174534Y112936D01*
X174533Y112872D01*
X174554Y112797D01*
X174565Y112721D01*
X174591Y112662D01*
X174608Y112600D01*
X174649Y112534D01*
X174681Y112464D01*
X174723Y112415D01*
X174756Y112360D01*
X174814Y112308D01*
X174864Y112250D01*
X174918Y112214D01*
X174966Y112171D01*
X175035Y112138D01*
X175100Y112095D01*
X175162Y112076D01*
X175219Y112048D01*
X175289Y112037D01*
X175370Y112013D01*
X175455Y112012D01*
X175524Y112001D01*
X193000Y112001D01*
X193064Y112010D01*
X193128Y112009D01*
X193203Y112030D01*
X193279Y112041D01*
X193338Y112067D01*
X193400Y112084D01*
X193466Y112125D01*
X193536Y112157D01*
X193585Y112199D01*
X193640Y112232D01*
X193692Y112290D01*
X193750Y112340D01*
X193786Y112394D01*
X193829Y112442D01*
X193862Y112511D01*
X193905Y112576D01*
X193924Y112638D01*
X193952Y112695D01*
X193963Y112765D01*
X193987Y112846D01*
X193988Y112931D01*
X193999Y113000D01*
X193999Y138004D01*
X193990Y138066D01*
X193991Y138109D01*
X193984Y138135D01*
X193981Y138195D01*
X193966Y138239D01*
X193959Y138283D01*
X193920Y138371D01*
X193888Y138462D01*
X193863Y138496D01*
X193843Y138540D01*
X193760Y138638D01*
X193707Y138711D01*
X189711Y142707D01*
X189634Y142764D01*
X189563Y142829D01*
X189522Y142849D01*
X189485Y142876D01*
X189395Y142910D01*
X189309Y142952D01*
X189267Y142958D01*
X189221Y142975D01*
X189094Y142985D01*
X189004Y142999D01*
X152048Y142999D01*
X151984Y142990D01*
X151920Y142991D01*
X151845Y142970D01*
X151769Y142959D01*
X151710Y142933D01*
X151648Y142916D01*
X151582Y142875D01*
X151512Y142843D01*
X151463Y142801D01*
X151408Y142768D01*
X151356Y142710D01*
X151298Y142660D01*
X151262Y142606D01*
X151219Y142558D01*
X151186Y142489D01*
X151143Y142424D01*
X151124Y142362D01*
X151096Y142305D01*
X151085Y142235D01*
X151061Y142154D01*
X151060Y142069D01*
X151049Y142000D01*
X151049Y113000D01*
X151058Y112936D01*
X151057Y112872D01*
X151078Y112797D01*
X151089Y112721D01*
X151115Y112662D01*
X151132Y112600D01*
X151173Y112534D01*
X151205Y112464D01*
X151247Y112415D01*
X151280Y112360D01*
X151338Y112308D01*
X151388Y112250D01*
X151442Y112214D01*
X151490Y112171D01*
X151559Y112138D01*
X151624Y112095D01*
X151686Y112076D01*
X151743Y112048D01*
X151813Y112037D01*
X151894Y112013D01*
X151979Y112012D01*
X152048Y112001D01*
X168476Y112001D01*
X168540Y112010D01*
G37*
G36*
X112540Y112010D02*
X112540Y112010D01*
X112604Y112009D01*
X112679Y112030D01*
X112755Y112041D01*
X112814Y112067D01*
X112876Y112084D01*
X112942Y112125D01*
X113012Y112157D01*
X113061Y112199D01*
X113116Y112232D01*
X113168Y112290D01*
X113226Y112340D01*
X113262Y112394D01*
X113305Y112442D01*
X113338Y112511D01*
X113381Y112576D01*
X113400Y112638D01*
X113428Y112695D01*
X113439Y112765D01*
X113463Y112846D01*
X113464Y112931D01*
X113475Y113000D01*
X113475Y129632D01*
X114368Y130525D01*
X117632Y130525D01*
X118525Y129632D01*
X118525Y113524D01*
X118534Y113460D01*
X118533Y113396D01*
X118554Y113321D01*
X118565Y113245D01*
X118591Y113186D01*
X118608Y113124D01*
X118649Y113058D01*
X118681Y112988D01*
X118723Y112939D01*
X118756Y112884D01*
X118814Y112832D01*
X118864Y112774D01*
X118918Y112738D01*
X118966Y112695D01*
X119035Y112662D01*
X119100Y112619D01*
X119162Y112600D01*
X119219Y112572D01*
X119289Y112561D01*
X119370Y112537D01*
X119455Y112536D01*
X119524Y112525D01*
X132540Y112525D01*
X132635Y112538D01*
X132731Y112543D01*
X132775Y112558D01*
X132820Y112565D01*
X132907Y112604D01*
X132998Y112636D01*
X133032Y112661D01*
X133076Y112681D01*
X133174Y112764D01*
X133247Y112817D01*
X134183Y113753D01*
X134240Y113830D01*
X134305Y113901D01*
X134325Y113942D01*
X134352Y113979D01*
X134386Y114069D01*
X134428Y114155D01*
X134434Y114197D01*
X134451Y114243D01*
X134461Y114370D01*
X134475Y114460D01*
X134475Y140540D01*
X134462Y140635D01*
X134457Y140731D01*
X134442Y140775D01*
X134435Y140820D01*
X134396Y140907D01*
X134364Y140998D01*
X134339Y141032D01*
X134319Y141076D01*
X134236Y141174D01*
X134183Y141247D01*
X132723Y142707D01*
X132646Y142764D01*
X132575Y142829D01*
X132534Y142849D01*
X132497Y142876D01*
X132407Y142910D01*
X132321Y142952D01*
X132279Y142958D01*
X132233Y142975D01*
X132106Y142985D01*
X132016Y142999D01*
X93000Y142999D01*
X92936Y142990D01*
X92872Y142991D01*
X92797Y142970D01*
X92721Y142959D01*
X92662Y142933D01*
X92600Y142916D01*
X92534Y142875D01*
X92464Y142843D01*
X92415Y142801D01*
X92360Y142768D01*
X92308Y142710D01*
X92250Y142660D01*
X92214Y142606D01*
X92171Y142558D01*
X92138Y142489D01*
X92095Y142424D01*
X92076Y142362D01*
X92048Y142305D01*
X92037Y142235D01*
X92013Y142154D01*
X92012Y142069D01*
X92001Y142000D01*
X92001Y113000D01*
X92010Y112936D01*
X92009Y112872D01*
X92030Y112797D01*
X92041Y112721D01*
X92067Y112662D01*
X92084Y112600D01*
X92125Y112534D01*
X92157Y112464D01*
X92199Y112415D01*
X92232Y112360D01*
X92290Y112308D01*
X92340Y112250D01*
X92394Y112214D01*
X92442Y112171D01*
X92511Y112138D01*
X92576Y112095D01*
X92638Y112076D01*
X92695Y112048D01*
X92765Y112037D01*
X92846Y112013D01*
X92931Y112012D01*
X93000Y112001D01*
X112476Y112001D01*
X112540Y112010D01*
G37*
G36*
X343064Y112010D02*
X343064Y112010D01*
X343128Y112009D01*
X343203Y112030D01*
X343279Y112041D01*
X343338Y112067D01*
X343400Y112084D01*
X343466Y112125D01*
X343536Y112157D01*
X343585Y112199D01*
X343640Y112232D01*
X343692Y112290D01*
X343750Y112340D01*
X343786Y112394D01*
X343829Y112442D01*
X343862Y112511D01*
X343905Y112576D01*
X343924Y112638D01*
X343952Y112695D01*
X343963Y112765D01*
X343987Y112846D01*
X343988Y112931D01*
X343999Y113000D01*
X343999Y144000D01*
X343990Y144062D01*
X343991Y144105D01*
X343991Y144106D01*
X343991Y144128D01*
X343970Y144203D01*
X343959Y144279D01*
X343933Y144338D01*
X343916Y144400D01*
X343875Y144466D01*
X343843Y144536D01*
X343801Y144585D01*
X343768Y144640D01*
X343710Y144692D01*
X343660Y144750D01*
X343606Y144786D01*
X343558Y144829D01*
X343489Y144862D01*
X343424Y144905D01*
X343362Y144924D01*
X343305Y144952D01*
X343235Y144963D01*
X343154Y144987D01*
X343069Y144988D01*
X343000Y144999D01*
X307620Y144999D01*
X307556Y144990D01*
X307492Y144991D01*
X307417Y144970D01*
X307341Y144959D01*
X307282Y144933D01*
X307220Y144916D01*
X307154Y144875D01*
X307084Y144843D01*
X307035Y144801D01*
X306980Y144768D01*
X306928Y144710D01*
X306870Y144660D01*
X306834Y144606D01*
X306791Y144558D01*
X306758Y144489D01*
X306715Y144424D01*
X306696Y144362D01*
X306668Y144305D01*
X306657Y144235D01*
X306633Y144154D01*
X306632Y144069D01*
X306621Y144000D01*
X306621Y115460D01*
X306634Y115365D01*
X306639Y115269D01*
X306654Y115225D01*
X306661Y115180D01*
X306700Y115093D01*
X306732Y115002D01*
X306757Y114968D01*
X306777Y114924D01*
X306860Y114826D01*
X306913Y114753D01*
X308849Y112817D01*
X308926Y112760D01*
X308997Y112695D01*
X309038Y112675D01*
X309075Y112648D01*
X309165Y112614D01*
X309251Y112572D01*
X309293Y112566D01*
X309339Y112549D01*
X309466Y112539D01*
X309556Y112525D01*
X321476Y112525D01*
X321540Y112534D01*
X321604Y112533D01*
X321679Y112554D01*
X321755Y112565D01*
X321814Y112591D01*
X321876Y112608D01*
X321942Y112649D01*
X322012Y112681D01*
X322061Y112723D01*
X322116Y112756D01*
X322168Y112814D01*
X322226Y112864D01*
X322262Y112918D01*
X322305Y112966D01*
X322338Y113035D01*
X322381Y113100D01*
X322400Y113162D01*
X322428Y113219D01*
X322439Y113289D01*
X322463Y113370D01*
X322464Y113455D01*
X322475Y113524D01*
X322475Y129632D01*
X323368Y130525D01*
X326632Y130525D01*
X327525Y129632D01*
X327525Y113000D01*
X327534Y112936D01*
X327533Y112872D01*
X327554Y112797D01*
X327565Y112721D01*
X327591Y112662D01*
X327608Y112600D01*
X327649Y112534D01*
X327681Y112464D01*
X327723Y112415D01*
X327756Y112360D01*
X327814Y112308D01*
X327864Y112250D01*
X327918Y112214D01*
X327966Y112171D01*
X328035Y112138D01*
X328100Y112095D01*
X328162Y112076D01*
X328219Y112048D01*
X328289Y112037D01*
X328370Y112013D01*
X328455Y112012D01*
X328524Y112001D01*
X343000Y112001D01*
X343064Y112010D01*
G37*
G36*
X35535Y274005D02*
X35535Y274005D01*
X35571Y274002D01*
X35707Y274025D01*
X35843Y274041D01*
X35877Y274053D01*
X35912Y274058D01*
X36039Y274111D01*
X36169Y274158D01*
X36198Y274178D01*
X36231Y274191D01*
X36343Y274272D01*
X36458Y274347D01*
X36483Y274373D01*
X36511Y274393D01*
X36602Y274498D01*
X36697Y274597D01*
X36715Y274628D01*
X36738Y274654D01*
X36802Y274777D01*
X36872Y274895D01*
X36882Y274929D01*
X36899Y274961D01*
X36933Y275094D01*
X36974Y275226D01*
X36976Y275261D01*
X36985Y275295D01*
X36999Y275500D01*
X36999Y286500D01*
X36995Y286535D01*
X36998Y286571D01*
X36975Y286707D01*
X36959Y286843D01*
X36947Y286877D01*
X36942Y286912D01*
X36889Y287039D01*
X36842Y287169D01*
X36823Y287198D01*
X36809Y287231D01*
X36728Y287343D01*
X36653Y287458D01*
X36627Y287483D01*
X36607Y287511D01*
X36503Y287602D01*
X36403Y287697D01*
X36372Y287715D01*
X36346Y287738D01*
X36223Y287802D01*
X36105Y287872D01*
X36071Y287882D01*
X36039Y287899D01*
X35906Y287933D01*
X35774Y287974D01*
X35739Y287976D01*
X35705Y287985D01*
X35500Y287999D01*
X8500Y287999D01*
X8465Y287995D01*
X8429Y287998D01*
X8293Y287975D01*
X8157Y287959D01*
X8123Y287947D01*
X8088Y287942D01*
X7961Y287889D01*
X7831Y287842D01*
X7802Y287823D01*
X7769Y287809D01*
X7657Y287728D01*
X7542Y287653D01*
X7517Y287627D01*
X7489Y287607D01*
X7398Y287503D01*
X7303Y287403D01*
X7285Y287372D01*
X7262Y287346D01*
X7198Y287223D01*
X7128Y287105D01*
X7118Y287071D01*
X7101Y287039D01*
X7067Y286906D01*
X7026Y286774D01*
X7024Y286739D01*
X7015Y286705D01*
X7001Y286500D01*
X7001Y275500D01*
X7005Y275465D01*
X7002Y275429D01*
X7025Y275293D01*
X7041Y275157D01*
X7053Y275123D01*
X7058Y275088D01*
X7111Y274961D01*
X7158Y274831D01*
X7178Y274802D01*
X7191Y274769D01*
X7272Y274657D01*
X7347Y274542D01*
X7373Y274517D01*
X7393Y274489D01*
X7498Y274398D01*
X7597Y274303D01*
X7628Y274285D01*
X7654Y274262D01*
X7777Y274198D01*
X7895Y274128D01*
X7929Y274118D01*
X7961Y274101D01*
X8094Y274067D01*
X8226Y274026D01*
X8261Y274024D01*
X8295Y274015D01*
X8500Y274001D01*
X35500Y274001D01*
X35535Y274005D01*
G37*
G36*
X35535Y252005D02*
X35535Y252005D01*
X35571Y252002D01*
X35707Y252025D01*
X35843Y252041D01*
X35877Y252053D01*
X35912Y252058D01*
X36039Y252111D01*
X36169Y252158D01*
X36198Y252178D01*
X36231Y252191D01*
X36343Y252272D01*
X36458Y252347D01*
X36483Y252373D01*
X36511Y252393D01*
X36602Y252498D01*
X36697Y252597D01*
X36715Y252628D01*
X36738Y252654D01*
X36802Y252777D01*
X36872Y252895D01*
X36882Y252929D01*
X36899Y252961D01*
X36933Y253094D01*
X36974Y253226D01*
X36976Y253261D01*
X36985Y253295D01*
X36999Y253500D01*
X36999Y262000D01*
X36995Y262035D01*
X36998Y262071D01*
X36975Y262207D01*
X36959Y262343D01*
X36947Y262377D01*
X36942Y262412D01*
X36889Y262539D01*
X36842Y262669D01*
X36823Y262698D01*
X36809Y262731D01*
X36728Y262843D01*
X36653Y262958D01*
X36627Y262983D01*
X36607Y263011D01*
X36503Y263102D01*
X36403Y263197D01*
X36372Y263215D01*
X36346Y263238D01*
X36223Y263302D01*
X36105Y263372D01*
X36071Y263382D01*
X36039Y263399D01*
X35906Y263433D01*
X35774Y263474D01*
X35739Y263476D01*
X35705Y263485D01*
X35500Y263499D01*
X8500Y263499D01*
X8465Y263495D01*
X8429Y263498D01*
X8293Y263475D01*
X8157Y263459D01*
X8123Y263447D01*
X8088Y263442D01*
X7961Y263389D01*
X7831Y263342D01*
X7802Y263323D01*
X7769Y263309D01*
X7657Y263228D01*
X7542Y263153D01*
X7517Y263127D01*
X7489Y263107D01*
X7398Y263003D01*
X7303Y262903D01*
X7285Y262872D01*
X7262Y262846D01*
X7198Y262723D01*
X7128Y262605D01*
X7118Y262571D01*
X7101Y262539D01*
X7067Y262406D01*
X7026Y262274D01*
X7024Y262239D01*
X7015Y262205D01*
X7001Y262000D01*
X7001Y253500D01*
X7005Y253465D01*
X7002Y253429D01*
X7025Y253293D01*
X7041Y253157D01*
X7053Y253123D01*
X7058Y253088D01*
X7111Y252961D01*
X7158Y252831D01*
X7178Y252802D01*
X7191Y252769D01*
X7272Y252657D01*
X7347Y252542D01*
X7373Y252517D01*
X7393Y252489D01*
X7498Y252398D01*
X7597Y252303D01*
X7628Y252285D01*
X7654Y252262D01*
X7777Y252198D01*
X7895Y252128D01*
X7929Y252118D01*
X7961Y252101D01*
X8094Y252067D01*
X8226Y252026D01*
X8261Y252024D01*
X8295Y252015D01*
X8500Y252001D01*
X35500Y252001D01*
X35535Y252005D01*
G37*
%LPC*%
G36*
X477011Y81999D02*
X477011Y81999D01*
X473335Y83522D01*
X470522Y86335D01*
X468999Y90011D01*
X468999Y93989D01*
X470522Y97665D01*
X472319Y99462D01*
X472360Y99520D01*
X472410Y99572D01*
X472415Y99582D01*
X472463Y99621D01*
X472491Y99638D01*
X472506Y99656D01*
X472538Y99681D01*
X473335Y100478D01*
X477011Y102001D01*
X480989Y102001D01*
X484665Y100478D01*
X487478Y97665D01*
X489001Y93989D01*
X489001Y90011D01*
X487478Y86335D01*
X484665Y83522D01*
X480989Y81999D01*
X477011Y81999D01*
G37*
%LPD*%
D10*
G36*
X162215Y220500D02*
X125800Y184085D01*
X89385Y220500D01*
X125800Y256915D01*
X162215Y220500D01*
G37*
D11*
G36*
X85282Y217176D02*
X81041Y212935D01*
X79344Y214632D01*
X83585Y218873D01*
X85282Y217176D01*
G37*
G36*
X82879Y211096D02*
X87120Y215337D01*
X88817Y213640D01*
X84576Y209399D01*
X82879Y211096D01*
G37*
G36*
X86415Y207561D02*
X90656Y211802D01*
X92353Y210105D01*
X88112Y205864D01*
X86415Y207561D01*
G37*
G36*
X89951Y204025D02*
X94192Y208266D01*
X95889Y206569D01*
X91648Y202328D01*
X89951Y204025D01*
G37*
G36*
X93486Y200490D02*
X97727Y204731D01*
X99424Y203034D01*
X95183Y198793D01*
X93486Y200490D01*
G37*
G36*
X97022Y196954D02*
X101263Y201195D01*
X102960Y199498D01*
X98719Y195257D01*
X97022Y196954D01*
G37*
G36*
X100557Y193419D02*
X104798Y197660D01*
X106495Y195963D01*
X102254Y191722D01*
X100557Y193419D01*
G37*
G36*
X104093Y189883D02*
X108334Y194124D01*
X110031Y192427D01*
X105790Y188186D01*
X104093Y189883D01*
G37*
G36*
X107628Y186348D02*
X111869Y190589D01*
X113566Y188892D01*
X109325Y184651D01*
X107628Y186348D01*
G37*
G36*
X111164Y182812D02*
X115405Y187053D01*
X117102Y185356D01*
X112861Y181115D01*
X111164Y182812D01*
G37*
G36*
X114699Y179276D02*
X118940Y183517D01*
X120637Y181820D01*
X116396Y177579D01*
X114699Y179276D01*
G37*
G36*
X118235Y175741D02*
X122476Y179982D01*
X124173Y178285D01*
X119932Y174044D01*
X118235Y175741D01*
G37*
G36*
X129124Y179982D02*
X133365Y175741D01*
X131668Y174044D01*
X127427Y178285D01*
X129124Y179982D01*
G37*
G36*
X135204Y177579D02*
X130963Y181820D01*
X132660Y183517D01*
X136901Y179276D01*
X135204Y177579D01*
G37*
G36*
X138739Y181115D02*
X134498Y185356D01*
X136195Y187053D01*
X140436Y182812D01*
X138739Y181115D01*
G37*
G36*
X142275Y184651D02*
X138034Y188892D01*
X139731Y190589D01*
X143972Y186348D01*
X142275Y184651D01*
G37*
G36*
X145810Y188186D02*
X141569Y192427D01*
X143266Y194124D01*
X147507Y189883D01*
X145810Y188186D01*
G37*
G36*
X149346Y191722D02*
X145105Y195963D01*
X146802Y197660D01*
X151043Y193419D01*
X149346Y191722D01*
G37*
G36*
X152881Y195257D02*
X148640Y199498D01*
X150337Y201195D01*
X154578Y196954D01*
X152881Y195257D01*
G37*
G36*
X156417Y198793D02*
X152176Y203034D01*
X153873Y204731D01*
X158114Y200490D01*
X156417Y198793D01*
G37*
G36*
X159952Y202328D02*
X155711Y206569D01*
X157408Y208266D01*
X161649Y204025D01*
X159952Y202328D01*
G37*
G36*
X163488Y205864D02*
X159247Y210105D01*
X160944Y211802D01*
X165185Y207561D01*
X163488Y205864D01*
G37*
G36*
X167024Y209399D02*
X162783Y213640D01*
X164480Y215337D01*
X168721Y211096D01*
X167024Y209399D01*
G37*
G36*
X170559Y212935D02*
X166318Y217176D01*
X168015Y218873D01*
X172256Y214632D01*
X170559Y212935D01*
G37*
G36*
X166318Y223824D02*
X170559Y228065D01*
X172256Y226368D01*
X168015Y222127D01*
X166318Y223824D01*
G37*
G36*
X168721Y229904D02*
X164480Y225663D01*
X162783Y227360D01*
X167024Y231601D01*
X168721Y229904D01*
G37*
G36*
X165185Y233439D02*
X160944Y229198D01*
X159247Y230895D01*
X163488Y235136D01*
X165185Y233439D01*
G37*
G36*
X161649Y236975D02*
X157408Y232734D01*
X155711Y234431D01*
X159952Y238672D01*
X161649Y236975D01*
G37*
G36*
X158114Y240510D02*
X153873Y236269D01*
X152176Y237966D01*
X156417Y242207D01*
X158114Y240510D01*
G37*
G36*
X154578Y244046D02*
X150337Y239805D01*
X148640Y241502D01*
X152881Y245743D01*
X154578Y244046D01*
G37*
G36*
X151043Y247581D02*
X146802Y243340D01*
X145105Y245037D01*
X149346Y249278D01*
X151043Y247581D01*
G37*
G36*
X147507Y251117D02*
X143266Y246876D01*
X141569Y248573D01*
X145810Y252814D01*
X147507Y251117D01*
G37*
G36*
X143972Y254652D02*
X139731Y250411D01*
X138034Y252108D01*
X142275Y256349D01*
X143972Y254652D01*
G37*
G36*
X140436Y258188D02*
X136195Y253947D01*
X134498Y255644D01*
X138739Y259885D01*
X140436Y258188D01*
G37*
G36*
X136901Y261724D02*
X132660Y257483D01*
X130963Y259180D01*
X135204Y263421D01*
X136901Y261724D01*
G37*
G36*
X133365Y265259D02*
X129124Y261018D01*
X127427Y262715D01*
X131668Y266956D01*
X133365Y265259D01*
G37*
G36*
X122476Y261018D02*
X118235Y265259D01*
X119932Y266956D01*
X124173Y262715D01*
X122476Y261018D01*
G37*
G36*
X116396Y263421D02*
X120637Y259180D01*
X118940Y257483D01*
X114699Y261724D01*
X116396Y263421D01*
G37*
G36*
X112861Y259885D02*
X117102Y255644D01*
X115405Y253947D01*
X111164Y258188D01*
X112861Y259885D01*
G37*
G36*
X109325Y256349D02*
X113566Y252108D01*
X111869Y250411D01*
X107628Y254652D01*
X109325Y256349D01*
G37*
G36*
X105790Y252814D02*
X110031Y248573D01*
X108334Y246876D01*
X104093Y251117D01*
X105790Y252814D01*
G37*
G36*
X102254Y249278D02*
X106495Y245037D01*
X104798Y243340D01*
X100557Y247581D01*
X102254Y249278D01*
G37*
G36*
X98719Y245743D02*
X102960Y241502D01*
X101263Y239805D01*
X97022Y244046D01*
X98719Y245743D01*
G37*
G36*
X95183Y242207D02*
X99424Y237966D01*
X97727Y236269D01*
X93486Y240510D01*
X95183Y242207D01*
G37*
G36*
X91648Y238672D02*
X95889Y234431D01*
X94192Y232734D01*
X89951Y236975D01*
X91648Y238672D01*
G37*
G36*
X88112Y235136D02*
X92353Y230895D01*
X90656Y229198D01*
X86415Y233439D01*
X88112Y235136D01*
G37*
G36*
X84576Y231601D02*
X88817Y227360D01*
X87120Y225663D01*
X82879Y229904D01*
X84576Y231601D01*
G37*
G36*
X81041Y228065D02*
X85282Y223824D01*
X83585Y222127D01*
X79344Y226368D01*
X81041Y228065D01*
G37*
D12*
X187600Y202700D03*
X197600Y202700D03*
D13*
X218250Y41500D03*
X224750Y41500D03*
X231250Y41500D03*
X237750Y41500D03*
D14*
X228050Y60300D03*
D13*
X259250Y41500D03*
X265750Y41500D03*
X272250Y41500D03*
X278750Y41500D03*
D14*
X269050Y60300D03*
D13*
X124750Y72500D03*
X118250Y72500D03*
X111750Y72500D03*
X105250Y72500D03*
D14*
X114950Y53700D03*
D13*
X181750Y72500D03*
X175250Y72500D03*
X168750Y72500D03*
X162250Y72500D03*
D14*
X171950Y53700D03*
D13*
X334750Y73500D03*
X328250Y73500D03*
X321750Y73500D03*
X315250Y73500D03*
D14*
X324950Y54700D03*
D15*
X236456Y313500D03*
X236456Y308500D03*
X236456Y303500D03*
X236456Y298500D03*
X236456Y293500D03*
X236456Y288500D03*
X236456Y283500D03*
X236456Y278500D03*
X236456Y273500D03*
X236456Y268500D03*
X236456Y263500D03*
X236456Y258500D03*
D16*
X243500Y251456D03*
X248500Y251456D03*
X253500Y251456D03*
X258500Y251456D03*
X263500Y251456D03*
X268500Y251456D03*
X273500Y251456D03*
X278500Y251456D03*
X283500Y251456D03*
X288500Y251456D03*
X293500Y251456D03*
X298500Y251456D03*
D15*
X305544Y258500D03*
X305544Y263500D03*
X305544Y268500D03*
X305544Y273500D03*
X305544Y278500D03*
X305544Y283500D03*
X305544Y288500D03*
X305544Y293500D03*
X305544Y298500D03*
X305544Y303500D03*
X305544Y308500D03*
X305544Y313500D03*
D16*
X298500Y320544D03*
X293500Y320544D03*
X288500Y320544D03*
X283500Y320544D03*
X278500Y320544D03*
X273500Y320544D03*
X268500Y320544D03*
X263500Y320544D03*
X258500Y320544D03*
X253500Y320544D03*
X248500Y320544D03*
X243500Y320544D03*
D17*
X271000Y286000D03*
D18*
X263500Y200000D03*
X278500Y200000D03*
D12*
X278000Y231000D03*
X268000Y231000D03*
X278000Y215000D03*
X268000Y215000D03*
X266000Y183000D03*
X276000Y183000D03*
X217000Y329000D03*
X207000Y329000D03*
D19*
X228000Y348000D03*
X228000Y358000D03*
D12*
X330000Y321000D03*
X340000Y321000D03*
X317000Y228000D03*
X327000Y228000D03*
D19*
X244000Y348000D03*
X244000Y358000D03*
X316000Y213000D03*
X316000Y203000D03*
X295000Y213000D03*
X295000Y203000D03*
D20*
X98000Y16000D03*
X198000Y16000D03*
X300000Y16000D03*
D18*
X56500Y159000D03*
X71500Y159000D03*
D19*
X63000Y242000D03*
X63000Y232000D03*
D12*
X87000Y260000D03*
X77000Y260000D03*
D21*
X22000Y259750D03*
X22000Y280250D03*
D19*
X52000Y272000D03*
X52000Y282000D03*
X67000Y282000D03*
X67000Y272000D03*
D22*
X28000Y327500D03*
X28000Y342500D03*
D23*
X11250Y222000D03*
X42750Y222000D03*
D13*
X51250Y41750D03*
X57750Y41750D03*
X64250Y41750D03*
X70750Y41750D03*
D14*
X61050Y60550D03*
D24*
X479000Y202000D03*
X479000Y92000D03*
D25*
X379000Y172000D03*
X379000Y122000D03*
D26*
X218000Y84500D03*
X218000Y113500D03*
D27*
X42500Y189000D03*
X13500Y189000D03*
X414500Y136000D03*
X443500Y136000D03*
X414500Y157000D03*
X443500Y157000D03*
X414500Y178000D03*
X443500Y178000D03*
X485500Y178000D03*
X456500Y178000D03*
X485500Y157000D03*
X456500Y157000D03*
X485500Y136000D03*
X456500Y136000D03*
X485500Y115000D03*
X456500Y115000D03*
D26*
X260000Y84500D03*
X260000Y113500D03*
X70000Y85500D03*
X70000Y114500D03*
X278000Y84500D03*
X278000Y113500D03*
X34000Y85500D03*
X34000Y114500D03*
X52000Y85500D03*
X52000Y114500D03*
X236000Y84500D03*
X236000Y113500D03*
D27*
X414500Y115000D03*
X443500Y115000D03*
D28*
X387000Y288000D03*
D29*
X379500Y303000D03*
X384500Y303000D03*
X389500Y303000D03*
X394500Y303000D03*
X394500Y273000D03*
X389500Y273000D03*
X384500Y273000D03*
X379500Y273000D03*
D19*
X420000Y260000D03*
X420000Y270000D03*
D18*
X65500Y180000D03*
X80500Y180000D03*
X43500Y166000D03*
X28500Y166000D03*
D19*
X63000Y196000D03*
X63000Y206000D03*
D12*
X143000Y293000D03*
X133000Y293000D03*
D19*
X204000Y239000D03*
X204000Y249000D03*
D30*
X116000Y121000D03*
D31*
X107750Y93000D03*
X124250Y93000D03*
X107750Y121000D03*
X124250Y121000D03*
D30*
X116000Y93000D03*
X172000Y121000D03*
D31*
X163750Y93000D03*
X180250Y93000D03*
X163750Y121000D03*
X180250Y121000D03*
D30*
X172000Y93000D03*
X325000Y121000D03*
D31*
X316750Y93000D03*
X333250Y93000D03*
X316750Y121000D03*
X333250Y121000D03*
D30*
X325000Y93000D03*
D12*
X176000Y242000D03*
X186000Y242000D03*
X171000Y256000D03*
X181000Y256000D03*
D32*
X205250Y291750D03*
X218750Y291750D03*
X218750Y302250D03*
X205250Y302250D03*
D12*
X217000Y316000D03*
X207000Y316000D03*
D33*
X58000Y314000D03*
D34*
X47000Y307500D03*
X47000Y314000D03*
X47000Y320500D03*
X69000Y320500D03*
X69000Y314000D03*
X69000Y307500D03*
D12*
X27000Y307000D03*
X17000Y307000D03*
D19*
X87000Y308000D03*
X87000Y298000D03*
X105000Y308000D03*
X105000Y298000D03*
D12*
X382000Y328000D03*
X392000Y328000D03*
D19*
X360000Y271000D03*
X360000Y281000D03*
X190000Y292000D03*
X190000Y302000D03*
D12*
X338000Y243000D03*
X348000Y243000D03*
X339000Y264000D03*
X329000Y264000D03*
D35*
X83500Y336100D03*
X98500Y336100D03*
X113500Y336100D03*
X128500Y336100D03*
X143500Y336100D03*
X158500Y336100D03*
X173500Y336100D03*
X188500Y336100D03*
D36*
X214550Y388000D03*
X57450Y388000D03*
D37*
X470000Y246000D03*
X486000Y246000D03*
X470000Y259000D03*
X486000Y259000D03*
X470000Y272000D03*
X486000Y272000D03*
D12*
X448000Y246000D03*
X458000Y246000D03*
X448000Y259000D03*
X458000Y259000D03*
X448000Y272000D03*
X458000Y272000D03*
D19*
X201000Y282000D03*
X201000Y272000D03*
D22*
X337000Y214500D03*
X337000Y199500D03*
D12*
X311000Y185000D03*
X301000Y185000D03*
D38*
X69500Y308000D02*
X69000Y307500D01*
X69500Y308000D02*
X87000Y308000D01*
X105000Y308000D01*
X87000Y308000D02*
X87000Y316000D01*
D39*
X87000Y316000D03*
D40*
X194000Y239000D03*
D38*
X231500Y313500D02*
X236456Y313500D01*
X231500Y313500D02*
X217000Y328000D01*
X217000Y329000D01*
X228000Y348000D02*
X244000Y348000D01*
X228500Y347500D02*
X228000Y348000D01*
X307000Y228000D02*
X317000Y228000D01*
X293500Y241500D02*
X293500Y251456D01*
X293500Y241500D02*
X307000Y228000D01*
X263500Y200000D02*
X260000Y203500D01*
X260000Y210000D01*
D40*
X260000Y210000D03*
D38*
X263500Y200000D02*
X266000Y197500D01*
X266000Y183000D01*
D41*
X305544Y308500D02*
X313500Y308500D01*
X326000Y321000D02*
X330000Y321000D01*
X326000Y321000D02*
X313500Y308500D01*
X330000Y321000D02*
X325000Y326000D01*
X323000Y326000D01*
D40*
X323000Y326000D03*
D41*
X228000Y348000D02*
X220000Y348000D01*
D40*
X220000Y348000D03*
D41*
X317000Y233000D02*
X317000Y228000D01*
X317000Y233000D02*
X321000Y237000D01*
D40*
X321000Y237000D03*
D42*
X176184Y203424D03*
D41*
X186876Y203424D01*
X187600Y202700D01*
X165752Y228632D02*
X171120Y234000D01*
X182000Y234000D01*
X186000Y238000D01*
X186000Y242000D01*
X189000Y239000D01*
X194000Y239000D01*
X204000Y239000D01*
X186000Y251000D02*
X181000Y256000D01*
X186000Y251000D02*
X186000Y242000D01*
D40*
X225896Y309896D03*
D38*
X243500Y347500D02*
X244000Y348000D01*
X243500Y347500D02*
X243500Y320544D01*
D41*
X337000Y199500D02*
X322500Y185000D01*
X311000Y185000D01*
X311000Y181000D01*
X305000Y175000D01*
X293000Y175000D01*
D40*
X293000Y175000D03*
D41*
X227896Y309896D02*
X231500Y313500D01*
X227896Y309896D02*
X225896Y309896D01*
X379500Y273000D02*
X379500Y266500D01*
X377000Y264000D01*
X367000Y264000D01*
X360000Y271000D01*
X354000Y265000D01*
X353000Y265000D01*
D40*
X353000Y265000D03*
X74000Y345000D03*
D41*
X83500Y343500D02*
X83500Y336100D01*
X83500Y343500D02*
X82000Y345000D01*
X74000Y345000D01*
D38*
X105000Y316000D02*
X105000Y308000D01*
D39*
X105000Y316000D03*
D43*
X278500Y214500D02*
X278500Y200000D01*
X278500Y214500D02*
X278000Y215000D01*
X278500Y230500D02*
X278000Y231000D01*
X278500Y230500D02*
X278500Y214500D01*
X278000Y231000D02*
X278500Y231500D01*
X278500Y251456D01*
X305544Y298500D02*
X317892Y298500D01*
X324892Y305500D01*
X361500Y305500D01*
X365000Y309000D02*
X376000Y309000D01*
X379500Y305500D01*
X379500Y303000D01*
X365000Y309000D02*
X361500Y305500D01*
X310500Y313500D02*
X305544Y313500D01*
X310500Y313500D02*
X317000Y320000D01*
X317000Y351154D02*
X292678Y375476D01*
X317000Y351154D02*
X317000Y320000D01*
X127476Y375476D02*
X127000Y375000D01*
D40*
X127000Y375000D03*
X129000Y353000D03*
D43*
X129000Y336600D01*
X128500Y336100D01*
X127476Y375476D02*
X292678Y375476D01*
X159989Y251154D02*
X151609Y242774D01*
X159989Y251154D02*
X160846Y251154D01*
D40*
X160846Y251154D03*
X269048Y329000D03*
D43*
X268500Y328452D01*
X268500Y320544D01*
X160907Y245000D02*
X155145Y239238D01*
X160907Y245000D02*
X166000Y245000D01*
D40*
X166000Y245000D03*
D43*
X171000Y250000D01*
X171000Y256000D01*
D40*
X284000Y333000D03*
D43*
X283500Y332500D01*
X283500Y320544D01*
D40*
X156000Y260000D03*
D43*
X151216Y249452D02*
X148074Y246309D01*
X151216Y249452D02*
X151298Y249452D01*
X156000Y254154D01*
X156000Y260000D01*
D40*
X295532Y337532D03*
D43*
X295532Y335532D01*
X288500Y328501D01*
X288500Y320544D01*
X149000Y254307D02*
X144538Y249845D01*
X149000Y254307D02*
X149000Y255000D01*
D40*
X149000Y255000D03*
D43*
X293500Y320544D02*
X293500Y327604D01*
X305000Y339104D01*
X305000Y342104D01*
D40*
X305000Y342104D03*
X247000Y214000D03*
D43*
X247000Y231000D01*
X252000Y236000D01*
D40*
X252000Y236000D03*
X233000Y246000D03*
D43*
X230000Y249000D01*
X230000Y255000D01*
X233500Y258500D01*
X236456Y258500D01*
X305592Y303452D02*
X317860Y303452D01*
X305592Y303452D02*
X305544Y303500D01*
X317860Y303452D02*
X323432Y309024D01*
D40*
X371000Y315000D03*
D43*
X363540Y312524D02*
X360040Y309024D01*
X368524Y312524D02*
X371000Y315000D01*
X368524Y312524D02*
X363540Y312524D01*
D40*
X401000Y313000D03*
D43*
X398000Y313000D01*
X394500Y309500D02*
X394500Y303000D01*
X360040Y309024D02*
X323432Y309024D01*
X394500Y309500D02*
X398000Y313000D01*
X298500Y320544D02*
X298500Y326500D01*
X313476Y341476D02*
X313476Y349694D01*
X313476Y341476D02*
X298500Y326500D01*
X313476Y349694D02*
X291218Y371952D01*
X113500Y350500D02*
X113500Y336100D01*
X134952Y371952D02*
X291218Y371952D01*
X134952Y371952D02*
X113500Y350500D01*
X278500Y361000D02*
X278500Y335346D01*
X278452Y335298D01*
X278452Y330702D01*
X278500Y330654D01*
X278500Y320544D01*
X278500Y361000D02*
X271072Y368428D01*
X143500Y349500D02*
X143500Y336100D01*
X162428Y368428D02*
X271072Y368428D01*
X162428Y368428D02*
X143500Y349500D01*
X248500Y337500D02*
X248500Y320544D01*
X248500Y337500D02*
X252000Y341000D01*
D42*
X252000Y341000D03*
X497000Y250404D03*
D43*
X490404Y250404D01*
X486000Y246000D01*
X263500Y320544D02*
X263500Y352084D01*
X266208Y354792D01*
D42*
X266208Y354792D03*
X497000Y258476D03*
D43*
X486524Y258476D01*
X486000Y259000D01*
X258500Y320544D02*
X258500Y360500D01*
X258000Y361000D01*
D42*
X258000Y361000D03*
X497000Y266548D03*
D43*
X491452Y266548D01*
X486000Y272000D01*
X107062Y249845D02*
X101000Y255907D01*
X101000Y270000D01*
X113048Y282048D01*
X166000Y285048D02*
X166000Y285096D01*
X166000Y285048D02*
X163000Y282048D01*
D40*
X166000Y285096D03*
D43*
X163000Y282048D02*
X113048Y282048D01*
D40*
X334010Y299952D03*
D43*
X318500Y293500D02*
X305544Y293500D01*
X320890Y295890D02*
X320890Y296514D01*
X324328Y299952D01*
X334010Y299952D01*
X320890Y295890D02*
X318500Y293500D01*
X114133Y256916D02*
X110000Y261049D01*
X110000Y269000D01*
X119524Y278524D01*
D40*
X173000Y278524D03*
D43*
X119524Y278524D01*
D40*
X326438Y294216D03*
D43*
X320722Y288500D01*
X305544Y288500D01*
X121204Y263987D02*
X118000Y267191D01*
X118000Y272000D01*
X121000Y275000D01*
X168000Y275000D02*
X172048Y270952D01*
X177000Y270952D01*
D40*
X177000Y270952D03*
D43*
X168000Y275000D02*
X121000Y275000D01*
D40*
X334010Y286644D03*
D43*
X330866Y283500D01*
X305544Y283500D01*
D42*
X232000Y214000D03*
D43*
X232000Y224968D01*
X253500Y246468D01*
X253500Y251456D01*
D42*
X223000Y200000D03*
D43*
X223000Y214170D01*
X228072Y219242D01*
X248500Y246516D02*
X248500Y251456D01*
X228072Y226088D02*
X228072Y219242D01*
X228072Y226088D02*
X248500Y246516D01*
D42*
X202124Y177124D03*
D43*
X215124Y190124D01*
X215124Y207000D02*
X215124Y211278D01*
X215124Y207000D02*
X215124Y190124D01*
X243500Y246500D02*
X243500Y251456D01*
X224548Y220702D02*
X215124Y211278D01*
X224548Y220702D02*
X224548Y227548D01*
X243500Y246500D01*
X236456Y263500D02*
X229436Y263500D01*
X228968Y263032D01*
D40*
X228968Y263032D03*
X192000Y258000D03*
D43*
X183254Y266746D01*
X183254Y276254D02*
X150444Y309064D01*
X150444Y344444D02*
X156000Y350000D01*
X168000Y350000D01*
X173500Y344500D02*
X173500Y336100D01*
X183254Y276254D02*
X183254Y266746D01*
X150444Y309064D02*
X150444Y344444D01*
X168000Y350000D02*
X173500Y344500D01*
D40*
X221000Y264452D03*
D43*
X231346Y268500D02*
X236456Y268500D01*
X231346Y268500D02*
X231266Y268580D01*
X225128Y268580D01*
X221000Y264452D01*
D40*
X201572Y264452D03*
D43*
X191548Y264452D01*
X186778Y269222D02*
X186778Y277714D01*
X153968Y310524D01*
X186778Y269222D02*
X191548Y264452D01*
X153968Y310524D02*
X153968Y320968D01*
X158500Y325500D02*
X158500Y336100D01*
X158500Y325500D02*
X153968Y320968D01*
X75409Y232000D02*
X82313Y225096D01*
X75409Y232000D02*
X63000Y232000D01*
X89500Y246193D02*
X96455Y239238D01*
X89500Y246193D02*
X87000Y260000D01*
D44*
X79605Y249017D02*
X92920Y235703D01*
X76541Y259574D02*
X77000Y260000D01*
X42750Y222000D02*
X22000Y242750D01*
X22000Y259750D01*
X79605Y256510D02*
X79605Y249017D01*
X79605Y256510D02*
X76541Y259574D01*
X77000Y260000D02*
X66000Y260000D01*
D42*
X66000Y260000D03*
X43000Y262000D03*
D44*
X42750Y262000D01*
X42750Y222000D01*
D43*
X78409Y212000D02*
X82313Y215904D01*
X76000Y212000D02*
X68000Y220000D01*
D40*
X68000Y220000D03*
X58000Y254000D03*
D43*
X58000Y263000D01*
X67000Y272000D01*
X76000Y212000D02*
X78409Y212000D01*
X67000Y272000D02*
X52000Y272000D01*
D40*
X450000Y175000D03*
X450000Y154000D03*
X450000Y133000D03*
X450000Y112000D03*
X187000Y140000D03*
X187000Y134000D03*
X181000Y134000D03*
X181000Y140000D03*
X175000Y140000D03*
X175000Y134000D03*
X169000Y140000D03*
X169000Y134000D03*
X163000Y134000D03*
X163000Y140000D03*
X157000Y140000D03*
X157000Y134000D03*
X130000Y140000D03*
X130000Y134000D03*
X124000Y134000D03*
X124000Y140000D03*
X118000Y140000D03*
X118000Y134000D03*
X112000Y140000D03*
X112000Y134000D03*
X106000Y134000D03*
X106000Y140000D03*
X100000Y140000D03*
X100000Y134000D03*
X284000Y133000D03*
X284000Y127000D03*
X278000Y127000D03*
X278000Y133000D03*
X272000Y133000D03*
X272000Y127000D03*
X266000Y133000D03*
X266000Y127000D03*
X260000Y127000D03*
X260000Y133000D03*
X254000Y133000D03*
X254000Y127000D03*
X242000Y133000D03*
X242000Y127000D03*
X236000Y127000D03*
X236000Y133000D03*
X230000Y133000D03*
X230000Y127000D03*
X224000Y133000D03*
X224000Y127000D03*
X218000Y127000D03*
X218000Y133000D03*
X212000Y133000D03*
X212000Y127000D03*
X340000Y140000D03*
X340000Y134000D03*
X334000Y134000D03*
X334000Y140000D03*
X328000Y140000D03*
X328000Y134000D03*
X322000Y140000D03*
X322000Y134000D03*
X316000Y134000D03*
X316000Y140000D03*
X310000Y140000D03*
X310000Y134000D03*
X38000Y127000D03*
X38000Y133000D03*
X32000Y133000D03*
X32000Y127000D03*
X74000Y133000D03*
X74000Y127000D03*
X68000Y127000D03*
X68000Y133000D03*
X62000Y133000D03*
X62000Y127000D03*
X56000Y133000D03*
X56000Y127000D03*
X50000Y127000D03*
X50000Y133000D03*
X44000Y133000D03*
X44000Y127000D03*
D43*
X217250Y291750D02*
X218750Y291750D01*
X206750Y302250D02*
X205250Y302250D01*
X206750Y302250D02*
X217250Y291750D01*
X205250Y302250D02*
X195500Y312000D01*
X195000Y312000D01*
D40*
X195000Y312000D03*
D43*
X199000Y316000D02*
X207000Y316000D01*
X199000Y316000D02*
X195000Y312000D01*
X190000Y307000D02*
X190000Y302000D01*
X190000Y307000D02*
X195000Y312000D01*
X389500Y303000D02*
X389500Y325500D01*
X392000Y328000D01*
X105000Y298000D02*
X87000Y298000D01*
X87000Y291000D01*
D40*
X87000Y291000D03*
D43*
X68000Y283000D02*
X67000Y282000D01*
X68000Y283000D02*
X68000Y289000D01*
D40*
X68000Y289000D03*
D43*
X123000Y293000D02*
X133000Y293000D01*
D40*
X123000Y293000D03*
X126000Y248000D03*
X141000Y236000D03*
X141000Y207000D03*
X126000Y221000D03*
X126000Y191000D03*
X112000Y206000D03*
X97000Y221000D03*
X111000Y234000D03*
D43*
X228000Y358000D02*
X244000Y358000D01*
X228000Y358000D02*
X225000Y361000D01*
X221000Y361000D01*
D40*
X221000Y361000D03*
D43*
X268000Y231000D02*
X268000Y215000D01*
X268000Y231000D02*
X268000Y237000D01*
X271000Y240000D01*
D40*
X271000Y240000D03*
D43*
X295000Y203000D02*
X316000Y203000D01*
X316000Y194000D01*
D40*
X316000Y194000D03*
D43*
X281000Y183000D02*
X276000Y183000D01*
X281000Y183000D02*
X284000Y186000D01*
D40*
X284000Y186000D03*
D43*
X340000Y321000D02*
X348000Y321000D01*
D40*
X348000Y321000D03*
D43*
X334000Y228000D02*
X327000Y228000D01*
D40*
X334000Y228000D03*
D43*
X47500Y321000D02*
X47000Y320500D01*
X47500Y321000D02*
X57000Y321000D01*
X40000Y340000D02*
X38000Y342000D01*
X28500Y342000D01*
X28000Y342500D01*
D40*
X40000Y340000D03*
D43*
X17000Y307000D02*
X8000Y307000D01*
D40*
X8000Y307000D03*
D43*
X47000Y320500D02*
X47000Y327000D01*
D40*
X47000Y327000D03*
X247000Y310000D03*
X271000Y310000D03*
X295000Y310000D03*
X295000Y262000D03*
X271000Y262000D03*
X247000Y262000D03*
D43*
X394500Y273000D02*
X394500Y280500D01*
X388000Y287000D01*
X387000Y288000D01*
X389500Y288500D02*
X389500Y303000D01*
X389500Y288500D02*
X388000Y287000D01*
X396000Y324000D02*
X401000Y324000D01*
X396000Y324000D02*
X392000Y328000D01*
D40*
X401000Y324000D03*
D43*
X339000Y264000D02*
X339000Y262000D01*
X347000Y254000D01*
D40*
X347000Y254000D03*
D43*
X271000Y286000D02*
X247000Y310000D01*
D45*
X13500Y197500D02*
X13500Y189000D01*
X13500Y197500D02*
X8000Y203000D01*
D40*
X8000Y203000D03*
D45*
X19000Y166000D02*
X28500Y166000D01*
D40*
X19000Y166000D03*
D45*
X11250Y222000D02*
X11250Y235750D01*
D43*
X11000Y236000D01*
D40*
X11000Y236000D03*
D43*
X80000Y160000D02*
X79000Y159000D01*
X71500Y159000D01*
D40*
X80000Y160000D03*
D43*
X58000Y314000D02*
X57000Y315000D01*
X57000Y321000D01*
X126000Y252520D02*
X133932Y260452D01*
X126000Y252520D02*
X126000Y248000D01*
X108764Y234000D02*
X99991Y242774D01*
X108764Y234000D02*
X111000Y234000D01*
X94480Y221000D02*
X85848Y212368D01*
X94480Y221000D02*
X97000Y221000D01*
X125800Y220500D02*
X126000Y220700D01*
X126000Y221000D01*
D41*
X197600Y202700D02*
X197600Y202400D01*
X200000Y200000D01*
D42*
X200000Y200000D03*
D43*
X204000Y249000D02*
X209000Y249000D01*
X212000Y246000D01*
D40*
X212000Y246000D03*
D43*
X162216Y232167D02*
X154049Y224000D01*
X153000Y224000D01*
X141000Y236000D01*
X253500Y311500D02*
X253500Y320544D01*
X252000Y310000D02*
X247000Y310000D01*
X252000Y310000D02*
X253500Y311500D01*
X201000Y272000D02*
X194520Y271520D01*
X192326Y271520D01*
D40*
X192326Y271520D03*
D43*
X301000Y190000D02*
X301000Y185000D01*
X301000Y190000D02*
X297000Y194000D01*
D40*
X297000Y194000D03*
D42*
X155000Y221000D03*
D43*
X356000Y285000D02*
X360000Y281000D01*
X356000Y285000D02*
X356000Y290000D01*
D40*
X356000Y290000D03*
D43*
X188500Y336100D02*
X188500Y337500D01*
X195000Y344000D01*
D40*
X195000Y344000D03*
D43*
X195000Y341000D01*
X207000Y329000D01*
X439000Y272000D02*
X448000Y272000D01*
X439000Y272000D02*
X432000Y279000D01*
D40*
X432000Y279000D03*
D43*
X448000Y272000D02*
X448000Y259000D01*
X448000Y246000D01*
D40*
X73000Y53000D03*
X73000Y59000D03*
X67000Y59000D03*
X67000Y53000D03*
X61000Y53000D03*
X61000Y59000D03*
X55000Y59000D03*
X55000Y53000D03*
X49000Y53000D03*
X49000Y59000D03*
X73000Y65000D03*
X73000Y71000D03*
X67000Y71000D03*
X67000Y65000D03*
X61000Y65000D03*
X61000Y71000D03*
X55000Y71000D03*
X55000Y65000D03*
X49000Y65000D03*
X49000Y71000D03*
X37000Y53000D03*
X37000Y59000D03*
X37000Y65000D03*
X37000Y71000D03*
X43000Y53000D03*
X43000Y59000D03*
X43000Y65000D03*
X43000Y71000D03*
X240000Y52000D03*
X240000Y58000D03*
X234000Y58000D03*
X234000Y52000D03*
X228000Y52000D03*
X228000Y58000D03*
X222000Y58000D03*
X222000Y52000D03*
X216000Y52000D03*
X216000Y58000D03*
X240000Y64000D03*
X240000Y70000D03*
X234000Y70000D03*
X234000Y64000D03*
X228000Y64000D03*
X228000Y70000D03*
X222000Y70000D03*
X222000Y64000D03*
X216000Y64000D03*
X216000Y70000D03*
X279000Y52000D03*
X279000Y58000D03*
X273000Y58000D03*
X273000Y52000D03*
X267000Y52000D03*
X267000Y58000D03*
X261000Y58000D03*
X261000Y52000D03*
X255000Y52000D03*
X255000Y58000D03*
X279000Y64000D03*
X279000Y70000D03*
X273000Y70000D03*
X273000Y64000D03*
X267000Y64000D03*
X267000Y70000D03*
X261000Y70000D03*
X261000Y64000D03*
X255000Y64000D03*
X255000Y70000D03*
X285000Y52000D03*
X285000Y58000D03*
X285000Y64000D03*
X285000Y70000D03*
D44*
X43500Y188000D02*
X42500Y189000D01*
X43500Y188000D02*
X43500Y166000D01*
X16000Y138500D01*
X16000Y106000D01*
X50500Y159000D02*
X43500Y166000D01*
X50500Y159000D02*
X56500Y159000D01*
X56500Y171000D02*
X65500Y180000D01*
X56500Y171000D02*
X56500Y159000D01*
X65500Y180000D02*
X74500Y189000D01*
X90764Y189000D02*
X99991Y198226D01*
X90764Y189000D02*
X74500Y189000D01*
X348000Y243000D02*
X357000Y234000D01*
X357000Y139000D02*
X370000Y126000D01*
X357000Y139000D02*
X357000Y234000D01*
X103526Y194691D02*
X99991Y198226D01*
X85848Y228632D02*
X72480Y242000D01*
X63000Y242000D01*
X57000Y242000D01*
X54000Y239000D01*
X54000Y192000D01*
X51000Y189000D01*
X42500Y189000D01*
D39*
X16000Y106000D03*
X16000Y97000D03*
D43*
X389500Y267500D02*
X389500Y273000D01*
X389500Y267500D02*
X391000Y266000D01*
X408000Y266000D01*
X412000Y270000D02*
X420000Y270000D01*
X412000Y270000D02*
X408000Y266000D01*
X423000Y270000D02*
X428000Y265000D01*
X423000Y270000D02*
X420000Y270000D01*
D40*
X428000Y265000D03*
D43*
X420000Y260000D02*
X390000Y260000D01*
X384500Y265500D02*
X384500Y273000D01*
X384500Y265500D02*
X390000Y260000D01*
X420000Y260000D02*
X420000Y259000D01*
X424000Y255000D01*
X435000Y255000D01*
D40*
X435000Y255000D03*
D43*
X81500Y181000D02*
X80500Y180000D01*
X81500Y181000D02*
X89000Y181000D01*
D40*
X89000Y181000D03*
X87106Y195894D03*
D43*
X90588Y195894D01*
X96455Y201762D01*
X92920Y205297D02*
X89065Y201442D01*
X74737Y196000D02*
X63000Y196000D01*
X80180Y201442D02*
X89065Y201442D01*
X80180Y201442D02*
X74737Y196000D01*
X85518Y204966D02*
X89384Y208833D01*
X64034Y204966D02*
X63000Y206000D01*
X64034Y204966D02*
X85518Y204966D01*
X130396Y263987D02*
X135409Y269000D01*
X139000Y269000D01*
D40*
X139000Y269000D03*
X146000Y303000D03*
D43*
X143000Y300000D02*
X143000Y293000D01*
X143000Y300000D02*
X146000Y303000D01*
X143029Y255407D02*
X141003Y253380D01*
X143029Y255407D02*
X143029Y262029D01*
D40*
X143029Y262029D03*
D43*
X121000Y257120D02*
X117668Y260452D01*
X116451Y251422D02*
X112555Y251422D01*
X121000Y255971D02*
X121000Y257120D01*
X121000Y255971D02*
X116451Y251422D01*
X112555Y251422D02*
X110597Y253380D01*
X112555Y251422D02*
X112555Y247527D01*
X109380Y244351D01*
X105484Y244351D01*
X103526Y246309D01*
X99544Y250292D01*
X97000Y250292D01*
D40*
X97000Y250292D03*
X317000Y277000D03*
D43*
X315500Y278500D01*
X305544Y278500D01*
D40*
X126000Y45000D03*
X126000Y51000D03*
X120000Y51000D03*
X120000Y45000D03*
X114000Y45000D03*
X114000Y51000D03*
X108000Y51000D03*
X108000Y45000D03*
X102000Y45000D03*
X102000Y51000D03*
X126000Y57000D03*
X126000Y63000D03*
X120000Y63000D03*
X120000Y57000D03*
X114000Y57000D03*
X114000Y63000D03*
X108000Y63000D03*
X108000Y57000D03*
X102000Y57000D03*
X102000Y63000D03*
X132000Y45000D03*
X132000Y51000D03*
X132000Y57000D03*
X132000Y63000D03*
X96000Y45000D03*
X96000Y51000D03*
X96000Y57000D03*
X96000Y63000D03*
D43*
X94476Y61476D01*
X95000Y172022D02*
X110597Y187620D01*
X95000Y172022D02*
X95000Y170000D01*
D42*
X95000Y170000D03*
X17000Y156000D03*
D43*
X17000Y146263D01*
X9218Y138481D01*
X34250Y41750D02*
X51250Y41750D01*
X9218Y66782D02*
X9218Y138481D01*
X9218Y66782D02*
X34250Y41750D01*
D40*
X183000Y46000D03*
X183000Y52000D03*
X177000Y52000D03*
X177000Y46000D03*
X171000Y46000D03*
X171000Y52000D03*
X165000Y52000D03*
X165000Y46000D03*
X159000Y46000D03*
X159000Y52000D03*
X183000Y58000D03*
X183000Y64000D03*
X177000Y64000D03*
X177000Y58000D03*
X171000Y58000D03*
X171000Y64000D03*
X165000Y64000D03*
X165000Y58000D03*
X159000Y58000D03*
X159000Y64000D03*
X189000Y46000D03*
X189000Y52000D03*
X189000Y58000D03*
X189000Y64000D03*
X153000Y46000D03*
X153000Y52000D03*
X153000Y58000D03*
X153000Y64000D03*
D43*
X148201Y180422D02*
X141003Y187620D01*
X148201Y180422D02*
X160550Y180422D01*
X203000Y137972D02*
X203000Y76000D01*
X191000Y64000D01*
X189000Y64000D01*
X203000Y137972D02*
X160550Y180422D01*
D40*
X333000Y46000D03*
X333000Y52000D03*
X327000Y52000D03*
X327000Y46000D03*
X321000Y46000D03*
X321000Y52000D03*
X315000Y52000D03*
X315000Y46000D03*
X309000Y46000D03*
X309000Y52000D03*
X333000Y58000D03*
X333000Y64000D03*
X327000Y64000D03*
X327000Y58000D03*
X321000Y58000D03*
X321000Y64000D03*
X315000Y64000D03*
X315000Y58000D03*
X309000Y58000D03*
X309000Y64000D03*
X339000Y46000D03*
X339000Y52000D03*
X339000Y58000D03*
X339000Y64000D03*
D43*
X158418Y191418D02*
X151609Y198226D01*
X158418Y191418D02*
X164505Y191418D01*
X200495Y155428D01*
X285556Y155428D01*
X293524Y147460D01*
X293524Y85460D02*
X295524Y83460D01*
X295524Y77476D01*
X309000Y64000D01*
X293524Y85460D02*
X293524Y147460D01*
X84952Y50952D02*
X75750Y41750D01*
X70750Y41750D01*
X84952Y152952D02*
X90952Y158952D01*
X84952Y152952D02*
X84952Y50952D01*
X90952Y165848D02*
X89202Y167598D01*
X90952Y165848D02*
X90952Y158952D01*
X89202Y173295D02*
X107062Y191155D01*
X89202Y173295D02*
X89202Y167598D01*
X197575Y148380D02*
X239620Y148380D01*
X248000Y140000D02*
X248000Y47000D01*
X242500Y41500D01*
X237750Y41500D01*
X248000Y140000D02*
X239620Y148380D01*
X197575Y148380D02*
X162010Y183946D01*
X151748Y183946D02*
X144538Y191155D01*
X151748Y183946D02*
X162010Y183946D01*
X163470Y187470D02*
X199035Y151904D01*
X284096Y151904D01*
X290000Y146000D01*
X155295Y187470D02*
X148074Y194691D01*
X155295Y187470D02*
X163470Y187470D01*
X292000Y82000D02*
X292000Y47000D01*
X286500Y41500D01*
X278750Y41500D01*
X290000Y84000D02*
X290000Y146000D01*
X290000Y84000D02*
X292000Y82000D01*
X105250Y72500D02*
X94500Y72500D01*
X89000Y78000D01*
X89000Y147033D01*
X98000Y156033D01*
X98000Y164800D01*
X100798Y167598D01*
X100798Y170749D01*
X114133Y184084D01*
X137467Y184084D02*
X147551Y174000D01*
X148000Y174000D01*
D40*
X148000Y174000D03*
X133000Y162000D03*
D43*
X145000Y150000D01*
X145000Y82000D01*
X154500Y72500D01*
X162250Y72500D01*
X287016Y158952D02*
X297048Y148920D01*
X161145Y195762D02*
X155145Y201762D01*
X161145Y195762D02*
X165145Y195762D01*
X201955Y158952D01*
X287016Y158952D01*
X300000Y81000D02*
X308000Y73000D01*
X314750Y73000D01*
X315250Y73500D01*
X297048Y87081D02*
X297048Y148920D01*
X297048Y87081D02*
X300000Y84129D01*
X300000Y81000D01*
X117668Y180548D02*
X109947Y172828D01*
X109947Y172053D01*
D40*
X109947Y172053D03*
X122000Y166000D03*
D43*
X122000Y161984D01*
X140524Y143460D01*
X140524Y111540D01*
X135460Y106476D01*
X119476Y106476D01*
X116000Y103000D02*
X116000Y93000D01*
X116000Y103000D02*
X119476Y106476D01*
X145702Y168452D02*
X142452Y171702D01*
X145702Y168452D02*
X167536Y168452D01*
X142452Y172028D02*
X133932Y180548D01*
X142452Y172028D02*
X142452Y171702D01*
X167536Y168452D02*
X199476Y136512D01*
X199476Y111476D01*
X194000Y106000D01*
X175000Y106000D01*
X172000Y103000D02*
X172000Y93000D01*
X172000Y103000D02*
X175000Y106000D01*
X288475Y162476D02*
X300572Y150379D01*
X288475Y162476D02*
X203502Y162476D01*
X166680Y199297D01*
X164680Y199297D02*
X158680Y205297D01*
X164680Y199297D02*
X166680Y199297D01*
X325000Y104000D02*
X325000Y93000D01*
X322524Y106476D02*
X306636Y106476D01*
X300572Y112540D01*
X322524Y106476D02*
X325000Y104000D01*
X300572Y112540D02*
X300572Y150379D01*
D40*
X335000Y80000D03*
X329000Y80000D03*
X323000Y80000D03*
X313000Y88000D03*
X319000Y88000D03*
X341000Y80000D03*
X313000Y94000D03*
X313000Y100000D03*
X319000Y94000D03*
X319000Y100000D03*
X341000Y74000D03*
X335000Y74000D03*
X323000Y74000D03*
X329000Y74000D03*
X307000Y88000D03*
X307000Y94000D03*
X307000Y100000D03*
X313000Y82000D03*
X307000Y82000D03*
X338000Y88000D03*
X344000Y88000D03*
X338000Y94000D03*
X338000Y100000D03*
X344000Y94000D03*
X344000Y100000D03*
X332000Y88000D03*
X332000Y94000D03*
X332000Y100000D03*
X182000Y80000D03*
X176000Y80000D03*
X170000Y80000D03*
X160000Y88000D03*
X166000Y88000D03*
X188000Y80000D03*
X160000Y94000D03*
X160000Y100000D03*
X166000Y94000D03*
X166000Y100000D03*
X188000Y74000D03*
X182000Y74000D03*
X170000Y74000D03*
X176000Y74000D03*
X154000Y88000D03*
X154000Y94000D03*
X154000Y100000D03*
X160000Y82000D03*
X154000Y82000D03*
X185000Y88000D03*
X191000Y88000D03*
X185000Y94000D03*
X185000Y100000D03*
X191000Y94000D03*
X191000Y100000D03*
X179000Y88000D03*
X179000Y94000D03*
X179000Y100000D03*
X126000Y80000D03*
X120000Y80000D03*
X114000Y80000D03*
X104000Y88000D03*
X110000Y88000D03*
X132000Y80000D03*
X104000Y94000D03*
X104000Y100000D03*
X110000Y94000D03*
X110000Y100000D03*
X132000Y74000D03*
X126000Y74000D03*
X114000Y74000D03*
X120000Y74000D03*
X98000Y88000D03*
X98000Y94000D03*
X98000Y100000D03*
X104000Y82000D03*
X98000Y82000D03*
X129000Y88000D03*
X135000Y88000D03*
X129000Y94000D03*
X129000Y100000D03*
X135000Y94000D03*
X135000Y100000D03*
X123000Y88000D03*
X123000Y94000D03*
X123000Y100000D03*
D43*
X116000Y171809D02*
X121204Y177013D01*
X137000Y113000D02*
X134000Y110000D01*
X117931Y110000D01*
X116000Y111931D01*
X116000Y163000D02*
X116000Y171809D01*
X116000Y163000D02*
X137000Y142000D01*
X137000Y113000D01*
X116000Y111931D02*
X116000Y121000D01*
X148524Y158885D02*
X130396Y177013D01*
X148524Y110476D02*
X150000Y109000D01*
X148524Y110476D02*
X148524Y158885D01*
X172000Y121000D02*
X172000Y111000D01*
X170000Y109000D01*
X150000Y109000D01*
X205049Y166000D02*
X162216Y208833D01*
X304096Y151839D02*
X304096Y114000D01*
X289935Y166000D02*
X205049Y166000D01*
X289935Y166000D02*
X304096Y151839D01*
X304096Y114000D02*
X308096Y110000D01*
X323070Y110000D01*
X325000Y111931D01*
X325000Y121000D01*
X176000Y242000D02*
X173000Y239000D01*
X161978Y239000D01*
X158680Y235703D01*
D40*
X214048Y235000D03*
D43*
X171643Y227452D02*
X169287Y225096D01*
X211024Y230455D02*
X211024Y231976D01*
X214048Y235000D01*
X208022Y227452D02*
X171643Y227452D01*
X208022Y227452D02*
X211024Y230455D01*
D40*
X226000Y238452D03*
D43*
X226000Y251606D01*
X215452Y262154D01*
X215452Y266750D02*
X222202Y273500D01*
X236456Y273500D01*
X215452Y266750D02*
X215452Y262154D01*
X211928Y260694D02*
X211928Y268210D01*
X211928Y260694D02*
X220000Y252622D01*
X229456Y278500D02*
X236456Y278500D01*
X229456Y278500D02*
X228504Y277548D01*
X221266Y277548D01*
X211928Y268210D01*
X184555Y222724D02*
X174831Y213000D01*
X184555Y222724D02*
X209724Y222724D01*
X174831Y213000D02*
X172191Y213000D01*
X169287Y215904D01*
X220000Y233000D02*
X220000Y252622D01*
X220000Y233000D02*
X209724Y222724D01*
D40*
X219000Y223000D03*
X260120Y222000D03*
D43*
X260120Y237120D01*
X268500Y245500D02*
X268500Y251456D01*
X268500Y245500D02*
X260120Y237120D01*
X168644Y209476D02*
X165752Y212368D01*
X168644Y209476D02*
X176290Y209476D01*
X186014Y219200D02*
X211184Y219200D01*
X214984Y223000D02*
X219000Y223000D01*
X214984Y223000D02*
X211184Y219200D01*
X186014Y219200D02*
X176290Y209476D01*
D38*
X27000Y285250D02*
X22000Y280250D01*
X27000Y285250D02*
X27000Y307000D01*
X47000Y307500D02*
X47000Y314000D01*
X52000Y282000D02*
X23750Y282000D01*
X22000Y280250D01*
X384500Y303000D02*
X384500Y325500D01*
X382000Y328000D01*
X324000Y386000D01*
X228000Y386000D01*
D40*
X228000Y386000D03*
X15000Y351000D03*
D41*
X27000Y327000D02*
X27000Y307000D01*
X27500Y327500D02*
X28000Y327500D01*
X27500Y327500D02*
X27000Y327000D01*
X28000Y327500D02*
X15000Y340500D01*
X15000Y351000D01*
X47000Y307500D02*
X46500Y307000D01*
X27000Y307000D01*
D43*
X229500Y293500D02*
X236456Y293500D01*
X229500Y293500D02*
X220750Y302250D01*
X218750Y302250D01*
X218750Y314250D02*
X217000Y316000D01*
X218750Y314250D02*
X218750Y302250D01*
X205000Y292000D02*
X190000Y292000D01*
X205000Y292000D02*
X205250Y291750D01*
X227070Y288500D02*
X236456Y288500D01*
X227070Y288500D02*
X224046Y285476D01*
X211524Y285476D02*
X205250Y291750D01*
X211524Y285476D02*
X224046Y285476D01*
X227053Y283500D02*
X236456Y283500D01*
X227053Y283500D02*
X225505Y281952D01*
X160000Y309476D02*
X160000Y313000D01*
D40*
X160000Y313000D03*
X92000Y349000D03*
D43*
X98500Y342500D01*
X98500Y336100D01*
X201000Y282000D02*
X201048Y281952D01*
X225505Y281952D01*
X201000Y282000D02*
X187476Y282000D01*
X160000Y309476D01*
X329000Y252000D02*
X338000Y243000D01*
X329000Y252000D02*
X329000Y264000D01*
X323500Y258500D01*
X305544Y258500D01*
X458000Y272000D02*
X470000Y272000D01*
X470000Y259000D02*
X458000Y259000D01*
X458000Y246000D02*
X470000Y246000D01*
D38*
X316000Y213000D02*
X295000Y213000D01*
X288000Y220000D01*
X288000Y238000D01*
X283500Y242500D01*
X283500Y251456D01*
X309000Y220000D02*
X316000Y213000D01*
D40*
X309000Y220000D03*
D41*
X317500Y214500D02*
X337000Y214500D01*
X317500Y214500D02*
X316000Y213000D01*
M02*
