G04 EAGLE Gerber RS-274X export*
G75*
%MOMM*%
%FSLAX34Y34*%
%LPD*%
%INSoldermask Top*%
%IPPOS*%
%AMOC8*
5,1,8,0,0,1.08239X$1,22.5*%
G01*
%ADD10C,2.177000*%
%ADD11R,5.277000X5.277000*%
%ADD12R,0.727000X0.367000*%
%ADD13R,0.727000X0.827000*%
%ADD14R,0.527000X0.527000*%
%ADD15R,2.900000X2.400000*%
%ADD16R,0.550000X0.450000*%
%ADD17R,0.939800X0.431800*%
%ADD18R,0.431800X0.939800*%
%ADD19R,5.816600X5.816600*%
%ADD20R,0.727000X1.027000*%
%ADD21R,0.827000X0.727000*%
%ADD22C,2.377000*%
%ADD23R,3.127000X1.377000*%
%ADD24R,1.027000X0.727000*%
%ADD25R,1.027000X1.077000*%
%ADD26C,1.627000*%
%ADD27C,2.677000*%
%ADD28R,1.727000X1.027000*%
%ADD29R,1.027000X1.727000*%
%ADD30R,1.587000X1.487000*%
%ADD31R,0.427000X0.877000*%
%ADD32R,0.327000X1.727000*%
%ADD33R,1.177000X1.727000*%
%ADD34R,0.977000X0.877000*%
%ADD35R,1.127000X1.927000*%
%ADD36R,0.927000X0.527000*%
%ADD37R,0.727000X1.127000*%
%ADD38R,1.377000X1.927000*%
%ADD39R,0.927000X0.927000*%
%ADD40C,0.831800*%
%ADD41C,0.731800*%
%ADD42C,0.781800*%

G36*
X35550Y251005D02*
X35550Y251005D01*
X35600Y251003D01*
X35772Y251025D01*
X35945Y251041D01*
X35993Y251054D01*
X36043Y251060D01*
X36208Y251113D01*
X36376Y251159D01*
X36421Y251181D01*
X36468Y251196D01*
X36622Y251277D01*
X36778Y251352D01*
X36819Y251382D01*
X36863Y251405D01*
X37000Y251512D01*
X37140Y251614D01*
X37175Y251650D01*
X37214Y251681D01*
X37330Y251811D01*
X37450Y251936D01*
X37477Y251978D01*
X37511Y252016D01*
X37601Y252164D01*
X37697Y252308D01*
X37717Y252355D01*
X37743Y252397D01*
X37805Y252559D01*
X37874Y252719D01*
X37885Y252767D01*
X37903Y252814D01*
X37936Y252985D01*
X37975Y253154D01*
X37978Y253204D01*
X37987Y253253D01*
X37999Y253500D01*
X37999Y259000D01*
X37995Y259050D01*
X37997Y259100D01*
X37975Y259272D01*
X37959Y259445D01*
X37946Y259493D01*
X37940Y259543D01*
X37887Y259708D01*
X37841Y259876D01*
X37819Y259921D01*
X37804Y259968D01*
X37723Y260122D01*
X37648Y260278D01*
X37618Y260319D01*
X37595Y260363D01*
X37488Y260500D01*
X37386Y260640D01*
X37350Y260675D01*
X37319Y260714D01*
X37189Y260830D01*
X37064Y260950D01*
X37022Y260977D01*
X36984Y261011D01*
X36836Y261101D01*
X36692Y261197D01*
X36646Y261217D01*
X36603Y261243D01*
X36441Y261305D01*
X36281Y261374D01*
X36233Y261385D01*
X36186Y261403D01*
X36015Y261436D01*
X35846Y261475D01*
X35796Y261478D01*
X35747Y261487D01*
X35500Y261499D01*
X8500Y261499D01*
X8450Y261495D01*
X8400Y261497D01*
X8228Y261475D01*
X8055Y261459D01*
X8007Y261446D01*
X7957Y261440D01*
X7792Y261387D01*
X7624Y261341D01*
X7579Y261319D01*
X7532Y261304D01*
X7378Y261223D01*
X7222Y261148D01*
X7181Y261118D01*
X7137Y261095D01*
X7001Y260988D01*
X6860Y260886D01*
X6825Y260850D01*
X6786Y260819D01*
X6670Y260689D01*
X6550Y260564D01*
X6523Y260522D01*
X6489Y260484D01*
X6399Y260336D01*
X6303Y260192D01*
X6283Y260146D01*
X6257Y260103D01*
X6195Y259941D01*
X6126Y259781D01*
X6115Y259733D01*
X6097Y259686D01*
X6064Y259515D01*
X6025Y259346D01*
X6022Y259296D01*
X6013Y259247D01*
X6001Y259000D01*
X6001Y253500D01*
X6005Y253450D01*
X6003Y253400D01*
X6025Y253228D01*
X6041Y253055D01*
X6054Y253007D01*
X6060Y252957D01*
X6113Y252792D01*
X6159Y252624D01*
X6181Y252579D01*
X6196Y252532D01*
X6277Y252378D01*
X6352Y252222D01*
X6382Y252181D01*
X6405Y252137D01*
X6512Y252001D01*
X6614Y251860D01*
X6650Y251825D01*
X6681Y251786D01*
X6811Y251670D01*
X6936Y251550D01*
X6978Y251523D01*
X7016Y251489D01*
X7164Y251399D01*
X7308Y251303D01*
X7355Y251283D01*
X7397Y251257D01*
X7559Y251195D01*
X7719Y251126D01*
X7767Y251115D01*
X7814Y251097D01*
X7985Y251064D01*
X8154Y251025D01*
X8204Y251022D01*
X8253Y251013D01*
X8500Y251001D01*
X35500Y251001D01*
X35550Y251005D01*
G37*
G36*
X35550Y278505D02*
X35550Y278505D01*
X35600Y278503D01*
X35772Y278525D01*
X35945Y278541D01*
X35993Y278554D01*
X36043Y278560D01*
X36208Y278613D01*
X36376Y278659D01*
X36421Y278681D01*
X36468Y278696D01*
X36622Y278777D01*
X36778Y278852D01*
X36819Y278882D01*
X36863Y278905D01*
X37000Y279012D01*
X37140Y279114D01*
X37175Y279150D01*
X37214Y279181D01*
X37330Y279311D01*
X37450Y279436D01*
X37477Y279478D01*
X37511Y279516D01*
X37601Y279664D01*
X37697Y279808D01*
X37717Y279855D01*
X37743Y279897D01*
X37805Y280059D01*
X37874Y280219D01*
X37885Y280267D01*
X37903Y280314D01*
X37936Y280485D01*
X37975Y280654D01*
X37978Y280704D01*
X37987Y280753D01*
X37999Y281000D01*
X37999Y286500D01*
X37995Y286550D01*
X37997Y286600D01*
X37975Y286772D01*
X37959Y286945D01*
X37946Y286993D01*
X37940Y287043D01*
X37887Y287208D01*
X37841Y287376D01*
X37819Y287421D01*
X37804Y287468D01*
X37723Y287622D01*
X37648Y287778D01*
X37618Y287819D01*
X37595Y287863D01*
X37488Y288000D01*
X37386Y288140D01*
X37350Y288175D01*
X37319Y288214D01*
X37189Y288330D01*
X37064Y288450D01*
X37022Y288477D01*
X36984Y288511D01*
X36836Y288601D01*
X36692Y288697D01*
X36646Y288717D01*
X36603Y288743D01*
X36441Y288805D01*
X36281Y288874D01*
X36233Y288885D01*
X36186Y288903D01*
X36015Y288936D01*
X35846Y288975D01*
X35796Y288978D01*
X35747Y288987D01*
X35500Y288999D01*
X8500Y288999D01*
X8450Y288995D01*
X8400Y288997D01*
X8228Y288975D01*
X8055Y288959D01*
X8007Y288946D01*
X7957Y288940D01*
X7792Y288887D01*
X7624Y288841D01*
X7579Y288819D01*
X7532Y288804D01*
X7378Y288723D01*
X7222Y288648D01*
X7181Y288618D01*
X7137Y288595D01*
X7001Y288488D01*
X6860Y288386D01*
X6825Y288350D01*
X6786Y288319D01*
X6670Y288189D01*
X6550Y288064D01*
X6523Y288022D01*
X6489Y287984D01*
X6399Y287836D01*
X6303Y287692D01*
X6283Y287646D01*
X6257Y287603D01*
X6195Y287441D01*
X6126Y287281D01*
X6115Y287233D01*
X6097Y287186D01*
X6064Y287015D01*
X6025Y286846D01*
X6022Y286796D01*
X6013Y286747D01*
X6001Y286500D01*
X6001Y281000D01*
X6005Y280950D01*
X6003Y280900D01*
X6025Y280728D01*
X6041Y280555D01*
X6054Y280507D01*
X6060Y280457D01*
X6113Y280292D01*
X6159Y280124D01*
X6181Y280079D01*
X6196Y280032D01*
X6277Y279878D01*
X6352Y279722D01*
X6382Y279681D01*
X6405Y279637D01*
X6512Y279501D01*
X6614Y279360D01*
X6650Y279325D01*
X6681Y279286D01*
X6811Y279170D01*
X6936Y279050D01*
X6978Y279023D01*
X7016Y278989D01*
X7164Y278899D01*
X7308Y278803D01*
X7355Y278783D01*
X7397Y278757D01*
X7559Y278695D01*
X7719Y278626D01*
X7767Y278615D01*
X7814Y278597D01*
X7985Y278564D01*
X8154Y278525D01*
X8204Y278522D01*
X8253Y278513D01*
X8500Y278501D01*
X35500Y278501D01*
X35550Y278505D01*
G37*
G36*
X120253Y39377D02*
X120253Y39377D01*
X120256Y39376D01*
X120297Y39396D01*
X120340Y39414D01*
X120341Y39417D01*
X120344Y39418D01*
X120374Y39500D01*
X120374Y42750D01*
X120373Y42753D01*
X120374Y42756D01*
X120354Y42797D01*
X120336Y42840D01*
X120333Y42841D01*
X120332Y42844D01*
X120250Y42874D01*
X116250Y42874D01*
X116247Y42873D01*
X116244Y42874D01*
X116203Y42854D01*
X116160Y42836D01*
X116159Y42833D01*
X116156Y42832D01*
X116126Y42750D01*
X116126Y39500D01*
X116127Y39497D01*
X116126Y39494D01*
X116146Y39453D01*
X116164Y39410D01*
X116167Y39409D01*
X116168Y39406D01*
X116250Y39376D01*
X120250Y39376D01*
X120253Y39377D01*
G37*
G36*
X170753Y39377D02*
X170753Y39377D01*
X170756Y39376D01*
X170797Y39396D01*
X170840Y39414D01*
X170841Y39417D01*
X170844Y39418D01*
X170874Y39500D01*
X170874Y42750D01*
X170873Y42753D01*
X170874Y42756D01*
X170854Y42797D01*
X170836Y42840D01*
X170833Y42841D01*
X170832Y42844D01*
X170750Y42874D01*
X166750Y42874D01*
X166747Y42873D01*
X166744Y42874D01*
X166703Y42854D01*
X166660Y42836D01*
X166659Y42833D01*
X166656Y42832D01*
X166626Y42750D01*
X166626Y39500D01*
X166627Y39497D01*
X166626Y39494D01*
X166646Y39453D01*
X166664Y39410D01*
X166667Y39409D01*
X166668Y39406D01*
X166750Y39376D01*
X170750Y39376D01*
X170753Y39377D01*
G37*
G36*
X183753Y39377D02*
X183753Y39377D01*
X183756Y39376D01*
X183797Y39396D01*
X183840Y39414D01*
X183841Y39417D01*
X183844Y39418D01*
X183874Y39500D01*
X183874Y42750D01*
X183873Y42753D01*
X183874Y42756D01*
X183854Y42797D01*
X183836Y42840D01*
X183833Y42841D01*
X183832Y42844D01*
X183750Y42874D01*
X179750Y42874D01*
X179747Y42873D01*
X179744Y42874D01*
X179703Y42854D01*
X179660Y42836D01*
X179659Y42833D01*
X179656Y42832D01*
X179626Y42750D01*
X179626Y39500D01*
X179627Y39497D01*
X179626Y39494D01*
X179646Y39453D01*
X179664Y39410D01*
X179667Y39409D01*
X179668Y39406D01*
X179750Y39376D01*
X183750Y39376D01*
X183753Y39377D01*
G37*
G36*
X164253Y39377D02*
X164253Y39377D01*
X164256Y39376D01*
X164297Y39396D01*
X164340Y39414D01*
X164341Y39417D01*
X164344Y39418D01*
X164374Y39500D01*
X164374Y42750D01*
X164373Y42753D01*
X164374Y42756D01*
X164354Y42797D01*
X164336Y42840D01*
X164333Y42841D01*
X164332Y42844D01*
X164250Y42874D01*
X160250Y42874D01*
X160247Y42873D01*
X160244Y42874D01*
X160203Y42854D01*
X160160Y42836D01*
X160159Y42833D01*
X160156Y42832D01*
X160126Y42750D01*
X160126Y39500D01*
X160127Y39497D01*
X160126Y39494D01*
X160146Y39453D01*
X160164Y39410D01*
X160167Y39409D01*
X160168Y39406D01*
X160250Y39376D01*
X164250Y39376D01*
X164253Y39377D01*
G37*
G36*
X107253Y39377D02*
X107253Y39377D01*
X107256Y39376D01*
X107297Y39396D01*
X107340Y39414D01*
X107341Y39417D01*
X107344Y39418D01*
X107374Y39500D01*
X107374Y42750D01*
X107373Y42753D01*
X107374Y42756D01*
X107354Y42797D01*
X107336Y42840D01*
X107333Y42841D01*
X107332Y42844D01*
X107250Y42874D01*
X103250Y42874D01*
X103247Y42873D01*
X103244Y42874D01*
X103203Y42854D01*
X103160Y42836D01*
X103159Y42833D01*
X103156Y42832D01*
X103126Y42750D01*
X103126Y39500D01*
X103127Y39497D01*
X103126Y39494D01*
X103146Y39453D01*
X103164Y39410D01*
X103167Y39409D01*
X103168Y39406D01*
X103250Y39376D01*
X107250Y39376D01*
X107253Y39377D01*
G37*
G36*
X177253Y39377D02*
X177253Y39377D01*
X177256Y39376D01*
X177297Y39396D01*
X177340Y39414D01*
X177341Y39417D01*
X177344Y39418D01*
X177374Y39500D01*
X177374Y42750D01*
X177373Y42753D01*
X177374Y42756D01*
X177354Y42797D01*
X177336Y42840D01*
X177333Y42841D01*
X177332Y42844D01*
X177250Y42874D01*
X173250Y42874D01*
X173247Y42873D01*
X173244Y42874D01*
X173203Y42854D01*
X173160Y42836D01*
X173159Y42833D01*
X173156Y42832D01*
X173126Y42750D01*
X173126Y39500D01*
X173127Y39497D01*
X173126Y39494D01*
X173146Y39453D01*
X173164Y39410D01*
X173167Y39409D01*
X173168Y39406D01*
X173250Y39376D01*
X177250Y39376D01*
X177253Y39377D01*
G37*
G36*
X126753Y39377D02*
X126753Y39377D01*
X126756Y39376D01*
X126797Y39396D01*
X126840Y39414D01*
X126841Y39417D01*
X126844Y39418D01*
X126874Y39500D01*
X126874Y42750D01*
X126873Y42753D01*
X126874Y42756D01*
X126854Y42797D01*
X126836Y42840D01*
X126833Y42841D01*
X126832Y42844D01*
X126750Y42874D01*
X122750Y42874D01*
X122747Y42873D01*
X122744Y42874D01*
X122703Y42854D01*
X122660Y42836D01*
X122659Y42833D01*
X122656Y42832D01*
X122626Y42750D01*
X122626Y39500D01*
X122627Y39497D01*
X122626Y39494D01*
X122646Y39453D01*
X122664Y39410D01*
X122667Y39409D01*
X122668Y39406D01*
X122750Y39376D01*
X126750Y39376D01*
X126753Y39377D01*
G37*
G36*
X113753Y39377D02*
X113753Y39377D01*
X113756Y39376D01*
X113797Y39396D01*
X113840Y39414D01*
X113841Y39417D01*
X113844Y39418D01*
X113874Y39500D01*
X113874Y42750D01*
X113873Y42753D01*
X113874Y42756D01*
X113854Y42797D01*
X113836Y42840D01*
X113833Y42841D01*
X113832Y42844D01*
X113750Y42874D01*
X109750Y42874D01*
X109747Y42873D01*
X109744Y42874D01*
X109703Y42854D01*
X109660Y42836D01*
X109659Y42833D01*
X109656Y42832D01*
X109626Y42750D01*
X109626Y39500D01*
X109627Y39497D01*
X109626Y39494D01*
X109646Y39453D01*
X109664Y39410D01*
X109667Y39409D01*
X109668Y39406D01*
X109750Y39376D01*
X113750Y39376D01*
X113753Y39377D01*
G37*
G36*
X317253Y40377D02*
X317253Y40377D01*
X317256Y40376D01*
X317297Y40396D01*
X317340Y40414D01*
X317341Y40417D01*
X317344Y40418D01*
X317374Y40500D01*
X317374Y43750D01*
X317373Y43753D01*
X317374Y43756D01*
X317354Y43797D01*
X317336Y43840D01*
X317333Y43841D01*
X317332Y43844D01*
X317250Y43874D01*
X313250Y43874D01*
X313247Y43873D01*
X313244Y43874D01*
X313203Y43854D01*
X313160Y43836D01*
X313159Y43833D01*
X313156Y43832D01*
X313126Y43750D01*
X313126Y40500D01*
X313127Y40497D01*
X313126Y40494D01*
X313146Y40453D01*
X313164Y40410D01*
X313167Y40409D01*
X313168Y40406D01*
X313250Y40376D01*
X317250Y40376D01*
X317253Y40377D01*
G37*
G36*
X330253Y40377D02*
X330253Y40377D01*
X330256Y40376D01*
X330297Y40396D01*
X330340Y40414D01*
X330341Y40417D01*
X330344Y40418D01*
X330374Y40500D01*
X330374Y43750D01*
X330373Y43753D01*
X330374Y43756D01*
X330354Y43797D01*
X330336Y43840D01*
X330333Y43841D01*
X330332Y43844D01*
X330250Y43874D01*
X326250Y43874D01*
X326247Y43873D01*
X326244Y43874D01*
X326203Y43854D01*
X326160Y43836D01*
X326159Y43833D01*
X326156Y43832D01*
X326126Y43750D01*
X326126Y40500D01*
X326127Y40497D01*
X326126Y40494D01*
X326146Y40453D01*
X326164Y40410D01*
X326167Y40409D01*
X326168Y40406D01*
X326250Y40376D01*
X330250Y40376D01*
X330253Y40377D01*
G37*
G36*
X323753Y40377D02*
X323753Y40377D01*
X323756Y40376D01*
X323797Y40396D01*
X323840Y40414D01*
X323841Y40417D01*
X323844Y40418D01*
X323874Y40500D01*
X323874Y43750D01*
X323873Y43753D01*
X323874Y43756D01*
X323854Y43797D01*
X323836Y43840D01*
X323833Y43841D01*
X323832Y43844D01*
X323750Y43874D01*
X319750Y43874D01*
X319747Y43873D01*
X319744Y43874D01*
X319703Y43854D01*
X319660Y43836D01*
X319659Y43833D01*
X319656Y43832D01*
X319626Y43750D01*
X319626Y40500D01*
X319627Y40497D01*
X319626Y40494D01*
X319646Y40453D01*
X319664Y40410D01*
X319667Y40409D01*
X319668Y40406D01*
X319750Y40376D01*
X323750Y40376D01*
X323753Y40377D01*
G37*
G36*
X336753Y40377D02*
X336753Y40377D01*
X336756Y40376D01*
X336797Y40396D01*
X336840Y40414D01*
X336841Y40417D01*
X336844Y40418D01*
X336874Y40500D01*
X336874Y43750D01*
X336873Y43753D01*
X336874Y43756D01*
X336854Y43797D01*
X336836Y43840D01*
X336833Y43841D01*
X336832Y43844D01*
X336750Y43874D01*
X332750Y43874D01*
X332747Y43873D01*
X332744Y43874D01*
X332703Y43854D01*
X332660Y43836D01*
X332659Y43833D01*
X332656Y43832D01*
X332626Y43750D01*
X332626Y40500D01*
X332627Y40497D01*
X332626Y40494D01*
X332646Y40453D01*
X332664Y40410D01*
X332667Y40409D01*
X332668Y40406D01*
X332750Y40376D01*
X336750Y40376D01*
X336753Y40377D01*
G37*
G36*
X220253Y71127D02*
X220253Y71127D01*
X220256Y71126D01*
X220297Y71146D01*
X220340Y71164D01*
X220341Y71167D01*
X220344Y71168D01*
X220374Y71250D01*
X220374Y74500D01*
X220373Y74503D01*
X220374Y74506D01*
X220354Y74547D01*
X220336Y74590D01*
X220333Y74591D01*
X220332Y74594D01*
X220250Y74624D01*
X216250Y74624D01*
X216247Y74623D01*
X216244Y74624D01*
X216203Y74604D01*
X216160Y74586D01*
X216159Y74583D01*
X216156Y74582D01*
X216126Y74500D01*
X216126Y71250D01*
X216127Y71247D01*
X216126Y71244D01*
X216146Y71203D01*
X216164Y71160D01*
X216167Y71159D01*
X216168Y71156D01*
X216250Y71126D01*
X220250Y71126D01*
X220253Y71127D01*
G37*
G36*
X274253Y71127D02*
X274253Y71127D01*
X274256Y71126D01*
X274297Y71146D01*
X274340Y71164D01*
X274341Y71167D01*
X274344Y71168D01*
X274374Y71250D01*
X274374Y74500D01*
X274373Y74503D01*
X274374Y74506D01*
X274354Y74547D01*
X274336Y74590D01*
X274333Y74591D01*
X274332Y74594D01*
X274250Y74624D01*
X270250Y74624D01*
X270247Y74623D01*
X270244Y74624D01*
X270203Y74604D01*
X270160Y74586D01*
X270159Y74583D01*
X270156Y74582D01*
X270126Y74500D01*
X270126Y71250D01*
X270127Y71247D01*
X270126Y71244D01*
X270146Y71203D01*
X270164Y71160D01*
X270167Y71159D01*
X270168Y71156D01*
X270250Y71126D01*
X274250Y71126D01*
X274253Y71127D01*
G37*
G36*
X261253Y71127D02*
X261253Y71127D01*
X261256Y71126D01*
X261297Y71146D01*
X261340Y71164D01*
X261341Y71167D01*
X261344Y71168D01*
X261374Y71250D01*
X261374Y74500D01*
X261373Y74503D01*
X261374Y74506D01*
X261354Y74547D01*
X261336Y74590D01*
X261333Y74591D01*
X261332Y74594D01*
X261250Y74624D01*
X257250Y74624D01*
X257247Y74623D01*
X257244Y74624D01*
X257203Y74604D01*
X257160Y74586D01*
X257159Y74583D01*
X257156Y74582D01*
X257126Y74500D01*
X257126Y71250D01*
X257127Y71247D01*
X257126Y71244D01*
X257146Y71203D01*
X257164Y71160D01*
X257167Y71159D01*
X257168Y71156D01*
X257250Y71126D01*
X261250Y71126D01*
X261253Y71127D01*
G37*
G36*
X280753Y71127D02*
X280753Y71127D01*
X280756Y71126D01*
X280797Y71146D01*
X280840Y71164D01*
X280841Y71167D01*
X280844Y71168D01*
X280874Y71250D01*
X280874Y74500D01*
X280873Y74503D01*
X280874Y74506D01*
X280854Y74547D01*
X280836Y74590D01*
X280833Y74591D01*
X280832Y74594D01*
X280750Y74624D01*
X276750Y74624D01*
X276747Y74623D01*
X276744Y74624D01*
X276703Y74604D01*
X276660Y74586D01*
X276659Y74583D01*
X276656Y74582D01*
X276626Y74500D01*
X276626Y71250D01*
X276627Y71247D01*
X276626Y71244D01*
X276646Y71203D01*
X276664Y71160D01*
X276667Y71159D01*
X276668Y71156D01*
X276750Y71126D01*
X280750Y71126D01*
X280753Y71127D01*
G37*
G36*
X226753Y71127D02*
X226753Y71127D01*
X226756Y71126D01*
X226797Y71146D01*
X226840Y71164D01*
X226841Y71167D01*
X226844Y71168D01*
X226874Y71250D01*
X226874Y74500D01*
X226873Y74503D01*
X226874Y74506D01*
X226854Y74547D01*
X226836Y74590D01*
X226833Y74591D01*
X226832Y74594D01*
X226750Y74624D01*
X222750Y74624D01*
X222747Y74623D01*
X222744Y74624D01*
X222703Y74604D01*
X222660Y74586D01*
X222659Y74583D01*
X222656Y74582D01*
X222626Y74500D01*
X222626Y71250D01*
X222627Y71247D01*
X222626Y71244D01*
X222646Y71203D01*
X222664Y71160D01*
X222667Y71159D01*
X222668Y71156D01*
X222750Y71126D01*
X226750Y71126D01*
X226753Y71127D01*
G37*
G36*
X267753Y71127D02*
X267753Y71127D01*
X267756Y71126D01*
X267797Y71146D01*
X267840Y71164D01*
X267841Y71167D01*
X267844Y71168D01*
X267874Y71250D01*
X267874Y74500D01*
X267873Y74503D01*
X267874Y74506D01*
X267854Y74547D01*
X267836Y74590D01*
X267833Y74591D01*
X267832Y74594D01*
X267750Y74624D01*
X263750Y74624D01*
X263747Y74623D01*
X263744Y74624D01*
X263703Y74604D01*
X263660Y74586D01*
X263659Y74583D01*
X263656Y74582D01*
X263626Y74500D01*
X263626Y71250D01*
X263627Y71247D01*
X263626Y71244D01*
X263646Y71203D01*
X263664Y71160D01*
X263667Y71159D01*
X263668Y71156D01*
X263750Y71126D01*
X267750Y71126D01*
X267753Y71127D01*
G37*
G36*
X239753Y71127D02*
X239753Y71127D01*
X239756Y71126D01*
X239797Y71146D01*
X239840Y71164D01*
X239841Y71167D01*
X239844Y71168D01*
X239874Y71250D01*
X239874Y74500D01*
X239873Y74503D01*
X239874Y74506D01*
X239854Y74547D01*
X239836Y74590D01*
X239833Y74591D01*
X239832Y74594D01*
X239750Y74624D01*
X235750Y74624D01*
X235747Y74623D01*
X235744Y74624D01*
X235703Y74604D01*
X235660Y74586D01*
X235659Y74583D01*
X235656Y74582D01*
X235626Y74500D01*
X235626Y71250D01*
X235627Y71247D01*
X235626Y71244D01*
X235646Y71203D01*
X235664Y71160D01*
X235667Y71159D01*
X235668Y71156D01*
X235750Y71126D01*
X239750Y71126D01*
X239753Y71127D01*
G37*
G36*
X233253Y71127D02*
X233253Y71127D01*
X233256Y71126D01*
X233297Y71146D01*
X233340Y71164D01*
X233341Y71167D01*
X233344Y71168D01*
X233374Y71250D01*
X233374Y74500D01*
X233373Y74503D01*
X233374Y74506D01*
X233354Y74547D01*
X233336Y74590D01*
X233333Y74591D01*
X233332Y74594D01*
X233250Y74624D01*
X229250Y74624D01*
X229247Y74623D01*
X229244Y74624D01*
X229203Y74604D01*
X229160Y74586D01*
X229159Y74583D01*
X229156Y74582D01*
X229126Y74500D01*
X229126Y71250D01*
X229127Y71247D01*
X229126Y71244D01*
X229146Y71203D01*
X229164Y71160D01*
X229167Y71159D01*
X229168Y71156D01*
X229250Y71126D01*
X233250Y71126D01*
X233253Y71127D01*
G37*
G36*
X59753Y71377D02*
X59753Y71377D01*
X59756Y71376D01*
X59797Y71396D01*
X59840Y71414D01*
X59841Y71417D01*
X59844Y71418D01*
X59874Y71500D01*
X59874Y74750D01*
X59873Y74753D01*
X59874Y74756D01*
X59854Y74797D01*
X59836Y74840D01*
X59833Y74841D01*
X59832Y74844D01*
X59750Y74874D01*
X55750Y74874D01*
X55747Y74873D01*
X55744Y74874D01*
X55703Y74854D01*
X55660Y74836D01*
X55659Y74833D01*
X55656Y74832D01*
X55626Y74750D01*
X55626Y71500D01*
X55627Y71497D01*
X55626Y71494D01*
X55646Y71453D01*
X55664Y71410D01*
X55667Y71409D01*
X55668Y71406D01*
X55750Y71376D01*
X59750Y71376D01*
X59753Y71377D01*
G37*
G36*
X53253Y71377D02*
X53253Y71377D01*
X53256Y71376D01*
X53297Y71396D01*
X53340Y71414D01*
X53341Y71417D01*
X53344Y71418D01*
X53374Y71500D01*
X53374Y74750D01*
X53373Y74753D01*
X53374Y74756D01*
X53354Y74797D01*
X53336Y74840D01*
X53333Y74841D01*
X53332Y74844D01*
X53250Y74874D01*
X49250Y74874D01*
X49247Y74873D01*
X49244Y74874D01*
X49203Y74854D01*
X49160Y74836D01*
X49159Y74833D01*
X49156Y74832D01*
X49126Y74750D01*
X49126Y71500D01*
X49127Y71497D01*
X49126Y71494D01*
X49146Y71453D01*
X49164Y71410D01*
X49167Y71409D01*
X49168Y71406D01*
X49250Y71376D01*
X53250Y71376D01*
X53253Y71377D01*
G37*
G36*
X66253Y71377D02*
X66253Y71377D01*
X66256Y71376D01*
X66297Y71396D01*
X66340Y71414D01*
X66341Y71417D01*
X66344Y71418D01*
X66374Y71500D01*
X66374Y74750D01*
X66373Y74753D01*
X66374Y74756D01*
X66354Y74797D01*
X66336Y74840D01*
X66333Y74841D01*
X66332Y74844D01*
X66250Y74874D01*
X62250Y74874D01*
X62247Y74873D01*
X62244Y74874D01*
X62203Y74854D01*
X62160Y74836D01*
X62159Y74833D01*
X62156Y74832D01*
X62126Y74750D01*
X62126Y71500D01*
X62127Y71497D01*
X62126Y71494D01*
X62146Y71453D01*
X62164Y71410D01*
X62167Y71409D01*
X62168Y71406D01*
X62250Y71376D01*
X66250Y71376D01*
X66253Y71377D01*
G37*
G36*
X72753Y71377D02*
X72753Y71377D01*
X72756Y71376D01*
X72797Y71396D01*
X72840Y71414D01*
X72841Y71417D01*
X72844Y71418D01*
X72874Y71500D01*
X72874Y74750D01*
X72873Y74753D01*
X72874Y74756D01*
X72854Y74797D01*
X72836Y74840D01*
X72833Y74841D01*
X72832Y74844D01*
X72750Y74874D01*
X68750Y74874D01*
X68747Y74873D01*
X68744Y74874D01*
X68703Y74854D01*
X68660Y74836D01*
X68659Y74833D01*
X68656Y74832D01*
X68626Y74750D01*
X68626Y71500D01*
X68627Y71497D01*
X68626Y71494D01*
X68646Y71453D01*
X68664Y71410D01*
X68667Y71409D01*
X68668Y71406D01*
X68750Y71376D01*
X72750Y71376D01*
X72753Y71377D01*
G37*
D10*
X20000Y380000D03*
X380000Y380000D03*
X380000Y20000D03*
X20000Y20000D03*
D11*
G36*
X163114Y220500D02*
X125800Y183186D01*
X88486Y220500D01*
X125800Y257814D01*
X163114Y220500D01*
G37*
D12*
G36*
X86180Y217176D02*
X81041Y212037D01*
X78446Y214632D01*
X83585Y219771D01*
X86180Y217176D01*
G37*
G36*
X81981Y211096D02*
X87120Y216235D01*
X89715Y213640D01*
X84576Y208501D01*
X81981Y211096D01*
G37*
G36*
X85517Y207561D02*
X90656Y212700D01*
X93251Y210105D01*
X88112Y204966D01*
X85517Y207561D01*
G37*
G36*
X89053Y204025D02*
X94192Y209164D01*
X96787Y206569D01*
X91648Y201430D01*
X89053Y204025D01*
G37*
G36*
X92588Y200490D02*
X97727Y205629D01*
X100322Y203034D01*
X95183Y197895D01*
X92588Y200490D01*
G37*
G36*
X96124Y196954D02*
X101263Y202093D01*
X103858Y199498D01*
X98719Y194359D01*
X96124Y196954D01*
G37*
G36*
X99659Y193419D02*
X104798Y198558D01*
X107393Y195963D01*
X102254Y190824D01*
X99659Y193419D01*
G37*
G36*
X103195Y189883D02*
X108334Y195022D01*
X110929Y192427D01*
X105790Y187288D01*
X103195Y189883D01*
G37*
G36*
X106730Y186348D02*
X111869Y191487D01*
X114464Y188892D01*
X109325Y183753D01*
X106730Y186348D01*
G37*
G36*
X110266Y182812D02*
X115405Y187951D01*
X118000Y185356D01*
X112861Y180217D01*
X110266Y182812D01*
G37*
G36*
X113801Y179276D02*
X118940Y184415D01*
X121535Y181820D01*
X116396Y176681D01*
X113801Y179276D01*
G37*
G36*
X117337Y175741D02*
X122476Y180880D01*
X125071Y178285D01*
X119932Y173146D01*
X117337Y175741D01*
G37*
G36*
X129124Y180880D02*
X134263Y175741D01*
X131668Y173146D01*
X126529Y178285D01*
X129124Y180880D01*
G37*
G36*
X135204Y176681D02*
X130065Y181820D01*
X132660Y184415D01*
X137799Y179276D01*
X135204Y176681D01*
G37*
G36*
X138739Y180217D02*
X133600Y185356D01*
X136195Y187951D01*
X141334Y182812D01*
X138739Y180217D01*
G37*
G36*
X142275Y183753D02*
X137136Y188892D01*
X139731Y191487D01*
X144870Y186348D01*
X142275Y183753D01*
G37*
G36*
X145810Y187288D02*
X140671Y192427D01*
X143266Y195022D01*
X148405Y189883D01*
X145810Y187288D01*
G37*
G36*
X149346Y190824D02*
X144207Y195963D01*
X146802Y198558D01*
X151941Y193419D01*
X149346Y190824D01*
G37*
G36*
X152881Y194359D02*
X147742Y199498D01*
X150337Y202093D01*
X155476Y196954D01*
X152881Y194359D01*
G37*
G36*
X156417Y197895D02*
X151278Y203034D01*
X153873Y205629D01*
X159012Y200490D01*
X156417Y197895D01*
G37*
G36*
X159952Y201430D02*
X154813Y206569D01*
X157408Y209164D01*
X162547Y204025D01*
X159952Y201430D01*
G37*
G36*
X163488Y204966D02*
X158349Y210105D01*
X160944Y212700D01*
X166083Y207561D01*
X163488Y204966D01*
G37*
G36*
X167024Y208501D02*
X161885Y213640D01*
X164480Y216235D01*
X169619Y211096D01*
X167024Y208501D01*
G37*
G36*
X170559Y212037D02*
X165420Y217176D01*
X168015Y219771D01*
X173154Y214632D01*
X170559Y212037D01*
G37*
G36*
X165420Y223824D02*
X170559Y228963D01*
X173154Y226368D01*
X168015Y221229D01*
X165420Y223824D01*
G37*
G36*
X169619Y229904D02*
X164480Y224765D01*
X161885Y227360D01*
X167024Y232499D01*
X169619Y229904D01*
G37*
G36*
X166083Y233439D02*
X160944Y228300D01*
X158349Y230895D01*
X163488Y236034D01*
X166083Y233439D01*
G37*
G36*
X162547Y236975D02*
X157408Y231836D01*
X154813Y234431D01*
X159952Y239570D01*
X162547Y236975D01*
G37*
G36*
X159012Y240510D02*
X153873Y235371D01*
X151278Y237966D01*
X156417Y243105D01*
X159012Y240510D01*
G37*
G36*
X155476Y244046D02*
X150337Y238907D01*
X147742Y241502D01*
X152881Y246641D01*
X155476Y244046D01*
G37*
G36*
X151941Y247581D02*
X146802Y242442D01*
X144207Y245037D01*
X149346Y250176D01*
X151941Y247581D01*
G37*
G36*
X148405Y251117D02*
X143266Y245978D01*
X140671Y248573D01*
X145810Y253712D01*
X148405Y251117D01*
G37*
G36*
X144870Y254652D02*
X139731Y249513D01*
X137136Y252108D01*
X142275Y257247D01*
X144870Y254652D01*
G37*
G36*
X141334Y258188D02*
X136195Y253049D01*
X133600Y255644D01*
X138739Y260783D01*
X141334Y258188D01*
G37*
G36*
X137799Y261724D02*
X132660Y256585D01*
X130065Y259180D01*
X135204Y264319D01*
X137799Y261724D01*
G37*
G36*
X134263Y265259D02*
X129124Y260120D01*
X126529Y262715D01*
X131668Y267854D01*
X134263Y265259D01*
G37*
G36*
X122476Y260120D02*
X117337Y265259D01*
X119932Y267854D01*
X125071Y262715D01*
X122476Y260120D01*
G37*
G36*
X116396Y264319D02*
X121535Y259180D01*
X118940Y256585D01*
X113801Y261724D01*
X116396Y264319D01*
G37*
G36*
X112861Y260783D02*
X118000Y255644D01*
X115405Y253049D01*
X110266Y258188D01*
X112861Y260783D01*
G37*
G36*
X109325Y257247D02*
X114464Y252108D01*
X111869Y249513D01*
X106730Y254652D01*
X109325Y257247D01*
G37*
G36*
X105790Y253712D02*
X110929Y248573D01*
X108334Y245978D01*
X103195Y251117D01*
X105790Y253712D01*
G37*
G36*
X102254Y250176D02*
X107393Y245037D01*
X104798Y242442D01*
X99659Y247581D01*
X102254Y250176D01*
G37*
G36*
X98719Y246641D02*
X103858Y241502D01*
X101263Y238907D01*
X96124Y244046D01*
X98719Y246641D01*
G37*
G36*
X95183Y243105D02*
X100322Y237966D01*
X97727Y235371D01*
X92588Y240510D01*
X95183Y243105D01*
G37*
G36*
X91648Y239570D02*
X96787Y234431D01*
X94192Y231836D01*
X89053Y236975D01*
X91648Y239570D01*
G37*
G36*
X88112Y236034D02*
X93251Y230895D01*
X90656Y228300D01*
X85517Y233439D01*
X88112Y236034D01*
G37*
G36*
X84576Y232499D02*
X89715Y227360D01*
X87120Y224765D01*
X81981Y229904D01*
X84576Y232499D01*
G37*
G36*
X81041Y228963D02*
X86180Y223824D01*
X83585Y221229D01*
X78446Y226368D01*
X81041Y228963D01*
G37*
D13*
X187600Y202700D03*
X197600Y202700D03*
D14*
X218250Y41500D03*
X224750Y41500D03*
X231250Y41500D03*
X237750Y41500D03*
D15*
X228000Y60500D03*
D16*
X218250Y73000D03*
X224750Y73000D03*
X231250Y73000D03*
X237750Y73000D03*
D14*
X259250Y41500D03*
X265750Y41500D03*
X272250Y41500D03*
X278750Y41500D03*
D15*
X269000Y60500D03*
D16*
X259250Y73000D03*
X265750Y73000D03*
X272250Y73000D03*
X278750Y73000D03*
D14*
X124750Y72500D03*
X118250Y72500D03*
X111750Y72500D03*
X105250Y72500D03*
D15*
X115000Y53500D03*
D16*
X124750Y41000D03*
X118250Y41000D03*
X111750Y41000D03*
X105250Y41000D03*
D14*
X181750Y72500D03*
X175250Y72500D03*
X168750Y72500D03*
X162250Y72500D03*
D15*
X172000Y53500D03*
D16*
X181750Y41000D03*
X175250Y41000D03*
X168750Y41000D03*
X162250Y41000D03*
D14*
X334750Y73500D03*
X328250Y73500D03*
X321750Y73500D03*
X315250Y73500D03*
D15*
X325000Y54500D03*
D16*
X334750Y42000D03*
X328250Y42000D03*
X321750Y42000D03*
X315250Y42000D03*
D17*
X236456Y313500D03*
X236456Y308500D03*
X236456Y303500D03*
X236456Y298500D03*
X236456Y293500D03*
X236456Y288500D03*
X236456Y283500D03*
X236456Y278500D03*
X236456Y273500D03*
X236456Y268500D03*
X236456Y263500D03*
X236456Y258500D03*
D18*
X243500Y251456D03*
X248500Y251456D03*
X253500Y251456D03*
X258500Y251456D03*
X263500Y251456D03*
X268500Y251456D03*
X273500Y251456D03*
X278500Y251456D03*
X283500Y251456D03*
X288500Y251456D03*
X293500Y251456D03*
X298500Y251456D03*
D17*
X305544Y258500D03*
X305544Y263500D03*
X305544Y268500D03*
X305544Y273500D03*
X305544Y278500D03*
X305544Y283500D03*
X305544Y288500D03*
X305544Y293500D03*
X305544Y298500D03*
X305544Y303500D03*
X305544Y308500D03*
X305544Y313500D03*
D18*
X298500Y320544D03*
X293500Y320544D03*
X288500Y320544D03*
X283500Y320544D03*
X278500Y320544D03*
X273500Y320544D03*
X268500Y320544D03*
X263500Y320544D03*
X258500Y320544D03*
X253500Y320544D03*
X248500Y320544D03*
X243500Y320544D03*
D19*
X271000Y286000D03*
D20*
X263500Y200000D03*
X278500Y200000D03*
D13*
X278000Y231000D03*
X268000Y231000D03*
X278000Y215000D03*
X268000Y215000D03*
X266000Y183000D03*
X276000Y183000D03*
X217000Y329000D03*
X207000Y329000D03*
D21*
X228000Y348000D03*
X228000Y358000D03*
D13*
X330000Y321000D03*
X340000Y321000D03*
X317000Y228000D03*
X327000Y228000D03*
D21*
X244000Y348000D03*
X244000Y358000D03*
X316000Y213000D03*
X316000Y203000D03*
X295000Y213000D03*
X295000Y203000D03*
D22*
X98000Y16000D03*
X198000Y16000D03*
X300000Y16000D03*
D20*
X56500Y159000D03*
X71500Y159000D03*
D21*
X63000Y242000D03*
X63000Y232000D03*
D13*
X87000Y260000D03*
X77000Y260000D03*
D23*
X22000Y259750D03*
X22000Y280250D03*
D21*
X52000Y272000D03*
X52000Y282000D03*
X67000Y282000D03*
X67000Y272000D03*
D24*
X28000Y327500D03*
X28000Y342500D03*
D25*
X11250Y222000D03*
X42750Y222000D03*
D14*
X51250Y41750D03*
X57750Y41750D03*
X64250Y41750D03*
X70750Y41750D03*
D15*
X61000Y60750D03*
D16*
X51250Y73250D03*
X57750Y73250D03*
X64250Y73250D03*
X70750Y73250D03*
D26*
X479000Y202000D03*
X479000Y92000D03*
D27*
X379000Y172000D03*
X379000Y122000D03*
D28*
X218000Y84500D03*
X218000Y113500D03*
D29*
X42500Y189000D03*
X13500Y189000D03*
X414500Y136000D03*
X443500Y136000D03*
X414500Y157000D03*
X443500Y157000D03*
X414500Y178000D03*
X443500Y178000D03*
X485500Y178000D03*
X456500Y178000D03*
X485500Y157000D03*
X456500Y157000D03*
X485500Y136000D03*
X456500Y136000D03*
X485500Y115000D03*
X456500Y115000D03*
D28*
X260000Y84500D03*
X260000Y113500D03*
X70000Y85500D03*
X70000Y114500D03*
X278000Y84500D03*
X278000Y113500D03*
X34000Y85500D03*
X34000Y114500D03*
X52000Y85500D03*
X52000Y114500D03*
X236000Y84500D03*
X236000Y113500D03*
D29*
X414500Y115000D03*
X443500Y115000D03*
D30*
X387000Y288000D03*
D31*
X379500Y303000D03*
X384500Y303000D03*
X389500Y303000D03*
X394500Y303000D03*
X394500Y273000D03*
X389500Y273000D03*
X384500Y273000D03*
X379500Y273000D03*
D21*
X420000Y260000D03*
X420000Y270000D03*
D20*
X65500Y180000D03*
X80500Y180000D03*
X43500Y166000D03*
X28500Y166000D03*
D21*
X63000Y196000D03*
X63000Y206000D03*
D13*
X143000Y293000D03*
X133000Y293000D03*
D21*
X204000Y239000D03*
X204000Y249000D03*
D32*
X116000Y121000D03*
D33*
X107750Y93000D03*
X124250Y93000D03*
X107750Y121000D03*
X124250Y121000D03*
D32*
X116000Y93000D03*
X172000Y121000D03*
D33*
X163750Y93000D03*
X180250Y93000D03*
X163750Y121000D03*
X180250Y121000D03*
D32*
X172000Y93000D03*
X325000Y121000D03*
D33*
X316750Y93000D03*
X333250Y93000D03*
X316750Y121000D03*
X333250Y121000D03*
D32*
X325000Y93000D03*
D13*
X176000Y242000D03*
X186000Y242000D03*
X171000Y256000D03*
X181000Y256000D03*
D34*
X205250Y291750D03*
X218750Y291750D03*
X218750Y302250D03*
X205250Y302250D03*
D13*
X217000Y316000D03*
X207000Y316000D03*
D35*
X58000Y314000D03*
D36*
X47000Y307500D03*
X47000Y314000D03*
X47000Y320500D03*
X69000Y320500D03*
X69000Y314000D03*
X69000Y307500D03*
D13*
X27000Y307000D03*
X17000Y307000D03*
D21*
X87000Y308000D03*
X87000Y298000D03*
X105000Y308000D03*
X105000Y298000D03*
D13*
X382000Y328000D03*
X392000Y328000D03*
D21*
X360000Y271000D03*
X360000Y281000D03*
X190000Y292000D03*
X190000Y302000D03*
D13*
X338000Y243000D03*
X348000Y243000D03*
X339000Y264000D03*
X329000Y264000D03*
D37*
X83500Y336100D03*
X98500Y336100D03*
X113500Y336100D03*
X128500Y336100D03*
X143500Y336100D03*
X158500Y336100D03*
X173500Y336100D03*
X188500Y336100D03*
D38*
X214550Y388000D03*
X57450Y388000D03*
D39*
X470000Y246000D03*
X486000Y246000D03*
X470000Y259000D03*
X486000Y259000D03*
X470000Y272000D03*
X486000Y272000D03*
D13*
X448000Y246000D03*
X458000Y246000D03*
X448000Y259000D03*
X458000Y259000D03*
X448000Y272000D03*
X458000Y272000D03*
D21*
X201000Y282000D03*
X201000Y272000D03*
D24*
X337000Y214500D03*
X337000Y199500D03*
D13*
X311000Y185000D03*
X301000Y185000D03*
D40*
X87000Y316000D03*
D41*
X194000Y239000D03*
X260000Y210000D03*
X323000Y326000D03*
X220000Y348000D03*
X321000Y237000D03*
D42*
X176184Y203424D03*
D41*
X225896Y309896D03*
X293000Y175000D03*
X353000Y265000D03*
X74000Y345000D03*
D40*
X105000Y316000D03*
D41*
X127000Y375000D03*
X129000Y353000D03*
X160846Y251154D03*
X269048Y329000D03*
X166000Y245000D03*
X284000Y333000D03*
X156000Y260000D03*
X295532Y337532D03*
X149000Y255000D03*
X305000Y342104D03*
X247000Y214000D03*
X252000Y236000D03*
X233000Y246000D03*
X371000Y315000D03*
X401000Y313000D03*
D42*
X252000Y341000D03*
X497000Y250404D03*
X266208Y354792D03*
X497000Y258476D03*
X258000Y361000D03*
X497000Y266548D03*
D41*
X166000Y285096D03*
X334010Y299952D03*
X173000Y278524D03*
X326438Y294216D03*
X177000Y270952D03*
X334010Y286644D03*
D42*
X232000Y214000D03*
X223000Y200000D03*
X202124Y177124D03*
D41*
X228968Y263032D03*
X192000Y258000D03*
X221000Y264452D03*
X201572Y264452D03*
D42*
X66000Y260000D03*
X43000Y262000D03*
D41*
X68000Y220000D03*
X58000Y254000D03*
X450000Y175000D03*
X450000Y154000D03*
X450000Y133000D03*
X450000Y112000D03*
X187000Y140000D03*
X187000Y134000D03*
X181000Y134000D03*
X181000Y140000D03*
X175000Y140000D03*
X175000Y134000D03*
X169000Y140000D03*
X169000Y134000D03*
X163000Y134000D03*
X163000Y140000D03*
X157000Y140000D03*
X157000Y134000D03*
X130000Y140000D03*
X130000Y134000D03*
X124000Y134000D03*
X124000Y140000D03*
X118000Y140000D03*
X118000Y134000D03*
X112000Y140000D03*
X112000Y134000D03*
X106000Y134000D03*
X106000Y140000D03*
X100000Y140000D03*
X100000Y134000D03*
X284000Y133000D03*
X284000Y127000D03*
X278000Y127000D03*
X278000Y133000D03*
X272000Y133000D03*
X272000Y127000D03*
X266000Y133000D03*
X266000Y127000D03*
X260000Y127000D03*
X260000Y133000D03*
X254000Y133000D03*
X254000Y127000D03*
X242000Y133000D03*
X242000Y127000D03*
X236000Y127000D03*
X236000Y133000D03*
X230000Y133000D03*
X230000Y127000D03*
X224000Y133000D03*
X224000Y127000D03*
X218000Y127000D03*
X218000Y133000D03*
X212000Y133000D03*
X212000Y127000D03*
X340000Y140000D03*
X340000Y134000D03*
X334000Y134000D03*
X334000Y140000D03*
X328000Y140000D03*
X328000Y134000D03*
X322000Y140000D03*
X322000Y134000D03*
X316000Y134000D03*
X316000Y140000D03*
X310000Y140000D03*
X310000Y134000D03*
X38000Y127000D03*
X38000Y133000D03*
X32000Y133000D03*
X32000Y127000D03*
X74000Y133000D03*
X74000Y127000D03*
X68000Y127000D03*
X68000Y133000D03*
X62000Y133000D03*
X62000Y127000D03*
X56000Y133000D03*
X56000Y127000D03*
X50000Y127000D03*
X50000Y133000D03*
X44000Y133000D03*
X44000Y127000D03*
X195000Y312000D03*
X87000Y291000D03*
X68000Y289000D03*
X123000Y293000D03*
X126000Y248000D03*
X141000Y236000D03*
X141000Y207000D03*
X126000Y221000D03*
X126000Y191000D03*
X112000Y206000D03*
X97000Y221000D03*
X111000Y234000D03*
X221000Y361000D03*
X271000Y240000D03*
X316000Y194000D03*
X284000Y186000D03*
X348000Y321000D03*
X334000Y228000D03*
X40000Y340000D03*
X8000Y307000D03*
X47000Y327000D03*
X247000Y310000D03*
X271000Y310000D03*
X295000Y310000D03*
X295000Y262000D03*
X271000Y262000D03*
X247000Y262000D03*
X401000Y324000D03*
X347000Y254000D03*
X8000Y203000D03*
X19000Y166000D03*
X11000Y236000D03*
X80000Y160000D03*
D42*
X200000Y200000D03*
D41*
X212000Y246000D03*
X192326Y271520D03*
X297000Y194000D03*
D42*
X155000Y221000D03*
D41*
X356000Y290000D03*
X195000Y344000D03*
X432000Y279000D03*
X73000Y53000D03*
X73000Y59000D03*
X67000Y59000D03*
X67000Y53000D03*
X61000Y53000D03*
X61000Y59000D03*
X55000Y59000D03*
X55000Y53000D03*
X49000Y53000D03*
X49000Y59000D03*
X73000Y65000D03*
X73000Y71000D03*
X67000Y71000D03*
X67000Y65000D03*
X61000Y65000D03*
X61000Y71000D03*
X55000Y71000D03*
X55000Y65000D03*
X49000Y65000D03*
X49000Y71000D03*
X37000Y53000D03*
X37000Y59000D03*
X37000Y65000D03*
X37000Y71000D03*
X43000Y53000D03*
X43000Y59000D03*
X43000Y65000D03*
X43000Y71000D03*
X240000Y52000D03*
X240000Y58000D03*
X234000Y58000D03*
X234000Y52000D03*
X228000Y52000D03*
X228000Y58000D03*
X222000Y58000D03*
X222000Y52000D03*
X216000Y52000D03*
X216000Y58000D03*
X240000Y64000D03*
X240000Y70000D03*
X234000Y70000D03*
X234000Y64000D03*
X228000Y64000D03*
X228000Y70000D03*
X222000Y70000D03*
X222000Y64000D03*
X216000Y64000D03*
X216000Y70000D03*
X279000Y52000D03*
X279000Y58000D03*
X273000Y58000D03*
X273000Y52000D03*
X267000Y52000D03*
X267000Y58000D03*
X261000Y58000D03*
X261000Y52000D03*
X255000Y52000D03*
X255000Y58000D03*
X279000Y64000D03*
X279000Y70000D03*
X273000Y70000D03*
X273000Y64000D03*
X267000Y64000D03*
X267000Y70000D03*
X261000Y70000D03*
X261000Y64000D03*
X255000Y64000D03*
X255000Y70000D03*
X285000Y52000D03*
X285000Y58000D03*
X285000Y64000D03*
X285000Y70000D03*
D40*
X16000Y106000D03*
X16000Y97000D03*
D41*
X428000Y265000D03*
X435000Y255000D03*
X89000Y181000D03*
X87106Y195894D03*
X139000Y269000D03*
X146000Y303000D03*
X143029Y262029D03*
X97000Y250292D03*
X317000Y277000D03*
X126000Y45000D03*
X126000Y51000D03*
X120000Y51000D03*
X120000Y45000D03*
X114000Y45000D03*
X114000Y51000D03*
X108000Y51000D03*
X108000Y45000D03*
X102000Y45000D03*
X102000Y51000D03*
X126000Y57000D03*
X126000Y63000D03*
X120000Y63000D03*
X120000Y57000D03*
X114000Y57000D03*
X114000Y63000D03*
X108000Y63000D03*
X108000Y57000D03*
X102000Y57000D03*
X102000Y63000D03*
X132000Y45000D03*
X132000Y51000D03*
X132000Y57000D03*
X132000Y63000D03*
X96000Y45000D03*
X96000Y51000D03*
X96000Y57000D03*
X96000Y63000D03*
D42*
X95000Y170000D03*
X17000Y156000D03*
D41*
X183000Y46000D03*
X183000Y52000D03*
X177000Y52000D03*
X177000Y46000D03*
X171000Y46000D03*
X171000Y52000D03*
X165000Y52000D03*
X165000Y46000D03*
X159000Y46000D03*
X159000Y52000D03*
X183000Y58000D03*
X183000Y64000D03*
X177000Y64000D03*
X177000Y58000D03*
X171000Y58000D03*
X171000Y64000D03*
X165000Y64000D03*
X165000Y58000D03*
X159000Y58000D03*
X159000Y64000D03*
X189000Y46000D03*
X189000Y52000D03*
X189000Y58000D03*
X189000Y64000D03*
X153000Y46000D03*
X153000Y52000D03*
X153000Y58000D03*
X153000Y64000D03*
X333000Y46000D03*
X333000Y52000D03*
X327000Y52000D03*
X327000Y46000D03*
X321000Y46000D03*
X321000Y52000D03*
X315000Y52000D03*
X315000Y46000D03*
X309000Y46000D03*
X309000Y52000D03*
X333000Y58000D03*
X333000Y64000D03*
X327000Y64000D03*
X327000Y58000D03*
X321000Y58000D03*
X321000Y64000D03*
X315000Y64000D03*
X315000Y58000D03*
X309000Y58000D03*
X309000Y64000D03*
X339000Y46000D03*
X339000Y52000D03*
X339000Y58000D03*
X339000Y64000D03*
X148000Y174000D03*
X133000Y162000D03*
X109947Y172053D03*
X122000Y166000D03*
X335000Y80000D03*
X329000Y80000D03*
X323000Y80000D03*
X313000Y88000D03*
X319000Y88000D03*
X341000Y80000D03*
X313000Y94000D03*
X313000Y100000D03*
X319000Y94000D03*
X319000Y100000D03*
X341000Y74000D03*
X335000Y74000D03*
X323000Y74000D03*
X329000Y74000D03*
X307000Y88000D03*
X307000Y94000D03*
X307000Y100000D03*
X313000Y82000D03*
X307000Y82000D03*
X338000Y88000D03*
X344000Y88000D03*
X338000Y94000D03*
X338000Y100000D03*
X344000Y94000D03*
X344000Y100000D03*
X332000Y88000D03*
X332000Y94000D03*
X332000Y100000D03*
X182000Y80000D03*
X176000Y80000D03*
X170000Y80000D03*
X160000Y88000D03*
X166000Y88000D03*
X188000Y80000D03*
X160000Y94000D03*
X160000Y100000D03*
X166000Y94000D03*
X166000Y100000D03*
X188000Y74000D03*
X182000Y74000D03*
X170000Y74000D03*
X176000Y74000D03*
X154000Y88000D03*
X154000Y94000D03*
X154000Y100000D03*
X160000Y82000D03*
X154000Y82000D03*
X185000Y88000D03*
X191000Y88000D03*
X185000Y94000D03*
X185000Y100000D03*
X191000Y94000D03*
X191000Y100000D03*
X179000Y88000D03*
X179000Y94000D03*
X179000Y100000D03*
X126000Y80000D03*
X120000Y80000D03*
X114000Y80000D03*
X104000Y88000D03*
X110000Y88000D03*
X132000Y80000D03*
X104000Y94000D03*
X104000Y100000D03*
X110000Y94000D03*
X110000Y100000D03*
X132000Y74000D03*
X126000Y74000D03*
X114000Y74000D03*
X120000Y74000D03*
X98000Y88000D03*
X98000Y94000D03*
X98000Y100000D03*
X104000Y82000D03*
X98000Y82000D03*
X129000Y88000D03*
X135000Y88000D03*
X129000Y94000D03*
X129000Y100000D03*
X135000Y94000D03*
X135000Y100000D03*
X123000Y88000D03*
X123000Y94000D03*
X123000Y100000D03*
X214048Y235000D03*
X226000Y238452D03*
X219000Y223000D03*
X260120Y222000D03*
X228000Y386000D03*
X15000Y351000D03*
X160000Y313000D03*
X92000Y349000D03*
X309000Y220000D03*
M02*
