G04 EAGLE Gerber RS-274X export*
G75*
%MOMM*%
%FSLAX34Y34*%
%LPD*%
%INSoldermask Bottom*%
%IPPOS*%
%AMOC8*
5,1,8,0,0,1.08239X$1,22.5*%
G01*
%ADD10C,2.177000*%
%ADD11R,1.827000X1.827000*%
%ADD12R,0.377000X0.827000*%
%ADD13R,0.827000X0.377000*%
%ADD14C,2.377000*%
%ADD15C,1.627000*%
%ADD16C,2.677000*%
%ADD17R,1.127000X0.727000*%
%ADD18R,1.927000X1.377000*%
%ADD19C,0.831800*%
%ADD20C,0.731800*%
%ADD21C,0.781800*%


D10*
X20000Y380000D03*
X380000Y380000D03*
X380000Y20000D03*
X20000Y20000D03*
D11*
X200000Y200000D03*
D12*
X192500Y214500D03*
X197500Y214500D03*
X202500Y214500D03*
X207500Y214500D03*
D13*
X214500Y207500D03*
X214500Y202500D03*
X214500Y197500D03*
X214500Y192500D03*
D12*
X207500Y185500D03*
X202500Y185500D03*
X197500Y185500D03*
X192500Y185500D03*
D13*
X185500Y192500D03*
X185500Y197500D03*
X185500Y202500D03*
X185500Y207500D03*
D14*
X98000Y16000D03*
X198000Y16000D03*
X300000Y16000D03*
D15*
X479000Y202000D03*
X479000Y92000D03*
D16*
X379000Y172000D03*
X379000Y122000D03*
D17*
X446100Y244000D03*
X446100Y259000D03*
X446100Y274000D03*
D18*
X498000Y300050D03*
X498000Y217950D03*
D19*
X87000Y316000D03*
D20*
X194000Y239000D03*
X260000Y210000D03*
X323000Y326000D03*
X220000Y348000D03*
X321000Y237000D03*
D21*
X176184Y203424D03*
D20*
X225896Y309896D03*
X293000Y175000D03*
X353000Y265000D03*
X74000Y345000D03*
D19*
X105000Y316000D03*
D20*
X127000Y375000D03*
X129000Y353000D03*
X160846Y251154D03*
X269048Y329000D03*
X166000Y245000D03*
X284000Y333000D03*
X156000Y260000D03*
X295532Y337532D03*
X149000Y255000D03*
X305000Y342104D03*
X247000Y214000D03*
X252000Y236000D03*
X233000Y246000D03*
X371000Y315000D03*
X401000Y313000D03*
D21*
X252000Y341000D03*
X497000Y250404D03*
X266208Y354792D03*
X497000Y258476D03*
X258000Y361000D03*
X497000Y266548D03*
D20*
X166000Y285096D03*
X334010Y299952D03*
X173000Y278524D03*
X326438Y294216D03*
X177000Y270952D03*
X334010Y286644D03*
D21*
X232000Y214000D03*
X223000Y200000D03*
X202124Y177124D03*
D20*
X228968Y263032D03*
X192000Y258000D03*
X221000Y264452D03*
X201572Y264452D03*
D21*
X66000Y260000D03*
X43000Y262000D03*
D20*
X68000Y220000D03*
X58000Y254000D03*
X450000Y175000D03*
X450000Y154000D03*
X450000Y133000D03*
X450000Y112000D03*
X187000Y140000D03*
X187000Y134000D03*
X181000Y134000D03*
X181000Y140000D03*
X175000Y140000D03*
X175000Y134000D03*
X169000Y140000D03*
X169000Y134000D03*
X163000Y134000D03*
X163000Y140000D03*
X157000Y140000D03*
X157000Y134000D03*
X130000Y140000D03*
X130000Y134000D03*
X124000Y134000D03*
X124000Y140000D03*
X118000Y140000D03*
X118000Y134000D03*
X112000Y140000D03*
X112000Y134000D03*
X106000Y134000D03*
X106000Y140000D03*
X100000Y140000D03*
X100000Y134000D03*
X284000Y133000D03*
X284000Y127000D03*
X278000Y127000D03*
X278000Y133000D03*
X272000Y133000D03*
X272000Y127000D03*
X266000Y133000D03*
X266000Y127000D03*
X260000Y127000D03*
X260000Y133000D03*
X254000Y133000D03*
X254000Y127000D03*
X242000Y133000D03*
X242000Y127000D03*
X236000Y127000D03*
X236000Y133000D03*
X230000Y133000D03*
X230000Y127000D03*
X224000Y133000D03*
X224000Y127000D03*
X218000Y127000D03*
X218000Y133000D03*
X212000Y133000D03*
X212000Y127000D03*
X340000Y140000D03*
X340000Y134000D03*
X334000Y134000D03*
X334000Y140000D03*
X328000Y140000D03*
X328000Y134000D03*
X322000Y140000D03*
X322000Y134000D03*
X316000Y134000D03*
X316000Y140000D03*
X310000Y140000D03*
X310000Y134000D03*
X38000Y127000D03*
X38000Y133000D03*
X32000Y133000D03*
X32000Y127000D03*
X74000Y133000D03*
X74000Y127000D03*
X68000Y127000D03*
X68000Y133000D03*
X62000Y133000D03*
X62000Y127000D03*
X56000Y133000D03*
X56000Y127000D03*
X50000Y127000D03*
X50000Y133000D03*
X44000Y133000D03*
X44000Y127000D03*
X195000Y312000D03*
X87000Y291000D03*
X68000Y289000D03*
X123000Y293000D03*
X126000Y248000D03*
X141000Y236000D03*
X141000Y207000D03*
X126000Y221000D03*
X126000Y191000D03*
X112000Y206000D03*
X97000Y221000D03*
X111000Y234000D03*
X221000Y361000D03*
X271000Y240000D03*
X316000Y194000D03*
X284000Y186000D03*
X348000Y321000D03*
X334000Y228000D03*
X40000Y340000D03*
X8000Y307000D03*
X47000Y327000D03*
X247000Y310000D03*
X271000Y310000D03*
X295000Y310000D03*
X295000Y262000D03*
X271000Y262000D03*
X247000Y262000D03*
X401000Y324000D03*
X347000Y254000D03*
X8000Y203000D03*
X19000Y166000D03*
X11000Y236000D03*
X80000Y160000D03*
D21*
X200000Y200000D03*
D20*
X212000Y246000D03*
X192326Y271520D03*
X297000Y194000D03*
D21*
X155000Y221000D03*
D20*
X356000Y290000D03*
X195000Y344000D03*
X432000Y279000D03*
X73000Y53000D03*
X73000Y59000D03*
X67000Y59000D03*
X67000Y53000D03*
X61000Y53000D03*
X61000Y59000D03*
X55000Y59000D03*
X55000Y53000D03*
X49000Y53000D03*
X49000Y59000D03*
X73000Y65000D03*
X73000Y71000D03*
X67000Y71000D03*
X67000Y65000D03*
X61000Y65000D03*
X61000Y71000D03*
X55000Y71000D03*
X55000Y65000D03*
X49000Y65000D03*
X49000Y71000D03*
X37000Y53000D03*
X37000Y59000D03*
X37000Y65000D03*
X37000Y71000D03*
X43000Y53000D03*
X43000Y59000D03*
X43000Y65000D03*
X43000Y71000D03*
X240000Y52000D03*
X240000Y58000D03*
X234000Y58000D03*
X234000Y52000D03*
X228000Y52000D03*
X228000Y58000D03*
X222000Y58000D03*
X222000Y52000D03*
X216000Y52000D03*
X216000Y58000D03*
X240000Y64000D03*
X240000Y70000D03*
X234000Y70000D03*
X234000Y64000D03*
X228000Y64000D03*
X228000Y70000D03*
X222000Y70000D03*
X222000Y64000D03*
X216000Y64000D03*
X216000Y70000D03*
X279000Y52000D03*
X279000Y58000D03*
X273000Y58000D03*
X273000Y52000D03*
X267000Y52000D03*
X267000Y58000D03*
X261000Y58000D03*
X261000Y52000D03*
X255000Y52000D03*
X255000Y58000D03*
X279000Y64000D03*
X279000Y70000D03*
X273000Y70000D03*
X273000Y64000D03*
X267000Y64000D03*
X267000Y70000D03*
X261000Y70000D03*
X261000Y64000D03*
X255000Y64000D03*
X255000Y70000D03*
X285000Y52000D03*
X285000Y58000D03*
X285000Y64000D03*
X285000Y70000D03*
D19*
X16000Y106000D03*
X16000Y97000D03*
D20*
X428000Y265000D03*
X435000Y255000D03*
X89000Y181000D03*
X87106Y195894D03*
X139000Y269000D03*
X146000Y303000D03*
X143029Y262029D03*
X97000Y250292D03*
X317000Y277000D03*
X126000Y45000D03*
X126000Y51000D03*
X120000Y51000D03*
X120000Y45000D03*
X114000Y45000D03*
X114000Y51000D03*
X108000Y51000D03*
X108000Y45000D03*
X102000Y45000D03*
X102000Y51000D03*
X126000Y57000D03*
X126000Y63000D03*
X120000Y63000D03*
X120000Y57000D03*
X114000Y57000D03*
X114000Y63000D03*
X108000Y63000D03*
X108000Y57000D03*
X102000Y57000D03*
X102000Y63000D03*
X132000Y45000D03*
X132000Y51000D03*
X132000Y57000D03*
X132000Y63000D03*
X96000Y45000D03*
X96000Y51000D03*
X96000Y57000D03*
X96000Y63000D03*
D21*
X95000Y170000D03*
X17000Y156000D03*
D20*
X183000Y46000D03*
X183000Y52000D03*
X177000Y52000D03*
X177000Y46000D03*
X171000Y46000D03*
X171000Y52000D03*
X165000Y52000D03*
X165000Y46000D03*
X159000Y46000D03*
X159000Y52000D03*
X183000Y58000D03*
X183000Y64000D03*
X177000Y64000D03*
X177000Y58000D03*
X171000Y58000D03*
X171000Y64000D03*
X165000Y64000D03*
X165000Y58000D03*
X159000Y58000D03*
X159000Y64000D03*
X189000Y46000D03*
X189000Y52000D03*
X189000Y58000D03*
X189000Y64000D03*
X153000Y46000D03*
X153000Y52000D03*
X153000Y58000D03*
X153000Y64000D03*
X333000Y46000D03*
X333000Y52000D03*
X327000Y52000D03*
X327000Y46000D03*
X321000Y46000D03*
X321000Y52000D03*
X315000Y52000D03*
X315000Y46000D03*
X309000Y46000D03*
X309000Y52000D03*
X333000Y58000D03*
X333000Y64000D03*
X327000Y64000D03*
X327000Y58000D03*
X321000Y58000D03*
X321000Y64000D03*
X315000Y64000D03*
X315000Y58000D03*
X309000Y58000D03*
X309000Y64000D03*
X339000Y46000D03*
X339000Y52000D03*
X339000Y58000D03*
X339000Y64000D03*
X148000Y174000D03*
X133000Y162000D03*
X109947Y172053D03*
X122000Y166000D03*
X335000Y80000D03*
X329000Y80000D03*
X323000Y80000D03*
X313000Y88000D03*
X319000Y88000D03*
X341000Y80000D03*
X313000Y94000D03*
X313000Y100000D03*
X319000Y94000D03*
X319000Y100000D03*
X341000Y74000D03*
X335000Y74000D03*
X323000Y74000D03*
X329000Y74000D03*
X307000Y88000D03*
X307000Y94000D03*
X307000Y100000D03*
X313000Y82000D03*
X307000Y82000D03*
X338000Y88000D03*
X344000Y88000D03*
X338000Y94000D03*
X338000Y100000D03*
X344000Y94000D03*
X344000Y100000D03*
X332000Y88000D03*
X332000Y94000D03*
X332000Y100000D03*
X182000Y80000D03*
X176000Y80000D03*
X170000Y80000D03*
X160000Y88000D03*
X166000Y88000D03*
X188000Y80000D03*
X160000Y94000D03*
X160000Y100000D03*
X166000Y94000D03*
X166000Y100000D03*
X188000Y74000D03*
X182000Y74000D03*
X170000Y74000D03*
X176000Y74000D03*
X154000Y88000D03*
X154000Y94000D03*
X154000Y100000D03*
X160000Y82000D03*
X154000Y82000D03*
X185000Y88000D03*
X191000Y88000D03*
X185000Y94000D03*
X185000Y100000D03*
X191000Y94000D03*
X191000Y100000D03*
X179000Y88000D03*
X179000Y94000D03*
X179000Y100000D03*
X126000Y80000D03*
X120000Y80000D03*
X114000Y80000D03*
X104000Y88000D03*
X110000Y88000D03*
X132000Y80000D03*
X104000Y94000D03*
X104000Y100000D03*
X110000Y94000D03*
X110000Y100000D03*
X132000Y74000D03*
X126000Y74000D03*
X114000Y74000D03*
X120000Y74000D03*
X98000Y88000D03*
X98000Y94000D03*
X98000Y100000D03*
X104000Y82000D03*
X98000Y82000D03*
X129000Y88000D03*
X135000Y88000D03*
X129000Y94000D03*
X129000Y100000D03*
X135000Y94000D03*
X135000Y100000D03*
X123000Y88000D03*
X123000Y94000D03*
X123000Y100000D03*
X214048Y235000D03*
X226000Y238452D03*
X219000Y223000D03*
X260120Y222000D03*
X228000Y386000D03*
X15000Y351000D03*
X160000Y313000D03*
X92000Y349000D03*
X309000Y220000D03*
M02*
