G04 EAGLE Gerber RS-274X export*
G75*
%MOMM*%
%FSLAX34Y34*%
%LPD*%
%INCopper Layer 2*%
%IPPOS*%
%AMOC8*
5,1,8,0,0,1.08239X$1,22.5*%
G01*
%ADD10C,4.216000*%
%ADD11C,0.654800*%
%ADD12C,0.904800*%
%ADD13C,1.500000*%

G36*
X40972Y2504D02*
X40972Y2504D01*
X40991Y2502D01*
X41093Y2524D01*
X41195Y2540D01*
X41212Y2550D01*
X41232Y2554D01*
X41321Y2607D01*
X41412Y2656D01*
X41426Y2670D01*
X41443Y2680D01*
X41510Y2759D01*
X41582Y2834D01*
X41590Y2852D01*
X41603Y2867D01*
X41642Y2963D01*
X41685Y3057D01*
X41687Y3077D01*
X41695Y3095D01*
X41713Y3262D01*
X41713Y9245D01*
X41706Y9291D01*
X41708Y9336D01*
X41686Y9411D01*
X41674Y9488D01*
X41652Y9529D01*
X41639Y9573D01*
X41595Y9637D01*
X41558Y9705D01*
X41525Y9737D01*
X41499Y9775D01*
X41436Y9821D01*
X41380Y9875D01*
X41338Y9894D01*
X41302Y9922D01*
X41228Y9946D01*
X41157Y9978D01*
X41111Y9984D01*
X41068Y9998D01*
X40990Y9997D01*
X40913Y10006D01*
X40868Y9996D01*
X40822Y9995D01*
X40690Y9957D01*
X40672Y9953D01*
X40668Y9951D01*
X40661Y9949D01*
X34496Y7395D01*
X25504Y7395D01*
X17195Y10837D01*
X10837Y17195D01*
X7395Y25504D01*
X7395Y34496D01*
X10837Y42805D01*
X17195Y49163D01*
X25504Y52605D01*
X34496Y52605D01*
X40661Y50051D01*
X40705Y50041D01*
X40747Y50022D01*
X40824Y50013D01*
X40900Y49995D01*
X40946Y50000D01*
X40991Y49994D01*
X41068Y50011D01*
X41145Y50018D01*
X41187Y50037D01*
X41232Y50047D01*
X41299Y50087D01*
X41370Y50118D01*
X41404Y50149D01*
X41443Y50173D01*
X41494Y50232D01*
X41551Y50285D01*
X41573Y50325D01*
X41603Y50360D01*
X41632Y50432D01*
X41669Y50500D01*
X41678Y50545D01*
X41695Y50588D01*
X41710Y50724D01*
X41713Y50742D01*
X41712Y50747D01*
X41713Y50755D01*
X41713Y108947D01*
X43053Y110287D01*
X64440Y110287D01*
X64460Y110290D01*
X64479Y110288D01*
X64581Y110310D01*
X64683Y110326D01*
X64700Y110336D01*
X64720Y110340D01*
X64809Y110393D01*
X64900Y110442D01*
X64914Y110456D01*
X64931Y110466D01*
X64998Y110545D01*
X65070Y110620D01*
X65078Y110638D01*
X65091Y110653D01*
X65130Y110749D01*
X65173Y110843D01*
X65175Y110863D01*
X65183Y110881D01*
X65201Y111048D01*
X65201Y114988D01*
X68012Y117799D01*
X71988Y117799D01*
X74799Y114988D01*
X74799Y111048D01*
X74802Y111028D01*
X74800Y111009D01*
X74822Y110907D01*
X74838Y110805D01*
X74848Y110788D01*
X74852Y110768D01*
X74905Y110679D01*
X74954Y110588D01*
X74968Y110574D01*
X74978Y110557D01*
X75057Y110490D01*
X75132Y110418D01*
X75150Y110410D01*
X75165Y110397D01*
X75261Y110358D01*
X75355Y110315D01*
X75375Y110313D01*
X75393Y110305D01*
X75560Y110287D01*
X201440Y110287D01*
X201460Y110290D01*
X201479Y110288D01*
X201581Y110310D01*
X201683Y110326D01*
X201700Y110336D01*
X201720Y110340D01*
X201809Y110393D01*
X201900Y110442D01*
X201914Y110456D01*
X201931Y110466D01*
X201998Y110545D01*
X202070Y110620D01*
X202078Y110638D01*
X202091Y110653D01*
X202130Y110749D01*
X202173Y110843D01*
X202175Y110863D01*
X202183Y110881D01*
X202201Y111048D01*
X202201Y112988D01*
X205012Y115799D01*
X208988Y115799D01*
X211799Y112988D01*
X211799Y111048D01*
X211802Y111028D01*
X211800Y111009D01*
X211822Y110907D01*
X211838Y110805D01*
X211848Y110788D01*
X211852Y110768D01*
X211905Y110679D01*
X211954Y110588D01*
X211968Y110574D01*
X211978Y110557D01*
X212057Y110490D01*
X212132Y110418D01*
X212150Y110410D01*
X212165Y110397D01*
X212261Y110358D01*
X212355Y110315D01*
X212375Y110313D01*
X212393Y110305D01*
X212560Y110287D01*
X258440Y110287D01*
X258460Y110290D01*
X258479Y110288D01*
X258581Y110310D01*
X258683Y110326D01*
X258700Y110336D01*
X258720Y110340D01*
X258809Y110393D01*
X258900Y110442D01*
X258914Y110456D01*
X258931Y110466D01*
X258998Y110545D01*
X259070Y110620D01*
X259078Y110638D01*
X259091Y110653D01*
X259130Y110749D01*
X259173Y110843D01*
X259175Y110863D01*
X259183Y110881D01*
X259201Y111048D01*
X259201Y113988D01*
X262012Y116799D01*
X265988Y116799D01*
X268799Y113988D01*
X268799Y111048D01*
X268802Y111028D01*
X268800Y111009D01*
X268822Y110907D01*
X268838Y110805D01*
X268848Y110788D01*
X268852Y110768D01*
X268905Y110679D01*
X268954Y110588D01*
X268968Y110574D01*
X268978Y110557D01*
X269057Y110490D01*
X269132Y110418D01*
X269150Y110410D01*
X269165Y110397D01*
X269261Y110358D01*
X269355Y110315D01*
X269375Y110313D01*
X269393Y110305D01*
X269560Y110287D01*
X305947Y110287D01*
X307287Y108947D01*
X307287Y44996D01*
X307301Y44906D01*
X307309Y44815D01*
X307321Y44786D01*
X307326Y44754D01*
X307369Y44673D01*
X307405Y44589D01*
X307431Y44557D01*
X307442Y44536D01*
X307465Y44514D01*
X307510Y44458D01*
X309163Y42805D01*
X312605Y34496D01*
X312605Y25504D01*
X309163Y17195D01*
X307510Y15542D01*
X307457Y15468D01*
X307397Y15398D01*
X307385Y15368D01*
X307366Y15342D01*
X307339Y15255D01*
X307305Y15170D01*
X307301Y15129D01*
X307294Y15107D01*
X307295Y15075D01*
X307287Y15004D01*
X307287Y10469D01*
X307289Y10458D01*
X307287Y10446D01*
X307308Y10337D01*
X307326Y10227D01*
X307332Y10216D01*
X307334Y10204D01*
X307390Y10107D01*
X307442Y10009D01*
X307450Y10001D01*
X307456Y9991D01*
X307539Y9916D01*
X307620Y9840D01*
X307631Y9835D01*
X307640Y9827D01*
X307742Y9783D01*
X307843Y9736D01*
X307855Y9735D01*
X307866Y9730D01*
X307977Y9722D01*
X308087Y9709D01*
X308099Y9712D01*
X308111Y9711D01*
X308219Y9738D01*
X308328Y9762D01*
X308338Y9768D01*
X308350Y9771D01*
X308495Y9854D01*
X309354Y10478D01*
X309379Y10503D01*
X309410Y10522D01*
X309523Y10646D01*
X314440Y17414D01*
X314456Y17446D01*
X314479Y17473D01*
X314548Y17626D01*
X317133Y25582D01*
X317134Y25588D01*
X317136Y25593D01*
X317139Y25605D01*
X317142Y25612D01*
X317145Y25637D01*
X317168Y25758D01*
X317497Y29940D01*
X317495Y29962D01*
X317499Y30000D01*
X317499Y270000D01*
X317496Y270022D01*
X317497Y270060D01*
X317168Y274242D01*
X317166Y274248D01*
X317167Y274254D01*
X317133Y274418D01*
X314548Y282374D01*
X314531Y282406D01*
X314523Y282441D01*
X314440Y282586D01*
X309523Y289354D01*
X309497Y289379D01*
X309478Y289410D01*
X309354Y289523D01*
X302586Y294440D01*
X302554Y294456D01*
X302527Y294479D01*
X302374Y294548D01*
X294418Y297133D01*
X294412Y297134D01*
X294407Y297136D01*
X294242Y297168D01*
X290060Y297497D01*
X290038Y297495D01*
X290000Y297499D01*
X30000Y297499D01*
X29978Y297496D01*
X29940Y297497D01*
X25758Y297168D01*
X25752Y297166D01*
X25746Y297167D01*
X25582Y297133D01*
X17626Y294548D01*
X17594Y294531D01*
X17559Y294523D01*
X17414Y294440D01*
X10646Y289523D01*
X10621Y289497D01*
X10590Y289478D01*
X10477Y289354D01*
X5560Y282586D01*
X5544Y282554D01*
X5521Y282527D01*
X5452Y282374D01*
X2867Y274418D01*
X2866Y274412D01*
X2864Y274407D01*
X2832Y274242D01*
X2503Y270060D01*
X2505Y270038D01*
X2501Y270000D01*
X2501Y30000D01*
X2504Y29978D01*
X2503Y29940D01*
X2832Y25758D01*
X2834Y25752D01*
X2833Y25746D01*
X2867Y25582D01*
X5452Y17626D01*
X5469Y17594D01*
X5477Y17559D01*
X5560Y17414D01*
X10477Y10646D01*
X10503Y10621D01*
X10522Y10590D01*
X10646Y10477D01*
X17414Y5560D01*
X17446Y5544D01*
X17473Y5521D01*
X17626Y5452D01*
X25582Y2867D01*
X25588Y2866D01*
X25593Y2864D01*
X25758Y2832D01*
X29940Y2503D01*
X29962Y2505D01*
X30000Y2501D01*
X40952Y2501D01*
X40972Y2504D01*
G37*
G36*
X290022Y2504D02*
X290022Y2504D01*
X290060Y2503D01*
X294242Y2832D01*
X294248Y2834D01*
X294254Y2833D01*
X294418Y2867D01*
X302374Y5452D01*
X302406Y5469D01*
X302440Y5477D01*
X302586Y5560D01*
X305447Y7639D01*
X305467Y7659D01*
X305491Y7673D01*
X305553Y7746D01*
X305620Y7814D01*
X305633Y7839D01*
X305651Y7860D01*
X305687Y7949D01*
X305729Y8035D01*
X305732Y8062D01*
X305743Y8088D01*
X305761Y8255D01*
X305761Y11956D01*
X305750Y12026D01*
X305748Y12098D01*
X305730Y12147D01*
X305722Y12198D01*
X305688Y12261D01*
X305663Y12329D01*
X305631Y12370D01*
X305606Y12416D01*
X305555Y12465D01*
X305510Y12521D01*
X305466Y12549D01*
X305428Y12585D01*
X305363Y12615D01*
X305303Y12654D01*
X305252Y12667D01*
X305205Y12689D01*
X305134Y12697D01*
X305064Y12714D01*
X305012Y12710D01*
X304961Y12716D01*
X304890Y12700D01*
X304819Y12695D01*
X304771Y12675D01*
X304720Y12663D01*
X304659Y12627D01*
X304593Y12599D01*
X304537Y12554D01*
X304509Y12537D01*
X304494Y12520D01*
X304462Y12494D01*
X302805Y10837D01*
X294496Y7395D01*
X285504Y7395D01*
X277195Y10837D01*
X270837Y17195D01*
X267395Y25504D01*
X267395Y34496D01*
X270837Y42805D01*
X277195Y49163D01*
X285504Y52605D01*
X294496Y52605D01*
X302805Y49163D01*
X304462Y47506D01*
X304520Y47464D01*
X304572Y47415D01*
X304619Y47393D01*
X304661Y47363D01*
X304730Y47342D01*
X304795Y47311D01*
X304847Y47306D01*
X304897Y47290D01*
X304968Y47292D01*
X305039Y47284D01*
X305090Y47295D01*
X305142Y47297D01*
X305210Y47321D01*
X305280Y47337D01*
X305324Y47363D01*
X305373Y47381D01*
X305429Y47426D01*
X305491Y47463D01*
X305525Y47502D01*
X305565Y47535D01*
X305604Y47595D01*
X305651Y47650D01*
X305670Y47698D01*
X305698Y47742D01*
X305716Y47811D01*
X305743Y47878D01*
X305751Y47949D01*
X305759Y47980D01*
X305757Y48004D01*
X305761Y48044D01*
X305761Y108000D01*
X305758Y108020D01*
X305760Y108039D01*
X305738Y108141D01*
X305722Y108243D01*
X305712Y108260D01*
X305708Y108280D01*
X305655Y108369D01*
X305606Y108460D01*
X305592Y108474D01*
X305582Y108491D01*
X305503Y108558D01*
X305428Y108630D01*
X305410Y108638D01*
X305395Y108651D01*
X305299Y108690D01*
X305205Y108733D01*
X305185Y108735D01*
X305167Y108743D01*
X305000Y108761D01*
X267863Y108761D01*
X267773Y108747D01*
X267682Y108739D01*
X267652Y108727D01*
X267620Y108722D01*
X267540Y108679D01*
X267456Y108643D01*
X267423Y108617D01*
X267403Y108606D01*
X267381Y108583D01*
X267325Y108538D01*
X265988Y107201D01*
X262012Y107201D01*
X260675Y108538D01*
X260601Y108591D01*
X260532Y108651D01*
X260502Y108663D01*
X260476Y108682D01*
X260389Y108709D01*
X260304Y108743D01*
X260263Y108747D01*
X260240Y108754D01*
X260208Y108753D01*
X260137Y108761D01*
X211863Y108761D01*
X211773Y108747D01*
X211682Y108739D01*
X211652Y108727D01*
X211620Y108722D01*
X211540Y108679D01*
X211456Y108643D01*
X211423Y108617D01*
X211403Y108606D01*
X211381Y108583D01*
X211325Y108538D01*
X208988Y106201D01*
X205012Y106201D01*
X202675Y108538D01*
X202601Y108591D01*
X202532Y108651D01*
X202502Y108663D01*
X202476Y108682D01*
X202389Y108709D01*
X202304Y108743D01*
X202263Y108747D01*
X202240Y108754D01*
X202208Y108753D01*
X202137Y108761D01*
X154560Y108761D01*
X154540Y108758D01*
X154521Y108760D01*
X154419Y108738D01*
X154317Y108722D01*
X154300Y108712D01*
X154280Y108708D01*
X154191Y108655D01*
X154100Y108606D01*
X154086Y108592D01*
X154069Y108582D01*
X154002Y108503D01*
X153930Y108428D01*
X153922Y108410D01*
X153909Y108395D01*
X153870Y108299D01*
X153827Y108205D01*
X153825Y108185D01*
X153817Y108167D01*
X153799Y108000D01*
X153799Y107012D01*
X150988Y104201D01*
X147012Y104201D01*
X144201Y107012D01*
X144201Y108000D01*
X144198Y108020D01*
X144200Y108039D01*
X144178Y108141D01*
X144162Y108243D01*
X144152Y108260D01*
X144148Y108280D01*
X144095Y108369D01*
X144046Y108460D01*
X144032Y108474D01*
X144022Y108491D01*
X143943Y108558D01*
X143868Y108630D01*
X143850Y108638D01*
X143835Y108651D01*
X143739Y108690D01*
X143645Y108733D01*
X143625Y108735D01*
X143607Y108743D01*
X143440Y108761D01*
X72863Y108761D01*
X72773Y108747D01*
X72682Y108739D01*
X72652Y108727D01*
X72620Y108722D01*
X72540Y108679D01*
X72456Y108643D01*
X72423Y108617D01*
X72403Y108606D01*
X72381Y108583D01*
X72325Y108538D01*
X71988Y108201D01*
X68012Y108201D01*
X67675Y108538D01*
X67601Y108592D01*
X67532Y108651D01*
X67502Y108663D01*
X67476Y108682D01*
X67389Y108709D01*
X67304Y108743D01*
X67263Y108747D01*
X67240Y108754D01*
X67208Y108753D01*
X67137Y108761D01*
X44000Y108761D01*
X43980Y108758D01*
X43961Y108760D01*
X43859Y108738D01*
X43757Y108722D01*
X43740Y108712D01*
X43720Y108708D01*
X43631Y108655D01*
X43540Y108606D01*
X43526Y108592D01*
X43509Y108582D01*
X43442Y108503D01*
X43371Y108428D01*
X43362Y108410D01*
X43349Y108395D01*
X43310Y108299D01*
X43267Y108205D01*
X43265Y108185D01*
X43257Y108167D01*
X43239Y108000D01*
X43239Y75560D01*
X43241Y75549D01*
X43240Y75541D01*
X43241Y75534D01*
X43240Y75521D01*
X43262Y75419D01*
X43279Y75317D01*
X43288Y75300D01*
X43292Y75280D01*
X43345Y75191D01*
X43394Y75100D01*
X43408Y75086D01*
X43418Y75069D01*
X43497Y75002D01*
X43572Y74930D01*
X43590Y74922D01*
X43605Y74909D01*
X43701Y74870D01*
X43795Y74827D01*
X43815Y74825D01*
X43833Y74817D01*
X44000Y74799D01*
X47988Y74799D01*
X50799Y71988D01*
X50799Y68012D01*
X47988Y65201D01*
X44000Y65201D01*
X43980Y65198D01*
X43961Y65200D01*
X43859Y65178D01*
X43757Y65162D01*
X43740Y65152D01*
X43720Y65148D01*
X43631Y65095D01*
X43540Y65046D01*
X43526Y65032D01*
X43509Y65022D01*
X43442Y64943D01*
X43371Y64868D01*
X43362Y64850D01*
X43349Y64835D01*
X43310Y64739D01*
X43267Y64645D01*
X43265Y64625D01*
X43257Y64607D01*
X43239Y64440D01*
X43239Y49044D01*
X43254Y48954D01*
X43261Y48863D01*
X43273Y48834D01*
X43279Y48802D01*
X43321Y48721D01*
X43357Y48637D01*
X43383Y48605D01*
X43394Y48584D01*
X43417Y48562D01*
X43462Y48506D01*
X49163Y42805D01*
X52605Y34496D01*
X52605Y25504D01*
X49163Y17195D01*
X43462Y11494D01*
X43409Y11420D01*
X43349Y11350D01*
X43337Y11320D01*
X43318Y11294D01*
X43291Y11207D01*
X43257Y11122D01*
X43253Y11081D01*
X43246Y11059D01*
X43247Y11027D01*
X43239Y10956D01*
X43239Y3262D01*
X43242Y3242D01*
X43240Y3223D01*
X43262Y3121D01*
X43279Y3019D01*
X43288Y3002D01*
X43292Y2982D01*
X43345Y2893D01*
X43394Y2802D01*
X43408Y2788D01*
X43418Y2771D01*
X43497Y2704D01*
X43572Y2632D01*
X43590Y2624D01*
X43605Y2611D01*
X43701Y2572D01*
X43795Y2529D01*
X43815Y2527D01*
X43833Y2519D01*
X44000Y2501D01*
X290000Y2501D01*
X290022Y2504D01*
G37*
%LPC*%
G36*
X25504Y247395D02*
X25504Y247395D01*
X17195Y250837D01*
X10837Y257195D01*
X7395Y265504D01*
X7395Y274496D01*
X10837Y282805D01*
X17195Y289163D01*
X25504Y292605D01*
X34496Y292605D01*
X42805Y289163D01*
X49163Y282805D01*
X52605Y274496D01*
X52605Y265504D01*
X49163Y257195D01*
X42805Y250837D01*
X34496Y247395D01*
X25504Y247395D01*
G37*
%LPD*%
%LPC*%
G36*
X285504Y247395D02*
X285504Y247395D01*
X277195Y250837D01*
X270837Y257195D01*
X267395Y265504D01*
X267395Y274496D01*
X270837Y282805D01*
X277195Y289163D01*
X285504Y292605D01*
X294496Y292605D01*
X302805Y289163D01*
X309163Y282805D01*
X312605Y274496D01*
X312605Y265504D01*
X309163Y257195D01*
X302805Y250837D01*
X294496Y247395D01*
X285504Y247395D01*
G37*
%LPD*%
%LPC*%
G36*
X158084Y214201D02*
X158084Y214201D01*
X155574Y216711D01*
X155558Y216723D01*
X155546Y216738D01*
X155458Y216795D01*
X155375Y216855D01*
X155356Y216861D01*
X155339Y216871D01*
X155238Y216897D01*
X155139Y216927D01*
X155120Y216927D01*
X155100Y216932D01*
X154997Y216924D01*
X154894Y216921D01*
X154875Y216914D01*
X154855Y216912D01*
X154760Y216872D01*
X154663Y216836D01*
X154647Y216824D01*
X154629Y216816D01*
X154498Y216711D01*
X153988Y216201D01*
X150012Y216201D01*
X147201Y219012D01*
X147201Y222988D01*
X149175Y224962D01*
X149187Y224978D01*
X149202Y224990D01*
X149259Y225078D01*
X149319Y225161D01*
X149325Y225180D01*
X149335Y225197D01*
X149361Y225298D01*
X149391Y225397D01*
X149391Y225416D01*
X149396Y225436D01*
X149388Y225539D01*
X149385Y225642D01*
X149378Y225661D01*
X149376Y225681D01*
X149336Y225776D01*
X149300Y225873D01*
X149288Y225889D01*
X149280Y225907D01*
X149175Y226038D01*
X147098Y228115D01*
X147040Y228157D01*
X146988Y228207D01*
X146941Y228229D01*
X146899Y228259D01*
X146830Y228280D01*
X146765Y228310D01*
X146713Y228316D01*
X146663Y228331D01*
X146592Y228329D01*
X146521Y228337D01*
X146470Y228326D01*
X146418Y228325D01*
X146350Y228300D01*
X146280Y228285D01*
X146236Y228258D01*
X146187Y228240D01*
X146131Y228196D01*
X146069Y228159D01*
X146035Y228119D01*
X145995Y228087D01*
X145956Y228026D01*
X145909Y227972D01*
X145890Y227924D01*
X145862Y227880D01*
X145844Y227810D01*
X145817Y227744D01*
X145809Y227672D01*
X145801Y227641D01*
X145803Y227618D01*
X145799Y227577D01*
X145799Y227012D01*
X142988Y224201D01*
X139012Y224201D01*
X136201Y227012D01*
X136201Y230988D01*
X139012Y233799D01*
X142988Y233799D01*
X145902Y230885D01*
X145960Y230843D01*
X146012Y230793D01*
X146059Y230772D01*
X146101Y230741D01*
X146170Y230720D01*
X146235Y230690D01*
X146287Y230684D01*
X146337Y230669D01*
X146408Y230671D01*
X146479Y230663D01*
X146530Y230674D01*
X146582Y230675D01*
X146650Y230700D01*
X146720Y230715D01*
X146765Y230742D01*
X146813Y230760D01*
X146869Y230804D01*
X146931Y230841D01*
X146965Y230881D01*
X147005Y230913D01*
X147044Y230974D01*
X147091Y231028D01*
X147110Y231076D01*
X147138Y231120D01*
X147156Y231190D01*
X147183Y231256D01*
X147191Y231328D01*
X147199Y231359D01*
X147197Y231382D01*
X147201Y231423D01*
X147201Y231988D01*
X150012Y234799D01*
X153988Y234799D01*
X156799Y231988D01*
X156799Y228012D01*
X154825Y226038D01*
X154813Y226022D01*
X154798Y226010D01*
X154741Y225922D01*
X154681Y225839D01*
X154675Y225820D01*
X154665Y225803D01*
X154639Y225702D01*
X154609Y225603D01*
X154609Y225584D01*
X154604Y225564D01*
X154612Y225461D01*
X154615Y225358D01*
X154622Y225339D01*
X154624Y225319D01*
X154664Y225224D01*
X154700Y225127D01*
X154712Y225111D01*
X154720Y225093D01*
X154825Y224962D01*
X156498Y223289D01*
X156514Y223277D01*
X156526Y223262D01*
X156614Y223205D01*
X156697Y223145D01*
X156716Y223139D01*
X156733Y223129D01*
X156834Y223103D01*
X156933Y223073D01*
X156952Y223073D01*
X156972Y223068D01*
X157075Y223076D01*
X157178Y223079D01*
X157197Y223086D01*
X157217Y223088D01*
X157312Y223128D01*
X157409Y223164D01*
X157425Y223176D01*
X157443Y223184D01*
X157574Y223289D01*
X158084Y223799D01*
X162060Y223799D01*
X164998Y220861D01*
X165014Y220849D01*
X165026Y220834D01*
X165114Y220777D01*
X165197Y220717D01*
X165216Y220711D01*
X165233Y220701D01*
X165334Y220675D01*
X165433Y220645D01*
X165452Y220645D01*
X165472Y220640D01*
X165575Y220648D01*
X165678Y220651D01*
X165697Y220658D01*
X165717Y220660D01*
X165812Y220700D01*
X165909Y220736D01*
X165925Y220748D01*
X165943Y220756D01*
X166074Y220861D01*
X169012Y223799D01*
X172988Y223799D01*
X175799Y220988D01*
X175799Y217012D01*
X172988Y214201D01*
X169012Y214201D01*
X166074Y217139D01*
X166058Y217151D01*
X166046Y217166D01*
X165958Y217223D01*
X165875Y217283D01*
X165856Y217289D01*
X165839Y217299D01*
X165738Y217325D01*
X165639Y217355D01*
X165620Y217355D01*
X165600Y217360D01*
X165497Y217352D01*
X165394Y217349D01*
X165375Y217342D01*
X165355Y217340D01*
X165260Y217300D01*
X165163Y217264D01*
X165147Y217252D01*
X165129Y217244D01*
X164998Y217139D01*
X162060Y214201D01*
X158084Y214201D01*
G37*
%LPD*%
%LPC*%
G36*
X177012Y234201D02*
X177012Y234201D01*
X174288Y236925D01*
X174272Y236937D01*
X174260Y236952D01*
X174172Y237009D01*
X174089Y237069D01*
X174070Y237075D01*
X174053Y237085D01*
X173952Y237111D01*
X173853Y237141D01*
X173834Y237141D01*
X173814Y237146D01*
X173711Y237138D01*
X173608Y237135D01*
X173589Y237128D01*
X173569Y237126D01*
X173474Y237086D01*
X173377Y237050D01*
X173361Y237038D01*
X173343Y237030D01*
X173212Y236925D01*
X170524Y234237D01*
X166548Y234237D01*
X163737Y237048D01*
X163737Y241024D01*
X166548Y243835D01*
X167541Y243835D01*
X167612Y243846D01*
X167684Y243848D01*
X167732Y243866D01*
X167784Y243874D01*
X167847Y243908D01*
X167915Y243933D01*
X167955Y243965D01*
X168001Y243990D01*
X168051Y244042D01*
X168107Y244086D01*
X168135Y244130D01*
X168171Y244168D01*
X168201Y244233D01*
X168240Y244293D01*
X168252Y244344D01*
X168274Y244391D01*
X168282Y244462D01*
X168300Y244532D01*
X168296Y244584D01*
X168301Y244635D01*
X168286Y244705D01*
X168280Y244777D01*
X168260Y244825D01*
X168249Y244876D01*
X168212Y244937D01*
X168201Y244963D01*
X168201Y248988D01*
X171012Y251799D01*
X173440Y251799D01*
X173460Y251802D01*
X173479Y251800D01*
X173581Y251822D01*
X173683Y251838D01*
X173700Y251848D01*
X173720Y251852D01*
X173809Y251905D01*
X173900Y251954D01*
X173914Y251968D01*
X173931Y251978D01*
X173998Y252057D01*
X174070Y252132D01*
X174078Y252150D01*
X174091Y252165D01*
X174130Y252261D01*
X174173Y252355D01*
X174175Y252375D01*
X174183Y252393D01*
X174201Y252560D01*
X174201Y254988D01*
X177012Y257799D01*
X180988Y257799D01*
X183799Y254988D01*
X183799Y251012D01*
X180988Y248201D01*
X178560Y248201D01*
X178540Y248198D01*
X178521Y248200D01*
X178419Y248178D01*
X178317Y248162D01*
X178300Y248152D01*
X178280Y248148D01*
X178191Y248095D01*
X178100Y248046D01*
X178086Y248032D01*
X178069Y248022D01*
X178002Y247943D01*
X177930Y247868D01*
X177922Y247850D01*
X177909Y247835D01*
X177870Y247739D01*
X177827Y247645D01*
X177825Y247625D01*
X177817Y247607D01*
X177799Y247440D01*
X177799Y244994D01*
X177793Y244988D01*
X177772Y244941D01*
X177741Y244899D01*
X177720Y244830D01*
X177690Y244765D01*
X177684Y244713D01*
X177669Y244664D01*
X177671Y244592D01*
X177663Y244521D01*
X177674Y244470D01*
X177675Y244418D01*
X177700Y244350D01*
X177715Y244280D01*
X177742Y244235D01*
X177760Y244187D01*
X177804Y244131D01*
X177841Y244069D01*
X177881Y244035D01*
X177913Y243995D01*
X177974Y243956D01*
X178028Y243909D01*
X178076Y243890D01*
X178120Y243862D01*
X178190Y243844D01*
X178256Y243817D01*
X178327Y243809D01*
X178359Y243801D01*
X178382Y243803D01*
X178423Y243799D01*
X180988Y243799D01*
X183799Y240988D01*
X183799Y237012D01*
X180988Y234201D01*
X177012Y234201D01*
G37*
%LPD*%
%LPC*%
G36*
X218205Y275975D02*
X218205Y275975D01*
X214888Y277349D01*
X212349Y279888D01*
X210975Y283205D01*
X210975Y286795D01*
X212349Y290112D01*
X214888Y292651D01*
X218205Y294025D01*
X221795Y294025D01*
X225112Y292651D01*
X227651Y290112D01*
X229025Y286795D01*
X229025Y283205D01*
X227651Y279888D01*
X225112Y277349D01*
X221795Y275975D01*
X218205Y275975D01*
G37*
%LPD*%
%LPC*%
G36*
X92205Y22975D02*
X92205Y22975D01*
X88888Y24349D01*
X86349Y26888D01*
X84975Y30205D01*
X84975Y33795D01*
X86349Y37112D01*
X88888Y39651D01*
X92205Y41025D01*
X95795Y41025D01*
X99112Y39651D01*
X101651Y37112D01*
X103025Y33795D01*
X103025Y30205D01*
X101651Y26888D01*
X99112Y24349D01*
X95795Y22975D01*
X92205Y22975D01*
G37*
%LPD*%
%LPC*%
G36*
X115205Y22975D02*
X115205Y22975D01*
X111888Y24349D01*
X109349Y26888D01*
X107975Y30205D01*
X107975Y33795D01*
X109349Y37112D01*
X111888Y39651D01*
X115205Y41025D01*
X118795Y41025D01*
X122112Y39651D01*
X124651Y37112D01*
X126025Y33795D01*
X126025Y30205D01*
X124651Y26888D01*
X122112Y24349D01*
X118795Y22975D01*
X115205Y22975D01*
G37*
%LPD*%
%LPC*%
G36*
X138205Y22975D02*
X138205Y22975D01*
X134888Y24349D01*
X132349Y26888D01*
X130975Y30205D01*
X130975Y33795D01*
X132349Y37112D01*
X134888Y39651D01*
X138205Y41025D01*
X141795Y41025D01*
X145112Y39651D01*
X147651Y37112D01*
X149025Y33795D01*
X149025Y30205D01*
X147651Y26888D01*
X145112Y24349D01*
X141795Y22975D01*
X138205Y22975D01*
G37*
%LPD*%
%LPC*%
G36*
X184205Y22975D02*
X184205Y22975D01*
X180888Y24349D01*
X178349Y26888D01*
X176975Y30205D01*
X176975Y33795D01*
X178349Y37112D01*
X180888Y39651D01*
X184205Y41025D01*
X187795Y41025D01*
X191112Y39651D01*
X193651Y37112D01*
X195025Y33795D01*
X195025Y30205D01*
X193651Y26888D01*
X191112Y24349D01*
X187795Y22975D01*
X184205Y22975D01*
G37*
%LPD*%
%LPC*%
G36*
X192205Y275975D02*
X192205Y275975D01*
X188888Y277349D01*
X186349Y279888D01*
X184975Y283205D01*
X184975Y286795D01*
X186349Y290112D01*
X188888Y292651D01*
X192205Y294025D01*
X195795Y294025D01*
X199112Y292651D01*
X201651Y290112D01*
X203025Y286795D01*
X203025Y283205D01*
X201651Y279888D01*
X199112Y277349D01*
X195795Y275975D01*
X192205Y275975D01*
G37*
%LPD*%
%LPC*%
G36*
X168205Y275975D02*
X168205Y275975D01*
X164888Y277349D01*
X162349Y279888D01*
X160975Y283205D01*
X160975Y286795D01*
X162349Y290112D01*
X164888Y292651D01*
X168205Y294025D01*
X171795Y294025D01*
X175112Y292651D01*
X177651Y290112D01*
X179025Y286795D01*
X179025Y283205D01*
X177651Y279888D01*
X175112Y277349D01*
X171795Y275975D01*
X168205Y275975D01*
G37*
%LPD*%
%LPC*%
G36*
X115012Y93201D02*
X115012Y93201D01*
X112201Y96012D01*
X112201Y99988D01*
X115012Y102799D01*
X118988Y102799D01*
X121462Y100325D01*
X121478Y100313D01*
X121490Y100298D01*
X121578Y100241D01*
X121661Y100181D01*
X121680Y100175D01*
X121697Y100165D01*
X121798Y100139D01*
X121897Y100109D01*
X121916Y100109D01*
X121936Y100104D01*
X122039Y100112D01*
X122142Y100115D01*
X122161Y100122D01*
X122181Y100124D01*
X122276Y100164D01*
X122373Y100200D01*
X122389Y100212D01*
X122407Y100220D01*
X122538Y100325D01*
X125012Y102799D01*
X128988Y102799D01*
X131799Y99988D01*
X131799Y96012D01*
X128988Y93201D01*
X125012Y93201D01*
X122538Y95675D01*
X122522Y95687D01*
X122510Y95702D01*
X122422Y95759D01*
X122339Y95819D01*
X122320Y95825D01*
X122303Y95835D01*
X122202Y95861D01*
X122103Y95891D01*
X122084Y95891D01*
X122064Y95896D01*
X121961Y95888D01*
X121858Y95885D01*
X121839Y95878D01*
X121819Y95876D01*
X121724Y95836D01*
X121627Y95800D01*
X121611Y95788D01*
X121593Y95780D01*
X121462Y95675D01*
X118988Y93201D01*
X115012Y93201D01*
G37*
%LPD*%
%LPC*%
G36*
X105012Y60201D02*
X105012Y60201D01*
X102201Y63012D01*
X102201Y66988D01*
X105012Y69799D01*
X108988Y69799D01*
X111462Y67325D01*
X111478Y67313D01*
X111490Y67298D01*
X111578Y67241D01*
X111661Y67181D01*
X111680Y67175D01*
X111697Y67165D01*
X111798Y67139D01*
X111897Y67109D01*
X111916Y67109D01*
X111936Y67104D01*
X112039Y67112D01*
X112142Y67115D01*
X112161Y67122D01*
X112181Y67124D01*
X112276Y67164D01*
X112373Y67200D01*
X112389Y67212D01*
X112407Y67220D01*
X112538Y67325D01*
X115012Y69799D01*
X118988Y69799D01*
X121799Y66988D01*
X121799Y63012D01*
X118988Y60201D01*
X115012Y60201D01*
X112538Y62675D01*
X112522Y62687D01*
X112510Y62702D01*
X112422Y62759D01*
X112339Y62819D01*
X112320Y62825D01*
X112303Y62835D01*
X112202Y62861D01*
X112103Y62891D01*
X112084Y62891D01*
X112064Y62896D01*
X111961Y62888D01*
X111858Y62885D01*
X111839Y62878D01*
X111819Y62876D01*
X111724Y62836D01*
X111627Y62800D01*
X111611Y62788D01*
X111593Y62780D01*
X111462Y62675D01*
X108988Y60201D01*
X105012Y60201D01*
G37*
%LPD*%
%LPC*%
G36*
X290012Y159800D02*
X290012Y159800D01*
X287201Y162611D01*
X287201Y166587D01*
X289076Y168462D01*
X289088Y168478D01*
X289103Y168490D01*
X289160Y168578D01*
X289220Y168661D01*
X289226Y168680D01*
X289236Y168697D01*
X289262Y168798D01*
X289292Y168897D01*
X289292Y168916D01*
X289297Y168936D01*
X289289Y169039D01*
X289286Y169142D01*
X289279Y169161D01*
X289277Y169181D01*
X289237Y169276D01*
X289201Y169373D01*
X289189Y169389D01*
X289181Y169407D01*
X289076Y169538D01*
X287201Y171413D01*
X287201Y175389D01*
X290012Y178200D01*
X293988Y178200D01*
X296799Y175389D01*
X296799Y171413D01*
X294924Y169538D01*
X294912Y169522D01*
X294897Y169510D01*
X294840Y169422D01*
X294780Y169339D01*
X294774Y169320D01*
X294764Y169303D01*
X294738Y169202D01*
X294708Y169103D01*
X294708Y169084D01*
X294703Y169064D01*
X294711Y168961D01*
X294714Y168858D01*
X294721Y168839D01*
X294723Y168819D01*
X294763Y168724D01*
X294799Y168627D01*
X294811Y168611D01*
X294819Y168593D01*
X294924Y168462D01*
X296799Y166587D01*
X296799Y162611D01*
X293988Y159800D01*
X290012Y159800D01*
G37*
%LPD*%
%LPC*%
G36*
X159203Y178392D02*
X159203Y178392D01*
X156392Y181203D01*
X156392Y185178D01*
X159203Y187989D01*
X162440Y187989D01*
X162460Y187992D01*
X162479Y187990D01*
X162581Y188012D01*
X162683Y188029D01*
X162700Y188038D01*
X162720Y188042D01*
X162809Y188095D01*
X162900Y188144D01*
X162914Y188158D01*
X162931Y188168D01*
X162998Y188247D01*
X163070Y188322D01*
X163078Y188340D01*
X163091Y188355D01*
X163130Y188452D01*
X163173Y188545D01*
X163175Y188565D01*
X163183Y188584D01*
X163201Y188750D01*
X163201Y189988D01*
X166012Y192799D01*
X169988Y192799D01*
X172799Y189988D01*
X172799Y186012D01*
X169988Y183201D01*
X166750Y183201D01*
X166731Y183198D01*
X166711Y183200D01*
X166610Y183178D01*
X166507Y183162D01*
X166490Y183152D01*
X166470Y183148D01*
X166381Y183095D01*
X166290Y183046D01*
X166276Y183032D01*
X166259Y183022D01*
X166192Y182943D01*
X166121Y182868D01*
X166112Y182850D01*
X166099Y182835D01*
X166061Y182739D01*
X166017Y182645D01*
X166015Y182625D01*
X166007Y182607D01*
X165989Y182440D01*
X165989Y181203D01*
X163178Y178392D01*
X159203Y178392D01*
G37*
%LPD*%
%LPC*%
G36*
X192797Y61951D02*
X192797Y61951D01*
X190574Y62872D01*
X188872Y64574D01*
X187951Y66797D01*
X187951Y69203D01*
X188872Y71426D01*
X190574Y73128D01*
X192797Y74049D01*
X195203Y74049D01*
X197426Y73128D01*
X199128Y71426D01*
X200049Y69203D01*
X200049Y66797D01*
X199128Y64574D01*
X197426Y62872D01*
X195203Y61951D01*
X192797Y61951D01*
G37*
%LPD*%
%LPC*%
G36*
X17012Y95201D02*
X17012Y95201D01*
X14201Y98012D01*
X14201Y101988D01*
X17012Y104799D01*
X20988Y104799D01*
X23799Y101988D01*
X23799Y98012D01*
X20988Y95201D01*
X17012Y95201D01*
G37*
%LPD*%
%LPC*%
G36*
X279012Y136201D02*
X279012Y136201D01*
X276201Y139012D01*
X276201Y142988D01*
X279012Y145799D01*
X282988Y145799D01*
X285799Y142988D01*
X285799Y139012D01*
X282988Y136201D01*
X279012Y136201D01*
G37*
%LPD*%
%LPC*%
G36*
X189012Y131201D02*
X189012Y131201D01*
X186201Y134012D01*
X186201Y137988D01*
X189012Y140799D01*
X192988Y140799D01*
X195799Y137988D01*
X195799Y134012D01*
X192988Y131201D01*
X189012Y131201D01*
G37*
%LPD*%
%LPC*%
G36*
X228964Y127273D02*
X228964Y127273D01*
X226153Y130084D01*
X226153Y134060D01*
X228964Y136871D01*
X232940Y136871D01*
X235751Y134060D01*
X235751Y130084D01*
X232940Y127273D01*
X228964Y127273D01*
G37*
%LPD*%
%LPC*%
G36*
X96012Y125201D02*
X96012Y125201D01*
X93201Y128012D01*
X93201Y131988D01*
X96012Y134799D01*
X99988Y134799D01*
X102799Y131988D01*
X102799Y128012D01*
X99988Y125201D01*
X96012Y125201D01*
G37*
%LPD*%
%LPC*%
G36*
X84597Y125201D02*
X84597Y125201D01*
X81786Y128012D01*
X81786Y131988D01*
X84597Y134799D01*
X88572Y134799D01*
X91383Y131988D01*
X91383Y128012D01*
X88572Y125201D01*
X84597Y125201D01*
G37*
%LPD*%
%LPC*%
G36*
X73181Y125201D02*
X73181Y125201D01*
X70370Y128012D01*
X70370Y131988D01*
X73181Y134799D01*
X77157Y134799D01*
X79968Y131988D01*
X79968Y128012D01*
X77157Y125201D01*
X73181Y125201D01*
G37*
%LPD*%
%LPC*%
G36*
X237036Y119201D02*
X237036Y119201D01*
X234225Y122012D01*
X234225Y125988D01*
X237036Y128799D01*
X241012Y128799D01*
X243823Y125988D01*
X243823Y122012D01*
X241012Y119201D01*
X237036Y119201D01*
G37*
%LPD*%
%LPC*%
G36*
X220892Y119201D02*
X220892Y119201D01*
X218081Y122012D01*
X218081Y125988D01*
X220892Y128799D01*
X224868Y128799D01*
X227679Y125988D01*
X227679Y122012D01*
X224868Y119201D01*
X220892Y119201D01*
G37*
%LPD*%
%LPC*%
G36*
X119012Y114201D02*
X119012Y114201D01*
X116201Y117012D01*
X116201Y120988D01*
X119012Y123799D01*
X122988Y123799D01*
X125799Y120988D01*
X125799Y117012D01*
X122988Y114201D01*
X119012Y114201D01*
G37*
%LPD*%
%LPC*%
G36*
X124012Y258201D02*
X124012Y258201D01*
X121201Y261012D01*
X121201Y264988D01*
X124012Y267799D01*
X127988Y267799D01*
X130799Y264988D01*
X130799Y261012D01*
X127988Y258201D01*
X124012Y258201D01*
G37*
%LPD*%
%LPC*%
G36*
X246012Y263201D02*
X246012Y263201D01*
X243201Y266012D01*
X243201Y269988D01*
X246012Y272799D01*
X249988Y272799D01*
X252799Y269988D01*
X252799Y266012D01*
X249988Y263201D01*
X246012Y263201D01*
G37*
%LPD*%
%LPC*%
G36*
X161012Y95201D02*
X161012Y95201D01*
X158201Y98012D01*
X158201Y101988D01*
X161012Y104799D01*
X164988Y104799D01*
X167799Y101988D01*
X167799Y98012D01*
X164988Y95201D01*
X161012Y95201D01*
G37*
%LPD*%
%LPC*%
G36*
X91012Y145201D02*
X91012Y145201D01*
X88201Y148012D01*
X88201Y151988D01*
X91012Y154799D01*
X94988Y154799D01*
X97799Y151988D01*
X97799Y148012D01*
X94988Y145201D01*
X91012Y145201D01*
G37*
%LPD*%
%LPC*%
G36*
X88012Y92201D02*
X88012Y92201D01*
X85201Y95012D01*
X85201Y98988D01*
X88012Y101799D01*
X91988Y101799D01*
X94799Y98988D01*
X94799Y95012D01*
X91988Y92201D01*
X88012Y92201D01*
G37*
%LPD*%
%LPC*%
G36*
X62012Y82201D02*
X62012Y82201D01*
X59201Y85012D01*
X59201Y88988D01*
X62012Y91799D01*
X65988Y91799D01*
X68799Y88988D01*
X68799Y85012D01*
X65988Y82201D01*
X62012Y82201D01*
G37*
%LPD*%
%LPC*%
G36*
X17012Y75201D02*
X17012Y75201D01*
X14201Y78012D01*
X14201Y81988D01*
X17012Y84799D01*
X20988Y84799D01*
X23799Y81988D01*
X23799Y78012D01*
X20988Y75201D01*
X17012Y75201D01*
G37*
%LPD*%
%LPC*%
G36*
X154012Y72201D02*
X154012Y72201D01*
X151201Y75012D01*
X151201Y78988D01*
X154012Y81799D01*
X157988Y81799D01*
X160799Y78988D01*
X160799Y75012D01*
X157988Y72201D01*
X154012Y72201D01*
G37*
%LPD*%
%LPC*%
G36*
X230012Y70201D02*
X230012Y70201D01*
X227201Y73012D01*
X227201Y76988D01*
X230012Y79799D01*
X233988Y79799D01*
X236799Y76988D01*
X236799Y73012D01*
X233988Y70201D01*
X230012Y70201D01*
G37*
%LPD*%
%LPC*%
G36*
X296012Y63201D02*
X296012Y63201D01*
X293201Y66012D01*
X293201Y69988D01*
X296012Y72799D01*
X299988Y72799D01*
X302799Y69988D01*
X302799Y66012D01*
X299988Y63201D01*
X296012Y63201D01*
G37*
%LPD*%
%LPC*%
G36*
X106012Y272201D02*
X106012Y272201D01*
X103201Y275012D01*
X103201Y278988D01*
X106012Y281799D01*
X109988Y281799D01*
X112799Y278988D01*
X112799Y275012D01*
X109988Y272201D01*
X106012Y272201D01*
G37*
%LPD*%
%LPC*%
G36*
X195012Y175201D02*
X195012Y175201D01*
X192201Y178012D01*
X192201Y181988D01*
X195012Y184799D01*
X198988Y184799D01*
X201799Y181988D01*
X201799Y178012D01*
X198988Y175201D01*
X195012Y175201D01*
G37*
%LPD*%
%LPC*%
G36*
X257012Y234201D02*
X257012Y234201D01*
X254201Y237012D01*
X254201Y240988D01*
X257012Y243799D01*
X260988Y243799D01*
X263799Y240988D01*
X263799Y237012D01*
X260988Y234201D01*
X257012Y234201D01*
G37*
%LPD*%
%LPC*%
G36*
X16012Y228201D02*
X16012Y228201D01*
X13201Y231012D01*
X13201Y234988D01*
X16012Y237799D01*
X19988Y237799D01*
X22799Y234988D01*
X22799Y231012D01*
X19988Y228201D01*
X16012Y228201D01*
G37*
%LPD*%
%LPC*%
G36*
X105012Y254201D02*
X105012Y254201D01*
X102201Y257012D01*
X102201Y260988D01*
X105012Y263799D01*
X108988Y263799D01*
X111799Y260988D01*
X111799Y257012D01*
X108988Y254201D01*
X105012Y254201D01*
G37*
%LPD*%
%LPC*%
G36*
X184012Y220201D02*
X184012Y220201D01*
X181201Y223012D01*
X181201Y226988D01*
X184012Y229799D01*
X187988Y229799D01*
X190799Y226988D01*
X190799Y223012D01*
X187988Y220201D01*
X184012Y220201D01*
G37*
%LPD*%
%LPC*%
G36*
X96012Y216201D02*
X96012Y216201D01*
X93201Y219012D01*
X93201Y222988D01*
X96012Y225799D01*
X99988Y225799D01*
X102799Y222988D01*
X102799Y219012D01*
X99988Y216201D01*
X96012Y216201D01*
G37*
%LPD*%
%LPC*%
G36*
X211012Y212201D02*
X211012Y212201D01*
X208201Y215012D01*
X208201Y218988D01*
X211012Y221799D01*
X214988Y221799D01*
X217799Y218988D01*
X217799Y215012D01*
X214988Y212201D01*
X211012Y212201D01*
G37*
%LPD*%
%LPC*%
G36*
X16012Y208201D02*
X16012Y208201D01*
X13201Y211012D01*
X13201Y214988D01*
X16012Y217799D01*
X19988Y217799D01*
X22799Y214988D01*
X22799Y211012D01*
X19988Y208201D01*
X16012Y208201D01*
G37*
%LPD*%
%LPC*%
G36*
X205012Y195201D02*
X205012Y195201D01*
X202201Y198012D01*
X202201Y201988D01*
X205012Y204799D01*
X208988Y204799D01*
X211799Y201988D01*
X211799Y198012D01*
X208988Y195201D01*
X205012Y195201D01*
G37*
%LPD*%
%LPC*%
G36*
X139012Y193201D02*
X139012Y193201D01*
X136201Y196012D01*
X136201Y199988D01*
X139012Y202799D01*
X142988Y202799D01*
X145799Y199988D01*
X145799Y196012D01*
X142988Y193201D01*
X139012Y193201D01*
G37*
%LPD*%
%LPC*%
G36*
X115012Y193201D02*
X115012Y193201D01*
X112201Y196012D01*
X112201Y199988D01*
X115012Y202799D01*
X118988Y202799D01*
X121799Y199988D01*
X121799Y196012D01*
X118988Y193201D01*
X115012Y193201D01*
G37*
%LPD*%
%LPC*%
G36*
X91012Y193201D02*
X91012Y193201D01*
X88201Y196012D01*
X88201Y199988D01*
X91012Y202799D01*
X94988Y202799D01*
X97799Y199988D01*
X97799Y196012D01*
X94988Y193201D01*
X91012Y193201D01*
G37*
%LPD*%
%LPC*%
G36*
X16012Y188201D02*
X16012Y188201D01*
X13201Y191012D01*
X13201Y194988D01*
X16012Y197799D01*
X19988Y197799D01*
X22799Y194988D01*
X22799Y191012D01*
X19988Y188201D01*
X16012Y188201D01*
G37*
%LPD*%
%LPC*%
G36*
X115012Y145201D02*
X115012Y145201D01*
X112201Y148012D01*
X112201Y151988D01*
X115012Y154799D01*
X118988Y154799D01*
X121799Y151988D01*
X121799Y148012D01*
X118988Y145201D01*
X115012Y145201D01*
G37*
%LPD*%
%LPC*%
G36*
X139012Y169201D02*
X139012Y169201D01*
X136201Y172012D01*
X136201Y175988D01*
X139012Y178799D01*
X142988Y178799D01*
X145799Y175988D01*
X145799Y172012D01*
X142988Y169201D01*
X139012Y169201D01*
G37*
%LPD*%
%LPC*%
G36*
X115012Y169201D02*
X115012Y169201D01*
X112201Y172012D01*
X112201Y175988D01*
X115012Y178799D01*
X118988Y178799D01*
X121799Y175988D01*
X121799Y172012D01*
X118988Y169201D01*
X115012Y169201D01*
G37*
%LPD*%
%LPC*%
G36*
X91012Y169201D02*
X91012Y169201D01*
X88201Y172012D01*
X88201Y175988D01*
X91012Y178799D01*
X94988Y178799D01*
X97799Y175988D01*
X97799Y172012D01*
X94988Y169201D01*
X91012Y169201D01*
G37*
%LPD*%
%LPC*%
G36*
X66012Y168201D02*
X66012Y168201D01*
X63201Y171012D01*
X63201Y174988D01*
X66012Y177799D01*
X69988Y177799D01*
X72799Y174988D01*
X72799Y171012D01*
X69988Y168201D01*
X66012Y168201D01*
G37*
%LPD*%
%LPC*%
G36*
X16012Y168201D02*
X16012Y168201D01*
X13201Y171012D01*
X13201Y174988D01*
X16012Y177799D01*
X19988Y177799D01*
X22799Y174988D01*
X22799Y171012D01*
X19988Y168201D01*
X16012Y168201D01*
G37*
%LPD*%
%LPC*%
G36*
X164012Y161201D02*
X164012Y161201D01*
X161201Y164012D01*
X161201Y167988D01*
X164012Y170799D01*
X167988Y170799D01*
X170799Y167988D01*
X170799Y164012D01*
X167988Y161201D01*
X164012Y161201D01*
G37*
%LPD*%
%LPC*%
G36*
X67012Y154201D02*
X67012Y154201D01*
X64201Y157012D01*
X64201Y160988D01*
X67012Y163799D01*
X70988Y163799D01*
X73799Y160988D01*
X73799Y157012D01*
X70988Y154201D01*
X67012Y154201D01*
G37*
%LPD*%
%LPC*%
G36*
X161012Y147201D02*
X161012Y147201D01*
X158201Y150012D01*
X158201Y153988D01*
X161012Y156799D01*
X164988Y156799D01*
X167799Y153988D01*
X167799Y150012D01*
X164988Y147201D01*
X161012Y147201D01*
G37*
%LPD*%
%LPC*%
G36*
X16012Y147201D02*
X16012Y147201D01*
X13201Y150012D01*
X13201Y153988D01*
X16012Y156799D01*
X19988Y156799D01*
X22799Y153988D01*
X22799Y150012D01*
X19988Y147201D01*
X16012Y147201D01*
G37*
%LPD*%
%LPC*%
G36*
X139012Y145201D02*
X139012Y145201D01*
X136201Y148012D01*
X136201Y151988D01*
X139012Y154799D01*
X142988Y154799D01*
X145799Y151988D01*
X145799Y148012D01*
X142988Y145201D01*
X139012Y145201D01*
G37*
%LPD*%
%LPC*%
G36*
X131012Y248201D02*
X131012Y248201D01*
X128201Y251012D01*
X128201Y254988D01*
X131012Y257799D01*
X134988Y257799D01*
X137799Y254988D01*
X137799Y251012D01*
X134988Y248201D01*
X131012Y248201D01*
G37*
%LPD*%
D10*
X30000Y30000D03*
X290000Y30000D03*
X290000Y270000D03*
X30000Y270000D03*
D11*
X179000Y239000D03*
X248000Y268000D03*
X259000Y239000D03*
X18000Y152000D03*
X18000Y173000D03*
X18000Y193000D03*
X18000Y213000D03*
X19000Y80000D03*
X90000Y97000D03*
X19000Y100000D03*
X207000Y111000D03*
X298000Y68000D03*
X232000Y75000D03*
X141000Y150000D03*
X141000Y174000D03*
X141000Y198000D03*
X117000Y198000D03*
X117000Y174000D03*
X117000Y150000D03*
X93000Y150000D03*
X93000Y174000D03*
X93000Y198000D03*
X186000Y225000D03*
X166000Y166000D03*
X163000Y152000D03*
X121000Y119000D03*
X108000Y277000D03*
X107000Y259000D03*
X18000Y233000D03*
X197000Y180000D03*
X213000Y217000D03*
X127000Y98000D03*
X107000Y65000D03*
D12*
X194000Y68000D03*
D11*
X281000Y141000D03*
D13*
X186000Y32000D03*
D11*
X163000Y100000D03*
X191000Y136000D03*
X80000Y288000D03*
X221000Y224000D03*
X56000Y164000D03*
X58000Y132000D03*
X174000Y141000D03*
X228000Y273000D03*
D12*
X211000Y143000D03*
D11*
X46000Y70000D03*
X46000Y119000D03*
X252000Y138000D03*
X281000Y130000D03*
X149000Y109000D03*
X57000Y105000D03*
D12*
X250000Y68000D03*
D13*
X222000Y32000D03*
D12*
X215000Y68000D03*
D11*
X292000Y173401D03*
X168000Y188000D03*
X141000Y229000D03*
X173000Y247000D03*
D13*
X194000Y285000D03*
D11*
X152000Y230000D03*
X168536Y239036D03*
D13*
X170000Y285000D03*
D11*
X171000Y219000D03*
X126000Y263000D03*
X133000Y253000D03*
X160072Y219000D03*
X152000Y221000D03*
X179000Y253000D03*
D13*
X220000Y285000D03*
D11*
X70000Y113000D03*
X69000Y159000D03*
X64000Y87000D03*
X68000Y173000D03*
X117000Y98000D03*
X117000Y65000D03*
D13*
X117000Y32000D03*
X140000Y32000D03*
D11*
X222880Y124000D03*
X98000Y130000D03*
X239024Y124000D03*
X75169Y130000D03*
X230952Y132072D03*
X86584Y130000D03*
X207000Y200000D03*
X98000Y221000D03*
X292000Y164599D03*
X161190Y183190D03*
X264000Y112000D03*
X156000Y77000D03*
D13*
X94000Y32000D03*
M02*
