G04 EAGLE Gerber RS-274X export*
G75*
%MOMM*%
%FSLAX34Y34*%
%LPD*%
%INSolderpaste Top*%
%IPPOS*%
%AMOC8*
5,1,8,0,0,1.08239X$1,22.5*%
G01*
%ADD10R,1.100000X1.000000*%
%ADD11R,1.000000X1.100000*%
%ADD12R,0.350000X0.230000*%
%ADD13R,0.230000X0.350000*%
%ADD14R,0.812800X0.304800*%
%ADD15R,0.304800X0.812800*%
%ADD16R,0.750000X0.850000*%
%ADD17R,1.000000X1.800000*%
%ADD18R,0.800000X0.400000*%
%ADD19R,1.360000X1.460000*%
%ADD20R,0.750000X0.300000*%
%ADD21R,0.600000X1.550000*%
%ADD22R,1.200000X1.800000*%
%ADD23R,1.800000X2.400000*%
%ADD24R,0.800000X0.800000*%
%ADD25R,1.550000X0.600000*%
%ADD26R,1.800000X1.200000*%

G36*
X101778Y189099D02*
X101778Y189099D01*
X101780Y189098D01*
X101823Y189118D01*
X101867Y189136D01*
X101867Y189138D01*
X101869Y189139D01*
X101902Y189224D01*
X101902Y201448D01*
X101901Y201450D01*
X101902Y201452D01*
X101882Y201495D01*
X101864Y201539D01*
X101862Y201539D01*
X101861Y201541D01*
X101776Y201574D01*
X89552Y201574D01*
X89550Y201573D01*
X89548Y201574D01*
X89505Y201554D01*
X89461Y201536D01*
X89461Y201534D01*
X89459Y201533D01*
X89426Y201448D01*
X89426Y189224D01*
X89427Y189222D01*
X89426Y189220D01*
X89446Y189177D01*
X89464Y189133D01*
X89466Y189133D01*
X89467Y189131D01*
X89552Y189098D01*
X101776Y189098D01*
X101778Y189099D01*
G37*
G36*
X144450Y189099D02*
X144450Y189099D01*
X144452Y189098D01*
X144495Y189118D01*
X144539Y189136D01*
X144539Y189138D01*
X144541Y189139D01*
X144574Y189224D01*
X144574Y201448D01*
X144573Y201450D01*
X144574Y201452D01*
X144554Y201495D01*
X144536Y201539D01*
X144534Y201539D01*
X144533Y201541D01*
X144448Y201574D01*
X132224Y201574D01*
X132222Y201573D01*
X132220Y201574D01*
X132177Y201554D01*
X132133Y201536D01*
X132133Y201534D01*
X132131Y201533D01*
X132098Y201448D01*
X132098Y189224D01*
X132099Y189222D01*
X132098Y189220D01*
X132118Y189177D01*
X132136Y189133D01*
X132138Y189133D01*
X132139Y189131D01*
X132224Y189098D01*
X144448Y189098D01*
X144450Y189099D01*
G37*
G36*
X130226Y189099D02*
X130226Y189099D01*
X130228Y189098D01*
X130271Y189118D01*
X130315Y189136D01*
X130315Y189138D01*
X130317Y189139D01*
X130350Y189224D01*
X130350Y201448D01*
X130349Y201450D01*
X130350Y201452D01*
X130330Y201495D01*
X130312Y201539D01*
X130310Y201539D01*
X130309Y201541D01*
X130224Y201574D01*
X118000Y201574D01*
X117998Y201573D01*
X117996Y201574D01*
X117953Y201554D01*
X117909Y201536D01*
X117909Y201534D01*
X117907Y201533D01*
X117874Y201448D01*
X117874Y189224D01*
X117875Y189222D01*
X117874Y189220D01*
X117894Y189177D01*
X117912Y189133D01*
X117914Y189133D01*
X117915Y189131D01*
X118000Y189098D01*
X130224Y189098D01*
X130226Y189099D01*
G37*
G36*
X116002Y189099D02*
X116002Y189099D01*
X116004Y189098D01*
X116047Y189118D01*
X116091Y189136D01*
X116091Y189138D01*
X116093Y189139D01*
X116126Y189224D01*
X116126Y201448D01*
X116125Y201450D01*
X116126Y201452D01*
X116106Y201495D01*
X116088Y201539D01*
X116086Y201539D01*
X116085Y201541D01*
X116000Y201574D01*
X103776Y201574D01*
X103774Y201573D01*
X103772Y201574D01*
X103729Y201554D01*
X103685Y201536D01*
X103685Y201534D01*
X103683Y201533D01*
X103650Y201448D01*
X103650Y189224D01*
X103651Y189222D01*
X103650Y189220D01*
X103670Y189177D01*
X103688Y189133D01*
X103690Y189133D01*
X103691Y189131D01*
X103776Y189098D01*
X116000Y189098D01*
X116002Y189099D01*
G37*
G36*
X116002Y174875D02*
X116002Y174875D01*
X116004Y174874D01*
X116047Y174894D01*
X116091Y174912D01*
X116091Y174914D01*
X116093Y174915D01*
X116126Y175000D01*
X116126Y187224D01*
X116125Y187226D01*
X116126Y187228D01*
X116106Y187271D01*
X116088Y187315D01*
X116086Y187315D01*
X116085Y187317D01*
X116000Y187350D01*
X103776Y187350D01*
X103774Y187349D01*
X103772Y187350D01*
X103729Y187330D01*
X103685Y187312D01*
X103685Y187310D01*
X103683Y187309D01*
X103650Y187224D01*
X103650Y175000D01*
X103651Y174998D01*
X103650Y174996D01*
X103670Y174953D01*
X103688Y174909D01*
X103690Y174909D01*
X103691Y174907D01*
X103776Y174874D01*
X116000Y174874D01*
X116002Y174875D01*
G37*
G36*
X130226Y174875D02*
X130226Y174875D01*
X130228Y174874D01*
X130271Y174894D01*
X130315Y174912D01*
X130315Y174914D01*
X130317Y174915D01*
X130350Y175000D01*
X130350Y187224D01*
X130349Y187226D01*
X130350Y187228D01*
X130330Y187271D01*
X130312Y187315D01*
X130310Y187315D01*
X130309Y187317D01*
X130224Y187350D01*
X118000Y187350D01*
X117998Y187349D01*
X117996Y187350D01*
X117953Y187330D01*
X117909Y187312D01*
X117909Y187310D01*
X117907Y187309D01*
X117874Y187224D01*
X117874Y175000D01*
X117875Y174998D01*
X117874Y174996D01*
X117894Y174953D01*
X117912Y174909D01*
X117914Y174909D01*
X117915Y174907D01*
X118000Y174874D01*
X130224Y174874D01*
X130226Y174875D01*
G37*
G36*
X144450Y174875D02*
X144450Y174875D01*
X144452Y174874D01*
X144495Y174894D01*
X144539Y174912D01*
X144539Y174914D01*
X144541Y174915D01*
X144574Y175000D01*
X144574Y187224D01*
X144573Y187226D01*
X144574Y187228D01*
X144554Y187271D01*
X144536Y187315D01*
X144534Y187315D01*
X144533Y187317D01*
X144448Y187350D01*
X132224Y187350D01*
X132222Y187349D01*
X132220Y187350D01*
X132177Y187330D01*
X132133Y187312D01*
X132133Y187310D01*
X132131Y187309D01*
X132098Y187224D01*
X132098Y175000D01*
X132099Y174998D01*
X132098Y174996D01*
X132118Y174953D01*
X132136Y174909D01*
X132138Y174909D01*
X132139Y174907D01*
X132224Y174874D01*
X144448Y174874D01*
X144450Y174875D01*
G37*
G36*
X101778Y174875D02*
X101778Y174875D01*
X101780Y174874D01*
X101823Y174894D01*
X101867Y174912D01*
X101867Y174914D01*
X101869Y174915D01*
X101902Y175000D01*
X101902Y187224D01*
X101901Y187226D01*
X101902Y187228D01*
X101882Y187271D01*
X101864Y187315D01*
X101862Y187315D01*
X101861Y187317D01*
X101776Y187350D01*
X89552Y187350D01*
X89550Y187349D01*
X89548Y187350D01*
X89505Y187330D01*
X89461Y187312D01*
X89461Y187310D01*
X89459Y187309D01*
X89426Y187224D01*
X89426Y175000D01*
X89427Y174998D01*
X89426Y174996D01*
X89446Y174953D01*
X89464Y174909D01*
X89466Y174909D01*
X89467Y174907D01*
X89552Y174874D01*
X101776Y174874D01*
X101778Y174875D01*
G37*
G36*
X116002Y160651D02*
X116002Y160651D01*
X116004Y160650D01*
X116047Y160670D01*
X116091Y160688D01*
X116091Y160690D01*
X116093Y160691D01*
X116126Y160776D01*
X116126Y173000D01*
X116125Y173002D01*
X116126Y173004D01*
X116106Y173047D01*
X116088Y173091D01*
X116086Y173091D01*
X116085Y173093D01*
X116000Y173126D01*
X103776Y173126D01*
X103774Y173125D01*
X103772Y173126D01*
X103729Y173106D01*
X103685Y173088D01*
X103685Y173086D01*
X103683Y173085D01*
X103650Y173000D01*
X103650Y160776D01*
X103651Y160774D01*
X103650Y160772D01*
X103670Y160729D01*
X103688Y160685D01*
X103690Y160685D01*
X103691Y160683D01*
X103776Y160650D01*
X116000Y160650D01*
X116002Y160651D01*
G37*
G36*
X101778Y160651D02*
X101778Y160651D01*
X101780Y160650D01*
X101823Y160670D01*
X101867Y160688D01*
X101867Y160690D01*
X101869Y160691D01*
X101902Y160776D01*
X101902Y173000D01*
X101901Y173002D01*
X101902Y173004D01*
X101882Y173047D01*
X101864Y173091D01*
X101862Y173091D01*
X101861Y173093D01*
X101776Y173126D01*
X89552Y173126D01*
X89550Y173125D01*
X89548Y173126D01*
X89505Y173106D01*
X89461Y173088D01*
X89461Y173086D01*
X89459Y173085D01*
X89426Y173000D01*
X89426Y160776D01*
X89427Y160774D01*
X89426Y160772D01*
X89446Y160729D01*
X89464Y160685D01*
X89466Y160685D01*
X89467Y160683D01*
X89552Y160650D01*
X101776Y160650D01*
X101778Y160651D01*
G37*
G36*
X130226Y160651D02*
X130226Y160651D01*
X130228Y160650D01*
X130271Y160670D01*
X130315Y160688D01*
X130315Y160690D01*
X130317Y160691D01*
X130350Y160776D01*
X130350Y173000D01*
X130349Y173002D01*
X130350Y173004D01*
X130330Y173047D01*
X130312Y173091D01*
X130310Y173091D01*
X130309Y173093D01*
X130224Y173126D01*
X118000Y173126D01*
X117998Y173125D01*
X117996Y173126D01*
X117953Y173106D01*
X117909Y173088D01*
X117909Y173086D01*
X117907Y173085D01*
X117874Y173000D01*
X117874Y160776D01*
X117875Y160774D01*
X117874Y160772D01*
X117894Y160729D01*
X117912Y160685D01*
X117914Y160685D01*
X117915Y160683D01*
X118000Y160650D01*
X130224Y160650D01*
X130226Y160651D01*
G37*
G36*
X144450Y160651D02*
X144450Y160651D01*
X144452Y160650D01*
X144495Y160670D01*
X144539Y160688D01*
X144539Y160690D01*
X144541Y160691D01*
X144574Y160776D01*
X144574Y173000D01*
X144573Y173002D01*
X144574Y173004D01*
X144554Y173047D01*
X144536Y173091D01*
X144534Y173091D01*
X144533Y173093D01*
X144448Y173126D01*
X132224Y173126D01*
X132222Y173125D01*
X132220Y173126D01*
X132177Y173106D01*
X132133Y173088D01*
X132133Y173086D01*
X132131Y173085D01*
X132098Y173000D01*
X132098Y160776D01*
X132099Y160774D01*
X132098Y160772D01*
X132118Y160729D01*
X132136Y160685D01*
X132138Y160685D01*
X132139Y160683D01*
X132224Y160650D01*
X144448Y160650D01*
X144450Y160651D01*
G37*
G36*
X130226Y146427D02*
X130226Y146427D01*
X130228Y146426D01*
X130271Y146446D01*
X130315Y146464D01*
X130315Y146466D01*
X130317Y146467D01*
X130350Y146552D01*
X130350Y158776D01*
X130349Y158778D01*
X130350Y158780D01*
X130330Y158823D01*
X130312Y158867D01*
X130310Y158867D01*
X130309Y158869D01*
X130224Y158902D01*
X118000Y158902D01*
X117998Y158901D01*
X117996Y158902D01*
X117953Y158882D01*
X117909Y158864D01*
X117909Y158862D01*
X117907Y158861D01*
X117874Y158776D01*
X117874Y146552D01*
X117875Y146550D01*
X117874Y146548D01*
X117894Y146505D01*
X117912Y146461D01*
X117914Y146461D01*
X117915Y146459D01*
X118000Y146426D01*
X130224Y146426D01*
X130226Y146427D01*
G37*
G36*
X101778Y146427D02*
X101778Y146427D01*
X101780Y146426D01*
X101823Y146446D01*
X101867Y146464D01*
X101867Y146466D01*
X101869Y146467D01*
X101902Y146552D01*
X101902Y158776D01*
X101901Y158778D01*
X101902Y158780D01*
X101882Y158823D01*
X101864Y158867D01*
X101862Y158867D01*
X101861Y158869D01*
X101776Y158902D01*
X89552Y158902D01*
X89550Y158901D01*
X89548Y158902D01*
X89505Y158882D01*
X89461Y158864D01*
X89461Y158862D01*
X89459Y158861D01*
X89426Y158776D01*
X89426Y146552D01*
X89427Y146550D01*
X89426Y146548D01*
X89446Y146505D01*
X89464Y146461D01*
X89466Y146461D01*
X89467Y146459D01*
X89552Y146426D01*
X101776Y146426D01*
X101778Y146427D01*
G37*
G36*
X116002Y146427D02*
X116002Y146427D01*
X116004Y146426D01*
X116047Y146446D01*
X116091Y146464D01*
X116091Y146466D01*
X116093Y146467D01*
X116126Y146552D01*
X116126Y158776D01*
X116125Y158778D01*
X116126Y158780D01*
X116106Y158823D01*
X116088Y158867D01*
X116086Y158867D01*
X116085Y158869D01*
X116000Y158902D01*
X103776Y158902D01*
X103774Y158901D01*
X103772Y158902D01*
X103729Y158882D01*
X103685Y158864D01*
X103685Y158862D01*
X103683Y158861D01*
X103650Y158776D01*
X103650Y146552D01*
X103651Y146550D01*
X103650Y146548D01*
X103670Y146505D01*
X103688Y146461D01*
X103690Y146461D01*
X103691Y146459D01*
X103776Y146426D01*
X116000Y146426D01*
X116002Y146427D01*
G37*
G36*
X144450Y146427D02*
X144450Y146427D01*
X144452Y146426D01*
X144495Y146446D01*
X144539Y146464D01*
X144539Y146466D01*
X144541Y146467D01*
X144574Y146552D01*
X144574Y158776D01*
X144573Y158778D01*
X144574Y158780D01*
X144554Y158823D01*
X144536Y158867D01*
X144534Y158867D01*
X144533Y158869D01*
X144448Y158902D01*
X132224Y158902D01*
X132222Y158901D01*
X132220Y158902D01*
X132177Y158882D01*
X132133Y158864D01*
X132133Y158862D01*
X132131Y158861D01*
X132098Y158776D01*
X132098Y146552D01*
X132099Y146550D01*
X132098Y146548D01*
X132118Y146505D01*
X132136Y146461D01*
X132138Y146461D01*
X132139Y146459D01*
X132224Y146426D01*
X144448Y146426D01*
X144450Y146427D01*
G37*
D10*
X248500Y256000D03*
X231500Y256000D03*
X46500Y152000D03*
X29500Y152000D03*
X148500Y119000D03*
X131500Y119000D03*
X46500Y132000D03*
X29500Y132000D03*
X46500Y233000D03*
X29500Y233000D03*
D11*
X97000Y241500D03*
X97000Y258500D03*
D10*
X80500Y277000D03*
X97500Y277000D03*
X231500Y219000D03*
X248500Y219000D03*
X231500Y239000D03*
X248500Y239000D03*
D11*
X203000Y217500D03*
X203000Y234500D03*
D10*
X216500Y262000D03*
X199500Y262000D03*
X46500Y193000D03*
X29500Y193000D03*
X46500Y213000D03*
X29500Y213000D03*
X46500Y173000D03*
X29500Y173000D03*
D11*
X79300Y258900D03*
X79300Y241900D03*
D12*
X186250Y262050D03*
D13*
X180450Y261750D03*
X176150Y261750D03*
X171850Y261750D03*
X167550Y261750D03*
D12*
X161750Y262050D03*
X161750Y257750D03*
X161750Y253450D03*
X161750Y249150D03*
X161750Y244850D03*
X161750Y240550D03*
X161750Y236250D03*
X161750Y231950D03*
D13*
X167550Y232250D03*
X171850Y232250D03*
X176150Y232250D03*
X180450Y232250D03*
D12*
X186250Y231950D03*
X186250Y236250D03*
X186250Y240550D03*
X186250Y244850D03*
X186250Y249150D03*
X186250Y253450D03*
X186250Y257750D03*
D14*
X151544Y146500D03*
X151544Y151500D03*
X151544Y156500D03*
X151544Y161500D03*
X151544Y166500D03*
X151544Y171500D03*
X151544Y176500D03*
X151544Y181500D03*
X151544Y186500D03*
X151544Y191500D03*
X151544Y196500D03*
X151544Y201500D03*
D15*
X144500Y208544D03*
X139500Y208544D03*
X134500Y208544D03*
X129500Y208544D03*
X124500Y208544D03*
X119500Y208544D03*
X114500Y208544D03*
X109500Y208544D03*
X104500Y208544D03*
X99500Y208544D03*
X94500Y208544D03*
X89500Y208544D03*
D14*
X82456Y201500D03*
X82456Y196500D03*
X82456Y191500D03*
X82456Y186500D03*
X82456Y181500D03*
X82456Y176500D03*
X82456Y171500D03*
X82456Y166500D03*
X82456Y161500D03*
X82456Y156500D03*
X82456Y151500D03*
X82456Y146500D03*
D15*
X89500Y139456D03*
X94500Y139456D03*
X99500Y139456D03*
X104500Y139456D03*
X109500Y139456D03*
X114500Y139456D03*
X119500Y139456D03*
X124500Y139456D03*
X129500Y139456D03*
X134500Y139456D03*
X139500Y139456D03*
X144500Y139456D03*
D16*
X177750Y183750D03*
X177750Y170250D03*
X188250Y170250D03*
X188250Y183750D03*
D10*
X191500Y152000D03*
X174500Y152000D03*
X174500Y202000D03*
X191500Y202000D03*
X174500Y125000D03*
X191500Y125000D03*
D17*
X223000Y89000D03*
D18*
X234000Y95500D03*
X234000Y89000D03*
X234000Y82500D03*
X212000Y82500D03*
X212000Y89000D03*
X212000Y95500D03*
D10*
X234500Y108000D03*
X217500Y108000D03*
D11*
X174000Y84500D03*
X174000Y101500D03*
X194000Y101500D03*
X194000Y84500D03*
D19*
X90000Y97000D03*
D20*
X75000Y89500D03*
X75000Y94500D03*
X75000Y99500D03*
X75000Y104500D03*
X105000Y104500D03*
X105000Y99500D03*
X105000Y94500D03*
X105000Y89500D03*
D10*
X46500Y80000D03*
X29500Y80000D03*
X46500Y100000D03*
X29500Y100000D03*
D21*
X117000Y52000D03*
X127000Y52000D03*
D22*
X140000Y13000D03*
X94000Y13000D03*
D21*
X107000Y52000D03*
D23*
X258750Y90000D03*
X299250Y90000D03*
D11*
X136500Y89000D03*
X153500Y89000D03*
D24*
X252000Y112000D03*
X252000Y128000D03*
D21*
X199000Y52000D03*
X209000Y52000D03*
D22*
X222000Y13000D03*
X186000Y13000D03*
D25*
X268250Y131000D03*
X268250Y141000D03*
X268250Y151000D03*
X268250Y161000D03*
X268250Y171000D03*
X268250Y181000D03*
X268250Y191000D03*
X268250Y201000D03*
D26*
X307000Y118000D03*
X307000Y214000D03*
M02*
