G04 EAGLE Gerber RS-274X export*
G75*
%MOMM*%
%FSLAX34Y34*%
%LPD*%
%IN*%
%IPPOS*%
%AMOC8*
5,1,8,0,0,1.08239X$1,22.5*%
G01*
%ADD10C,0.254000*%


D10*
X-1000Y21000D02*
X-920Y19170D01*
X-681Y17353D01*
X-284Y15565D01*
X266Y13818D01*
X968Y12125D01*
X1813Y10500D01*
X2798Y8955D01*
X3913Y7501D01*
X5151Y6151D01*
X6501Y4913D01*
X7955Y3798D01*
X9500Y2813D01*
X11125Y1968D01*
X12818Y1266D01*
X14565Y716D01*
X16353Y319D01*
X18170Y80D01*
X20000Y0D01*
X380000Y0D01*
X381743Y76D01*
X383473Y304D01*
X385177Y682D01*
X386841Y1206D01*
X388453Y1874D01*
X390000Y2680D01*
X390836Y3190D01*
X500836Y74093D01*
X502260Y75101D01*
X503590Y76230D01*
X504818Y77470D01*
X505932Y78813D01*
X506925Y80247D01*
X507789Y81763D01*
X508518Y83348D01*
X509106Y84991D01*
X509549Y86678D01*
X509843Y88398D01*
X509985Y90137D01*
X510000Y90903D01*
X510000Y309097D01*
X509924Y310840D01*
X509696Y312570D01*
X509319Y314273D01*
X508794Y315937D01*
X508126Y317549D01*
X507321Y319097D01*
X506383Y320568D01*
X505321Y321953D01*
X504142Y323239D01*
X502856Y324418D01*
X501472Y325480D01*
X500836Y325907D01*
X390836Y396810D01*
X389330Y397691D01*
X387752Y398436D01*
X386116Y399042D01*
X384433Y399502D01*
X382716Y399815D01*
X380979Y399976D01*
X380000Y400000D01*
X20000Y400000D01*
X18253Y400011D01*
X16512Y399870D01*
X14790Y399577D01*
X13099Y399136D01*
X11454Y398549D01*
X9866Y397821D01*
X8348Y396957D01*
X6910Y395964D01*
X5565Y394849D01*
X4322Y393622D01*
X3191Y392291D01*
X2180Y390866D01*
X1296Y389359D01*
X548Y387780D01*
X-60Y386142D01*
X-523Y384458D01*
X-837Y382739D01*
X-1000Y381000D01*
X-1000Y21000D01*
X30250Y379552D02*
X30172Y378661D01*
X30017Y377779D01*
X29785Y376915D01*
X29479Y376074D01*
X29101Y375263D01*
X28653Y374487D01*
X28140Y373754D01*
X27564Y373069D01*
X26931Y372436D01*
X26246Y371860D01*
X25513Y371347D01*
X24737Y370899D01*
X23926Y370521D01*
X23085Y370215D01*
X22221Y369983D01*
X21339Y369828D01*
X20448Y369750D01*
X19552Y369750D01*
X18661Y369828D01*
X17779Y369983D01*
X16915Y370215D01*
X16074Y370521D01*
X15263Y370899D01*
X14487Y371347D01*
X13754Y371860D01*
X13069Y372436D01*
X12436Y373069D01*
X11860Y373754D01*
X11347Y374487D01*
X10899Y375263D01*
X10521Y376074D01*
X10215Y376915D01*
X9983Y377779D01*
X9828Y378661D01*
X9750Y379552D01*
X9750Y380448D01*
X9828Y381339D01*
X9983Y382221D01*
X10215Y383085D01*
X10521Y383926D01*
X10899Y384737D01*
X11347Y385513D01*
X11860Y386246D01*
X12436Y386931D01*
X13069Y387564D01*
X13754Y388140D01*
X14487Y388653D01*
X15263Y389101D01*
X16074Y389479D01*
X16915Y389785D01*
X17779Y390017D01*
X18661Y390172D01*
X19552Y390250D01*
X20448Y390250D01*
X21339Y390172D01*
X22221Y390017D01*
X23085Y389785D01*
X23926Y389479D01*
X24737Y389101D01*
X25513Y388653D01*
X26246Y388140D01*
X26931Y387564D01*
X27564Y386931D01*
X28140Y386246D01*
X28653Y385513D01*
X29101Y384737D01*
X29479Y383926D01*
X29785Y383085D01*
X30017Y382221D01*
X30172Y381339D01*
X30250Y380448D01*
X30250Y379552D01*
X390250Y379552D02*
X390172Y378661D01*
X390017Y377779D01*
X389785Y376915D01*
X389479Y376074D01*
X389101Y375263D01*
X388653Y374487D01*
X388140Y373754D01*
X387564Y373069D01*
X386931Y372436D01*
X386246Y371860D01*
X385513Y371347D01*
X384737Y370899D01*
X383926Y370521D01*
X383085Y370215D01*
X382221Y369983D01*
X381339Y369828D01*
X380448Y369750D01*
X379552Y369750D01*
X378661Y369828D01*
X377779Y369983D01*
X376915Y370215D01*
X376074Y370521D01*
X375263Y370899D01*
X374487Y371347D01*
X373754Y371860D01*
X373069Y372436D01*
X372436Y373069D01*
X371860Y373754D01*
X371347Y374487D01*
X370899Y375263D01*
X370521Y376074D01*
X370215Y376915D01*
X369983Y377779D01*
X369828Y378661D01*
X369750Y379552D01*
X369750Y380448D01*
X369828Y381339D01*
X369983Y382221D01*
X370215Y383085D01*
X370521Y383926D01*
X370899Y384737D01*
X371347Y385513D01*
X371860Y386246D01*
X372436Y386931D01*
X373069Y387564D01*
X373754Y388140D01*
X374487Y388653D01*
X375263Y389101D01*
X376074Y389479D01*
X376915Y389785D01*
X377779Y390017D01*
X378661Y390172D01*
X379552Y390250D01*
X380448Y390250D01*
X381339Y390172D01*
X382221Y390017D01*
X383085Y389785D01*
X383926Y389479D01*
X384737Y389101D01*
X385513Y388653D01*
X386246Y388140D01*
X386931Y387564D01*
X387564Y386931D01*
X388140Y386246D01*
X388653Y385513D01*
X389101Y384737D01*
X389479Y383926D01*
X389785Y383085D01*
X390017Y382221D01*
X390172Y381339D01*
X390250Y380448D01*
X390250Y379552D01*
X390250Y19552D02*
X390172Y18661D01*
X390017Y17779D01*
X389785Y16915D01*
X389479Y16074D01*
X389101Y15263D01*
X388653Y14487D01*
X388140Y13754D01*
X387564Y13069D01*
X386931Y12436D01*
X386246Y11860D01*
X385513Y11347D01*
X384737Y10899D01*
X383926Y10521D01*
X383085Y10215D01*
X382221Y9983D01*
X381339Y9828D01*
X380448Y9750D01*
X379552Y9750D01*
X378661Y9828D01*
X377779Y9983D01*
X376915Y10215D01*
X376074Y10521D01*
X375263Y10899D01*
X374487Y11347D01*
X373754Y11860D01*
X373069Y12436D01*
X372436Y13069D01*
X371860Y13754D01*
X371347Y14487D01*
X370899Y15263D01*
X370521Y16074D01*
X370215Y16915D01*
X369983Y17779D01*
X369828Y18661D01*
X369750Y19552D01*
X369750Y20448D01*
X369828Y21339D01*
X369983Y22221D01*
X370215Y23085D01*
X370521Y23926D01*
X370899Y24737D01*
X371347Y25513D01*
X371860Y26246D01*
X372436Y26931D01*
X373069Y27564D01*
X373754Y28140D01*
X374487Y28653D01*
X375263Y29101D01*
X376074Y29479D01*
X376915Y29785D01*
X377779Y30017D01*
X378661Y30172D01*
X379552Y30250D01*
X380448Y30250D01*
X381339Y30172D01*
X382221Y30017D01*
X383085Y29785D01*
X383926Y29479D01*
X384737Y29101D01*
X385513Y28653D01*
X386246Y28140D01*
X386931Y27564D01*
X387564Y26931D01*
X388140Y26246D01*
X388653Y25513D01*
X389101Y24737D01*
X389479Y23926D01*
X389785Y23085D01*
X390017Y22221D01*
X390172Y21339D01*
X390250Y20448D01*
X390250Y19552D01*
X30250Y19552D02*
X30172Y18661D01*
X30017Y17779D01*
X29785Y16915D01*
X29479Y16074D01*
X29101Y15263D01*
X28653Y14487D01*
X28140Y13754D01*
X27564Y13069D01*
X26931Y12436D01*
X26246Y11860D01*
X25513Y11347D01*
X24737Y10899D01*
X23926Y10521D01*
X23085Y10215D01*
X22221Y9983D01*
X21339Y9828D01*
X20448Y9750D01*
X19552Y9750D01*
X18661Y9828D01*
X17779Y9983D01*
X16915Y10215D01*
X16074Y10521D01*
X15263Y10899D01*
X14487Y11347D01*
X13754Y11860D01*
X13069Y12436D01*
X12436Y13069D01*
X11860Y13754D01*
X11347Y14487D01*
X10899Y15263D01*
X10521Y16074D01*
X10215Y16915D01*
X9983Y17779D01*
X9828Y18661D01*
X9750Y19552D01*
X9750Y20448D01*
X9828Y21339D01*
X9983Y22221D01*
X10215Y23085D01*
X10521Y23926D01*
X10899Y24737D01*
X11347Y25513D01*
X11860Y26246D01*
X12436Y26931D01*
X13069Y27564D01*
X13754Y28140D01*
X14487Y28653D01*
X15263Y29101D01*
X16074Y29479D01*
X16915Y29785D01*
X17779Y30017D01*
X18661Y30172D01*
X19552Y30250D01*
X20448Y30250D01*
X21339Y30172D01*
X22221Y30017D01*
X23085Y29785D01*
X23926Y29479D01*
X24737Y29101D01*
X25513Y28653D01*
X26246Y28140D01*
X26931Y27564D01*
X27564Y26931D01*
X28140Y26246D01*
X28653Y25513D01*
X29101Y24737D01*
X29479Y23926D01*
X29785Y23085D01*
X30017Y22221D01*
X30172Y21339D01*
X30250Y20448D01*
X30250Y19552D01*
M02*
